<?xml version="1.0" encoding="UTF-8" standalone="no"?>
<svg
   xmlns:dc="http://purl.org/dc/elements/1.1/"
   xmlns:cc="http://creativecommons.org/ns#"
   xmlns:rdf="http://www.w3.org/1999/02/22-rdf-syntax-ns#"
   xmlns:svg="http://www.w3.org/2000/svg"
   xmlns="http://www.w3.org/2000/svg"
   xmlns:sodipodi="http://sodipodi.sourceforge.net/DTD/sodipodi-0.dtd"
   xmlns:inkscape="http://www.inkscape.org/namespaces/inkscape"
   width="163.07188"
   height="116.82124"
   viewBox="0 0 130.45751 93.456979"
   version="1.1"
   id="svg2"
   inkscape:version="0.48.1 "
   sodipodi:docname="Air Force Falcons.svg">
  <metadata
     id="metadata132">
    <rdf:RDF>
      <cc:Work
         rdf:about="">
        <dc:format>image/svg+xml</dc:format>
        <dc:type
           rdf:resource="http://purl.org/dc/dcmitype/StillImage" />
      </cc:Work>
    </rdf:RDF>
  </metadata>
  <defs
     id="defs130" />
  <sodipodi:namedview
     pagecolor="#ffffff"
     bordercolor="#666666"
     borderopacity="1"
     objecttolerance="10"
     gridtolerance="10"
     guidetolerance="10"
     inkscape:pageopacity="0"
     inkscape:pageshadow="2"
     inkscape:window-width="1680"
     inkscape:window-height="994"
     id="namedview128"
     showgrid="false"
     fit-margin-top="0"
     fit-margin-left="0"
     fit-margin-right="0"
     fit-margin-bottom="0"
     inkscape:zoom="6.6511876"
     inkscape:cx="81.535942"
     inkscape:cy="58.410622"
     inkscape:window-x="-4"
     inkscape:window-y="-4"
     inkscape:window-maximized="1"
     inkscape:current-layer="svg2" />
  <g
     id="g3173"
     transform="matrix(0.10080558,0,0,0.10080558,-2.6075659,-5.2071137)">
    <path
       id="path6"
       d="m 695.79,59.02 c 0.71,-1.11 0.97,-2.59 2.09,-3.39 2.34,-0.19 4.69,-0.06 7.04,0.04 -0.42,8.03 1.07,16.05 0.05,24.05 -2.47,-0.04 -4.93,-0.03 -7.39,-0.06 l -0.8,-1.21 c -0.12,-0.17 -0.35,-0.5 -0.47,-0.67 -13.97,0.36 -27.92,0.95 -41.86,1.96 -2.19,0.32 -4.63,0.08 -6.55,1.33 -0.43,2.39 -0.38,4.84 -0.48,7.26 5.54,-0.25 10.97,-1.47 16.52,-1.68 4.55,-0.65 9.21,-0.5 13.66,-1.76 0.1,-0.5 0.29,-1.51 0.38,-2.01 l 0.39,-1.31 c 2.47,0.06 4.95,0.25 7.43,0.07 l 0.77,-0.04 c 0.25,7.66 0.1,15.33 0.07,22.99 -2.51,0.11 -5.02,0.11 -7.52,0.18 -0.3,-0.6 -0.9,-1.79 -1.2,-2.38 -10.19,1.01 -20.31,2.73 -30.52,3.58 0,6.75 0.01,13.51 0,20.26 1.34,-0.05 2.7,-0.1 4.06,-0.14 0.13,2.75 0.12,5.52 0.17,8.28 -2.7,1.23 -5.71,0.93 -8.57,1.32 -8.1,0.91 -16.17,2.11 -24.31,2.62 -0.12,-2.65 -0.13,-5.31 -0.14,-7.96 1.32,-0.56 2.68,-1.05 4.07,-1.47 0.09,-18.4 -0.07,-36.79 0.03,-55.19 -1.36,0 -2.71,-0.03 -4.05,-0.09 0.51,-2.78 -1.3,-6.75 1.16,-8.68 21.76,-1.56 43.4,-4.59 65.24,-5.03 3.57,-0.28 7.13,-0.85 10.73,-0.87 m 2.07,2.82 c -8.26,1.42 -16.69,0.9 -24.99,1.85 -16.95,0.75 -33.79,2.89 -50.66,4.57 -0.09,0.42 -0.27,1.25 -0.36,1.66 0.74,0.06 2.22,0.19 2.96,0.25 0.78,1.12 1.45,2.34 1.31,3.77 0.03,17.7 -0.01,35.41 0.01,53.11 0.14,1.71 -0.37,3.34 -1.27,4.78 -1.57,0.22 -3.17,0.53 -3.06,2.5 8.65,-0.72 17.25,-1.97 25.88,-2.92 0.02,-0.41 0.07,-1.23 0.09,-1.64 -1.79,-0.07 -3.99,-0.51 -4.05,-2.74 -0.3,-8.03 -0.03,-16.08 -0.12,-24.12 9.81,-1.41 19.67,-2.44 29.49,-3.81 2.15,-0.3 4.35,-0.37 6.52,-0.12 0.85,1.08 1.7,2.29 3.25,2.18 0.02,-5.45 0.02,-10.91 0,-16.37 -1.6,-0.16 -2.05,1.27 -2.76,2.35 -1.12,0.93 -2.58,1.26 -3.96,1.48 -10.85,1.09 -21.69,2.31 -32.53,3.47 0.23,-4.72 0.37,-9.45 0.44,-14.18 17.11,-3.85 34.73,-2.29 52.07,-3.8 2.15,-0.56 3.01,2.21 5.14,2.08 0.01,-5.85 0.01,-11.7 0,-17.54 -2.24,-0.33 -2.16,2.08 -3.4,3.19 z"
       inkscape:connector-curvature="0"
       style="fill:#ffffff" />
    <path
       id="path8"
       d="m 697.86,61.84 c 1.24,-1.11 1.16,-3.52 3.4,-3.19 0.01,5.84 0.01,11.69 0,17.54 -2.13,0.13 -2.99,-2.64 -5.14,-2.08 -17.34,1.51 -34.96,-0.05 -52.07,3.8 -0.07,4.73 -0.21,9.46 -0.44,14.18 10.84,-1.16 21.68,-2.38 32.53,-3.47 1.38,-0.22 2.84,-0.55 3.96,-1.48 0.71,-1.08 1.16,-2.51 2.76,-2.35 0.02,5.46 0.02,10.92 0,16.37 -1.55,0.11 -2.4,-1.1 -3.25,-2.18 -2.17,-0.25 -4.37,-0.18 -6.52,0.12 -9.82,1.37 -19.68,2.4 -29.49,3.81 0.09,8.04 -0.18,16.09 0.12,24.12 0.06,2.23 2.26,2.67 4.05,2.74 -0.02,0.41 -0.07,1.23 -0.09,1.64 -8.63,0.95 -17.23,2.2 -25.88,2.92 -0.11,-1.97 1.49,-2.28 3.06,-2.5 0.9,-1.44 1.41,-3.07 1.27,-4.78 -0.02,-17.7 0.02,-35.41 -0.01,-53.11 0.14,-1.43 -0.53,-2.65 -1.31,-3.77 -0.74,-0.06 -2.22,-0.19 -2.96,-0.25 0.09,-0.41 0.27,-1.24 0.36,-1.66 16.87,-1.68 33.71,-3.82 50.66,-4.57 8.3,-0.95 16.73,-0.43 24.99,-1.85 z"
       inkscape:connector-curvature="0"
       style="fill:#000000" />
    <path
       id="path10"
       d="m 750.5,59.57 c 8.83,-1.63 17.76,-0.12 26.58,0.68 6.66,1.62 13.27,3.79 19.02,7.61 6.31,4.65 12.57,9.91 16.02,17.12 7.23,14.5 2.32,33.93 -11.37,42.84 -12.08,9.17 -27.9,11.31 -42.63,9.73 -13.32,-1.51 -26.3,-7.46 -35.51,-17.29 -12.34,-13.46 -11.55,-37.1 2.52,-49.06 7.41,-5.71 15.93,-10.54 25.37,-11.63 m 0.01,3.17 c -9.26,1.3 -17.8,5.97 -24.59,12.27 -12.35,11.95 -11.36,34.26 1.71,45.32 11.13,10.08 26.49,14.68 41.35,13.97 12.88,-0.15 25.97,-4.89 34.92,-14.35 6.51,-6.78 8.51,-16.79 7.15,-25.87 -1.04,-8.56 -6.66,-15.83 -13.48,-20.77 -6.36,-5.42 -14.34,-8.52 -22.48,-10 -8.15,-0.93 -16.42,-2 -24.58,-0.57 z"
       inkscape:connector-curvature="0"
       style="fill:#ffffff" />
    <path
       id="path12"
       d="m 750.51,62.74 c 8.16,-1.43 16.43,-0.36 24.58,0.57 8.14,1.48 16.12,4.58 22.48,10 6.82,4.94 12.44,12.21 13.48,20.77 1.36,9.08 -0.64,19.09 -7.15,25.87 -8.95,9.46 -22.04,14.2 -34.92,14.35 -14.86,0.71 -30.22,-3.89 -41.35,-13.97 -13.07,-11.06 -14.06,-33.37 -1.71,-45.32 6.79,-6.3 15.33,-10.97 24.59,-12.27 m 3.13,12.16 c -4.15,0.79 -8.17,2.53 -11.38,5.3 -9.41,7.91 -10.47,24.29 -1.09,32.62 7.13,7.38 18.06,8.74 27.82,8.46 6.92,-0.01 13.88,-2.6 18.8,-7.53 5.43,-5.21 7.32,-13.41 5.81,-20.65 -1.7,-7.77 -8.28,-13.63 -15.53,-16.3 -7.79,-2.62 -16.32,-3.38 -24.43,-1.9 z"
       inkscape:connector-curvature="0"
       style="fill:#000000" />
    <path
       id="path14"
       d="m 833.95,63.46 c 8.72,1 17.37,2.43 26.08,3.51 10.99,1.86 22.19,2.59 33.07,5.12 9.59,2.53 19.55,7.82 23.69,17.34 2.71,6.9 2.39,15.3 -1.95,21.49 -3,4.79 -8.54,7.16 -13.85,8.36 0.32,0.36 0.97,1.08 1.29,1.44 3.56,6.03 7.75,11.66 11.49,17.58 2.16,3.78 6.36,5.53 9.48,8.38 0.09,2.21 0.12,4.43 -0.45,6.58 -1.3,0.01 -2.58,0.01 -3.85,-0.01 -5.57,-1.56 -11.43,-1.42 -17.07,-2.51 -4.47,-0.82 -9.02,-1.05 -13.48,-1.84 0.55,-2.88 -1.35,-6.85 1.48,-8.79 -4.67,-7.27 -9.46,-14.47 -14.07,-21.78 -5.06,-0.98 -10.24,-0.82 -15.28,-1.89 0.15,6.55 -0.05,13.11 0.12,19.66 1,0.26 2,0.6 2.97,1.01 1.03,2.74 0.44,5.74 0.25,8.58 -9.9,-1.25 -19.86,-2.34 -29.7,-3.92 -0.68,-2.58 -0.94,-5.94 0.19,-8.41 0.55,0.05 1.65,0.13 2.2,0.18 l -0.15,-1.03 0.97,-0.02 c -0.47,-20 0.22,-39.99 0.16,-59.98 -1.19,-0.66 -2.37,-1.31 -3.55,-1.93 -0.05,-2.37 -0.05,-4.74 -0.04,-7.12 m 2.79,3.54 c 0.45,2.35 3.98,2.52 3.78,5.16 0.07,20.56 0.1,41.13 -0.01,61.69 0.24,2.17 -1.87,3.02 -3.65,3.17 0.08,0.39 0.25,1.16 0.33,1.55 7.72,0.95 15.43,2.09 23.17,2.93 0.16,-2.68 -3.9,-2.66 -3.5,-5.46 -0.24,-7.88 -0.05,-15.78 -0.09,-23.66 6.11,0.68 12.22,1.39 18.33,2.04 1.04,0.27 2.55,0.08 3.05,1.31 4.9,7.52 9.73,15.1 14.67,22.59 0.85,1.35 1.72,2.77 1.92,4.39 -0.84,0.99 -4.08,1.35 -2.74,3.01 9.17,1.17 18.32,2.65 27.53,3.45 -1.68,-3.26 -5.77,-4.04 -7.71,-7.07 -5.62,-8.56 -11.4,-17.01 -16.94,-25.61 6.5,-0.52 13.52,-2.63 17.36,-8.3 5,-7.64 3.06,-18.66 -3.79,-24.56 C 900,75.72 888,74.02 876.98,72.67 863.57,70.75 850.14,68.97 836.74,67 z"
       inkscape:connector-curvature="0"
       style="fill:#ffffff" />
    <path
       id="path16"
       d="m 836.74,67 c 13.4,1.97 26.83,3.75 40.24,5.67 11.02,1.35 23.02,3.05 31.47,10.96 6.85,5.9 8.79,16.92 3.79,24.56 -3.84,5.67 -10.86,7.78 -17.36,8.3 5.54,8.6 11.32,17.05 16.94,25.61 1.94,3.03 6.03,3.81 7.71,7.07 -9.21,-0.8 -18.36,-2.28 -27.53,-3.45 -1.34,-1.66 1.9,-2.02 2.74,-3.01 -0.2,-1.62 -1.07,-3.04 -1.92,-4.39 -4.94,-7.49 -9.77,-15.07 -14.67,-22.59 -0.5,-1.23 -2.01,-1.04 -3.05,-1.31 -6.11,-0.65 -12.22,-1.36 -18.33,-2.04 0.04,7.88 -0.15,15.78 0.09,23.66 -0.4,2.8 3.66,2.78 3.5,5.46 -7.74,-0.84 -15.45,-1.98 -23.17,-2.93 -0.08,-0.39 -0.25,-1.16 -0.33,-1.55 1.78,-0.15 3.89,-1 3.65,-3.17 0.11,-20.56 0.08,-41.13 0.01,-61.69 0.2,-2.64 -3.33,-2.81 -3.78,-5.16 m 20.02,14.95 c 0.01,6.6 -0.06,13.19 0.04,19.78 9.73,1.02 19.41,2.53 29.14,3.58 3.53,0.19 7.61,0.49 10.58,-1.84 2.9,-2.78 3.02,-7.62 1.27,-11.06 -2.18,-3.9 -6.88,-4.97 -10.86,-6.01 -9.95,-2.11 -20.13,-2.87 -30.17,-4.45 z"
       inkscape:connector-curvature="0"
       style="fill:#000000" />
    <path
       id="path18"
       d="m 753.64,74.9 c 8.11,-1.48 16.64,-0.72 24.43,1.9 7.25,2.67 13.83,8.53 15.53,16.3 1.51,7.24 -0.38,15.44 -5.81,20.65 -4.92,4.93 -11.88,7.52 -18.8,7.53 -9.76,0.28 -20.69,-1.08 -27.82,-8.46 -9.38,-8.33 -8.32,-24.71 1.09,-32.62 3.21,-2.77 7.23,-4.51 11.38,-5.3 m 4.96,2.99 c -5.98,0.6 -12.44,2.62 -16.14,7.68 -3.41,4.28 -4.45,10.04 -3.73,15.37 1.26,7.27 7.49,12.86 14.3,15.04 7.14,2.08 14.85,2.67 22.14,1.05 8.33,-1.75 15.73,-9.2 15.51,-18.05 0.75,-6.51 -3.04,-12.69 -8.41,-16.1 -6.99,-4.41 -15.57,-5.38 -23.67,-4.99 z"
       inkscape:connector-curvature="0"
       style="fill:#ffffff" />
    <path
       id="path20"
       d="m 498.11,82.59 c 11.88,-1.99 23.67,-4.97 35.77,-5.3 6.47,0.39 13.5,1.77 18.13,6.7 4.75,4.97 5.07,12.75 2.83,18.95 -3.23,7.85 -10.52,13.01 -17.89,16.64 5.4,4.43 10.17,9.58 15.48,14.12 2.51,1.69 5.66,1.94 8.53,2.7 0.39,2.44 0.39,4.92 0.19,7.38 -12.18,2.89 -24.67,4.44 -36.94,6.97 -0.09,-2.8 -0.09,-5.59 -0.04,-8.39 0.45,-0.26 1.36,-0.78 1.82,-1.04 -5.18,-5 -10,-10.36 -15.06,-15.48 -5.84,1.24 -11.73,2.23 -17.62,3.19 -0.01,6.02 0.01,12.03 -0.01,18.05 1.28,0.01 2.56,0.01 3.86,0.02 0.18,2.77 0.18,5.55 0.01,8.32 -10.91,1.9 -21.75,4.23 -32.7,5.91 -0.04,-2.78 -0.04,-5.55 0.17,-8.32 1.19,-0.57 2.36,-1.17 3.55,-1.77 -0.1,-18.26 -0.03,-36.52 -0.03,-54.78 -0.81,-0.14 -2.43,-0.42 -3.24,-0.55 -0.26,-2.33 -0.21,-4.66 0.06,-6.98 11,-2.33 22.1,-4.12 33.13,-6.34 m 12.09,1.02 c -14.03,2.62 -28.07,5.23 -42.09,7.86 -1.32,1.77 1.94,1.35 2.86,1.69 0.63,3.9 0.26,7.86 0.34,11.79 -0.05,15.71 0.12,31.43 -0.08,47.14 0.02,2.44 -4.03,2.26 -3.55,5 8.51,-1.71 17.11,-3.06 25.59,-4.92 1.63,-2.18 -2.05,-1.66 -3.27,-1.98 -0.45,-1.36 -0.84,-2.76 -0.75,-4.2 0.02,-6.62 0.06,-13.24 -0.01,-19.87 7.49,-1.56 15.07,-2.71 22.57,-4.22 5.62,5.83 11.23,11.66 16.96,17.39 0.87,0.84 1.89,2.07 1.32,3.37 -1.16,1.09 -2.85,1.78 -3.06,3.55 10.13,-1.5 20.17,-3.54 30.25,-5.33 -0.08,-0.41 -0.24,-1.22 -0.32,-1.62 -2.45,-0.87 -5.19,-1.23 -7.24,-2.96 -6.39,-6 -12.85,-11.93 -19.19,-17.99 5.26,-2.39 10.65,-4.82 14.92,-8.83 4.59,-4.02 7.72,-10.15 6.73,-16.36 -0.44,-6.47 -6.72,-10.53 -12.57,-11.66 -9.82,-1.78 -19.76,0.32 -29.41,2.15 z"
       inkscape:connector-curvature="0"
       style="fill:#ffffff" />
    <path
       id="path22"
       d="m 510.2,83.61 c 9.65,-1.83 19.59,-3.93 29.41,-2.15 5.85,1.13 12.13,5.19 12.57,11.66 0.99,6.21 -2.14,12.34 -6.73,16.36 -4.27,4.01 -9.66,6.44 -14.92,8.83 6.34,6.06 12.8,11.99 19.19,17.99 2.05,1.73 4.79,2.09 7.24,2.96 0.08,0.4 0.24,1.21 0.32,1.62 -10.08,1.79 -20.12,3.83 -30.25,5.33 0.21,-1.77 1.9,-2.46 3.06,-3.55 0.57,-1.3 -0.45,-2.53 -1.32,-3.37 -5.73,-5.73 -11.34,-11.56 -16.96,-17.39 -7.5,1.51 -15.08,2.66 -22.57,4.22 0.07,6.63 0.03,13.25 0.01,19.87 -0.09,1.44 0.3,2.84 0.75,4.2 1.22,0.32 4.9,-0.2 3.27,1.98 -8.48,1.86 -17.08,3.21 -25.59,4.92 -0.48,-2.74 3.57,-2.56 3.55,-5 0.2,-15.71 0.03,-31.43 0.08,-47.14 -0.08,-3.93 0.29,-7.89 -0.34,-11.79 -0.92,-0.34 -4.18,0.08 -2.86,-1.69 14.02,-2.63 28.06,-5.24 42.09,-7.86 m -20.85,15.03 c -0.17,5.92 -0.05,11.85 -0.06,17.78 7.59,-1.24 15.12,-2.82 22.69,-4.22 6.35,-1.24 13.03,-2.05 18.66,-5.47 3.51,-2.1 5.32,-6.49 4.13,-10.43 -1.34,-2.94 -4.77,-4.02 -7.77,-3.75 -12.76,0.52 -25.13,3.93 -37.65,6.09 z"
       inkscape:connector-curvature="0"
       style="fill:#000000" />
    <path
       id="path24"
       d="m 856.76,81.95 c 10.04,1.58 20.22,2.34 30.17,4.45 3.98,1.04 8.68,2.11 10.86,6.01 1.75,3.44 1.63,8.28 -1.27,11.06 -2.97,2.33 -7.05,2.03 -10.58,1.84 -9.73,-1.05 -19.41,-2.56 -29.14,-3.58 -0.1,-6.59 -0.03,-13.18 -0.04,-19.78 m 3.49,4.04 c -0.14,4.18 -0.28,8.38 0.15,12.55 6.25,0.92 12.48,1.96 18.77,2.64 4.53,0.97 9.21,1.19 13.83,0.74 2.94,-0.96 3.67,-4.81 2.31,-7.31 -1.07,-2.7 -4.14,-3.48 -6.62,-4.31 -9.35,-2.21 -18.94,-3.08 -28.44,-4.31 z"
       inkscape:connector-curvature="0"
       style="fill:#ffffff" />
    <path
       id="path26"
       d="m 415.18,98.36 c 9.96,-2.27 19.62,-5.75 29.59,-7.98 0.03,2.45 0.16,4.91 -0.01,7.36 -0.95,1.33 -2.81,1.8 -3.51,3.32 0.22,19.51 0.28,39.06 0,58.57 1.27,0.22 2.54,0.46 3.82,0.71 0.14,2.38 0.2,4.77 0.16,7.17 -1.68,1.27 -3.71,1.78 -5.74,2.18 -8.5,2.34 -16.99,4.76 -25.53,6.97 -0.13,-3.01 -0.3,-6.04 0.2,-9.02 1.09,-0.45 2.18,-0.91 3.28,-1.36 0.01,-19.96 -0.17,-39.96 0.18,-59.88 -0.67,0.13 -2,0.38 -2.66,0.51 -0.18,-2.85 -0.39,-5.74 0.22,-8.55 m 5.86,1.72 c -1.42,0.49 -3.64,0.58 -3.31,2.64 1.64,-0.3 3.24,0.44 3.07,2.3 0.11,20.33 0.07,40.66 0.02,60.98 0.42,3 -3.47,3.26 -4.1,5.73 8.15,-1.47 16.03,-4.23 24.05,-6.3 0.08,-0.5 0.25,-1.48 0.33,-1.97 -0.78,0.01 -2.35,0.02 -3.13,0.03 -0.34,-2.15 -0.53,-4.31 -0.47,-6.48 0.1,-18.67 -0.11,-37.35 0.1,-56.02 -0.23,-3.03 3.4,-3.77 3.72,-6.49 -6.81,1.66 -13.5,3.79 -20.28,5.58 z"
       inkscape:connector-curvature="0"
       style="fill:#ffffff" />
    <path
       id="path28"
       d="m 950.69,98.73 c 9.75,-6.41 21.81,-9.34 33.4,-7.82 8.64,1.2 17.11,3.88 24.78,8.04 6.74,3.86 13.54,7.65 20.27,11.51 3.85,0.7 7.52,2.5 9.36,6.15 -6.9,5.19 -13.62,10.61 -20.55,15.76 -3.07,-2.91 -5.91,-6.04 -9.06,-8.86 0.25,-0.31 0.76,-0.91 1.01,-1.21 -8.07,-5.47 -17.13,-10.18 -26.94,-11.29 -6.68,-0.34 -14.46,1.81 -17.93,8.04 -1.69,2.45 -1.86,5.43 -1.74,8.3 l -1.01,0.63 c 2.09,0.88 0.45,3.67 1.43,5.34 3.37,8.23 11.55,13.41 19.8,15.86 10.84,3.7 22.44,2.87 33.65,1.88 -0.01,-0.74 -0.04,-2.22 -0.06,-2.96 2.44,-0.89 4.96,-2.43 7.66,-1.87 3.37,7.71 6.9,15.37 10.28,23.08 -2.57,0.93 -5.08,2.01 -7.76,2.56 -0.91,-0.83 -1.84,-2.22 -3.27,-1.62 -14,2.9 -28.58,1.72 -42.41,-1.49 -5.61,-1.58 -11.27,-3.15 -16.46,-5.84 -8.89,-3.86 -16.26,-10.57 -21.89,-18.36 -4.76,-6.74 -7.13,-15.37 -5.47,-23.54 1.97,-8.42 5.28,-17.41 12.91,-22.29 m 1.72,2.56 c -7.31,4.8 -10.44,13.6 -11.6,21.88 -0.76,5.69 0.59,11.49 3.43,16.44 6.34,11.05 17.27,18.9 29.23,22.9 14.26,4.97 29.69,6.8 44.7,4.97 3.49,-0.22 7.36,-2.39 10.42,0.25 0.33,-0.18 1.01,-0.54 1.34,-0.72 -2.62,-5.5 -4.93,-11.14 -7.54,-16.64 -0.45,-0.06 -1.36,-0.18 -1.81,-0.23 -0.22,1.23 -0.44,2.47 -0.65,3.7 -9.27,1.53 -18.81,2.05 -28.14,0.84 -11,-1.63 -22.55,-5.97 -29.12,-15.44 -7.48,-9.55 -2.98,-25.96 8.65,-29.85 6.41,-2.59 13.67,-2.23 20.15,-0.06 7.57,2.5 14.78,6.14 21.19,10.9 2.11,1.72 4.95,3.77 4.05,6.91 0.48,0.08 1.45,0.24 1.93,0.32 4.94,-3.91 9.95,-7.74 14.93,-11.6 -1.77,-1.76 -4.44,-1.59 -6.55,-2.66 -7.38,-4.43 -14.87,-8.72 -22.46,-12.79 -16.05,-8.27 -36.75,-9.55 -52.15,0.88 z"
       inkscape:connector-curvature="0"
       style="fill:#ffffff" />
    <path
       id="path30"
       d="m 489.35,98.64 c 12.52,-2.16 24.89,-5.57 37.65,-6.09 3,-0.27 6.43,0.81 7.77,3.75 1.19,3.94 -0.62,8.33 -4.13,10.43 -5.63,3.42 -12.31,4.23 -18.66,5.47 -7.57,1.4 -15.1,2.98 -22.69,4.22 0.01,-5.93 -0.11,-11.86 0.06,-17.78 m 3.95,3 c 0.01,3.59 0.02,7.19 -0.02,10.79 10.88,-2.84 22.28,-3.49 32.92,-7.22 3.54,-1.03 6.55,-4.24 5.39,-8.16 -4.02,-1.74 -8.43,-0.51 -12.57,0 -8.69,0.88 -17.11,3.28 -25.72,4.59 z"
       inkscape:connector-curvature="0"
       style="fill:#ffffff" />
    <path
       id="path32"
       d="m 952.41,101.29 c 15.4,-10.43 36.1,-9.15 52.15,-0.88 7.59,4.07 15.08,8.36 22.46,12.79 2.11,1.07 4.78,0.9 6.55,2.66 -4.98,3.86 -9.99,7.69 -14.93,11.6 -0.48,-0.08 -1.45,-0.24 -1.93,-0.32 0.9,-3.14 -1.94,-5.19 -4.05,-6.91 -6.41,-4.76 -13.62,-8.4 -21.19,-10.9 -6.48,-2.17 -13.74,-2.53 -20.15,0.06 -11.63,3.89 -16.13,20.3 -8.65,29.85 6.57,9.47 18.12,13.81 29.12,15.44 9.33,1.21 18.87,0.69 28.14,-0.84 0.21,-1.23 0.43,-2.47 0.65,-3.7 0.45,0.05 1.36,0.17 1.81,0.23 2.61,5.5 4.92,11.14 7.54,16.64 -0.33,0.18 -1.01,0.54 -1.34,0.72 -3.06,-2.64 -6.93,-0.47 -10.42,-0.25 -15.01,1.83 -30.44,0 -44.7,-4.97 -11.96,-4 -22.89,-11.85 -29.23,-22.9 -2.84,-4.95 -4.19,-10.75 -3.43,-16.44 1.16,-8.28 4.29,-17.08 11.6,-21.88 z"
       inkscape:connector-curvature="0"
       style="fill:#000000" />
    <path
       id="path34"
       d="m 421.04,100.08 c 6.78,-1.79 13.47,-3.92 20.28,-5.58 -0.32,2.72 -3.95,3.46 -3.72,6.49 -0.21,18.67 0,37.35 -0.1,56.02 -0.06,2.17 0.13,4.33 0.47,6.48 0.78,-0.01 2.35,-0.02 3.13,-0.03 -0.08,0.49 -0.25,1.47 -0.33,1.97 -8.02,2.07 -15.9,4.83 -24.05,6.3 0.63,-2.47 4.52,-2.73 4.1,-5.73 0.05,-20.32 0.09,-40.65 -0.02,-60.98 0.17,-1.86 -1.43,-2.6 -3.07,-2.3 -0.33,-2.06 1.89,-2.15 3.31,-2.64 z"
       inkscape:connector-curvature="0"
       style="fill:#000000" />
    <path
       id="path36"
       d="m 1051.94,109.51 c 23.82,8.12 47.66,16.22 71.57,24.13 1.25,0.32 2.52,0.61 3.82,0.86 0.18,-0.45 0.53,-1.34 0.71,-1.78 2.68,0.08 5.23,1.01 7.83,1.59 0.57,8.7 0.32,17.42 0.15,26.13 -2.71,-0.66 -5.41,-1.32 -8.06,-2.17 -0.5,-1.46 -0.24,-3.77 -2.24,-4.06 -9.67,-3.43 -19.52,-6.38 -29.17,-9.87 -5.7,-1.72 -11.2,-4.16 -17.04,-5.37 -0.18,2.88 -0.21,5.75 -0.04,8.63 9.88,3.29 19.71,6.72 29.68,9.74 0.24,-0.58 0.72,-1.75 0.96,-2.34 2.7,0.59 5.39,1.25 8.07,1.97 -0.19,8.36 -0.65,16.73 -0.5,25.09 -2.96,-0.48 -5.72,-1.64 -8.53,-2.57 -0.24,-1.11 -0.45,-2.21 -0.63,-3.32 -9.51,-3.73 -19.38,-6.48 -28.97,-9.99 0.13,3.9 0.07,7.81 0.07,11.72 16.43,5.37 32.89,10.75 49.13,16.63 l -0.26,-0.72 c 0.78,-0.72 1.58,-1.44 2.39,-2.16 2.17,0.69 4.34,1.44 6.49,2.27 0,9.48 0.18,18.96 -0.1,28.42 -3.02,-1.29 -5.58,-3.35 -8.24,-5.21 -0.76,-1.44 -1.33,-3.32 -3.16,-3.64 -22.98,-7.83 -46.08,-15.32 -69.08,-23.07 -2.06,-0.78 -4.32,-1.08 -6.18,-2.28 -0.6,-2.62 -0.11,-5.4 -0.24,-8.07 1.39,0.09 2.78,0.2 4.19,0.32 -0.38,-19.48 0.53,-38.93 0.19,-58.41 0.36,-2.22 -1.35,-3.69 -3.01,-4.75 -0.14,-2.57 -0.07,-5.15 0.2,-7.72 m 2.31,4.04 c -0.5,2.89 4.08,3.41 3.63,6.42 0.05,20.67 0.08,41.34 -0.02,62 0.11,2.41 -2.72,2 -4.3,1.99 0.11,0.43 0.34,1.27 0.45,1.69 24.51,8.34 49.14,16.35 73.64,24.69 2.89,0.86 3.39,4.34 5.89,5.77 0.12,-6.66 0.04,-13.32 0.04,-19.99 -2.68,-1.35 -2.59,3.28 -5.31,1.68 -17.51,-5.73 -34.96,-11.7 -52.41,-17.61 0.03,-6.33 0,-12.66 0.02,-19 10.9,3.78 21.94,7.18 32.78,11.11 3,0.44 2.47,4.61 5.26,5.03 -0.02,-6 0.65,-12 0.37,-17.99 -0.49,-0.14 -1.48,-0.43 -1.98,-0.58 -0.34,0.63 -1.02,1.88 -1.35,2.5 -11.86,-3.22 -23.38,-7.66 -35.07,-11.43 -0.03,-5.34 -0.02,-10.67 -0.01,-16.01 16.95,5.84 33.95,11.53 50.89,17.39 2.16,0.56 3.51,2.46 3.89,4.6 0.57,0.14 1.72,0.42 2.3,0.56 -0.07,-6.46 0.12,-12.93 -0.08,-19.4 -0.49,-0.23 -1.49,-0.71 -1.99,-0.94 -0.4,0.67 -1.21,2.01 -1.61,2.68 -25.13,-7.99 -49.96,-16.96 -75.03,-25.16 z"
       inkscape:connector-curvature="0"
       style="fill:#ffffff" />
    <path
       id="path38"
       d="m 270.26,119.92 c 4.85,-2.3 9.09,-6.37 14.57,-7 -0.27,14.05 0.61,28.04 0.51,42.08 0.65,26.1 0.41,52.22 0.67,78.33 10.71,-4.58 21.17,-9.67 31.7,-14.63 19.24,-7.29 38.58,-14.34 58.05,-20.99 23.83,-6.78 47.44,-14.37 71.49,-20.34 20.13,-5.01 40.26,-10.2 60.76,-13.51 21.77,-3.91 43.59,-7.66 65.59,-10.1 26.34,-3.53 52.9,-5.01 79.41,-6.73 22.67,-0.66 45.33,-1.58 68,-1.64 26.35,0.7 52.71,0.95 79.01,2.67 11.8,0.32 23.49,2.04 35.22,3.27 23.05,2.73 46.12,5.79 68.8,10.8 12.92,2.72 25.87,5.33 38.76,8.19 16.56,4.25 33.15,8.41 49.62,13.02 25.35,6.61 49.95,15.71 74.68,24.29 23.83,8.35 47.58,16.96 71.12,26.1 4.72,2.02 9.34,4.28 14.11,6.18 -0.61,-20.31 -1.11,-40.66 0,-60.96 1.81,-12.23 6.14,-24.63 15.13,-33.47 4.14,-4.65 10.62,-6.04 16.53,-6.86 12.39,-0.73 23.96,4.85 34.46,10.81 13.23,8.88 26.49,18.01 37.54,29.56 24.22,23.21 42.46,52.55 52.83,84.48 2.43,7.07 3.75,14.44 5.23,21.74 3.36,24.38 1.45,49.06 1.16,73.58 -3.47,-0.01 -6.44,-2.06 -9.77,-2.72 -7.28,-1.42 -13.84,-5.04 -20.72,-7.63 -8.48,-3.6 -17.1,-6.82 -25.61,-10.33 10.33,16.69 18.05,34.78 26.4,52.5 5.02,13.25 9.5,26.7 13.87,40.18 2.29,7.28 5.79,14.2 7.1,21.78 3.14,14.56 6.14,29.18 8.02,43.98 1.48,8.4 0.96,16.97 1.43,25.45 0.04,9.67 0.49,19.37 -0.71,28.98 -0.01,11.77 -5.2,23.39 -14.23,31 -4.05,4.43 -10.18,6.16 -16.03,5.97 -5.53,-0.15 -11.28,0.85 -16.56,-1.18 -4.76,-1.33 -9.5,-2.76 -13.73,-5.35 -8,-3.5 -14.45,-9.5 -21.42,-14.6 -13.86,-11.23 -27.49,-22.82 -42.41,-32.64 -7.57,-4.36 -14.82,-9.36 -22.93,-12.69 7.86,-6.7 16.64,-12.23 24.83,-18.52 -15.87,-9.55 -33.07,-16.6 -50.14,-23.67 -46.4,-18.44 -94.06,-33.54 -142.17,-46.82 -105.95,-28.89 -214.64,-49.02 -324.4,-55.09 -33.46,-2 -67,-1.8 -100.51,-1.29 2.77,-22 6.4,-43.88 9.83,-65.78 -13.4,15.51 -25.86,32.15 -42.1,44.87 -11.81,9.34 -26.4,15.53 -41.59,15.79 -0.14,-58 0.03,-116.01 -0.08,-174.01 6.76,-7 13.77,-13.76 20.63,-20.66 -28.35,3.06 -56.35,9.04 -83.7,17.07 5.65,3.79 11.38,7.45 17.03,11.23 0.08,60.16 -0.01,120.33 0.05,180.49 -13.78,3.02 -28.65,5.73 -39.35,15.69 -14.28,-63.65 -27.86,-127.47 -42.03,-191.15 -29.25,9.47 -58.66,18.87 -86.6,31.81 11.72,1.27 23.48,2.19 35.18,3.68 -12.27,60.98 -24.48,121.97 -36.74,182.95 -0.7,3.07 -0.78,6.47 -2.78,9.06 -4.53,6.34 -8.99,12.72 -13.47,19.09 22.05,-13.5 46.41,-22.83 71.3,-29.6 -4.37,-1.5 -9.21,-2.09 -13.07,-4.77 -3.51,-2.69 -4.93,-7.4 -4.29,-11.68 1.13,-7.82 1.95,-15.68 2.88,-23.52 11.43,-3.84 22.71,-8.1 34.15,-11.87 1.36,11.97 2.95,23.97 3.45,36 -2.33,4.84 -6.16,8.8 -10.16,12.32 19.74,-7.21 39.82,-13.53 60.25,-18.5 -0.98,3.65 -2.06,7.48 -1.31,11.29 0.88,3.7 3.37,6.71 5.62,9.67 -56.72,13.51 -113.35,30.65 -164.18,59.82 -8.07,4.82 -16.11,9.78 -23.32,15.84 4.72,5.36 9.7,10.53 14.03,16.22 -57.3,34.42 -114.4,69.16 -171.87,103.28 12.69,-26.39 25.53,-52.71 38.55,-78.94 0.72,-1.52 1.6,-3.07 1.52,-4.81 -0.16,-86.35 -0.16,-172.7 -0.26,-259.04 -9,-0.19 -18.03,-0.17 -26.94,1.31 -18.56,1.31 -36.97,4.19 -55.51,5.68 0.32,-0.48 0.97,-1.43 1.3,-1.91 2.92,-1.26 4.83,-3.89 7.05,-6.04 23.86,-20.99 49.27,-40.33 75.39,-58.5 50.34,-35.34 102.78,-67.54 155.88,-98.56 m -110.07,88.25 c -29.74,19.18 -59.56,38.29 -88.36,58.87 19.73,-2 39.47,-4.06 59.22,-5.93 0.01,93.31 0.01,186.62 0,279.93 0.23,2.17 -1.3,3.85 -2.31,5.61 -7.66,12.42 -15.3,24.86 -22.89,37.33 26.4,-16.36 52.8,-32.71 79.2,-49.07 9.63,-6.18 19.67,-11.78 29.06,-18.31 -10.57,-2.94 -21.2,-5.69 -31.69,-8.91 0.09,-44.33 -0.13,-88.66 0.11,-132.99 9.85,-3.86 19.53,-8.18 29.59,-11.5 5.15,-1.93 10.09,1.86 13.85,4.99 9.51,8.5 16.59,19.34 22.68,30.45 -0.11,-26.24 -0.05,-52.48 -0.03,-78.73 -22.34,8.56 -43.78,19.29 -65.65,28.94 -0.07,-41.28 0.01,-82.56 -0.04,-123.84 0.01,-1.54 0.15,-3.07 0.31,-4.59 12.91,-8.84 25.71,-17.91 39.42,-25.49 4.35,3.86 8.55,7.88 12.41,12.24 11.25,12.6 21.65,25.96 31.38,39.77 -0.2,-34.98 -0.07,-69.95 -0.07,-104.93 -35.75,21.47 -70.96,43.84 -106.19,66.16 m 1007.79,-40.1 c -3.46,12.68 -4.95,25.87 -4.92,38.99 -0.89,32.51 9.09,64.22 22.39,93.53 17.45,39.09 40.68,75.6 54.5,116.29 10.03,29.43 14.07,61.4 8.08,92.11 -0.95,3.52 -2.63,8.43 -7.02,8.45 -4.59,-0.79 -8.46,-3.73 -11.96,-6.6 -9.67,-8.65 -15.1,-20.94 -18.5,-33.23 -5.31,-20.29 -6.4,-41.53 -5.19,-62.4 3.44,-6.78 7.57,-13.2 11.23,-19.87 -19.08,0.88 -38.17,1.46 -57.24,2.41 -1.47,37 9.86,74.79 32.95,103.92 13.1,14.27 27.37,27.48 42.41,39.69 11.61,9.1 23.76,17.99 37.66,23.26 4.44,1.66 9.6,3.21 14.08,0.74 6.61,-3.47 9.37,-11.26 9.86,-18.31 3.35,-26.01 1.33,-52.48 -4.14,-78.06 -9.23,-41.36 -28.02,-79.66 -46.84,-117.35 -8.42,-17.01 -17.04,-33.94 -24.57,-51.36 -13.37,-31.05 -15.73,-66.58 -6.79,-99.16 1.21,-3.46 3.8,-7.56 8,-7.2 3.78,-0.22 6.66,2.61 9.34,4.87 9.93,9.02 14.6,22.3 16.8,35.21 3.22,20.15 2.48,40.64 2.32,60.96 0.32,4.28 -3.88,6.83 -5.82,10.21 18.38,8.62 36.89,16.96 55.38,25.35 1.64,-27.88 -2.67,-56.18 -13.55,-81.97 -15.69,-38.09 -44.97,-70.19 -80.95,-90.12 -4.93,-3.08 -10.5,-5.69 -16.45,-5.42 -9.37,-0.47 -18.54,6.01 -21.06,15.06 m -522.62,4.36 c -5.54,2.04 -11.04,4.58 -15.46,8.55 -2.3,2.02 -4.24,4.82 -4.02,8.02 0.34,27.32 0.09,54.66 0.16,81.98 -0.08,25.68 0.19,51.36 -0.19,77.03 -0.31,4.31 3.2,7.58 6.47,9.78 5.89,4.23 13.24,5.16 20.1,6.91 29.9,6.14 61.85,6.27 90.7,-4.63 5.05,-1.68 9.63,-5.09 12.11,-9.88 4.91,-8.89 3.56,-19.29 3.73,-29.01 -16.82,-10.11 -34.94,-17.69 -52.87,-25.52 5.64,8.06 7.45,17.93 8.98,27.44 1.58,9.09 1.95,19.42 -3.66,27.29 -3.58,5.4 -10.3,7.54 -16.5,7.75 -7.35,0.37 -15.25,0.54 -21.91,-3.03 -4.39,-2.49 -2.51,-8.06 -2.99,-12.13 -0.04,-51.98 -0.18,-103.96 0.08,-155.94 -0.44,-5.9 4.53,-10.29 9.47,-12.46 8.84,-3.9 19.23,-4.71 28.42,-1.51 4.3,1.48 7.59,5.49 7.71,10.12 0.23,8.61 0.02,17.23 0.09,25.85 -0.06,3.65 0.29,7.38 -0.7,10.93 -1.45,5.8 -5.05,10.78 -9.04,15.12 18.86,-7.41 37.86,-14.55 56.37,-22.79 0.6,-7.98 1.38,-16.33 -1.77,-23.91 -4.17,-11.03 -14.73,-18.46 -25.88,-21.23 -14.31,-3.57 -29.17,-3.26 -43.8,-3.07 -15.42,1.21 -30.94,3.21 -45.6,8.34 m 192.91,-1.19 c -7.12,0.5 -14.27,1.09 -21.21,2.85 -6.89,1.79 -14.25,3.3 -19.83,8.03 -2.45,1.83 -4.52,4.6 -4.19,7.82 0.04,53.37 -0.01,106.75 0.03,160.13 0,3.36 1.08,6.88 3.66,9.17 4.28,3.83 9.71,6.01 15,8.04 19.1,7.95 39.79,10.79 60.18,13.28 15.1,1.68 31.06,2.76 45.41,-3.25 7.7,-3.23 9.22,-12.91 8.64,-20.33 -0.01,-51.67 0,-103.34 -0.01,-155.01 0.01,-3.65 -0.96,-7.54 -3.78,-10.05 -3.75,-3.41 -8.73,-4.88 -13.23,-6.98 -22.35,-9.04 -46.51,-14.35 -70.67,-13.7 m 119.68,19.61 c 5.55,7.23 11.2,14.39 16.81,21.57 -0.16,7.2 0.67,14.39 0.06,21.58 -0.28,19.65 0.76,39.3 -0.05,58.95 0.33,30.9 0.46,61.83 0.02,92.73 -6,4.18 -12.35,7.89 -18.94,11.04 9.46,3.12 19.35,4.85 28.95,7.57 15.23,3.88 30.4,8.05 45.41,12.7 -6.57,-8.32 -12.91,-16.83 -19.45,-25.18 -0.07,-45.28 -0.12,-90.57 0.02,-135.85 3.11,5.88 5.24,12.23 7.95,18.3 19.93,47.72 39.87,95.44 59.81,143.16 2.33,5.01 3.9,10.44 6.68,15.2 8.79,3.65 17.68,7.09 26.5,10.68 2.77,1.06 5.44,2.52 8.46,2.81 0.07,-6.39 -0.06,-12.77 -0.23,-19.15 0.49,-25.33 -0.23,-50.67 0.01,-76 0.13,-31.16 -0.29,-62.32 0.29,-93.47 5.9,-2.62 11.66,-5.55 17.6,-8.1 -24.14,-9.33 -48.39,-18.35 -72.58,-27.55 6.38,7.64 13.02,15.06 19.59,22.53 0.42,8.88 0.08,17.77 0.19,26.66 -0.16,29.02 0.35,58.05 -0.28,87.07 -2.22,-3.65 -3.51,-7.77 -5.29,-11.64 -19.71,-46.22 -39.46,-92.43 -59.17,-138.66 -20.77,-5.7 -41.51,-11.54 -62.36,-16.95 z"
       inkscape:connector-curvature="0"
       style="fill:#1a5fad" />
    <path
       id="path40"
       d="m 1054.25,113.55 c 25.07,8.2 49.9,17.17 75.03,25.16 0.4,-0.67 1.21,-2.01 1.61,-2.68 0.5,0.23 1.5,0.71 1.99,0.94 0.2,6.47 0.01,12.94 0.08,19.4 -0.58,-0.14 -1.73,-0.42 -2.3,-0.56 -0.38,-2.14 -1.73,-4.04 -3.89,-4.6 -16.94,-5.86 -33.94,-11.55 -50.89,-17.39 -0.01,5.34 -0.02,10.67 0.01,16.01 11.69,3.77 23.21,8.21 35.07,11.43 0.33,-0.62 1.01,-1.87 1.35,-2.5 0.5,0.15 1.49,0.44 1.98,0.58 0.28,5.99 -0.39,11.99 -0.37,17.99 -2.79,-0.42 -2.26,-4.59 -5.26,-5.03 -10.84,-3.93 -21.88,-7.33 -32.78,-11.11 -0.02,6.34 0.01,12.67 -0.02,19 17.45,5.91 34.9,11.88 52.41,17.61 2.72,1.6 2.63,-3.03 5.31,-1.68 0,6.67 0.08,13.33 -0.04,19.99 -2.5,-1.43 -3,-4.91 -5.89,-5.77 -24.5,-8.34 -49.13,-16.35 -73.64,-24.69 -0.11,-0.42 -0.34,-1.26 -0.45,-1.69 1.58,0.01 4.41,0.42 4.3,-1.99 0.1,-20.66 0.07,-41.33 0.02,-62 0.45,-3.01 -4.13,-3.53 -3.63,-6.42 z"
       inkscape:connector-curvature="0"
       style="fill:#000000" />
    <path
       id="path42"
       d="m 330.11,130.48 c 11.29,-4.56 22.74,-8.73 33.96,-13.46 -0.04,2.58 0.34,5.2 -0.15,7.75 -0.95,1.09 -2.03,2.06 -3.04,3.1 11.7,14.21 22.74,28.96 34.32,43.27 1.91,1.15 4.25,-0.37 6.34,-0.41 0.9,2.64 0.15,5.73 0.38,8.53 -12.01,4.82 -23.93,9.84 -35.94,14.67 -0.16,-2.72 -0.35,-5.44 -0.13,-8.15 0.55,-1.52 2.06,-2.39 2.93,-3.72 -1.27,-2.28 -3.06,-4.23 -4.82,-6.14 -0.12,0.37 -0.35,1.1 -0.46,1.46 -2.27,-0.09 -4.22,1.16 -6.26,1.94 -8.53,3.39 -17,6.94 -25.55,10.28 -1.72,3.33 -2.83,6.94 -4.7,10.19 0.73,0 2.19,0 2.92,-0.01 -0.01,2.69 -0.01,5.37 -0.08,8.06 -10.6,4.31 -21.17,8.71 -31.84,12.82 0.09,-3.03 -0.81,-6.35 0.44,-9.19 2,-1.67 4.09,-3.36 5.12,-5.84 9.61,-20.98 18.5,-42.28 27.71,-63.44 0.69,-1.55 1.27,-3.16 1.79,-4.78 -0.74,-0.11 -2.23,-0.32 -2.97,-0.43 -0.01,-2.17 -0.01,-4.33 0.03,-6.5 m 7.69,0.32 c -1.72,0.78 -3.88,1.03 -4.99,2.74 1.44,0.51 3.35,0.13 4.47,1.34 0.46,1.53 -0.74,2.93 -1.14,4.34 -9.2,21.13 -18.21,42.33 -27.51,63.41 -1.27,2.72 -2.46,5.51 -4.27,7.92 -1.12,1.67 -3.46,2.48 -3.49,4.77 8.36,-3.05 16.55,-6.59 24.81,-9.91 0.18,-0.45 0.53,-1.34 0.71,-1.79 -1.42,-0.12 -3.44,0.52 -3.75,-1.47 0.39,-4.07 2.86,-7.54 4.18,-11.34 0.88,-1.64 1.08,-4.12 3.22,-4.63 11.74,-4.65 23.39,-9.5 35.15,-14.08 2.72,2.4 5.08,5.9 7.24,9.02 0.7,3.19 -3.95,4.31 -3.58,7.49 9.72,-3.86 19.43,-7.79 29.05,-11.89 0.12,-0.4 0.35,-1.21 0.47,-1.62 -2.27,-0.01 -4.96,0.17 -6.4,-1.97 -11.43,-14.57 -22.93,-29.1 -34.31,-43.71 -2.98,-3.19 2.39,-4.92 3.61,-7.46 -7.99,2.43 -15.62,5.99 -23.47,8.84 z"
       inkscape:connector-curvature="0"
       style="fill:#ffffff" />
    <path
       id="path44"
       d="m 337.8,130.8 c 7.85,-2.85 15.48,-6.41 23.47,-8.84 -1.22,2.54 -6.59,4.27 -3.61,7.46 11.38,14.61 22.88,29.14 34.31,43.71 1.44,2.14 4.13,1.96 6.4,1.97 -0.12,0.41 -0.35,1.22 -0.47,1.62 -9.62,4.1 -19.33,8.03 -29.05,11.89 -0.37,-3.18 4.28,-4.3 3.58,-7.49 -2.16,-3.12 -4.52,-6.62 -7.24,-9.02 -11.76,4.58 -23.41,9.43 -35.15,14.08 -2.14,0.51 -2.34,2.99 -3.22,4.63 -1.32,3.8 -3.79,7.27 -4.18,11.34 0.31,1.99 2.33,1.35 3.75,1.47 -0.18,0.45 -0.53,1.34 -0.71,1.79 -8.26,3.32 -16.45,6.86 -24.81,9.91 0.03,-2.29 2.37,-3.1 3.49,-4.77 1.81,-2.41 3,-5.2 4.27,-7.92 9.3,-21.08 18.31,-42.28 27.51,-63.41 0.4,-1.41 1.6,-2.81 1.14,-4.34 -1.12,-1.21 -3.03,-0.83 -4.47,-1.34 1.11,-1.71 3.27,-1.96 4.99,-2.74 m -4.39,43.91 c 9.09,-3.42 18.12,-7.01 27.17,-10.53 -4.57,-6.43 -9.46,-12.62 -14.1,-18.99 -4.47,9.79 -8.74,19.67 -13.07,29.52 z"
       inkscape:connector-curvature="0"
       style="fill:#000000" />
    <path
       id="path46"
       d="m 160.19,208.17 c 35.23,-22.32 70.44,-44.69 106.19,-66.16 0,34.98 -0.13,69.95 0.07,104.93 -9.73,-13.81 -20.13,-27.17 -31.38,-39.77 -3.86,-4.36 -8.06,-8.38 -12.41,-12.24 -13.71,7.58 -26.51,16.65 -39.42,25.49 -0.16,1.52 -0.3,3.05 -0.31,4.59 0.05,41.28 -0.03,82.56 0.04,123.84 21.87,-9.65 43.31,-20.38 65.65,-28.94 -0.02,26.25 -0.08,52.49 0.03,78.73 -6.09,-11.11 -13.17,-21.95 -22.68,-30.45 -3.76,-3.13 -8.7,-6.92 -13.85,-4.99 -10.06,3.32 -19.74,7.64 -29.59,11.5 -0.24,44.33 -0.02,88.66 -0.11,132.99 10.49,3.22 21.12,5.97 31.69,8.91 -9.39,6.53 -19.43,12.13 -29.06,18.31 -26.4,16.36 -52.8,32.71 -79.2,49.07 7.59,-12.47 15.23,-24.91 22.89,-37.33 1.01,-1.76 2.54,-3.44 2.31,-5.61 0.01,-93.31 0.01,-186.62 0,-279.93 -19.75,1.87 -39.49,3.93 -59.22,5.93 28.8,-20.58 58.62,-39.69 88.36,-58.87 z"
       inkscape:connector-curvature="0"
       style="fill:#ffffff" />
    <path
       id="path48"
       d="m 333.41,174.71 c 4.33,-9.85 8.6,-19.73 13.07,-29.52 4.64,6.37 9.53,12.56 14.1,18.99 -9.05,3.52 -18.08,7.11 -27.17,10.53 m 14.12,-22.92 c -2.23,5.77 -4.82,11.46 -7.48,17.07 0.41,-0.29 1.23,-0.85 1.64,-1.13 4.57,-1.2 8.81,-3.37 13.28,-4.88 -1.85,-4.08 -5.53,-7 -7.44,-11.06 z"
       inkscape:connector-curvature="0"
       style="fill:#ffffff" />
    <path
       id="path50"
       d="m 1167.98,168.07 c 2.52,-9.05 11.69,-15.53 21.06,-15.06 5.95,-0.27 11.52,2.34 16.45,5.42 35.98,19.93 65.26,52.03 80.95,90.12 10.88,25.79 15.19,54.09 13.55,81.97 -18.49,-8.39 -37,-16.73 -55.38,-25.35 1.94,-3.38 6.14,-5.93 5.82,-10.21 0.16,-20.32 0.9,-40.81 -2.32,-60.96 -2.2,-12.91 -6.87,-26.19 -16.8,-35.21 -2.68,-2.26 -5.56,-5.09 -9.34,-4.87 -4.2,-0.36 -6.79,3.74 -8,7.2 -8.94,32.58 -6.58,68.11 6.79,99.16 7.53,17.42 16.15,34.35 24.57,51.36 18.82,37.69 37.61,75.99 46.84,117.35 5.47,25.58 7.49,52.05 4.14,78.06 -0.49,7.05 -3.25,14.84 -9.86,18.31 -4.48,2.47 -9.64,0.92 -14.08,-0.74 -13.9,-5.27 -26.05,-14.16 -37.66,-23.26 -15.04,-12.21 -29.31,-25.42 -42.41,-39.69 -23.09,-29.13 -34.42,-66.92 -32.95,-103.92 19.07,-0.95 38.16,-1.53 57.24,-2.41 -3.66,6.67 -7.79,13.09 -11.23,19.87 -1.21,20.87 -0.12,42.11 5.19,62.4 3.4,12.29 8.83,24.58 18.5,33.23 3.5,2.87 7.37,5.81 11.96,6.6 4.39,-0.02 6.07,-4.93 7.02,-8.45 5.99,-30.71 1.95,-62.68 -8.08,-92.11 -13.82,-40.69 -37.05,-77.2 -54.5,-116.29 -13.3,-29.31 -23.28,-61.02 -22.39,-93.53 -0.03,-13.12 1.46,-26.31 4.92,-38.99 z"
       inkscape:connector-curvature="0"
       style="fill:#ffffff" />
    <path
       id="path52"
       d="m 645.36,172.43 c 14.66,-5.13 30.18,-7.13 45.6,-8.34 14.63,-0.19 29.49,-0.5 43.8,3.07 11.15,2.77 21.71,10.2 25.88,21.23 3.15,7.58 2.37,15.93 1.77,23.91 -18.51,8.24 -37.51,15.38 -56.37,22.79 3.99,-4.34 7.59,-9.32 9.04,-15.12 0.99,-3.55 0.64,-7.28 0.7,-10.93 -0.07,-8.62 0.14,-17.24 -0.09,-25.85 -0.12,-4.63 -3.41,-8.64 -7.71,-10.12 -9.19,-3.2 -19.58,-2.39 -28.42,1.51 -4.94,2.17 -9.91,6.56 -9.47,12.46 -0.26,51.98 -0.12,103.96 -0.08,155.94 0.48,4.07 -1.4,9.64 2.99,12.13 6.66,3.57 14.56,3.4 21.91,3.03 6.2,-0.21 12.92,-2.35 16.5,-7.75 5.61,-7.87 5.24,-18.2 3.66,-27.29 -1.53,-9.51 -3.34,-19.38 -8.98,-27.44 17.93,7.83 36.05,15.41 52.87,25.52 -0.17,9.72 1.18,20.12 -3.73,29.01 -2.48,4.79 -7.06,8.2 -12.11,9.88 -28.85,10.9 -60.8,10.77 -90.7,4.63 -6.86,-1.75 -14.21,-2.68 -20.1,-6.91 -3.27,-2.2 -6.78,-5.47 -6.47,-9.78 0.38,-25.67 0.11,-51.35 0.19,-77.03 -0.07,-27.32 0.18,-54.66 -0.16,-81.98 -0.22,-3.2 1.72,-6 4.02,-8.02 4.42,-3.97 9.92,-6.51 15.46,-8.55 z"
       inkscape:connector-curvature="0"
       style="fill:#ffffff" />
    <path
       id="path54"
       d="m 838.27,171.24 c 24.16,-0.65 48.32,4.66 70.67,13.7 4.5,2.1 9.48,3.57 13.23,6.98 2.82,2.51 3.79,6.4 3.78,10.05 0.01,51.67 0,103.34 0.01,155.01 0.58,7.42 -0.94,17.1 -8.64,20.33 -14.35,6.01 -30.31,4.93 -45.41,3.25 -20.39,-2.49 -41.08,-5.33 -60.18,-13.28 -5.29,-2.03 -10.72,-4.21 -15,-8.04 -2.58,-2.29 -3.66,-5.81 -3.66,-9.17 -0.04,-53.38 0.01,-106.76 -0.03,-160.13 -0.33,-3.22 1.74,-5.99 4.19,-7.82 5.58,-4.73 12.94,-6.24 19.83,-8.03 6.94,-1.76 14.09,-2.35 21.21,-2.85 m 10.23,14.42 c -2.79,0.57 -6.56,0.81 -7.92,3.74 -0.63,5.84 0.13,11.75 -0.4,17.61 -0.75,7.64 0.37,15.28 0.18,22.94 -0.08,8.35 0.25,16.71 -0.4,25.05 -0.01,17.33 0.02,34.66 -0.02,51.99 0.96,16.96 0.01,33.96 0.57,50.93 0,3.35 2.83,5.87 6,6.41 9.54,2.05 19.6,5.18 29.32,2.42 4.3,-1.09 7.49,-5.28 7.24,-9.74 -0.02,-51.34 -0.02,-102.68 0,-154.02 -0.05,-3.42 0.56,-7.36 -2.03,-10.07 -3.96,-4.03 -9.61,-5.86 -15.07,-6.67 -5.78,-0.71 -11.67,-1.54 -17.47,-0.59 z"
       inkscape:connector-curvature="0"
       style="fill:#ffffff" />
    <path
       id="path56"
       d="m 438.51,193.38 c 27.35,-8.03 55.35,-14.01 83.7,-17.07 -6.86,6.9 -13.87,13.66 -20.63,20.66 0.11,58 -0.06,116.01 0.08,174.01 15.19,-0.26 29.78,-6.45 41.59,-15.79 16.24,-12.72 28.7,-29.36 42.1,-44.87 -3.43,21.9 -7.06,43.78 -9.83,65.78 33.51,-0.51 67.05,-0.71 100.51,1.29 109.76,6.07 218.45,26.2 324.4,55.09 48.11,13.28 95.77,28.38 142.17,46.82 17.07,7.07 34.27,14.12 50.14,23.67 -8.19,6.29 -16.97,11.82 -24.83,18.52 -30.64,22.84 -61.67,45.19 -92.47,67.84 -11.16,7.99 -22,16.48 -33.38,24.14 15.07,-0.53 30.12,-0.89 45.2,-1.2 -5.98,5.42 -12.66,9.98 -18.91,15.06 -53.29,41.57 -106.74,82.94 -159.94,124.62 -0.07,0.64 -0.22,1.92 -0.3,2.56 9.81,-0.42 19.62,-0.71 29.44,-1.09 -3.82,4.24 -8.74,7.28 -13.01,11.03 -87.69,70.62 -175.3,141.35 -263.04,211.92 -15.06,-14.88 -29.18,-30.72 -43.93,-45.93 -17.97,-19.01 -35.99,-37.98 -53.98,-56.97 -4.52,-0.69 -8.99,-1.65 -13.5,-2.39 3.67,6.69 10.14,12.76 9.59,20.97 -0.04,4.91 -3.57,8.59 -6.5,12.12 -4.22,7.2 -10.23,13.86 -18.37,16.54 -7.97,2.5 -17,1.81 -24.38,-2.16 -8,-4.23 -13.97,-11.22 -19.68,-18.06 8.06,0 16.09,0.69 24.06,1.86 2.51,0.49 5.05,0.08 7.3,-1.12 -0.34,-0.22 -1.03,-0.65 -1.37,-0.86 -1.11,-2.01 -2.47,-3.94 -2.85,-6.24 -1.23,-4.98 1.31,-9.87 0.87,-14.88 -2.29,-1.51 -4.24,-3.62 -6.8,-4.66 -5.91,0.7 -12.02,1.55 -17.91,0.15 -3.75,1.11 -7.65,0.81 -11.48,0.78 -5.81,2.44 -6.2,9.45 -10.63,13.29 -4.62,4.64 -12.74,3.87 -17.02,-0.87 -2.18,0.77 -4.37,1.49 -6.56,2.2 -0.49,5.71 -0.46,11.46 -1.3,17.14 -6.32,-4.16 -13.14,-8.69 -16.25,-15.89 -1.8,-5.68 -1.81,-12.28 1.16,-17.57 2.39,-3.21 5.34,-5.97 8.32,-8.65 -2.02,-1.08 -4.23,-2.14 -5.07,-4.43 -1.45,3.17 -2.74,6.41 -4.3,9.54 -9.76,-4.62 -14.91,-17.77 -10.15,-27.6 3.51,-6.22 10.23,-10.35 17.31,-11.01 2.82,0.01 4.8,-2.26 7.39,-3 4.4,-1.29 8.95,-2.16 13.56,-2.06 6.14,0.12 11.99,-1.92 18.01,-2.75 -2.45,-3.24 -4.68,-6.78 -5.3,-10.87 -1.85,-8.64 1.94,-17.32 7.02,-24.15 -0.77,-2.76 -0.96,-5.63 -0.42,-8.45 -23.64,-26.27 -47.17,-52.65 -70.74,-79 -32.87,-3.23 -65.72,-6.76 -98.6,-9.97 -15.42,2.55 -30.68,6.61 -46.22,8.57 9.48,-8.74 17.31,-19.05 24.88,-29.44 2.54,-1.33 5.64,-0.39 8.4,-0.86 4.82,0.05 8.91,-2.75 13.1,-4.73 -10.28,-2.89 -21.09,-3.96 -31.69,-2.34 -6.76,6.59 -11.86,14.65 -18.31,21.5 -5.14,-13.75 -8.94,-28.42 -7.89,-43.21 1.63,-11.9 12.51,-19.57 23,-23.48 3.05,-6.64 9.08,-11.31 15.32,-14.78 7.24,-3.82 15.12,-6.69 23.21,-7.94 -22.53,-25.77 -45.36,-51.3 -67.65,-77.26 -4.33,-5.69 -9.31,-10.86 -14.03,-16.22 7.21,-6.06 15.25,-11.02 23.32,-15.84 50.83,-29.17 107.46,-46.31 164.18,-59.82 -2.25,-2.96 -4.74,-5.97 -5.62,-9.67 -0.75,-3.81 0.33,-7.64 1.31,-11.29 -20.43,4.97 -40.51,11.29 -60.25,18.5 4,-3.52 7.83,-7.48 10.16,-12.32 -0.5,-12.03 -2.09,-24.03 -3.45,-36 -11.44,3.77 -22.72,8.03 -34.15,11.87 -0.93,7.84 -1.75,15.7 -2.88,23.52 -0.64,4.28 0.78,8.99 4.29,11.68 3.86,2.68 8.7,3.27 13.07,4.77 -24.89,6.77 -49.25,16.1 -71.3,29.6 4.48,-6.37 8.94,-12.75 13.47,-19.09 2,-2.59 2.08,-5.99 2.78,-9.06 12.26,-60.98 24.47,-121.97 36.74,-182.95 -11.7,-1.49 -23.46,-2.41 -35.18,-3.68 27.94,-12.94 57.35,-22.34 86.6,-31.81 14.17,63.68 27.75,127.5 42.03,191.15 10.7,-9.96 25.57,-12.67 39.35,-15.69 -0.06,-60.16 0.03,-120.33 -0.05,-180.49 -5.65,-3.78 -11.38,-7.44 -17.03,-11.23 m -92.01,50.06 c -1.74,8.42 -2.46,17.01 -3.77,25.5 -4.34,32.2 -8.92,64.37 -13.11,96.59 9.64,-3.03 19.2,-6.29 28.78,-9.5 -3.88,-37.54 -7.78,-75.08 -11.9,-112.59 M 497.03,388.3 c -20.57,2.35 -41.45,4.52 -61.07,11.5 -5.93,2.49 -12.89,5.15 -15.79,11.34 -1.98,5.25 2.79,9.28 5.87,12.82 10.27,10.69 25.3,13.81 38.39,19.61 6.54,2.82 12.58,6.61 18.7,10.21 -3.2,1.32 -6.66,1.76 -9.99,2.58 -45.15,10.16 -91.27,16.65 -135.27,31.41 -12.29,4.69 -25.37,9.88 -33.93,20.34 -5.74,6.73 -5.89,17.42 -0.23,24.22 5.35,5.89 12.92,9 20.14,11.89 30.08,11.12 62.38,16.07 91.16,30.67 6.35,2.53 12.44,5.63 18.4,8.96 -21.7,5.52 -43.98,8.92 -66.39,9.37 -21.57,1.36 -43.44,2.95 -64.1,9.78 -6.5,2.43 -13.57,4.31 -18.71,9.26 -2.87,2.64 -4.46,6.27 -6.35,9.61 -2.99,0.92 -6.01,1.79 -8.79,3.25 -5.21,2.54 -8.88,7.47 -11.23,12.64 -3.86,11.71 0.61,23.86 3.96,35.11 3.89,-4.78 7.59,-9.83 12.42,-13.73 2.09,-1.79 5.04,-1.58 7.61,-1.99 12.31,-0.89 25.49,-0.12 36.37,6.24 -4.28,5.84 -11.16,8.71 -17.64,11.35 -3.1,0.38 -6.23,0.25 -9.34,0.51 -4.73,5.33 -8.7,11.3 -13.46,16.63 10.12,-1.66 20.27,-3.25 30.16,-5.92 34.86,3.3 69.71,6.93 104.57,10.26 22.12,2.25 43.88,7.31 65.36,12.98 22.36,6.33 44.41,14.18 65.02,25.02 29.26,14.95 56.03,36.15 73.98,63.98 2.57,3.51 5.03,7.58 4.33,12.14 -17.65,-7.11 -36.36,-11.45 -55.18,-14.16 -7.67,-0.96 -15.81,1.27 -23.06,-2.14 -6.79,-1.85 -13.81,-4.85 -20.95,-3.2 -7.45,-4.17 -16.22,-6.77 -24.79,-5.43 -10.13,2.07 -19.61,11.44 -18.79,22.24 -0.42,4.13 0.03,8.82 3.57,11.57 -2.25,-8.86 6.43,-18.94 15.7,-16.05 -5.25,6.81 -7.78,15.71 -7.77,24.24 l -0.19,0.48 c -5.01,1.11 -10.23,1.11 -15.09,2.85 -7.26,2.52 -15.03,2.23 -22.59,2.6 -4.88,0.27 -8.34,4.46 -13.23,4.54 -7.5,0.46 -14.94,7.32 -13.69,15.17 l 1.21,-0.4 c 0.22,3.56 1.56,6.92 3.26,10.03 -0.26,-4 2.07,-8.41 6.39,-8.78 4.04,-0.48 3.68,5.12 7.11,5.93 3.82,0.29 7.78,-0.03 11.39,1.53 -5.97,5 -12.35,9.62 -17.27,15.73 -1.29,1.15 -0.9,2.94 -1.03,4.48 -1.4,5.69 2.15,11.06 6.22,14.65 0.34,-3.75 -1.18,-8.7 2.45,-11.25 3.88,-2.17 8.36,-3.03 12.33,-5.08 2.85,1.27 3.13,5.9 6.78,5.59 6.5,-0.92 6.62,-9.03 11.43,-12.23 1.41,-1.45 4.44,-2.31 3.92,-4.79 4.66,1.21 10,1.66 14.41,-0.69 5.83,2.91 12.26,0.23 18.35,0.29 4.6,0.2 7.33,4.28 10.74,6.77 5.09,4.16 0.96,10.83 1.21,16.19 -0.45,3.3 2.01,5.8 4.51,7.49 1.01,5.44 -4.12,10.73 -9.51,10.54 -4.44,-0.01 -8.79,-1.22 -13.24,-1.22 6.87,6.89 18.41,10.78 27.46,6.09 1.93,-0.51 4.19,-0.88 5.49,-2.56 4.35,-2.87 6.74,-7.68 9.88,-11.67 1.66,-2.17 4.17,-3.96 4.6,-6.84 0.79,-4.39 -1.95,-8.3 -4.24,-11.75 -3.17,-4.66 -6.68,-10.09 -4.74,-15.97 14.97,-0.31 29.81,2.39 44.75,3 7.97,0.87 16,0.87 24.01,1.12 1.97,-0.07 4.17,0.42 5.87,-0.94 l 0.58,2.09 0.62,-1.25 c 3.92,-0.63 5.97,5.83 10.11,3.09 2.56,1.7 2.02,5.01 1.68,7.65 -1.84,4.33 -7.27,4.19 -11.07,5.63 5.35,2.57 11.49,2.71 17.32,2.33 3.58,-0.16 6.53,-2.82 8.03,-5.93 1.77,-1.92 2.28,-4.74 2.52,-7.26 3.11,1.22 5.19,5 2.96,8 -3.65,4.26 -7.5,9.5 -13.51,10.21 -8.4,0.34 -17.71,0.11 -24.61,-5.34 -1.73,-1.24 -1.78,-3.4 -1.44,-5.29 5.27,-0.28 10.88,-1.16 15,-4.75 -17.12,-1.57 -34.29,-2.79 -51.46,-3.55 28.44,30.75 57.16,61.25 85.75,91.87 23.53,-33.89 46.92,-67.86 70.35,-101.81 -9.22,0.81 -18.05,4.15 -27.27,4.99 24.93,-35.23 49.97,-70.38 74.94,-105.57 5.87,-8.55 12.29,-16.73 17.8,-25.5 -9.99,2.53 -20.01,4.94 -30.02,7.41 -2.68,0.64 -5.34,1.53 -8.11,1.59 51.84,-75.9 103.33,-152.04 155.13,-227.97 4.89,-6.84 9.74,-13.72 14.33,-20.76 4.15,-0.35 8.32,-0.11 12.49,-0.17 64.01,-0.01 128.03,0 192.04,0 10.1,-0.25 20.26,0.5 30.33,-0.42 1.26,0.17 2.54,0.25 3.84,0.24 -2.67,-2.35 -6.23,-3.19 -9.36,-4.72 -39.47,-16.33 -80.16,-29.52 -121.05,-41.81 -67.6,-20 -136.33,-36.27 -205.82,-48.15 -76.25,-12.93 -153.56,-20.56 -230.95,-19.29 -34.37,0 -68.75,1.31 -102.98,4.43 m -137.11,61.64 c -40.82,12.32 -81.55,27.58 -116.2,53 26.36,29.81 52.45,59.87 78.99,89.51 13.06,-1.26 26.16,-1.96 39.25,-2.83 18.33,-1.68 36.89,-2.53 54.84,-6.89 -34.08,-15.76 -71.83,-20.85 -106.51,-34.95 -8.39,-3.86 -15.56,-11.17 -17.87,-20.26 -1.94,-10.11 2.18,-20.58 8.96,-28.03 6.51,-6.9 15.67,-10.23 24.04,-14.25 36.55,-15.65 76.13,-21.74 114.98,-28.93 8.01,-1.6 16.39,-2.29 23.82,-5.94 -13.5,-5.6 -28.92,-8.34 -39.62,-19.07 -21.58,6.12 -43.19,12.19 -64.68,18.64 m 571.36,53.07 c -25.45,37.83 -51.29,75.41 -76.89,113.14 -27.6,40.7 -55.53,81.2 -82.91,122.04 13.86,-3.02 27.6,-6.62 41.41,-9.91 -31.93,44.21 -64.06,88.28 -95.69,132.69 9.95,-2.52 19.91,-5 29.83,-7.62 -23.97,33.64 -49.06,66.51 -73.04,100.14 5,-3.46 9.5,-7.59 14.31,-11.31 74.2,-60.09 148.55,-120.01 222.67,-180.19 -15.25,2.6 -30.33,6.13 -45.52,9.07 51.43,-39.85 103.24,-79.24 154.82,-118.91 12.73,-9.93 25.81,-19.44 38.31,-29.65 -18.27,2.56 -36.5,5.49 -54.76,8.19 28.11,-20.85 56.22,-41.68 84.32,-62.52 29.19,-21.79 58.66,-43.23 87.68,-65.23 -24.25,-0.21 -48.51,-0.03 -72.75,-0.09 -57.27,0.11 -114.54,-0.21 -171.79,0.16 M 423.67,703.96 c 7.82,9.83 16.53,18.94 24.69,28.5 13.31,15.06 26.49,30.25 39.86,45.26 10.03,0.41 20.17,0.66 30,2.97 9.87,2.14 19.49,5.28 28.97,8.71 7.25,-0.61 14.57,-0.52 21.77,0.71 15.57,2.66 31.03,6.59 45.53,12.95 -5.1,-9.32 -11.66,-18.05 -20.01,-24.73 -15.94,-14.25 -33.99,-25.99 -52.83,-36.01 -36.89,-19.07 -76.95,-32 -117.98,-38.36 z"
       inkscape:connector-curvature="0"
       style="fill:#ffffff" />
    <path
       id="path58"
       d="m 848.5,185.66 c 5.8,-0.95 11.69,-0.12 17.47,0.59 5.46,0.81 11.11,2.64 15.07,6.67 2.59,2.71 1.98,6.65 2.03,10.07 -0.02,51.34 -0.02,102.68 0,154.02 0.25,4.46 -2.94,8.65 -7.24,9.74 -9.72,2.76 -19.78,-0.37 -29.32,-2.42 -3.17,-0.54 -6,-3.06 -6,-6.41 -0.56,-16.97 0.39,-33.97 -0.57,-50.93 0.04,-17.33 0.01,-34.66 0.02,-51.99 0.65,-8.34 0.32,-16.7 0.4,-25.05 0.19,-7.66 -0.93,-15.3 -0.18,-22.94 0.53,-5.86 -0.23,-11.77 0.4,-17.61 1.36,-2.93 5.13,-3.17 7.92,-3.74 z"
       inkscape:connector-curvature="0"
       style="fill:#1a5fad" />
    <path
       id="path60"
       d="m 957.95,190.85 c 20.85,5.41 41.59,11.25 62.36,16.95 19.71,46.23 39.46,92.44 59.17,138.66 1.78,3.87 3.07,7.99 5.29,11.64 0.63,-29.02 0.12,-58.05 0.28,-87.07 -0.11,-8.89 0.23,-17.78 -0.19,-26.66 -6.57,-7.47 -13.21,-14.89 -19.59,-22.53 24.19,9.2 48.44,18.22 72.58,27.55 -5.94,2.55 -11.7,5.48 -17.6,8.1 -0.58,31.15 -0.16,62.31 -0.29,93.47 -0.24,25.33 0.48,50.67 -0.01,76 0.17,6.38 0.3,12.76 0.23,19.15 -3.02,-0.29 -5.69,-1.75 -8.46,-2.81 -8.82,-3.59 -17.71,-7.03 -26.5,-10.68 -2.78,-4.76 -4.35,-10.19 -6.68,-15.2 -19.94,-47.72 -39.88,-95.44 -59.81,-143.16 -2.71,-6.07 -4.84,-12.42 -7.95,-18.3 -0.14,45.28 -0.09,90.57 -0.02,135.85 6.54,8.35 12.88,16.86 19.45,25.18 -15.01,-4.65 -30.18,-8.82 -45.41,-12.7 -9.6,-2.72 -19.49,-4.45 -28.95,-7.57 6.59,-3.15 12.94,-6.86 18.94,-11.04 0.44,-30.9 0.31,-61.83 -0.02,-92.73 0.81,-19.65 -0.23,-39.3 0.05,-58.95 0.61,-7.19 -0.22,-14.38 -0.06,-21.58 -5.61,-7.18 -11.26,-14.34 -16.81,-21.57 z"
       inkscape:connector-curvature="0"
       style="fill:#ffffff" />
    <path
       id="path62"
       d="m 346.5,243.44 c 4.12,37.51 8.02,75.05 11.9,112.59 -9.58,3.21 -19.14,6.47 -28.78,9.5 4.19,-32.22 8.77,-64.39 13.11,-96.59 1.31,-8.49 2.03,-17.08 3.77,-25.5 z"
       inkscape:connector-curvature="0"
       style="fill:#1a5fad" />
    <path
       id="path64"
       d="m 497.03,388.3 c 34.23,-3.12 68.61,-4.43 102.98,-4.43 77.39,-1.27 154.7,6.36 230.95,19.29 69.49,11.88 138.22,28.15 205.82,48.15 40.89,12.29 81.58,25.48 121.05,41.81 3.13,1.53 6.69,2.37 9.36,4.72 -1.3,0.01 -2.58,-0.07 -3.84,-0.24 -20.68,-7.24 -41.8,-13.11 -62.79,-19.38 -18.65,-5.37 -37.34,-10.67 -56.16,-15.46 -55.66,-15.03 -111.97,-27.64 -168.57,-38.62 -76.21,-14.2 -153.28,-24.87 -230.84,-27.17 -42.67,-0.74 -85.39,-0.35 -128,2.13 -21.75,1.6 -43.63,3.14 -64.95,8.01 -6.4,1.76 -13.51,3.05 -18.31,8.04 1.63,5.06 6.33,7.95 10.86,10.16 14.26,6.98 30.17,11.07 42.77,21.11 15.03,11.16 28.64,25.65 34.36,43.84 2.47,7.3 2.78,15.11 2.06,22.72 -3.29,18.49 -11.66,36.44 -25.47,49.41 -15.03,14.44 -35.05,22.33 -55.1,26.89 -35.51,8.25 -72.29,5.77 -108.22,10.78 -13.24,1.6 -26.37,4.42 -38.87,9.12 -2.99,1.02 -5.5,3 -7.87,5.04 5.59,3.49 12.17,7.31 18.98,6.07 21.2,-9.35 45.55,-13.22 68.22,-7.23 -3.46,0.76 -7.61,0.23 -10.18,3.12 -4.48,4.28 -9.59,8 -13.3,13.02 9.02,4.37 17.31,10.21 24.34,17.36 -9.87,0.07 -19.47,-3.44 -29.35,-2.64 -2.53,1.35 0.3,4.62 2.33,4.85 19.58,5.4 39.72,13.64 52.67,30.03 -22.97,-2.69 -45.96,-5.28 -68.93,-7.99 -1.53,-0.09 -3.25,-0.54 -4.54,0.55 -5.36,3.7 -10.7,7.45 -16.4,10.62 50.4,8.01 101.74,9.02 151.83,19.19 37.26,7.45 72.97,22.3 104.63,43.28 12.2,8.2 23.83,17.39 33.79,28.24 11.46,12.16 20.52,26.96 24.03,43.45 3.09,-9.66 -2.22,-18.84 -6.4,-27.2 -11.59,-22.31 -30.42,-40.01 -51.36,-53.5 -12.28,-8.1 -25.26,-15.11 -38.46,-21.56 -24.8,-10.48 -50.27,-20.67 -77.3,-23.26 16.28,-4.95 33.43,-6.39 50.37,-6.86 13.94,-0.76 27.92,-0.32 41.88,-0.65 2.33,0.48 2.57,-2.18 3.17,-3.74 -10.45,-8.62 -23.9,-11.92 -35.36,-18.79 10.2,-2.37 20.66,-3.56 31.13,-3.64 15.98,-0.27 31.96,-1.23 47.95,-0.96 5.12,-0.14 10.73,0.35 15.36,-2.2 -13.74,-7.26 -27.65,-14.3 -42.17,-19.89 -11.55,-4.61 -23.28,-8.99 -35.52,-11.35 9.7,-3.04 19.51,-5.7 29.25,-8.61 2.77,-0.88 5.73,-2.44 6.71,-5.38 0.78,-1.96 -0.77,-3.9 -2.36,-4.87 -5.11,-3.4 -11.15,-5.09 -17.15,-6.04 -10.09,-1.84 -20.35,-3.1 -30.63,-2.73 12.8,-8.51 28.21,-13.25 38.83,-24.86 16.41,3.07 33.01,5.26 49.69,5.91 20.33,-0.36 40.74,0.97 60.99,-1.35 48.57,-4.84 96.41,-17.04 141.42,-35.9 -24.47,-8.31 -49.57,-14.78 -74.98,-19.43 3.5,-0.37 7.03,-0.44 10.56,-0.38 57.39,0.05 114.78,-0.04 172.17,0.05 -51.8,75.93 -103.29,152.07 -155.13,227.97 2.77,-0.06 5.43,-0.95 8.11,-1.59 10.01,-2.47 20.03,-4.88 30.02,-7.41 -5.51,8.77 -11.93,16.95 -17.8,25.5 -24.97,35.19 -50.01,70.34 -74.94,105.57 9.22,-0.84 18.05,-4.18 27.27,-4.99 -23.43,33.95 -46.82,67.92 -70.35,101.81 -28.59,-30.62 -57.31,-61.12 -85.75,-91.87 17.17,0.76 34.34,1.98 51.46,3.55 -4.12,3.59 -9.73,4.47 -15,4.75 -0.34,1.89 -0.29,4.05 1.44,5.29 6.9,5.45 16.21,5.68 24.61,5.34 6.01,-0.71 9.86,-5.95 13.51,-10.21 2.23,-3 0.15,-6.78 -2.96,-8 0,-5 0.7,-10.28 -1.46,-14.95 -1.37,-2.87 -1.61,-6.53 -4.42,-8.46 -6.59,-4.64 -12.09,-10.72 -19.15,-14.7 2.73,-0.23 5.22,1.07 7.73,1.97 9.48,3.68 19,7.57 29.11,9.15 2.01,0.24 4.03,-0.04 6.03,-0.25 -0.02,-1.9 0.39,-4.17 -1.42,-5.43 -4.1,-4.16 -10.32,-2.12 -15.46,-2.6 1.69,-2.3 4.18,-3.67 6.93,-4.31 1.32,-3.48 -2.6,-4.52 -4.7,-6.32 2.6,-0.33 5.2,-0.76 7.74,-1.47 -11.1,-8.36 -26.17,-2.36 -37.97,-8.77 -5.11,-3.8 -10.46,-7.55 -16.51,-9.67 -16.3,-2.49 -31.98,-8.49 -48.53,-9.47 -4.02,-0.29 -8.19,0.43 -12.07,-0.93 -5.65,-1.99 -11.39,-4.1 -17.44,-4.32 -2.88,-0.31 -6,-0.07 -8.57,-1.63 -4.42,-2.34 -9.2,-4.55 -14.31,-4.36 -5.02,0.14 -10.54,-0.81 -14.97,2.17 -4.96,3.42 -10.07,8.61 -9.01,15.2 -0.59,0.71 -1.18,1.43 -1.79,2.14 -0.82,-10.8 8.66,-20.17 18.79,-22.24 8.57,-1.34 17.34,1.26 24.79,5.43 7.14,-1.65 14.16,1.35 20.95,3.2 7.25,3.41 15.39,1.18 23.06,2.14 18.82,2.71 37.53,7.05 55.18,14.16 0.7,-4.56 -1.76,-8.63 -4.33,-12.14 -17.95,-27.83 -44.72,-49.03 -73.98,-63.98 -20.61,-10.84 -42.66,-18.69 -65.02,-25.02 -21.48,-5.67 -43.24,-10.73 -65.36,-12.98 -34.86,-3.33 -69.71,-6.96 -104.57,-10.26 -9.89,2.67 -20.04,4.26 -30.16,5.92 4.76,-5.33 8.73,-11.3 13.46,-16.63 3.11,-0.26 6.24,-0.13 9.34,-0.51 6.48,-2.64 13.36,-5.51 17.64,-11.35 -10.88,-6.36 -24.06,-7.13 -36.37,-6.24 -2.57,0.41 -5.52,0.2 -7.61,1.99 -4.83,3.9 -8.53,8.95 -12.42,13.73 -3.35,-11.25 -7.82,-23.4 -3.96,-35.11 2.35,-5.17 6.02,-10.1 11.23,-12.64 2.78,-1.46 5.8,-2.33 8.79,-3.25 1.89,-3.34 3.48,-6.97 6.35,-9.61 5.14,-4.95 12.21,-6.83 18.71,-9.26 20.66,-6.83 42.53,-8.42 64.1,-9.78 22.41,-0.45 44.69,-3.85 66.39,-9.37 -5.96,-3.33 -12.05,-6.43 -18.4,-8.96 -28.78,-14.6 -61.08,-19.55 -91.16,-30.67 -7.22,-2.89 -14.79,-6 -20.14,-11.89 -5.66,-6.8 -5.51,-17.49 0.23,-24.22 8.56,-10.46 21.64,-15.65 33.93,-20.34 44,-14.76 90.12,-21.25 135.27,-31.41 3.33,-0.82 6.79,-1.26 9.99,-2.58 -6.12,-3.6 -12.16,-7.39 -18.7,-10.21 -13.09,-5.8 -28.12,-8.92 -38.39,-19.61 -3.08,-3.54 -7.85,-7.57 -5.87,-12.82 2.9,-6.19 9.86,-8.85 15.79,-11.34 19.62,-6.98 40.5,-9.15 61.07,-11.5 m -26.31,78.3 c 8.14,0.8 16.65,3.29 22.05,9.82 2.68,3.42 0.91,8.07 -1.17,11.31 5.71,-1.12 11.45,-2.13 17.15,-3.29 0.2,-2.14 -1.59,-3.93 -2.46,-5.78 -3.83,-5.77 -7.75,-11.97 -13.84,-15.59 -7.25,1.13 -14.52,2.16 -21.73,3.53 m -123.04,26.08 c -11.88,3.75 -23.86,8.97 -32.54,18.19 -3.8,4 -7.04,10.45 -3.41,15.59 5.26,7.28 14.26,10.33 22.35,13.35 22.13,7.13 45.12,11.55 66.75,20.25 14.27,5.83 28.29,12.45 41.22,20.88 3.78,-0.19 7.29,-1.99 10.89,-3.06 18.21,-6.55 36.25,-16.29 47.83,-32.29 9.88,-13.86 14.16,-31.41 12.99,-48.3 -10.01,-1.94 -20.14,-3.46 -29.86,-6.62 2.54,-2 5.22,-4.35 5.61,-7.77 1.37,-4.34 -2.83,-7.48 -6.27,-9.06 -9.08,-4.1 -19.31,-5.53 -29.2,-4.53 -36.03,4.84 -71.46,13.35 -106.36,23.37 m 147.97,-2.04 c 5.98,0.47 11.82,1.97 17.78,2.61 -0.02,-1.87 -0.69,-3.58 -1.57,-5.19 -5.51,-0.22 -10.87,1.46 -16.21,2.58 M 327.66,615.8 c -4.25,1.09 -8.88,1.31 -12.71,3.56 l -0.21,-0.16 c -2.07,0.85 -4.16,1.74 -5.95,3.12 5.39,3.12 10.78,6.87 17.23,7.19 13.88,0.94 26.49,-6.7 36.77,-15.25 -4.94,-0.73 -9.92,-1.18 -14.91,-1.11 -6.79,-0.32 -13.54,1.52 -20.22,2.65 m -45.63,9.84 c 1.98,1.82 4,3.63 6.32,5.03 9.1,5.65 18.64,10.6 28.5,14.82 -0.28,-0.79 -0.85,-2.36 -1.13,-3.15 -4.59,-4.4 -9,-8.99 -13.26,-13.72 -4.42,-4.8 -9.25,-9.69 -15.58,-11.84 -3.03,1.88 -5.47,5.12 -4.85,8.86 m -19.63,10.61 c -3.27,6.47 -2.31,14.01 -1.77,20.98 0.99,2.07 1.48,4.32 2.14,6.51 3.7,-2.1 6.43,-5.53 9.85,-8.02 4.13,-2.14 8.96,-1.91 13.4,-2.97 3.88,0.11 7.93,-0.61 11.69,0.57 3.38,0.56 6.95,0.53 10.14,1.92 1.79,0.42 3.57,0.88 5.33,1.46 2.93,1.53 6.25,2.39 8.72,4.72 0.94,0.12 1.88,0.25 2.82,0.38 -0.08,-1.36 0.02,-2.74 -0.32,-4.06 -5.31,-7.1 -13.26,-11.44 -21.21,-14.95 -8.74,-3.64 -17.45,-8.11 -23.72,-15.39 -7.02,-1.71 -13.92,2.75 -17.07,8.85 m 58.21,30.04 c -4.11,4.92 -9.87,8.17 -15.76,10.51 -3.07,1.68 -6.65,1.42 -9.99,2.12 -4.07,-0.03 -5.07,4.57 -7.69,6.83 3.34,0.07 6.7,0.16 10.01,-0.44 10.3,-2.39 18.44,-9.46 27.01,-15.24 0.03,-1.26 0.07,-2.51 0.11,-3.75 -1.23,-0.03 -2.46,-0.04 -3.69,-0.03 z"
       inkscape:connector-curvature="0"
       style="fill:#1a5fad" />
    <path
       id="path66"
       d="m 516.99,399.1 c 42.61,-2.48 85.33,-2.87 128,-2.13 77.56,2.3 154.63,12.97 230.84,27.17 56.6,10.98 112.91,23.59 168.57,38.62 -28.05,-3.83 -56.29,-6.28 -84.42,-9.46 -40.57,-4.14 -81.1,-8.78 -121.74,-11.82 -37.22,-2.86 -74.44,-5.64 -111.7,-7.86 -6.18,-1 -12.46,-0.32 -18.65,-1.22 3.32,2.34 7.53,2.41 11.34,3.38 35.72,6.91 71.77,11.89 107.75,17.15 37.14,5.18 74.39,9.83 111.67,13.77 -21.56,1.18 -43.08,2.84 -64.61,4.27 -5.72,-0.16 -11.32,1.32 -17.04,1.04 -13.32,1.23 -26.69,1.6 -40,2.94 -7.66,0.18 -15.32,-0.24 -22.96,0.35 -15.31,1.42 -30.71,0.09 -46.04,1.18 -19.36,0.9 -38.77,0.58 -58.14,0.17 0.04,1.4 0.08,2.81 0.13,4.22 5.92,1.5 12.07,0.78 18.06,1.76 32.68,2.36 65.35,4.84 98.01,7.36 6.13,0.03 12.16,1.46 18.31,1.1 -1.29,2.39 -2.98,4.61 -5.34,6.02 -5.83,3.64 -12.64,5.28 -19.31,6.59 -14.13,2.3 -28.43,3.19 -42.67,4.3 -8.7,-0.28 -17.36,0.54 -26.02,1.03 -36.01,-0.11 -72.02,-0.01 -108.03,-0.03 -4.68,0.03 -9.37,-0.75 -14.02,0.05 3.3,1.31 6.82,1.92 10.28,2.69 25.94,5.8 51.91,11.45 77.91,16.98 6.62,1.52 13.35,2.61 19.91,4.45 -1.71,1.99 -3.68,3.86 -6.29,4.53 -12.02,3.81 -24.72,4.49 -37.17,5.82 -15.83,1.44 -31.68,2.35 -47.53,3.46 -7.74,-0.4 -15.38,1.27 -23.11,1.02 -10.99,-0.23 -21.98,0.6 -32.96,0.04 -2.83,0.02 -5.75,-0.45 -8.5,0.25 -19.21,15.54 -39.9,29.65 -62.66,39.44 -3.99,2.04 -8.8,2.3 -12.38,5.11 9.7,0.24 19.33,1.43 29,2.07 10.28,-0.37 20.54,0.89 30.63,2.73 6,0.95 12.04,2.64 17.15,6.04 1.59,0.97 3.14,2.91 2.36,4.87 -0.98,2.94 -3.94,4.5 -6.71,5.38 -9.74,2.91 -19.55,5.57 -29.25,8.61 12.24,2.36 23.97,6.74 35.52,11.35 14.52,5.59 28.43,12.63 42.17,19.89 -4.63,2.55 -10.24,2.06 -15.36,2.2 -15.99,-0.27 -31.97,0.69 -47.95,0.96 -10.47,0.08 -20.93,1.27 -31.13,3.64 11.46,6.87 24.91,10.17 35.36,18.79 -0.6,1.56 -0.84,4.22 -3.17,3.74 -13.96,0.33 -27.94,-0.11 -41.88,0.65 -16.94,0.47 -34.09,1.91 -50.37,6.86 27.03,2.59 52.5,12.78 77.3,23.26 13.2,6.45 26.18,13.46 38.46,21.56 20.94,13.49 39.77,31.19 51.36,53.5 4.18,8.36 9.49,17.54 6.4,27.2 -3.51,-16.49 -12.57,-31.29 -24.03,-43.45 -9.96,-10.85 -21.59,-20.04 -33.79,-28.24 C 536.89,723.47 501.18,708.62 463.92,701.17 413.83,691 362.49,689.99 312.09,681.98 c 5.7,-3.17 11.04,-6.92 16.4,-10.62 1.29,-1.09 3.01,-0.64 4.54,-0.55 22.97,2.71 45.96,5.3 68.93,7.99 -12.95,-16.39 -33.09,-24.63 -52.67,-30.03 -2.03,-0.23 -4.86,-3.5 -2.33,-4.85 9.88,-0.8 19.48,2.71 29.35,2.64 -7.03,-7.15 -15.32,-12.99 -24.34,-17.36 3.71,-5.02 8.82,-8.74 13.3,-13.02 2.57,-2.89 6.72,-2.36 10.18,-3.12 -22.67,-5.99 -47.02,-2.12 -68.22,7.23 -6.81,1.24 -13.39,-2.58 -18.98,-6.07 2.37,-2.04 4.88,-4.02 7.87,-5.04 12.5,-4.7 25.63,-7.52 38.87,-9.12 35.93,-5.01 72.71,-2.53 108.22,-10.78 20.05,-4.56 40.07,-12.45 55.1,-26.89 13.81,-12.97 22.18,-30.92 25.47,-49.41 0.72,-7.61 0.41,-15.42 -2.06,-22.72 -5.72,-18.19 -19.33,-32.68 -34.36,-43.84 -12.6,-10.04 -28.51,-14.13 -42.77,-21.11 -4.53,-2.21 -9.23,-5.1 -10.86,-10.16 4.8,-4.99 11.91,-6.28 18.31,-8.04 21.32,-4.87 43.2,-6.41 64.95,-8.01 z"
       inkscape:connector-curvature="0"
       style="fill:#ffffff" />
    <path
       id="path68"
       d="m 359.92,449.94 c 21.49,-6.45 43.1,-12.52 64.68,-18.64 10.7,10.73 26.12,13.47 39.62,19.07 -7.43,3.65 -15.81,4.34 -23.82,5.94 -38.85,7.19 -78.43,13.28 -114.98,28.93 -8.37,4.02 -17.53,7.35 -24.04,14.25 -6.78,7.45 -10.9,17.92 -8.96,28.03 2.31,9.09 9.48,16.4 17.87,20.26 34.68,14.1 72.43,19.19 106.51,34.95 -17.95,4.36 -36.51,5.21 -54.84,6.89 -13.09,0.87 -26.19,1.57 -39.25,2.83 -26.54,-29.64 -52.63,-59.7 -78.99,-89.51 34.65,-25.42 75.38,-40.68 116.2,-53 z"
       inkscape:connector-curvature="0"
       style="fill:#1a5fad" />
    <path
       id="path70"
       d="m 707.89,432.4 c 6.19,0.9 12.47,0.22 18.65,1.22 37.26,2.22 74.48,5 111.7,7.86 40.64,3.04 81.17,7.68 121.74,11.82 28.13,3.18 56.37,5.63 84.42,9.46 18.82,4.79 37.51,10.09 56.16,15.46 20.99,6.27 42.11,12.14 62.79,19.38 -10.07,0.92 -20.23,0.17 -30.33,0.42 -64.01,0 -128.03,-0.01 -192.04,0 -4.17,0.06 -8.34,-0.18 -12.49,0.17 -4.59,7.04 -9.44,13.92 -14.33,20.76 -57.39,-0.09 -114.78,0 -172.17,-0.05 -3.53,-0.06 -7.06,0.01 -10.56,0.38 25.41,4.65 50.51,11.12 74.98,19.43 -45.01,18.86 -92.85,31.06 -141.42,35.9 -20.25,2.32 -40.66,0.99 -60.99,1.35 -16.68,-0.65 -33.28,-2.84 -49.69,-5.91 -10.62,11.61 -26.03,16.35 -38.83,24.86 -9.67,-0.64 -19.3,-1.83 -29,-2.07 3.58,-2.81 8.39,-3.07 12.38,-5.11 22.76,-9.79 43.45,-23.9 62.66,-39.44 2.75,-0.7 5.67,-0.23 8.5,-0.25 10.98,0.56 21.97,-0.27 32.96,-0.04 7.73,0.25 15.37,-1.42 23.11,-1.02 15.85,-1.11 31.7,-2.02 47.53,-3.46 12.45,-1.33 25.15,-2.01 37.17,-5.82 2.61,-0.67 4.58,-2.54 6.29,-4.53 -6.56,-1.84 -13.29,-2.93 -19.91,-4.45 -26,-5.53 -51.97,-11.18 -77.91,-16.98 -3.46,-0.77 -6.98,-1.38 -10.28,-2.69 4.65,-0.8 9.34,-0.02 14.02,-0.05 36.01,0.02 72.02,-0.08 108.03,0.03 8.66,-0.49 17.32,-1.31 26.02,-1.03 14.24,-1.11 28.54,-2 42.67,-4.3 6.67,-1.31 13.48,-2.95 19.31,-6.59 2.36,-1.41 4.05,-3.63 5.34,-6.02 -6.15,0.36 -12.18,-1.07 -18.31,-1.1 -32.66,-2.52 -65.33,-5 -98.01,-7.36 -5.99,-0.98 -12.14,-0.26 -18.06,-1.76 -0.05,-1.41 -0.09,-2.82 -0.13,-4.22 19.37,0.41 38.78,0.73 58.14,-0.17 15.33,-1.09 30.73,0.24 46.04,-1.18 7.64,-0.59 15.3,-0.17 22.96,-0.35 13.31,-1.34 26.68,-1.71 40,-2.94 5.72,0.28 11.32,-1.2 17.04,-1.04 21.53,-1.43 43.05,-3.09 64.61,-4.27 -37.28,-3.94 -74.53,-8.59 -111.67,-13.77 -35.98,-5.26 -72.03,-10.24 -107.75,-17.15 -3.81,-0.97 -8.02,-1.04 -11.34,-3.38 z"
       inkscape:connector-curvature="0"
       style="fill:#b2b2b2" />
    <path
       id="path72"
       d="m 470.72,466.6 c 7.21,-1.37 14.48,-2.4 21.73,-3.53 6.09,3.62 10.01,9.82 13.84,15.59 0.87,1.85 2.66,3.64 2.46,5.78 -5.7,1.16 -11.44,2.17 -17.15,3.29 2.08,-3.24 3.85,-7.89 1.17,-11.31 -5.4,-6.53 -13.91,-9.02 -22.05,-9.82 z"
       inkscape:connector-curvature="0"
       style="fill:#ffffff" />
    <path
       id="path74"
       d="m 347.68,492.68 c 34.9,-10.02 70.33,-18.53 106.36,-23.37 9.89,-1 20.12,0.43 29.2,4.53 3.44,1.58 7.64,4.72 6.27,9.06 -0.39,3.42 -3.07,5.77 -5.61,7.77 9.72,3.16 19.85,4.68 29.86,6.62 1.17,16.89 -3.11,34.44 -12.99,48.3 -11.58,16 -29.62,25.74 -47.83,32.29 -3.6,1.07 -7.11,2.87 -10.89,3.06 -12.93,-8.43 -26.95,-15.05 -41.22,-20.88 -21.63,-8.7 -44.62,-13.12 -66.75,-20.25 -8.09,-3.02 -17.09,-6.07 -22.35,-13.35 -3.63,-5.14 -0.39,-11.59 3.41,-15.59 8.68,-9.22 20.66,-14.44 32.54,-18.19 z"
       inkscape:connector-curvature="0"
       style="fill:#ffffff" />
    <path
       id="path76"
       d="m 495.65,490.64 c 5.34,-1.12 10.7,-2.8 16.21,-2.58 0.88,1.61 1.55,3.32 1.57,5.19 -5.96,-0.64 -11.8,-2.14 -17.78,-2.61 z"
       inkscape:connector-curvature="0"
       style="fill:#ffffff" />
    <path
       id="path78"
       d="m 931.28,503.01 c 57.25,-0.37 114.52,-0.05 171.79,-0.16 24.24,0.06 48.5,-0.12 72.75,0.09 -29.02,22 -58.49,43.44 -87.68,65.23 -28.1,20.84 -56.21,41.67 -84.32,62.52 18.26,-2.7 36.49,-5.63 54.76,-8.19 -12.5,10.21 -25.58,19.72 -38.31,29.65 -51.58,39.67 -103.39,79.06 -154.82,118.91 15.19,-2.94 30.27,-6.47 45.52,-9.07 -74.12,60.18 -148.47,120.1 -222.67,180.19 -4.81,3.72 -9.31,7.85 -14.31,11.31 23.98,-33.63 49.07,-66.5 73.04,-100.14 -9.92,2.62 -19.88,5.1 -29.83,7.62 31.63,-44.41 63.76,-88.48 95.69,-132.69 -13.81,3.29 -27.55,6.89 -41.41,9.91 27.38,-40.84 55.31,-81.34 82.91,-122.04 25.6,-37.73 51.44,-75.31 76.89,-113.14 m 7.09,11.4 c -48.22,69.13 -96.37,138.32 -144.52,207.5 13.77,-3.4 27.64,-6.43 41.49,-9.51 -32.86,45.53 -66.54,90.49 -99.42,136 10.54,-2.68 20.92,-5.94 31.49,-8.5 -20.23,26.55 -41.51,52.33 -61.62,78.96 56.19,-46.18 112.41,-92.35 168.45,-138.72 -20.94,5.95 -41.88,11.92 -62.9,17.61 5.97,-5.23 12.41,-9.9 18.6,-14.87 32.26,-25.37 64.53,-50.72 96.79,-76.09 27.06,-21.39 54.37,-42.47 81.27,-64.06 -17.14,3.09 -34.18,6.75 -51.34,9.72 28.77,-21.89 58.01,-43.2 86.95,-64.88 32.84,-24.39 65.63,-48.84 98.49,-73.2 -67.91,0.13 -135.82,0.05 -203.73,0.04 z"
       inkscape:connector-curvature="0"
       style="fill:#1a5fad" />
    <path
       id="path80"
       d="m 938.37,514.41 c 67.91,0.01 135.82,0.09 203.73,-0.04 -32.86,24.36 -65.65,48.81 -98.49,73.2 -28.94,21.68 -58.18,42.99 -86.95,64.88 17.16,-2.97 34.2,-6.63 51.34,-9.72 -26.9,21.59 -54.21,42.67 -81.27,64.06 -32.26,25.37 -64.53,50.72 -96.79,76.09 -6.19,4.97 -12.63,9.64 -18.6,14.87 21.02,-5.69 41.96,-11.66 62.9,-17.61 -56.04,46.37 -112.26,92.54 -168.45,138.72 20.11,-26.63 41.39,-52.41 61.62,-78.96 -10.57,2.56 -20.95,5.82 -31.49,8.5 32.88,-45.51 66.56,-90.47 99.42,-136 -13.85,3.08 -27.72,6.11 -41.49,9.51 48.15,-69.18 96.3,-138.37 144.52,-207.5 z"
       inkscape:connector-curvature="0"
       style="fill:#ffffff" />
    <path
       id="path82"
       d="m 327.66,615.8 c 6.68,-1.13 13.43,-2.97 20.22,-2.65 -0.65,3.93 -2.01,8.04 -5.39,10.47 -5.59,3.94 -13.52,4.77 -19.58,1.38 -2.89,-1.53 -5.42,-3.61 -7.96,-5.64 3.83,-2.25 8.46,-2.47 12.71,-3.56 m 10.72,0.34 c -2.68,0.99 -1.19,5.12 1.53,3.82 2.24,-1.2 0.39,-3.79 -1.53,-3.82 z"
       inkscape:connector-curvature="0"
       style="fill:#000000" />
    <path
       id="path84"
       d="m 347.88,613.15 c 4.99,-0.07 9.97,0.38 14.91,1.11 -10.28,8.55 -22.89,16.19 -36.77,15.25 -6.45,-0.32 -11.84,-4.07 -17.23,-7.19 1.79,-1.38 3.88,-2.27 5.95,-3.12 l 0.21,0.16 c 2.54,2.03 5.07,4.11 7.96,5.64 6.06,3.39 13.99,2.56 19.58,-1.38 3.38,-2.43 4.74,-6.54 5.39,-10.47 z"
       inkscape:connector-curvature="0"
       style="fill:#ffffff" />
    <path
       id="path86"
       d="m 338.38,616.14 c 1.92,0.03 3.77,2.62 1.53,3.82 -2.72,1.3 -4.21,-2.83 -1.53,-3.82 z"
       inkscape:connector-curvature="0"
       style="fill:#ffffff" />
    <path
       id="path88"
       d="m 282.03,625.64 c -0.62,-3.74 1.82,-6.98 4.85,-8.86 6.33,2.15 11.16,7.04 15.58,11.84 4.26,4.73 8.67,9.32 13.26,13.72 0.28,0.79 0.85,2.36 1.13,3.15 -9.86,-4.22 -19.4,-9.17 -28.5,-14.82 -2.32,-1.4 -4.34,-3.21 -6.32,-5.03 m 7.97,-1.4 c -0.23,3.78 5.18,6.38 7.42,2.94 -0.42,-0.5 -1.27,-1.49 -1.7,-1.99 -1.89,-0.42 -3.8,-0.77 -5.72,-0.95 z"
       inkscape:connector-curvature="0"
       style="fill:#ffffff" />
    <path
       id="path90"
       d="m 290,624.24 c 1.92,0.18 3.83,0.53 5.72,0.95 0.43,0.5 1.28,1.49 1.7,1.99 -2.24,3.44 -7.65,0.84 -7.42,-2.94 z"
       inkscape:connector-curvature="0"
       style="fill:#1a5fad" />
    <path
       id="path92"
       d="m 262.4,636.25 c 3.15,-6.1 10.05,-10.56 17.07,-8.85 6.27,7.28 14.98,11.75 23.72,15.39 7.95,3.51 15.9,7.85 21.21,14.95 0.34,1.32 0.24,2.7 0.32,4.06 -0.94,-0.13 -1.88,-0.26 -2.82,-0.38 -2.47,-2.33 -5.79,-3.19 -8.72,-4.72 -1.76,-0.58 -3.54,-1.04 -5.33,-1.46 -3.19,-1.39 -6.76,-1.36 -10.14,-1.92 -3.76,-1.18 -7.81,-0.46 -11.69,-0.57 -4.44,1.06 -9.27,0.83 -13.4,2.97 -3.42,2.49 -6.15,5.92 -9.85,8.02 -0.66,-2.19 -1.15,-4.44 -2.14,-6.51 -0.54,-6.97 -1.5,-14.51 1.77,-20.98 z"
       inkscape:connector-curvature="0"
       style="fill:#f9b218" />
    <path
       id="path94"
       d="m 320.61,666.29 c 1.23,-0.01 2.46,0 3.69,0.03 -0.04,1.24 -0.08,2.49 -0.11,3.75 -8.57,5.78 -16.71,12.85 -27.01,15.24 -3.31,0.6 -6.67,0.51 -10.01,0.44 2.62,-2.26 3.62,-6.86 7.69,-6.83 3.34,-0.7 6.92,-0.44 9.99,-2.12 5.89,-2.34 11.65,-5.59 15.76,-10.51 z"
       inkscape:connector-curvature="0"
       style="fill:#f9b218" />
    <path
       id="path96"
       d="m 423.67,703.96 c 41.03,6.36 81.09,19.29 117.98,38.36 18.84,10.02 36.89,21.76 52.83,36.01 8.35,6.68 14.91,15.41 20.01,24.73 -14.5,-6.36 -29.96,-10.29 -45.53,-12.95 -7.2,-1.23 -14.52,-1.32 -21.77,-0.71 -9.48,-3.43 -19.1,-6.57 -28.97,-8.71 -9.83,-2.31 -19.97,-2.56 -30,-2.97 -13.37,-15.01 -26.55,-30.2 -39.86,-45.26 -8.16,-9.56 -16.87,-18.67 -24.69,-28.5 z"
       inkscape:connector-curvature="0"
       style="fill:#1a5fad" />
    <path
       id="path98"
       d="m 489.21,790.31 c 4.43,-2.98 9.95,-2.03 14.97,-2.17 5.11,-0.19 9.89,2.02 14.31,4.36 2.57,1.56 5.69,1.32 8.57,1.63 6.05,0.22 11.79,2.33 17.44,4.32 3.88,1.36 8.05,0.64 12.07,0.93 16.55,0.98 32.23,6.98 48.53,9.47 6.05,2.12 11.4,5.87 16.51,9.67 11.8,6.41 26.87,0.41 37.97,8.77 -2.54,0.71 -5.14,1.14 -7.74,1.47 2.1,1.8 6.02,2.84 4.7,6.32 -2.75,0.64 -5.24,2.01 -6.93,4.31 5.14,0.48 11.36,-1.56 15.46,2.6 1.81,1.26 1.4,3.53 1.42,5.43 -2,0.21 -4.02,0.49 -6.03,0.25 -10.11,-1.58 -19.63,-5.47 -29.11,-9.15 -2.51,-0.9 -5,-2.2 -7.73,-1.97 7.06,3.98 12.56,10.06 19.15,14.7 2.81,1.93 3.05,5.59 4.42,8.46 2.16,4.67 1.46,9.95 1.46,14.95 -0.24,2.52 -0.75,5.34 -2.52,7.26 -1.4,-0.06 -2.8,-0.12 -4.18,-0.18 0.55,-3.88 1.64,-7.96 0.24,-11.78 -1.26,-3.46 -3.06,-6.69 -4.62,-10.01 -3.88,-0.16 -8.12,3.01 -11.54,0 -3.72,-2.41 -8.52,-6.75 -5.77,-11.57 2.16,0.02 4.28,-0.45 6.17,-1.53 -4.06,-2.71 -9.97,2.2 -12.95,-2.68 2.01,-1.43 4.28,-2.39 6.6,-3.19 -4.15,-1.68 -9.21,0.65 -12.89,-2.25 -2.77,-1.98 0.07,-5.06 1.07,-7.22 -2.74,0.55 -5.52,0.88 -8.3,1.08 -2.77,0.16 -5.58,0.6 -8.33,0.02 -15.82,-3 -32.43,1.97 -47.91,-3.35 -3.43,-0.96 -6.48,-2.79 -9.57,-4.48 -0.89,-0.71 -1.63,0.59 -2.29,1 -2.01,1.75 -3.98,3.76 -6.61,4.53 -2.18,0.47 -4.42,0.32 -6.62,0.47 1.98,-4.67 3.26,-10.6 8.41,-12.82 3.96,-1.34 8.16,0.24 12.14,0.8 3.72,4.15 9.37,5.28 14.69,5.61 3.77,0.07 7.54,1.93 11.28,0.72 2.67,-1.13 5.23,1.03 7.95,0.43 7.75,-0.87 15.53,0.28 22.98,2.44 -3,-2.62 -7.82,-4.25 -7.79,-8.94 -1.3,1.72 -2.16,4.16 -4.32,4.96 -2.79,-0.16 -4.48,-2.56 -5.63,-4.82 -0.89,1.09 -1.79,2.19 -2.67,3.29 -2.34,-0.27 -4.67,-0.6 -6.97,-1.06 -0.15,-0.88 -0.45,-2.62 -0.6,-3.49 -1.68,1.02 -2.39,2.81 -2.98,4.58 -3.6,1.05 -7.37,-0.34 -9.49,-3.4 -2.53,1.12 -5.59,1.74 -8.15,0.42 -0.94,-0.95 -1.23,-2.3 -1.78,-3.44 -3.26,3.88 -7.7,-1.03 -11.63,-1.03 3.1,-3.18 7.8,-3.45 11.26,-6.08 0.45,0.25 1.35,0.77 1.8,1.03 0.38,-2.67 0.53,-5.45 -1.05,-7.77 -10.43,3.5 -21.66,7.27 -28.43,16.57 -0.51,-4.88 2.81,-8.87 5.86,-12.24 4.75,-4.61 11.76,-4.45 17.87,-5.31 -4.28,-1.81 -9.38,-1.37 -13.49,0.66 -5.11,3.08 -9.68,7.53 -11.73,13.24 -1.3,3.41 -1.63,7.07 -2.19,10.66 -2.38,-1.67 -0.32,-4.89 -1.52,-7.12 -1.25,-2.83 -4.71,-3.14 -7.4,-3.33 -4.44,-0.39 -8.1,2.94 -10.56,6.28 -0.65,-5 -0.36,-10.32 2.46,-14.66 1.16,1.02 2.32,2.04 3.5,3.07 -0.53,-2.38 -1.15,-4.73 -2.04,-6.99 3.33,0.86 7.14,2.85 10.44,0.79 3.56,-1.98 8.73,-3.86 9.04,-8.6 -3.15,-4.48 -9.27,-4.02 -14.08,-3.6 -3.56,0.48 -7.51,-0.69 -10.69,1.45 -5.28,2.99 -9.08,7.86 -12.92,12.43 -1.06,-6.59 4.05,-11.78 9.01,-15.2 z"
       inkscape:connector-curvature="0"
       style="fill:#f9b218" />
    <path
       id="path100"
       d="m 503.81,791.63 c 4.81,-0.42 10.93,-0.88 14.08,3.6 -0.31,4.74 -5.48,6.62 -9.04,8.6 -3.3,2.06 -7.11,0.07 -10.44,-0.79 l -0.02,0.42 -0.71,-0.29 c -9.27,-2.89 -17.95,7.19 -15.7,16.05 -3.54,-2.75 -3.99,-7.44 -3.57,-11.57 0.61,-0.71 1.2,-1.43 1.79,-2.14 3.84,-4.57 7.64,-9.44 12.92,-12.43 3.18,-2.14 7.13,-0.97 10.69,-1.45 z"
       inkscape:connector-curvature="0"
       style="fill:#000000" />
    <path
       id="path102"
       d="m 527.89,801.89 c 4.11,-2.03 9.21,-2.47 13.49,-0.66 -6.11,0.86 -13.12,0.7 -17.87,5.31 -3.05,3.37 -6.37,7.36 -5.86,12.24 6.77,-9.3 18,-13.07 28.43,-16.57 1.58,2.32 1.43,5.1 1.05,7.77 -0.45,-0.26 -1.35,-0.78 -1.8,-1.03 -3.46,2.63 -8.16,2.9 -11.26,6.08 3.93,0 8.37,4.91 11.63,1.03 0.55,1.14 0.84,2.49 1.78,3.44 2.56,1.32 5.62,0.7 8.15,-0.42 2.12,3.06 5.89,4.45 9.49,3.4 0.59,-1.77 1.3,-3.56 2.98,-4.58 0.15,0.87 0.45,2.61 0.6,3.49 2.3,0.46 4.63,0.79 6.97,1.06 0.88,-1.1 1.78,-2.2 2.67,-3.29 1.15,2.26 2.84,4.66 5.63,4.82 2.16,-0.8 3.02,-3.24 4.32,-4.96 -0.03,4.69 4.79,6.32 7.79,8.94 -7.45,-2.16 -15.23,-3.31 -22.98,-2.44 -2.72,0.6 -5.28,-1.56 -7.95,-0.43 -3.74,1.21 -7.51,-0.65 -11.28,-0.72 -5.32,-0.33 -10.97,-1.46 -14.69,-5.61 -3.98,-0.56 -8.18,-2.14 -12.14,-0.8 -5.15,2.22 -6.43,8.15 -8.41,12.82 -0.19,0.42 -0.56,1.25 -0.75,1.66 -3.92,-2.12 -5.71,-6.5 -9.23,-9.04 -1.82,-1.25 -4.15,-0.65 -5.82,0.52 -3,1.71 -5.77,3.91 -7.55,6.92 -0.1,0.14 -0.3,0.43 -0.4,0.57 -1.86,2.96 -1.34,6.51 -1.35,9.83 -2.66,-2.71 -4.03,-6.36 -4.42,-10.09 0.16,-1.1 0.36,-2.19 0.61,-3.26 l 0.19,-0.48 c 1.42,-1.78 3.13,-3.33 4.3,-5.3 l 0.28,-0.49 c 2.46,-3.34 6.12,-6.67 10.56,-6.28 2.69,0.19 6.15,0.5 7.4,3.33 1.2,2.23 -0.86,5.45 1.52,7.12 0.56,-3.59 0.89,-7.25 2.19,-10.66 2.05,-5.71 6.62,-10.16 11.73,-13.24 z"
       inkscape:connector-curvature="0"
       style="fill:#000000" />
    <path
       id="path104"
       d="m 497.68,803.17 0.71,0.29 0.02,-0.42 c 0.89,2.26 1.51,4.61 2.04,6.99 -1.18,-1.03 -2.34,-2.05 -3.5,-3.07 -2.82,4.34 -3.11,9.66 -2.46,14.66 l -0.28,0.49 c -1.17,1.97 -2.88,3.52 -4.3,5.3 -0.01,-8.53 2.52,-17.43 7.77,-24.24 z"
       inkscape:connector-curvature="0"
       style="fill:#1a5fad" />
    <path
       id="path106"
       d="m 502.83,823.92 c 1.67,-1.17 4,-1.77 5.82,-0.52 3.52,2.54 5.31,6.92 9.23,9.04 2.55,0.8 5.31,1.43 7.95,0.63 2.98,-0.72 4.99,-3.19 7.05,-5.26 4.06,3.87 9.57,5.7 15.1,6.07 5.96,0.32 11.96,2.05 17.92,0.79 3.14,-0.71 6.36,-0.94 9.57,-0.57 -7.14,3.46 -13.81,8.73 -22.02,9.17 -10.29,1.63 -20.77,-0.55 -30.39,-4.2 -9.04,-3.37 -17.92,-8.05 -27.78,-8.23 1.78,-3.01 4.55,-5.21 7.55,-6.92 z"
       inkscape:connector-curvature="0"
       style="fill:#ffffff" />
    <path
       id="path108"
       d="m 531.86,825.78 c 0.66,-0.41 1.4,-1.71 2.29,-1 3.09,1.69 6.14,3.52 9.57,4.48 15.48,5.32 32.09,0.35 47.91,3.35 2.75,0.58 5.56,0.14 8.33,-0.02 0.42,2.67 2.12,4.73 4.12,6.45 0.75,6.1 7.24,9.71 8.23,15.82 0.4,2.85 0.03,5.76 0.33,8.63 1.42,2.25 3.62,4.09 6.22,4.82 -1.7,1.36 -3.9,0.87 -5.87,0.94 -8.01,-0.25 -16.04,-0.25 -24.01,-1.12 -14.94,-0.61 -29.78,-3.31 -44.75,-3 -1.94,5.88 1.57,11.31 4.74,15.97 2.29,3.45 5.03,7.36 4.24,11.75 -0.43,2.88 -2.94,4.67 -4.6,6.84 -3.14,3.99 -5.53,8.8 -9.88,11.67 2.58,-4.63 8.31,-8.23 7.06,-14.24 0.07,-1.83 -4.3,-4.77 -0.64,-4.75 1.19,0.96 2.17,2.17 3.21,3.32 0.5,-0.04 1.51,-0.13 2.01,-0.17 1.46,-10.18 -8.33,-16.95 -9.78,-26.44 -0.37,-2.28 0.39,-4.47 1.01,-6.61 4.77,-1.08 9.56,0.25 14.36,0.29 4.25,0.12 8.48,-0.6 12.74,-0.26 4.19,0.28 8.63,0.64 12.46,-1.48 -2.97,-3.11 -7.47,-2.8 -11.35,-3.63 2.4,-1.51 5.3,-1.81 7.87,-2.93 0.03,-1.08 0.07,-2.15 0.11,-3.21 -3.95,0.01 -7.91,0.1 -11.86,-0.06 1.4,-1.51 2.92,-2.91 4.55,-4.17 0.12,-0.96 0.24,-1.9 0.36,-2.84 -10.56,1.18 -21.18,1.63 -31.81,2.22 -2.49,0.01 -5.18,0.49 -7.43,-0.85 -8.87,-4.51 -18.26,-7.85 -27.58,-11.29 -3,-1.09 -5.89,-2.65 -9.14,-2.85 0.1,-0.14 0.3,-0.43 0.4,-0.57 9.86,0.18 18.74,4.86 27.78,8.23 9.62,3.65 20.1,5.83 30.39,4.2 8.21,-0.44 14.88,-5.71 22.02,-9.17 -3.21,-0.37 -6.43,-0.14 -9.57,0.57 -5.96,1.26 -11.96,-0.47 -17.92,-0.79 -5.53,-0.37 -11.04,-2.2 -15.1,-6.07 -2.06,2.07 -4.07,4.54 -7.05,5.26 -2.64,0.8 -5.4,0.17 -7.95,-0.63 0.19,-0.41 0.56,-1.24 0.75,-1.66 2.2,-0.15 4.44,0 6.62,-0.47 2.63,-0.77 4.6,-2.78 6.61,-4.53 z"
       inkscape:connector-curvature="0"
       style="fill:#1a5fad" />
    <path
       id="path110"
       d="m 474.63,830.74 c 4.86,-1.74 10.08,-1.74 15.09,-2.85 -0.25,1.07 -0.45,2.16 -0.61,3.26 -3.9,-0.57 -7.35,2.13 -11.21,1.27 -8.14,-1.06 -17.73,4.17 -19.01,12.73 -1.58,-2.2 -1.09,-4.96 -1.23,-7.48 -3.18,-0.14 -6.35,-0.33 -9.53,-0.42 0.17,2.09 0.42,4.17 0.72,6.26 -0.49,-1.1 -0.97,-2.2 -1.45,-3.28 -5.17,0.13 -10.87,-1.13 -15.59,1.51 -2.84,1.34 -3.55,4.62 -5.24,6.99 -0.08,1.25 -0.15,2.51 -0.22,3.78 l -0.02,0.14 -1.21,0.4 c -1.25,-7.85 6.19,-14.71 13.69,-15.17 4.89,-0.08 8.35,-4.27 13.23,-4.54 7.56,-0.37 15.33,-0.08 22.59,-2.6 z"
       inkscape:connector-curvature="0"
       style="fill:#1a5fad" />
    <path
       id="path112"
       d="m 477.9,832.42 c 3.86,0.86 7.31,-1.84 11.21,-1.27 0.39,3.73 1.76,7.38 4.42,10.09 0.01,-3.32 -0.51,-6.87 1.35,-9.83 3.25,0.2 6.14,1.76 9.14,2.85 9.32,3.44 18.71,6.78 27.58,11.29 2.25,1.34 4.94,0.86 7.43,0.85 10.63,-0.59 21.25,-1.04 31.81,-2.22 -0.12,0.94 -0.24,1.88 -0.36,2.84 -1.63,1.26 -3.15,2.66 -4.55,4.17 3.95,0.16 7.91,0.07 11.86,0.06 -0.04,1.06 -0.08,2.13 -0.11,3.21 -2.57,1.12 -5.47,1.42 -7.87,2.93 3.88,0.83 8.38,0.52 11.35,3.63 -3.83,2.12 -8.27,1.76 -12.46,1.48 -4.26,-0.34 -8.49,0.38 -12.74,0.26 -4.8,-0.04 -9.59,-1.37 -14.36,-0.29 -0.62,2.14 -1.38,4.33 -1.01,6.61 1.45,9.49 11.24,16.26 9.78,26.44 -0.5,0.04 -1.51,0.13 -2.01,0.17 -1.04,-1.15 -2.02,-2.36 -3.21,-3.32 -3.66,-0.02 0.71,2.92 0.64,4.75 1.25,6.01 -4.48,9.61 -7.06,14.24 -1.3,1.68 -3.56,2.05 -5.49,2.56 5.79,-4.92 8.52,-12.61 8.17,-20.09 -3.6,-1.85 -7.61,-3.59 -10.13,-6.84 0.58,-2.3 3.86,-1.28 5.42,-2.72 -2,-0.48 -4.01,-0.84 -6.02,-1.18 0.51,-2.95 0.6,-5.98 1.5,-8.84 0.79,-1.31 2.36,-1.84 3.56,-2.7 -2.05,-0.4 -5.33,0.33 -5.95,-2.29 -1.99,-4.15 0.82,-8.27 3.15,-11.55 -5.03,1.22 -7.4,6.69 -8.94,11.15 -7.5,-6.07 -17.54,-0.99 -25.9,-4.08 -3.57,-1.38 -6.97,0.93 -10.13,2.28 -2.28,1.09 -4.87,0.59 -7.29,0.54 -0.34,0.22 -1.03,0.64 -1.37,0.86 -6.06,0.97 -13.81,0.51 -17.19,6.78 -0.4,0.05 -1.19,0.16 -1.58,0.21 -1.12,-1.72 -2.26,-3.42 -3.45,-5.08 -3.12,2.45 -7.14,3.13 -10.41,5.31 -3.05,1.96 -5.92,4.34 -9.43,5.47 0.12,-1.19 0.21,-2.37 0.3,-3.54 6.3,-5.3 13.78,-9.07 19.46,-15.12 5.78,-1.57 5.52,-8.26 7.88,-12.63 3.09,-0.88 6.37,-1.4 9.59,-1.2 3.26,1.47 6.37,3.4 9.95,4.07 5.39,1.51 11.17,0.41 16.48,2.34 5.71,1.75 12.08,4.38 17.94,1.71 2.71,-1.11 3.92,-3.96 4.4,-6.65 -2.91,0.42 -3.77,3.93 -6.47,4.76 -3.34,1.02 -6.7,-0.53 -9.62,-2.02 0.28,-2.37 1.6,-5.24 -0.46,-7.15 -0.62,2.46 0.3,6.25 -2.63,7.45 -2.14,0 -4.97,0.1 -6.3,-1.89 -0.95,-2.38 -1.48,-4.9 -2.67,-7.17 -1.12,1.48 -0.46,3.16 0.19,4.67 -1.03,1.35 -2.09,2.68 -3.2,3.98 -3.54,-1.61 -5.97,-4.77 -6.52,-8.64 -0.58,1.86 -1.42,3.64 -2.49,5.27 -1.92,-1.46 -3.35,-3.4 -4.51,-5.49 2.03,-1.34 5.48,-1.86 5.71,-4.79 -0.27,-0.65 -0.82,-1.95 -1.09,-2.6 -0.83,1.17 -1.28,2.69 -2.47,3.59 -3.84,0.27 -7.21,-3.18 -11.09,-2.33 -3.8,1.85 -7.12,4.86 -9.28,8.51 -1.28,2.12 -1.03,4.79 -2.11,6.97 -4.08,0.69 -8.06,-0.86 -11.94,-1.91 0.5,-2.2 1.45,-4.34 1.25,-6.63 -5.15,-0.2 -10.54,-1.36 -15.55,0.31 -3.3,1.08 -4.98,4.3 -5.65,7.49 0.07,-1.27 0.14,-2.53 0.22,-3.78 1.69,-2.37 2.4,-5.65 5.24,-6.99 4.72,-2.64 10.42,-1.38 15.59,-1.51 0.48,1.08 0.96,2.18 1.45,3.28 -0.3,-2.09 -0.55,-4.17 -0.72,-6.26 3.18,0.09 6.35,0.28 9.53,0.42 0.14,2.52 -0.35,5.28 1.23,7.48 1.28,-8.56 10.87,-13.79 19.01,-12.73 m -14.45,26.52 c 0.31,0.46 0.91,1.37 1.21,1.83 2.95,-0.77 6.43,-1.27 8.32,-3.96 -3.33,-0.42 -7.55,-1.42 -9.53,2.13 z"
       inkscape:connector-curvature="0"
       style="fill:#f9b218" />
    <path
       id="path114"
       d="m 599.96,832.59 c 2.78,-0.2 5.56,-0.53 8.3,-1.08 -1,2.16 -3.84,5.24 -1.07,7.22 3.68,2.9 8.74,0.57 12.89,2.25 -2.32,0.8 -4.59,1.76 -6.6,3.19 2.98,4.88 8.89,-0.03 12.95,2.68 -1.89,1.08 -4.01,1.55 -6.17,1.53 -2.75,4.82 2.05,9.16 5.77,11.57 3.42,3.01 7.66,-0.16 11.54,0 1.56,3.32 3.36,6.55 4.62,10.01 1.4,3.82 0.31,7.9 -0.24,11.78 1.38,0.06 2.78,0.12 4.18,0.18 -1.5,3.11 -4.45,5.77 -8.03,5.93 -5.83,0.38 -11.97,0.24 -17.32,-2.33 3.8,-1.44 9.23,-1.3 11.07,-5.63 0.34,-2.64 0.88,-5.95 -1.68,-7.65 -4.14,2.74 -6.19,-3.72 -10.11,-3.09 l -0.62,1.25 -0.58,-2.09 c -2.6,-0.73 -4.8,-2.57 -6.22,-4.82 -0.3,-2.87 0.07,-5.78 -0.33,-8.63 -0.99,-6.11 -7.48,-9.72 -8.23,-15.82 -2,-1.72 -3.7,-3.78 -4.12,-6.45 z"
       inkscape:connector-curvature="0"
       style="fill:#000000" />
    <path
       id="path116"
       d="m 469.63,837.77 c 3.88,-0.85 7.25,2.6 11.09,2.33 1.19,-0.9 1.64,-2.42 2.47,-3.59 0.27,0.65 0.82,1.95 1.09,2.6 -0.23,2.93 -3.68,3.45 -5.71,4.79 1.16,2.09 2.59,4.03 4.51,5.49 1.07,-1.63 1.91,-3.41 2.49,-5.27 0.55,3.87 2.98,7.03 6.52,8.64 1.11,-1.3 2.17,-2.63 3.2,-3.98 -0.65,-1.51 -1.31,-3.19 -0.19,-4.67 1.19,2.27 1.72,4.79 2.67,7.17 1.33,1.99 4.16,1.89 6.3,1.89 2.93,-1.2 2.01,-4.99 2.63,-7.45 2.06,1.91 0.74,4.78 0.46,7.15 2.92,1.49 6.28,3.04 9.62,2.02 2.7,-0.83 3.56,-4.34 6.47,-4.76 -0.48,2.69 -1.69,5.54 -4.4,6.65 -5.86,2.67 -12.23,0.04 -17.94,-1.71 -5.31,-1.93 -11.09,-0.83 -16.48,-2.34 -3.58,-0.67 -6.69,-2.6 -9.95,-4.07 -3.22,-0.2 -6.5,0.32 -9.59,1.2 -2.36,4.37 -2.1,11.06 -7.88,12.63 -0.84,-0.4 -1.68,-0.78 -2.53,-1.13 -3.61,-1.56 -7.57,-1.24 -11.39,-1.53 -3.43,-0.81 -3.07,-6.41 -7.11,-5.93 -4.32,0.37 -6.65,4.78 -6.39,8.78 -1.7,-3.11 -3.04,-6.47 -3.26,-10.03 l 0.02,-0.14 c 0.67,-3.19 2.35,-6.41 5.65,-7.49 5.01,-1.67 10.4,-0.51 15.55,-0.31 0.2,2.29 -0.75,4.43 -1.25,6.63 3.88,1.05 7.86,2.6 11.94,1.91 1.08,-2.18 0.83,-4.85 2.11,-6.97 2.16,-3.65 5.48,-6.66 9.28,-8.51 z"
       inkscape:connector-curvature="0"
       style="fill:#000000" />
    <path
       id="path118"
       d="m 463.45,858.94 c 1.98,-3.55 6.2,-2.55 9.53,-2.13 -1.89,2.69 -5.37,3.19 -8.32,3.96 -0.3,-0.46 -0.9,-1.37 -1.21,-1.83 z"
       inkscape:connector-curvature="0"
       style="fill:#1a5fad" />
    <path
       id="path120"
       d="m 524,868.86 c 1.54,-4.46 3.91,-9.93 8.94,-11.15 -2.33,3.28 -5.14,7.4 -3.15,11.55 0.62,2.62 3.9,1.89 5.95,2.29 -1.2,0.86 -2.77,1.39 -3.56,2.7 -0.9,2.86 -0.99,5.89 -1.5,8.84 2.01,0.34 4.02,0.7 6.02,1.18 -1.56,1.44 -4.84,0.42 -5.42,2.72 2.52,3.25 6.53,4.99 10.13,6.84 0.35,7.48 -2.38,15.17 -8.17,20.09 -9.05,4.69 -20.59,0.8 -27.46,-6.09 4.45,0 8.8,1.21 13.24,1.22 5.39,0.19 10.52,-5.1 9.51,-10.54 -2.5,-1.69 -4.96,-4.19 -4.51,-7.49 -0.25,-5.36 3.88,-12.03 -1.21,-16.19 0.38,-2 0.73,-4 1.19,-5.97 z"
       inkscape:connector-curvature="0"
       style="fill:#000000" />
    <path
       id="path122"
       d="m 454.48,861.36 c 0.85,0.35 1.69,0.73 2.53,1.13 -5.68,6.05 -13.16,9.82 -19.46,15.12 -0.09,1.17 -0.18,2.35 -0.3,3.54 l -1.07,0.42 c 0.13,-1.54 -0.26,-3.33 1.03,-4.48 4.92,-6.11 11.3,-10.73 17.27,-15.73 z"
       inkscape:connector-curvature="0"
       style="fill:#1a5fad" />
    <path
       id="path124"
       d="m 487.97,867.06 c 3.16,-1.35 6.56,-3.66 10.13,-2.28 8.36,3.09 18.4,-1.99 25.9,4.08 -0.46,1.97 -0.81,3.97 -1.19,5.97 -3.41,-2.49 -6.14,-6.57 -10.74,-6.77 -6.09,-0.06 -12.52,2.62 -18.35,-0.29 -4.41,2.35 -9.75,1.9 -14.41,0.69 0.34,-0.22 1.03,-0.64 1.37,-0.86 2.42,0.05 5.01,0.55 7.29,-0.54 z"
       inkscape:connector-curvature="0"
       style="fill:#1a5fad" />
    <path
       id="path126"
       d="m 462.12,875.24 c 3.38,-6.27 11.13,-5.81 17.19,-6.78 0.52,2.48 -2.51,3.34 -3.92,4.79 -4.81,3.2 -4.93,11.31 -11.43,12.23 -3.65,0.31 -3.93,-4.32 -6.78,-5.59 -3.97,2.05 -8.45,2.91 -12.33,5.08 -3.63,2.55 -2.11,7.5 -2.45,11.25 -4.07,-3.59 -7.62,-8.96 -6.22,-14.65 l 1.07,-0.42 c 3.51,-1.13 6.38,-3.51 9.43,-5.47 3.27,-2.18 7.29,-2.86 10.41,-5.31 1.19,1.66 2.33,3.36 3.45,5.08 0.39,-0.05 1.18,-0.16 1.58,-0.21 z"
       inkscape:connector-curvature="0"
       style="fill:#000000" />
  </g>
</svg>
