<svg xmlns="http://www.w3.org/2000/svg" xmlns:xlink="http://www.w3.org/1999/xlink" version="1.1" id="Your_Icon" x="0px" y="0px" width="100px" height="100px" viewBox="0 0 100 100" enable-background="new 0 0 100 100" xml:space="preserve">
<path d="M0,16.644v66.711h100V16.644H0z M95.844,56.285H83.561v-12.57h12.283V56.285z M72.275,50c0-3.466,2.82-6.286,6.285-6.286  h1.258v12.57h-1.258C75.096,56.285,72.275,53.465,72.275,50z M78.561,39.974c-1.457,0-2.838,0.319-4.088,0.881  c3.719-7.426,11.807-12.758,21.371-13.442v12.561H78.561z M78.561,60.027h17.283v12.561c-9.564-0.684-17.654-6.016-21.373-13.443  C75.721,59.707,77.104,60.027,78.561,60.027z M47.886,56.977c-1.216-0.324-2.341-0.936-3.255-1.85  c-2.827-2.826-2.827-7.427,0-10.253c0.914-0.914,2.04-1.525,3.255-1.85V56.977z M51.627,43.024c1.219,0.325,2.342,0.936,3.256,1.85  c2.828,2.826,2.828,7.427,0,10.253c-0.914,0.914-2.037,1.525-3.256,1.85V43.024z M4.156,60.027h16.454  c1.457,0,2.837-0.32,4.087-0.881C21.085,66.355,13.356,71.6,4.156,72.525V60.027z M26.894,50c0,3.464-2.819,6.285-6.285,6.285h-1.27  v-12.57h1.27C24.075,43.715,26.894,46.535,26.894,50z M15.599,56.285H4.156v-12.57h11.443V56.285z M20.609,39.974H4.156V27.476  c9.201,0.924,16.931,6.167,20.542,13.378C23.448,40.292,22.066,39.974,20.609,39.974z M4.156,76.291  C18.999,74.973,30.634,63.686,30.635,50c0-13.688-11.636-24.975-26.479-26.291V20.8h43.73V39.18c-2.223,0.378-4.273,1.422-5.9,3.048  c-4.286,4.286-4.286,11.26,0,15.546c1.627,1.627,3.678,2.67,5.9,3.049v18.377H4.156V76.291z M51.627,79.199V60.822  c2.225-0.379,4.275-1.422,5.9-3.049c4.287-4.286,4.287-11.26,0-15.546c-1.625-1.626-3.676-2.669-5.9-3.049V20.8h44.217v2.852  C80.605,24.616,68.535,36.062,68.535,50c0,13.941,12.07,25.386,27.309,26.349v2.85H51.627z"/>
</svg>