<?xml version="1.0" standalone="no"?>
<!DOCTYPE svg PUBLIC "-//W3C//DTD SVG 20010904//EN"
 "http://www.w3.org/TR/2001/REC-SVG-20010904/DTD/svg10.dtd">
<svg version="1.0" xmlns="http://www.w3.org/2000/svg"
 width="322.000000pt" height="309.000000pt" viewBox="0 0 322.000000 309.000000"
 preserveAspectRatio="xMidYMid meet">
<metadata>
Created by potrace 1.11, written by Peter Selinger 2001-2013
</metadata>
<g transform="translate(0.000000,309.000000) scale(0.100000,-0.100000)"
fill="#000000" stroke="none">
<path d="M126 2974 c4 -16 23 -87 44 -159 20 -71 36 -131 35 -133 -2 -2 -31
11 -65 28 -73 37 -74 52 7 -155 86 -221 185 -415 244 -479 58 -63 151 -127
222 -153 46 -17 51 -22 87 -94 21 -42 50 -90 64 -106 14 -17 26 -32 26 -34 0
-2 -48 -4 -107 -4 l-108 0 -5 -124 -5 -123 -64 -32 c-63 -32 -63 -32 -40 -48
13 -8 43 -25 67 -37 l42 -21 0 -108 0 -108 78 -47 78 -47 104 11 105 11 285
-164 285 -165 22 -74 c13 -41 37 -145 54 -232 18 -86 33 -156 35 -154 2 1 17
72 34 156 44 216 72 302 107 322 16 8 144 82 286 164 l258 148 103 -11 103
-12 76 46 77 47 0 109 0 108 65 32 c36 18 65 35 65 38 0 3 -29 20 -65 38 l-64
32 -3 122 -3 123 -106 0 -106 0 39 58 c22 32 50 82 63 110 20 47 28 54 74 71
68 24 155 82 214 142 36 36 68 89 123 198 66 134 194 440 194 466 0 6 -27 -3
-60 -20 -33 -16 -62 -30 -64 -30 -3 0 2 19 10 43 25 69 76 268 71 274 -13 12
-679 -456 -1005 -707 -122 -94 -146 -108 -163 -100 -12 7 -19 21 -19 41 0 29
-37 79 -60 79 -25 0 -5 23 64 71 68 47 119 109 104 124 -3 4 -59 -33 -123 -80
l-118 -87 -55 11 c-71 14 -163 14 -234 0 l-55 -11 -115 86 c-63 47 -118 86
-122 86 -13 0 5 -44 28 -68 11 -13 52 -46 89 -72 l69 -49 -31 -15 c-35 -18
-51 -44 -51 -79 0 -36 -25 -53 -49 -36 -11 8 -115 86 -233 175 -301 228 -848
613 -893 630 -13 5 -15 2 -9 -22z m514 -479 c752 -487 713 -460 729 -506 10
-28 9 -29 -12 -18 -12 7 -200 109 -417 227 -217 118 -399 216 -405 219 -18 8
18 -18 334 -246 172 -123 310 -225 309 -226 -10 -7 -448 46 -495 60 -151 44
-261 131 -324 256 -42 84 -140 319 -133 319 3 0 36 -16 75 -36 82 -41 81 -44
23 85 -41 89 -42 98 -6 75 15 -10 160 -104 322 -209z m2264 124 c-24 -56 -44
-104 -44 -106 0 -2 32 13 71 33 39 19 73 33 75 31 3 -3 -4 -24 -15 -48 -11
-24 -41 -95 -67 -157 -76 -185 -137 -259 -269 -325 -87 -43 -155 -58 -380 -81
-121 -13 -221 -22 -222 -21 -2 1 136 101 305 223 169 121 316 228 327 237 23
19 14 14 -469 -249 -198 -108 -361 -194 -362 -193 -2 1 7 20 19 41 19 32 104
92 542 376 286 187 523 339 527 339 4 1 -13 -45 -38 -100z m-2184 -1089 c0
-49 3 -90 7 -90 4 0 22 5 40 12 l33 12 0 78 0 78 40 0 40 0 0 -214 0 -214 -35
-4 c-20 -2 -38 -2 -40 1 -3 2 -5 44 -5 93 0 55 -4 88 -10 88 -6 0 -24 -7 -40
-15 -30 -15 -30 -17 -30 -100 0 -83 -1 -85 -24 -85 -13 0 -31 -3 -40 -6 -14
-5 -16 6 -16 83 l0 89 -32 16 -33 15 33 17 32 17 0 109 0 110 40 0 40 0 0 -90z
m1860 40 l0 -50 -35 0 c-24 0 -35 5 -35 15 0 11 -11 15 -41 15 l-40 0 3 -41 3
-42 105 -44 c58 -25 107 -47 109 -49 2 -2 -13 -11 -33 -20 l-36 -18 0 -86 0
-86 -115 15 -115 14 0 52 0 51 40 -4 c31 -3 40 -8 40 -23 0 -16 7 -19 41 -19
l40 0 -3 47 -3 47 -75 32 -75 33 -3 88 c-2 48 -7 92 -12 97 -22 22 -4 26 115
26 l125 0 0 -50z m-1423 -32 c22 -21 23 -28 23 -170 0 -81 -3 -148 -7 -148 -5
0 -51 -5 -103 -10 -133 -13 -130 -16 -130 165 0 115 -3 145 -15 155 -30 25
-13 30 97 30 101 0 114 -2 135 -22z m303 -3 c21 -22 22 -30 17 -101 -3 -44
-11 -80 -18 -85 -9 -5 -8 -17 6 -51 9 -23 19 -49 22 -55 4 -9 -7 -13 -35 -13
-39 0 -40 1 -62 55 -20 49 -26 55 -51 55 -28 0 -29 -1 -29 -55 0 -50 -2 -55
-25 -61 -52 -13 -53 -7 -48 148 5 125 4 145 -11 157 -9 7 -16 17 -16 22 0 5
51 9 113 9 108 0 115 -1 137 -25z m297 3 c22 -21 23 -28 23 -165 l0 -143 -40
0 -40 0 0 125 0 125 -45 0 -45 0 0 -125 0 -125 -40 0 -40 0 0 149 c0 89 -4
152 -10 156 -29 18 0 25 102 25 101 0 114 -2 135 -22z m308 -18 l0 -35 -72 -3
c-70 -3 -73 -4 -73 -27 0 -23 3 -24 73 -27 l72 -3 3 -37 3 -38 -75 0 c-74 0
-76 -1 -76 -25 0 -23 3 -24 73 -27 l72 -3 3 -39 3 -39 -88 6 c-48 4 -100 7
-115 7 l-27 0 -3 148 c-2 81 -7 155 -12 165 -8 16 0 17 115 15 l124 -3 0 -35z
m250 0 c0 -31 -3 -34 -30 -35 l-30 0 -3 -143 c-2 -125 -5 -143 -18 -138 -9 3
-26 6 -40 6 l-23 0 -3 138 -3 137 -30 0 c-24 1 -31 6 -33 24 -7 49 0 52 110
49 l103 -3 0 -35z"/>
<path d="M1010 1385 l0 -95 45 0 45 0 0 95 0 95 -45 0 -45 0 0 -95z"/>
</g>
</svg>
