<?xml version="1.0" encoding="UTF-8" standalone="no"?>
<svg
   xmlns:dc="http://purl.org/dc/elements/1.1/"
   xmlns:cc="http://creativecommons.org/ns#"
   xmlns:rdf="http://www.w3.org/1999/02/22-rdf-syntax-ns#"
   xmlns:svg="http://www.w3.org/2000/svg"
   xmlns="http://www.w3.org/2000/svg"
   xmlns:sodipodi="http://sodipodi.sourceforge.net/DTD/sodipodi-0.dtd"
   xmlns:inkscape="http://www.inkscape.org/namespaces/inkscape"
   width="83.080284"
   height="96.168274"
   viewBox="0 0 66.464228 76.934619"
   version="1.1"
   id="svg2"
   inkscape:version="0.48.1 "
   sodipodi:docname="CCTigers.svg">
  <metadata
     id="metadata66">
    <rdf:RDF>
      <cc:Work
         rdf:about="">
        <dc:format>image/svg+xml</dc:format>
        <dc:type
           rdf:resource="http://purl.org/dc/dcmitype/StillImage" />
        <dc:title></dc:title>
      </cc:Work>
    </rdf:RDF>
  </metadata>
  <defs
     id="defs64" />
  <sodipodi:namedview
     pagecolor="#ffffff"
     bordercolor="#666666"
     borderopacity="1"
     objecttolerance="10"
     gridtolerance="10"
     guidetolerance="10"
     inkscape:pageopacity="0"
     inkscape:pageshadow="2"
     inkscape:window-width="1680"
     inkscape:window-height="994"
     id="namedview62"
     showgrid="false"
     fit-margin-top="0"
     fit-margin-left="0"
     fit-margin-right="0"
     fit-margin-bottom="0"
     inkscape:zoom="8.0795877"
     inkscape:cx="41.540142"
     inkscape:cy="48.084137"
     inkscape:window-x="-4"
     inkscape:window-y="-4"
     inkscape:window-maximized="1"
     inkscape:current-layer="svg2" />
  <g
     id="g3811"
     transform="matrix(0.13826434,0,0,0.13826434,-1.3799247,0.29704461)">
    <path
       style="fill:#fbfbfb"
       inkscape:connector-curvature="0"
       id="path4"
       d="m 11.482233,0 10.909523,0 c -0.0096,2.9682625 0.01908,5.9365251 -0.0096,8.9031682 131.791634,0.00647 263.583254,0.00162 395.374874,0.00324 19.79735,-0.00971 39.60424,0.021051 59.41112,-0.016193 C 477.11101,5.9268089 477.15868,2.9634045 477.1396,0 l 11.15747,0 0,91.331155 -476.814837,0 0,-91.331155 z" />
    <path
       id="path6"
       d="M 11.44,0 488.3,0 c 0.02,18.3 -0.03,36.6 0.03,54.9 -20.77,0.23 -41.54,0.04 -62.3,0.1 -138.2,-0.01 -276.4,0.02 -414.6,-0.02 0.03,-18.32 0,-36.65 0.01,-54.98 z"
       inkscape:connector-curvature="0"
       style="fill:#040402" />
    <path
       id="path8"
       d="m 11.6,237.58 c -0.33,-55.59 -0.13,-111.2 -0.1,-166.79 67.16,0.05 134.32,-0.01 201.48,0.03 9.49,0.85 18.14,5.25 27.13,8.08 2.01,0.59 4,1.28 6.01,1.88 1.23,0.48 2.47,0.94 3.71,1.4 5.12,1.56 9.88,4.2 15.15,5.23 2.68,0.81 4.3,-1.9 5.69,-3.67 3.38,-4.8 7.25,-9.67 12.77,-12.07 4.48,-0.73 9.05,-0.69 13.57,-0.86 62.31,-0.02 124.62,0.02 186.93,-0.02 1.5,0 2.99,0.21 4.46,0.56 -0.25,83.25 0.03,166.51 -0.15,249.76 -4.74,-5.81 -7.65,-13.01 -13.26,-18.11 -5.47,-5.01 -11.18,-9.89 -17.77,-13.38 -7.77,-3.96 -16.07,-6.8 -24.54,-8.79 1.48,-1.27 3.18,-2.51 5.25,-2.38 9.38,-0.33 18.78,0.38 28.17,0 2.68,-0.16 5.19,-1.24 7.69,-2.16 0.35,-8.5 -2.83,-16.51 -4.76,-24.64 -4.3,-17.3 -11.76,-34.4 -24.56,-47.13 -3.62,-3.62 -7.95,-6.36 -11.85,-9.63 -0.01,-0.5 -0.02,-1.48 -0.02,-1.98 5.27,-0.64 10.58,-0.9 15.83,-1.77 0.66,-5.07 -2.56,-9.37 -4.86,-13.57 -4.7,-6.3 -9.39,-12.64 -14.85,-18.3 -1.7,-1.74 -4,-3.79 -6.61,-2.59 -8.09,3.26 -11.31,12.86 -19.18,16.41 -5.38,2.21 -10.05,-1.68 -14.81,-3.51 -5.94,1.85 -12.17,2.76 -18.39,2.1 5.53,-5.79 12.42,-10.06 19.57,-13.56 9.22,-4.49 18.4,-9.17 26.81,-15.07 7.7,-5.29 13.15,-13.75 14.51,-23.02 0.3,-4.56 5.38,-6.45 9.32,-6.13 4.74,0.78 9.22,3.22 14.15,2.71 3.78,0.46 6.42,-3.93 5.45,-7.24 -3.22,-5.63 -8.97,-9.83 -15.5,-10.52 -12.42,-1.5 -24.24,3.48 -36.01,6.57 -3.27,0.92 -6.7,0.87 -10.04,0.56 -21.47,-0.93 -42.71,-4.52 -63.99,-7.28 -7.66,-0.52 -15.35,-1.47 -23.03,-0.71 -5.99,0.62 -12.08,0.27 -17.99,1.61 -8.04,1.71 -16.35,2.98 -23.71,6.85 -1.87,0.8 -3.88,2.27 -5.96,1.31 -5.73,-1.9 -11.35,-4.21 -17.3,-5.34 -12.61,-2.42 -25.24,-4.9 -38.05,-5.96 -9.93,-1.16 -19.94,-0.9 -29.91,-1.51 -9.69,-0.37 -19.39,-0.02 -29.07,0.33 -19.66,-0.21 -39.31,0.26 -58.96,0.17 -4.8,0.51 -7.7,-3.85 -11.47,-5.93 -8.35,-4.63 -18.31,-5.07 -27.53,-3.43 -7.44,1.37 -15.4,1.99 -22.01,5.97 -3.65,2.07 -3.93,8.07 0.18,9.78 4.66,1.09 9.57,0.21 14.33,0.53 2.96,7.39 8.15,13.75 14.57,18.41 6.03,4.22 12.5,8.08 17.25,13.81 4.84,5.54 3.88,13.66 2.73,20.36 -1.63,5.38 -1.97,11.75 -6.32,15.8 -16.46,14.51 -32.38,29.8 -45.99,47.06 -4.85,6.49 -9.56,13.1 -14.16,19.77 z"
       inkscape:connector-curvature="0"
       style="fill:#040402" />
    <path
       style="fill:#efb310;fill-opacity:1"
       id="path10"
       d="m 51.02,86.09 c 9.22,-1.64 19.18,-1.2 27.53,3.43 3.77,2.08 6.67,6.44 11.47,5.93 19.65,0.09 39.3,-0.38 58.96,-0.17 9.68,-0.35 19.38,-0.7 29.07,-0.33 9.97,0.61 19.98,0.35 29.91,1.51 12.81,1.06 25.44,3.54 38.05,5.96 5.95,1.13 11.57,3.44 17.3,5.34 2.08,0.96 4.09,-0.51 5.96,-1.31 7.36,-3.87 15.67,-5.14 23.71,-6.85 5.91,-1.34 12,-0.99 17.99,-1.61 7.68,-0.76 15.37,0.19 23.03,0.71 21.28,2.76 42.52,6.35 63.99,7.28 3.34,0.31 6.77,0.36 10.04,-0.56 11.77,-3.09 23.59,-8.07 36.01,-6.57 6.53,0.69 12.28,4.89 15.5,10.52 0.97,3.31 -1.67,7.7 -5.45,7.24 -4.93,0.51 -9.41,-1.93 -14.15,-2.71 -3.94,-0.32 -9.02,1.57 -9.32,6.13 -1.36,9.27 -6.81,17.73 -14.51,23.02 -8.41,5.9 -17.59,10.58 -26.81,15.07 -7.15,3.5 -14.04,7.77 -19.57,13.56 6.22,0.66 12.45,-0.25 18.39,-2.1 4.76,1.83 9.43,5.72 14.81,3.51 7.87,-3.55 11.09,-13.15 19.18,-16.41 2.61,-1.2 4.91,0.85 6.61,2.59 5.46,5.66 10.15,12 14.85,18.3 2.3,4.2 5.52,8.5 4.86,13.57 -5.25,0.87 -10.56,1.13 -15.83,1.77 0,0.5 0.01,1.48 0.02,1.98 3.9,3.27 8.23,6.01 11.85,9.63 12.8,12.73 20.26,29.83 24.56,47.13 1.93,8.13 5.11,16.14 4.76,24.64 -2.5,0.92 -5.01,2 -7.69,2.16 -9.39,0.38 -18.79,-0.33 -28.17,0 -2.07,-0.13 -3.77,1.11 -5.25,2.38 8.47,1.99 16.77,4.83 24.54,8.79 6.59,3.49 12.3,8.37 17.77,13.38 5.61,5.1 8.52,12.3 13.26,18.11 -0.37,6.72 1.05,13.71 -0.91,20.22 -1.57,-6.82 -4.07,-13.66 -8.61,-19.08 -5.9,-6.22 -13.32,-10.85 -21.26,-13.99 -2.3,-0.87 -4.78,-1.01 -7.2,-1.13 3.75,7.07 8.81,13.55 11.03,21.35 2.89,9.47 6.06,18.92 7.88,28.68 1.54,11.54 2.3,23.17 2.65,34.81 0.54,4.83 0.37,9.7 -0.37,14.51 0.4,0.16 1.19,0.48 1.59,0.63 l 0.76,0.31 c -5.02,8.16 -9.54,16.62 -14.64,24.73 -4.31,7.53 -9.23,14.73 -13.11,22.5 3.36,-7.41 5.84,-15.18 7.94,-23.02 3.41,-12.54 3.92,-25.68 3.25,-38.59 -1.94,-13.41 -3.92,-27.66 -12.71,-38.56 -1.55,13.16 -1.96,26.62 -5.88,39.38 -2.51,8.97 -5.95,17.65 -9.8,26.11 -1.66,3.72 -3.92,7.14 -6.6,10.2 -6.13,7.22 -11.61,15.15 -19.1,21.08 -1.14,0.97 -2.49,2.03 -2.46,3.71 -0.57,6.68 0.43,13.45 -0.65,20.11 -1.84,11 -3.37,22.63 -10.1,31.91 -2.67,0.75 -3.09,3.13 -3.15,5.59 -4.38,3.33 -9.41,5.7 -13.87,8.92 l -0.42,-0.4 c -0.35,-0.32 -1.05,-0.97 -1.39,-1.29 -6.74,0.49 -13.36,1.97 -20.1,2.38 -10.32,1.08 -20.68,0.12 -31,-0.26 -6.62,-0.4 -13.49,-0.44 -19.69,-3.1 -5.18,-2.24 -10.73,-4.34 -14.52,-8.72 -5.84,-6.54 -12.21,-12.73 -16.76,-20.29 -3.24,-5.01 -6.1,-10.41 -10.56,-14.47 -4.34,-4.2 -9.96,-6.62 -14.9,-9.97 -5.6,-3.73 -11.18,-7.49 -16.47,-11.65 -10.61,-8.71 -20.34,-18.48 -31.37,-26.67 -1.44,-1.15 -3.24,-1.64 -4.97,-2.18 -0.2,5.07 -0.51,10.15 -0.09,15.22 4.4,28.35 20.16,54.7 42.98,72.08 5.52,4.23 11.13,8.35 16.98,12.12 14.33,8.69 31.03,12.19 47.44,14.42 5.6,0.85 11.29,0.67 16.94,0.79 9.5,-0.05 19.22,-0.65 28.2,-4.03 3.83,-0.82 7.53,-2.11 11.01,-3.92 1.44,-0.51 2.82,-1.3 4.38,-1.33 -0.91,1.5 -3.24,1.78 -4.83,2.47 -3.53,0.8 -6.86,2.21 -10.14,3.71 -6.66,0.74 -13.07,2.82 -19.6,4.26 -24.3,5.73 -49.08,9.65 -74.04,10.71 -6.01,-0.17 -11.99,1.3 -18,0.55 -5.41,-0.76 -10.89,-1.14 -16.18,-2.53 -3.91,-1.04 -8.07,-1.33 -11.74,-3.12 1.46,0.17 2.92,0.26 4.4,0.27 2.36,1.11 4.92,1.6 7.5,1.94 8.52,1.86 17.4,3.83 26.14,2.35 -5.68,-3.5 -11.99,-5.81 -17.77,-9.15 -8.78,-3.6 -16.39,-9.32 -23.93,-14.96 -12.26,-8.9 -23.03,-19.72 -32.79,-31.27 -10.5,-11.43 -18.03,-25.44 -22.65,-40.21 -4.32,-11.65 -6.02,-24.03 -8.03,-36.23 -1.37,-18.77 -1.83,-38.31 5.07,-56.15 2.93,-6.81 5.56,-13.84 9.81,-19.96 1.91,-2.84 3.93,-5.59 5.87,-8.41 -2.75,-0.06 -5.61,-0.14 -8.13,1.11 -5.38,2.44 -10.99,4.64 -15.55,8.5 -7.3,5.85 -14.37,12.82 -17.21,21.98 -1.53,3.97 -2.34,9.11 -6.8,10.9 -1.6,1.12 -3.35,-0.13 -4.45,-1.32 -7.93,-8.51 -13.91,-18.6 -19.17,-28.91 -7.78,-18.26 -11,-37.98 -14.6,-57.37 -3.37,2.54 -2.88,7.27 -4,10.94 -1.74,6.42 -1.18,13.09 -1.79,19.64 -1.49,12.55 0.01,25.22 1.89,37.65 2.91,11.03 5.59,22.29 10.91,32.47 1.8,3.64 3.47,7.34 5.36,10.93 3.15,6.24 9.05,10.46 12.45,16.56 7.26,10.75 10.8,23.34 15.53,35.27 3.74,9 7.07,18.18 11.03,27.1 4.48,8.15 9.22,16.34 15.84,22.98 11.49,12.73 24.73,24.01 39.88,32.17 -0.23,-0.09 -0.67,-0.26 -0.89,-0.35 -19.81,-7.42 -39.43,-15.95 -56.9,-28 C 106.76,493.51 92.96,479.42 82.03,463.17 78.01,457.35 73.5,451.83 70.01,445.66 61.6,430.26 53.3,414.52 48.99,397.41 c -3.02,-15.05 -7.24,-29.96 -8.14,-45.35 -1.39,-12.97 -0.63,-26.03 0.01,-39.02 0.28,-9.95 2.71,-19.64 4.24,-29.43 3.13,-13.44 6.17,-27.03 11.78,-39.71 4.28,-9.18 8.33,-18.52 13.85,-27.04 6.5,-10.95 13.59,-21.6 21.9,-31.26 4.1,-4.53 9.89,-8.26 11.26,-14.6 -5.04,0.69 -9.25,3.76 -13.31,6.6 -5.13,3.82 -10.41,7.53 -14.84,12.19 -6.96,7.36 -14.2,14.54 -19.99,22.89 -10.9,15.06 -21.82,30.77 -26.77,48.93 -2.81,9.39 -5.87,18.75 -7.45,28.46 -1.38,8.19 -2.7,16.4 -3.89,24.64 -0.84,6.73 -0.89,13.52 -1.17,20.3 -0.54,-27.7 -3.06,-55.31 -4.13,-82.98 -0.17,-4.82 -1.14,-9.62 -0.74,-14.45 4.6,-6.67 9.31,-13.28 14.16,-19.77 13.61,-17.26 29.53,-32.55 45.99,-47.06 4.35,-4.05 4.69,-10.42 6.32,-15.8 1.15,-6.7 2.11,-14.82 -2.73,-20.36 -4.75,-5.73 -11.22,-9.59 -17.25,-13.81 -6.42,-4.66 -11.61,-11.02 -14.57,-18.41 -4.76,-0.32 -9.67,0.56 -14.33,-0.53 -4.11,-1.71 -3.83,-7.71 -0.18,-9.78 6.61,-3.98 14.57,-4.6 22.01,-5.97 z"
       inkscape:connector-curvature="0" />
    <path
       id="path12"
       d="m 178.11,120.2 c 15.76,-3.64 31.36,-9.78 47.8,-8.82 10.66,0.72 20.74,4.81 30.13,9.69 6.91,3.73 15.03,5.86 22.86,4.36 4.54,-1.18 7.65,-4.94 11.39,-7.49 5.36,-1.97 11.14,-1.19 16.68,-0.65 15.1,0.52 29.78,4.54 44.83,5.56 2.54,0.22 5.06,0.78 7.36,1.91 -1.08,1.98 -2.73,3.67 -5.16,3.54 -12.37,1.1 -24.74,2.39 -37.01,4.36 -9.21,2.28 -18.52,6.23 -24.58,13.84 0.04,0.96 0.33,2.47 1.68,2.17 5.66,0.31 10.1,-3.85 15.39,-5.06 3.72,-1.04 7.62,-0.85 11.43,-0.55 11.08,1.05 22.19,1.89 33.23,3.32 -1.42,2.61 -4.6,3.18 -7.16,4.11 -12.83,4.22 -26.8,6.39 -37.8,14.79 -2.52,1.51 -4.97,4.89 -8.24,3.61 -10.75,-3.21 -21.59,-6.91 -32.94,-6.91 -5.78,-0.84 -11.51,0.68 -17.04,2.24 -3.19,0.9 -6.14,3.01 -9.58,2.75 -7.16,-0.24 -13.31,-4.36 -19.08,-8.19 -1.88,-1.03 -2.8,-2.98 -3.57,-4.87 14.45,-5.21 30,-7.04 44.12,-13.17 -0.43,-2.43 -3.11,-3.5 -4.92,-4.77 -6.48,-4.14 -14.33,-5.34 -21.9,-5.1 -16.78,1.4 -33.04,7.21 -50.01,6.68 -5.34,0.22 -10.41,-1.84 -15.12,-4.12 -5.18,-2.54 -8.94,-7.06 -12.41,-11.53 6.58,1.08 13.16,-0.55 19.62,-1.7 z"
       inkscape:connector-curvature="0"
       style="fill:#040402" />
    <path
       id="path14"
       d="m 102.27,145.3 c 7.56,-3.78 14.99,-8.74 23.73,-9 5.41,-1.24 11.04,0.21 15.69,3.08 3.82,3.23 5.17,8.75 9.67,11.28 5.71,3.48 12.38,4.65 18.72,6.44 3.06,1.03 6.96,0.45 9.23,3.1 -8.87,3.63 -17.87,7 -27.04,9.81 -2.57,0.99 -4.25,-2.02 -6.06,-3.33 -8.6,-8.82 -19.94,-14.12 -31.33,-18.35 -4.12,-1.32 -8.42,-1.96 -12.61,-3.03 z"
       inkscape:connector-curvature="0"
       style="fill:#040402" />
    <path
       id="path16"
       d="m 329.19,170.07 c 5.27,-2.29 11.37,-3.1 16.93,-1.36 -1.69,2.58 -4.67,3.65 -7.07,5.38 -5.79,4.1 -11.67,8.18 -16.56,13.36 -4.04,4.26 -8.61,8.27 -11.12,13.68 -0.92,1.57 -1.46,3.46 -2.88,4.68 -2.32,0.3 -4,-1.56 -5.76,-2.72 -13.9,-10.99 -30.76,-17.1 -46.18,-25.5 -0.27,-0.73 -0.81,-2.19 -1.08,-2.91 8.61,-2.38 17.62,-2.49 26.48,-2.23 3.68,0.28 7.32,1.13 10.79,2.38 4.48,1.82 7.53,5.76 11.13,8.81 8.79,-3.87 16.62,-9.55 25.32,-13.57 z"
       inkscape:connector-curvature="0"
       style="fill:#040402" />
    <path
       id="path18"
       d="m 90.58,177.6 c 4.06,-2.84 8.27,-5.91 13.31,-6.6 -1.37,6.34 -7.16,10.07 -11.26,14.6 -8.31,9.66 -15.4,20.31 -21.9,31.26 -5.52,8.52 -9.57,17.86 -13.85,27.04 -5.61,12.68 -8.65,26.27 -11.78,39.71 -1.53,9.79 -3.96,19.48 -4.24,29.43 -0.64,12.99 -1.4,26.05 -0.01,39.02 0.9,15.39 5.12,30.3 8.14,45.35 4.31,17.11 12.61,32.85 21.02,48.25 3.49,6.17 8,11.69 12.02,17.51 10.93,16.25 24.73,30.34 39.08,43.57 C 108.55,498.25 97.48,487.86 86.42,477.57 79.19,469.84 71.7,462.37 64.5,454.62 56.96,444.83 49.22,435.16 42.43,424.82 37.89,416.9 32.36,409.43 29.18,400.81 c -0.76,-2.24 -1.58,-4.46 -2.37,-6.69 -5.55,-14.46 -7.42,-29.92 -9,-45.23 -0.42,-11.38 -0.79,-22.8 -0.17,-34.18 1.19,-8.24 2.51,-16.45 3.89,-24.64 1.58,-9.71 4.64,-19.07 7.45,-28.46 4.95,-18.16 15.87,-33.87 26.77,-48.93 5.79,-8.35 13.03,-15.53 19.99,-22.89 4.43,-4.66 9.71,-8.37 14.84,-12.19 z"
       inkscape:connector-curvature="0"
       style="fill:#040402" />
    <path
       id="path20"
       d="m 166.08,182.19 c 9.05,-6.19 20.07,-9.18 30.93,-9.88 4.29,-0.71 7.74,2.36 10.92,4.74 9.17,8.14 17.49,17.9 28.97,22.85 3.87,1.4 8.21,1.37 11.87,3.36 3.77,2.5 6.03,8.43 2.74,12.2 -3.95,4.62 -10.94,4.58 -14.92,9.18 -2.95,3.38 -8.42,3.55 -11.99,1.08 -2.52,-1.61 -2.23,-4.91 -3.06,-7.43 -9.49,0.44 -19.19,0.46 -28.33,-2.56 -12.24,-5.01 -23.46,-13.12 -30.73,-24.3 -1.55,-3.4 0.61,-7.41 3.6,-9.24 z"
       inkscape:connector-curvature="0"
       style="fill:#040402" />
    <path
       id="path22"
       d="m 361.22,190.94 c 5.47,-2.87 8.46,-9.53 14.75,-10.89 7.76,0.4 15.13,3.41 21.82,7.21 2.09,1.5 4.39,3.31 5.09,5.89 -0.02,7.3 -3.52,14.09 -8.12,19.56 -5.65,5.95 -12.3,10.97 -19.7,14.54 -1.94,0.98 -4.12,1.11 -6.23,1.29 -1.51,-3.25 -1.72,-6.94 -3.27,-10.15 -3.23,-2.39 -9.16,-0.89 -10.51,-5.61 -1.36,-5.1 -2.05,-10.52 -1.14,-15.76 0.98,-3.28 4.8,-4.25 7.31,-6.08 z"
       inkscape:connector-curvature="0"
       style="fill:#040402" />
    <path
       id="path24"
       d="m 179.25,188.78 c 2.54,-3.51 6.89,-4.04 10.87,-3.09 1.06,2.07 1.96,4.22 2.76,6.42 0.32,1.64 0.85,3.26 1.01,4.94 1.17,1.95 3.02,3.3 4.98,4.39 5.56,-0.48 4.87,-7.51 8.91,-10.04 3.09,0.41 6.21,2.67 7.63,5.48 0.57,3.67 -2.55,8.03 -6.46,8.05 -6.71,1.16 -13.43,-0.87 -19.69,-3.14 -5.04,-2.35 -10.51,-6.91 -10.01,-13.01 z"
       inkscape:connector-curvature="0"
       style="fill:#fbfbfb" />
    <path
       id="path26"
       d="m 381.58,196.01 c 0.21,-2.24 0.38,-4.93 2.27,-6.45 3.71,-0.29 5.01,4.44 4.33,7.37 -0.59,4.66 -3.47,10.67 -9.11,9.73 0.75,-3.58 2.43,-6.95 2.51,-10.65 z"
       inkscape:connector-curvature="0"
       style="fill:#fbfbfb" />
    <path
       id="path28"
       d="m 152,194.58 c 0.42,-0.11 1.26,-0.34 1.68,-0.46 0.03,2.16 -0.06,4.35 0.24,6.5 2.25,9.99 6.58,19.51 12.77,27.67 3.67,4.38 8.07,8.08 12.53,11.61 5.08,3.93 11.52,5.31 17.77,6.05 6.76,1.13 13.36,-1.74 20.12,-1.51 1.38,3.04 2.62,6.3 2.14,9.7 -1.65,2.97 -4.54,4.97 -7.37,6.72 -7.58,4.42 -15.81,8.15 -24.67,8.83 -10.66,1.04 -22.13,2.28 -32.08,-2.6 -6.36,-3 -9.79,-9.58 -12.73,-15.6 -4.04,-8.6 -2.78,-18.41 -1.49,-27.49 1.53,-10.48 6.3,-20.09 11.09,-29.42 z"
       inkscape:connector-curvature="0"
       style="fill:#040402" />
    <path
       id="path30"
       d="m 106.05,210.67 c 3.29,-4.79 6.7,-9.53 10.62,-13.84 -1.59,10.74 -2.73,21.54 -4.06,32.31 -0.75,12.51 -1.08,26.6 7.42,36.82 6.41,9.54 15.88,16.41 25.7,22.1 8.73,4.53 18.49,6.83 28.26,7.51 4.32,0.25 8.51,-0.97 12.76,-1.44 0.2,5.71 -4.88,8.79 -8.79,11.88 -9.49,7.15 -19.82,14.49 -32.07,15.41 -8.12,0.33 -16.57,1.18 -24.38,-1.64 -5.49,-1.87 -10.88,-4.32 -15.54,-7.81 -10.72,-11.12 -17.66,-26.34 -16.83,-41.99 -0.88,-11.89 2.69,-23.37 6.15,-34.57 1.42,-4.13 3.24,-8.11 4.89,-12.15 1.84,-4.25 3.21,-8.75 5.87,-12.59 z"
       inkscape:connector-curvature="0"
       style="fill:#040402" />
    <path
       id="path32"
       d="m 416.37,197.17 c 16.62,4.28 30.61,16.92 36.95,32.81 3.05,8.67 2.33,18.06 0.95,26.97 -0.45,2.68 -1.82,5.06 -3.12,7.39 -8.3,1.52 -16.8,1.34 -25.17,0.5 -5.93,-0.51 -11.92,0.07 -17.82,-0.8 -5.59,-1.02 -11.23,-2.03 -16.57,-4.01 -5.06,-2.08 -9.64,-5.28 -13.64,-8.98 -1.64,-1.45 -2.12,-3.63 -2.6,-5.65 11.49,1.46 23.1,1.5 34.66,1.06 5.89,-0.08 11.01,-3.5 15.8,-6.56 3.4,-2.1 5.5,-6.12 5.15,-10.11 -0.7,-12.21 -6.84,-23.44 -14.59,-32.62 z"
       inkscape:connector-curvature="0"
       style="fill:#040402" />
    <path
       id="path34"
       d="m 367.2,200.85 c 3.26,0.87 5.3,3.78 7.44,6.17 -0.82,0.45 -1.65,0.9 -2.48,1.33 -1.19,-0.46 -2.38,-0.87 -3.59,-1.24 -1.21,-1.87 -1.36,-4.09 -1.37,-6.26 z"
       inkscape:connector-curvature="0"
       style="fill:#fbfbfb" />
    <path
       id="path36"
       d="m 67.8,300.32 c 1.12,-3.67 0.63,-8.4 4,-10.94 3.6,19.39 6.82,39.11 14.6,57.37 5.26,10.31 11.24,20.4 19.17,28.91 1.1,1.19 2.85,2.44 4.45,1.32 4.46,-1.79 5.27,-6.93 6.8,-10.9 2.84,-9.16 9.91,-16.13 17.21,-21.98 4.56,-3.86 10.17,-6.06 15.55,-8.5 2.52,-1.25 5.38,-1.17 8.13,-1.11 -1.94,2.82 -3.96,5.57 -5.87,8.41 -4.25,6.12 -6.88,13.15 -9.81,19.96 -6.9,17.84 -6.44,37.38 -5.07,56.15 2.01,12.2 3.71,24.58 8.03,36.23 4.62,14.77 12.15,28.78 22.65,40.21 9.76,11.55 20.53,22.37 32.79,31.27 7.54,5.64 15.15,11.36 23.93,14.96 5.78,3.34 12.09,5.65 17.77,9.15 -8.74,1.48 -17.62,-0.49 -26.14,-2.35 -2.58,-0.34 -5.14,-0.83 -7.5,-1.94 -1.48,-0.01 -2.94,-0.1 -4.4,-0.27 -8.88,-3.39 -17.5,-7.45 -26.08,-11.53 0.22,0.09 0.66,0.26 0.89,0.35 -15.15,-8.16 -28.39,-19.44 -39.88,-32.17 -6.62,-6.64 -11.36,-14.83 -15.84,-22.98 -3.96,-8.92 -7.29,-18.1 -11.03,-27.1 -4.73,-11.93 -8.27,-24.52 -15.53,-35.27 -3.4,-6.1 -9.3,-10.32 -12.45,-16.56 -1.89,-3.59 -3.56,-7.29 -5.36,-10.93 -5.32,-10.18 -8,-21.44 -10.91,-32.47 -1.88,-12.43 -3.38,-25.1 -1.89,-37.65 0.61,-6.55 0.05,-13.22 1.79,-19.64 z"
       inkscape:connector-curvature="0"
       style="fill:#040402" />
    <path
       id="path38"
       d="m 206.93,296.15 c 0.87,-2.35 3.13,-3.56 5.2,-4.68 1.05,1.68 2.68,3.28 2.46,5.44 0.34,3.1 -1.03,6.69 1.15,9.33 5.14,8.43 13.41,15.41 23.22,17.25 7.92,-0.96 13.97,-6.79 21.06,-9.95 0.92,-0.06 2.78,-0.18 3.71,-0.24 -3.69,7.22 -7.27,14.49 -10.57,21.9 -2.82,6.6 -6.76,12.86 -12.12,17.68 -4.12,2.61 -9.35,2.36 -14.05,2.52 -4.09,-0.15 -8.03,1.84 -12.13,1.03 -3.01,-1.77 -5.36,-4.6 -6.83,-7.74 -3.25,-8.17 -4.52,-16.95 -5.14,-25.68 -0.29,-9.05 0.06,-18.55 4.04,-26.86 z"
       inkscape:connector-curvature="0"
       style="fill:#040402" />
    <path
       id="path40"
       d="m 419.77,304.1 c 2.28,-2.53 3.03,-5.95 4.8,-8.8 2.52,1.12 5.73,1.51 7.41,3.96 1.66,2.27 3.8,4.72 3.49,7.73 -1.05,11.02 -7.19,20.85 -14.82,28.6 -3.76,3.54 -6.37,8.93 -11.78,10.15 -1.78,-5.16 -2,-10.71 -3.92,-15.82 -1.27,-3.85 -3.6,-7.68 -2.74,-11.88 1,-1.79 3.24,-2.18 4.88,-3.19 5.13,-2.35 8.96,-6.64 12.68,-10.75 z"
       inkscape:connector-curvature="0"
       style="fill:#040402" />
    <path
       id="path42"
       d="m 360.05,308.79 c 8.23,-1.98 17.45,-2.57 25.17,1.48 1.41,0.45 1.46,1.94 1.15,3.15 -5.73,0.18 -12.22,1.26 -15.95,6.11 -4.46,4.77 -6.33,11.36 -11.04,15.92 -3.23,3.34 -7.37,6.12 -9.13,10.6 -1.78,4.2 0.44,9.93 5.1,11.02 12.27,4.88 25.16,-0.96 37.75,0.38 4.06,0.5 8.49,0.91 11.73,3.71 4.87,3.5 7.04,10.3 5.21,16 -1.61,5.16 -3.49,10.25 -5.51,15.27 -2.06,5.56 -8.04,8.74 -9.39,14.65 -2.88,12.61 2.88,25.62 -0.88,38.13 -0.67,3.11 -2.13,6.48 -5.28,7.75 -5.51,-0.21 -10.73,-2.24 -16.13,-3.16 -11.9,-1.8 -23.9,-3.02 -35.92,-3.64 -4.67,-0.87 -9.32,0.44 -14.01,0.26 -9.1,-0.27 -18.07,1.51 -27.02,2.93 -9.08,1.54 -17.57,5.97 -26.89,6.18 -6.32,-0.22 -12.62,-2.91 -16.78,-7.77 -8.1,-8.43 -11.64,-19.9 -16.94,-30.08 -1.52,-3.62 -4.09,-7.73 -2.01,-11.66 3.83,-8.53 8.98,-16.4 12.82,-24.94 3.04,-7.34 8.53,-13.36 14.55,-18.41 5.47,-3.34 11.74,-6.15 18.31,-5.48 10.36,0.64 20.67,2.08 31.04,2.62 6.9,-0.19 13.91,-0.96 20.49,-3.14 3.2,-1.07 4.87,-4.41 4.46,-7.66 0.58,-3.62 -2.27,-6.3 -4.96,-8.17 -4.02,-2.96 -9.01,-4.84 -11.94,-9.08 -2.61,-3.89 -1.14,-9.87 -5.37,-12.77 -3.12,-2.55 -7.12,-0.26 -10.69,-0.59 -3.18,0.6 -5.07,-2.34 -6.91,-4.34 1.57,-5.08 7.43,-5.75 11.93,-6.17 5.4,-0.05 11.13,-0.64 16.13,1.88 5.48,2.61 11.04,5.19 17,6.48 2.98,0.36 6.32,0.66 8.87,-1.26 3.39,-2.53 6.81,-5.25 11.04,-6.2 z"
       inkscape:connector-curvature="0"
       style="fill:#040402" />
    <path
       id="path44"
       d="m 450.27,307.13 c 2.42,0.12 4.9,0.26 7.2,1.13 7.94,3.14 15.36,7.77 21.26,13.99 4.54,5.42 7.04,12.26 8.61,19.08 0.38,3.23 0.3,6.5 0.53,9.74 0.45,1.96 0.45,3.97 0.41,5.98 -0.64,2.26 -0.78,4.62 -1.31,6.91 -0.35,1.64 -0.64,3.29 -1.05,4.92 -2.15,9.92 -5.41,19.52 -8.97,29.01 -1.31,3.05 -1.58,6.7 -3.9,9.22 -0.4,-0.15 -1.19,-0.47 -1.59,-0.63 0.74,-4.81 0.91,-9.68 0.37,-14.51 -0.35,-11.64 -1.11,-23.27 -2.65,-34.81 -1.82,-9.76 -4.99,-19.21 -7.88,-28.68 -2.22,-7.8 -7.28,-14.28 -11.03,-21.35 z"
       inkscape:connector-curvature="0"
       style="fill:#040402" />
    <path
       id="path46"
       d="m 444.54,354.48 c 8.79,10.9 10.77,25.15 12.71,38.56 0.67,12.91 0.16,26.05 -3.25,38.59 -2.1,7.84 -4.58,15.61 -7.94,23.02 -4.07,7.98 -9.63,15.1 -15.11,22.14 -6.51,7.84 -13.16,15.79 -21.8,21.38 -7.17,4.7 -13.95,10.23 -21.91,13.58 0.39,-1.9 1.92,-3.09 2.71,-4.77 6.73,-9.28 8.26,-20.91 10.1,-31.91 1.08,-6.66 0.08,-13.43 0.65,-20.11 -0.03,-1.68 1.32,-2.74 2.46,-3.71 7.49,-5.93 12.97,-13.86 19.1,-21.08 2.68,-3.06 4.94,-6.48 6.6,-10.2 3.85,-8.46 7.29,-17.14 9.8,-26.11 3.92,-12.76 4.33,-26.22 5.88,-39.38 z"
       inkscape:connector-curvature="0"
       style="fill:#040402" />
    <path
       id="path48"
       d="m 390.61,371.98 c -0.12,-1.97 2.12,-2.55 3.44,-3.4 2.45,1.26 3.8,3.56 4.29,6.22 -0.04,0.81 -0.12,2.43 -0.16,3.23 -0.6,1.92 -0.85,3.92 -1.43,5.85 -0.16,1.43 -0.32,2.88 -0.44,4.32 -0.91,1.72 -2,3.35 -3.36,4.75 -0.83,-1.18 -1.61,-2.42 -1.64,-3.9 -0.95,-5.64 -0.93,-11.38 -0.7,-17.07 z"
       inkscape:connector-curvature="0"
       style="fill:#fbfbfb" />
    <path
       id="path50"
       d="m 324.02,371.1 c 9.27,-0.86 18.63,-0.37 27.94,-0.76 7.21,0.33 14.49,-1.73 21.55,0.51 -0.19,3.89 -3.41,7.33 -7.44,7.17 -19.99,1.64 -40.33,4.69 -60.22,0.59 -2.24,-0.27 -3.98,-1.74 -5.3,-3.46 0.04,-0.87 0.1,-2.59 0.14,-3.45 7.11,-0.83 14.31,0.16 21.4,-0.88 0.48,0.07 1.45,0.21 1.93,0.28 z"
       inkscape:connector-curvature="0"
       style="fill:#fbfbfb" />
    <path
       id="path52"
       d="m 274.11,376.02 c 0.25,-2.38 1.94,-4.14 3.67,-5.62 1.65,0.23 3.26,0.66 4.85,1.18 0.31,6.88 -0.49,13.73 -1.35,20.54 -0.27,0.65 -0.82,1.95 -1.09,2.6 -1.37,-0.81 -3.02,-1.54 -3.37,-3.27 -1.43,-5 -4.24,-10.09 -2.71,-15.43 z"
       inkscape:connector-curvature="0"
       style="fill:#fbfbfb" />
    <path
       id="path54"
       d="m 295.34,420.05 c 0.13,-1.95 -0.82,-4.79 1.7,-5.55 3.47,2.5 4.62,7.03 6.79,10.58 0.46,1.28 0.94,2.56 1.46,3.83 0.23,2.14 0.39,4.29 0.41,6.45 -2.2,1.22 -5.58,2.67 -7.68,0.69 -2.91,-4.78 -2.9,-10.6 -2.68,-16 z"
       inkscape:connector-curvature="0"
       style="fill:#fbfbfb" />
    <path
       id="path56"
       d="m 379.17,426.19 c 1.48,-2.75 2.9,-6.1 6.09,-7.19 1.6,3.55 1,7.43 0.31,11.13 -0.97,3.45 -2.32,7.19 -5.58,9.13 -2.46,0.73 -4.82,-0.86 -5.43,-3.23 1.7,-3.2 3.18,-6.52 4.61,-9.84 z"
       inkscape:connector-curvature="0"
       style="fill:#fbfbfb" />
    <path
       id="path58"
       d="m 190.78,424.87 c 1.73,0.54 3.53,1.03 4.97,2.18 11.03,8.19 20.76,17.96 31.37,26.67 5.29,4.16 10.87,7.92 16.47,11.65 4.94,3.35 10.56,5.77 14.9,9.97 4.46,4.06 7.32,9.46 10.56,14.47 4.55,7.56 10.92,13.75 16.76,20.29 3.79,4.38 9.34,6.48 14.52,8.72 6.2,2.66 13.07,2.7 19.69,3.1 10.32,0.38 20.68,1.34 31,0.26 6.74,-0.41 13.36,-1.89 20.1,-2.38 0.34,0.32 1.04,0.97 1.39,1.29 -4.26,3.32 -8.62,6.55 -13.41,9.09 l -0.48,0.04 c -1.56,0.03 -2.94,0.82 -4.38,1.33 -3.48,1.81 -7.18,3.1 -11.01,3.92 -8.98,3.38 -18.7,3.98 -28.2,4.03 -5.65,-0.12 -11.34,0.06 -16.94,-0.79 -16.41,-2.23 -33.11,-5.73 -47.44,-14.42 -5.85,-3.77 -11.46,-7.89 -16.98,-12.12 -22.82,-17.38 -38.58,-43.73 -42.98,-72.08 -0.42,-5.07 -0.11,-10.15 0.09,-15.22 z"
       inkscape:connector-curvature="0"
       style="fill:#040402" />
    <path
       id="path60"
       d="m 316.13,428.87 c 2.24,-3.46 6.54,-1.81 9.84,-3.06 8.97,-0.36 18.06,-0.7 27,0.22 3.02,0.47 5.98,1.19 8.95,1.93 2.06,1.26 3.72,3.01 4.86,5.15 -1.54,0.63 -3.11,1.36 -4.81,1.25 -14.73,0.27 -29.38,-1.55 -43.98,-3.3 -0.46,-0.54 -1.4,-1.64 -1.86,-2.19 z"
       inkscape:connector-curvature="0"
       style="fill:#fbfbfb" />
  </g>
</svg>
