<?xml version="1.0" encoding="UTF-8" ?>
<!DOCTYPE svg PUBLIC "-//W3C//DTD SVG 1.1//EN" "http://www.w3.org/Graphics/SVG/1.1/DTD/svg11.dtd">
<svg width="350pt" height="256pt" viewBox="0 0 350 256" version="1.1" xmlns="http://www.w3.org/2000/svg">
<path fill="#ffffff" d=" M 0.00 0.00 L 350.00 0.00 L 350.00 256.00 L 0.00 256.00 L 0.00 213.36 C 2.41 226.97 11.14 238.21 18.27 249.69 C 20.71 254.44 26.78 257.28 31.84 255.08 C 37.16 252.72 41.82 248.88 44.97 243.97 C 47.76 239.39 53.29 237.62 56.30 233.24 C 61.09 226.43 63.68 218.18 64.26 209.90 C 65.06 202.25 65.44 194.57 66.27 186.93 C 72.48 187.63 77.49 191.74 83.38 193.48 C 94.13 197.32 105.76 196.62 116.96 196.03 C 129.40 195.43 141.49 191.46 152.36 185.50 C 158.88 184.54 165.61 184.88 172.19 185.21 C 169.81 188.91 167.06 192.46 165.58 196.66 C 162.33 205.71 161.91 215.42 161.25 224.92 C 161.14 228.54 160.80 232.37 162.27 235.79 C 163.36 238.36 165.77 239.97 167.83 241.70 C 176.51 240.33 185.15 238.42 193.97 238.19 C 203.31 237.98 212.65 233.90 218.65 226.63 C 221.80 222.66 225.88 219.54 230.34 217.19 C 239.88 212.52 247.87 205.27 254.92 197.43 C 258.79 201.75 263.52 207.16 270.02 205.90 C 275.23 204.32 279.66 200.95 284.40 198.38 C 287.60 196.92 291.39 197.28 294.43 195.38 C 297.25 193.57 299.56 191.11 302.03 188.88 C 314.81 176.75 327.63 164.50 338.35 150.45 C 342.28 144.93 345.91 139.00 347.53 132.35 C 348.94 126.69 349.74 120.86 349.75 115.01 C 349.64 105.12 348.70 94.88 343.89 86.03 C 338.33 75.57 331.78 64.99 321.78 58.24 C 308.25 48.77 291.81 43.54 275.27 43.94 C 271.37 37.90 267.39 31.83 262.09 26.91 C 253.82 19.26 244.79 12.09 234.28 7.78 C 211.23 -1.42 184.62 -2.58 161.30 6.31 C 143.54 11.67 126.58 21.19 114.60 35.57 C 108.86 42.34 105.27 50.72 99.22 57.24 C 92.21 59.04 84.97 60.29 78.25 63.15 C 69.01 66.42 60.57 71.78 53.66 78.73 C 48.13 78.83 42.60 78.68 37.06 78.83 C 30.51 78.44 24.96 85.67 27.05 91.91 C 28.60 98.43 35.16 101.41 40.22 104.83 C 37.97 113.98 37.68 123.50 38.21 132.87 C 29.78 137.23 23.01 144.80 19.72 153.70 C 18.18 158.90 18.78 164.44 17.56 169.69 C 14.10 176.72 7.70 182.14 5.58 189.86 C 4.33 194.66 2.25 199.16 0.00 203.57 L 0.00 0.00 Z" />
<path fill="#c7ac64" d=" M 161.30 6.31 C 184.62 -2.58 211.23 -1.42 234.28 7.78 C 244.79 12.09 253.82 19.26 262.09 26.91 C 267.39 31.83 271.37 37.90 275.27 43.94 C 291.81 43.54 308.25 48.77 321.78 58.24 C 331.78 64.99 338.33 75.57 343.89 86.03 C 348.70 94.88 349.64 105.12 349.75 115.01 C 349.74 120.86 348.94 126.69 347.53 132.35 C 345.91 139.00 342.28 144.93 338.35 150.45 C 327.63 164.50 314.81 176.75 302.03 188.88 C 299.56 191.11 297.25 193.57 294.43 195.38 C 291.39 197.28 287.60 196.92 284.40 198.38 C 279.66 200.95 275.23 204.32 270.02 205.90 C 263.52 207.16 258.79 201.75 254.92 197.43 C 247.87 205.27 239.88 212.52 230.34 217.19 C 225.88 219.54 221.80 222.66 218.65 226.63 C 212.65 233.90 203.31 237.98 193.97 238.19 C 185.15 238.42 176.51 240.33 167.83 241.70 C 165.77 239.97 163.36 238.36 162.27 235.79 C 160.80 232.37 161.14 228.54 161.25 224.92 C 161.91 215.42 162.33 205.71 165.58 196.66 C 167.06 192.46 169.81 188.91 172.19 185.21 C 165.61 184.88 158.88 184.54 152.36 185.50 C 141.49 191.46 129.40 195.43 116.96 196.03 C 105.76 196.62 94.13 197.32 83.38 193.48 C 77.49 191.74 72.48 187.63 66.27 186.93 C 65.44 194.57 65.06 202.25 64.26 209.90 C 63.68 218.18 61.09 226.43 56.30 233.24 C 53.29 237.62 47.76 239.39 44.97 243.97 C 41.82 248.88 37.16 252.72 31.84 255.08 C 26.78 257.28 20.71 254.44 18.27 249.69 C 11.14 238.21 2.41 226.97 0.00 213.36 L 0.00 203.57 C 2.25 199.16 4.33 194.66 5.58 189.86 C 7.70 182.14 14.10 176.72 17.56 169.69 C 18.78 164.44 18.18 158.90 19.72 153.70 C 23.01 144.80 29.78 137.23 38.21 132.87 C 37.68 123.50 37.97 113.98 40.22 104.83 C 35.16 101.41 28.60 98.43 27.05 91.91 C 24.96 85.67 30.51 78.44 37.06 78.83 C 42.60 78.68 48.13 78.83 53.66 78.73 C 60.57 71.78 69.01 66.42 78.25 63.15 C 84.97 60.29 92.21 59.04 99.22 57.24 C 105.27 50.72 108.86 42.34 114.60 35.57 C 126.58 21.19 143.54 11.67 161.30 6.31 Z" />
<path fill="#000000" d=" M 155.00 17.97 C 165.06 14.41 175.19 10.59 185.91 9.63 C 203.33 8.11 221.44 10.97 237.05 19.04 C 247.61 25.72 257.95 33.64 264.64 44.38 C 267.21 48.43 270.42 53.58 275.92 53.21 C 291.78 52.63 307.52 58.32 319.91 68.09 C 326.30 73.52 330.88 80.76 334.91 88.03 C 341.45 100.12 342.04 114.72 339.33 127.97 C 337.96 135.54 333.53 142.02 328.89 147.96 C 317.51 161.79 304.55 174.21 291.40 186.32 C 288.77 189.02 284.58 187.89 281.47 189.63 C 277.00 192.07 272.76 194.91 268.13 197.05 C 263.47 194.06 260.14 189.29 257.72 184.39 C 257.00 182.94 254.80 182.20 253.83 183.83 C 249.09 189.41 245.01 195.71 239.14 200.23 C 235.52 202.99 232.19 206.24 228.02 208.18 C 222.75 210.47 218.10 214.00 214.01 218.00 C 210.52 222.17 206.52 226.44 201.05 227.83 C 196.50 229.32 191.71 229.54 186.96 229.46 C 181.47 230.00 176.09 231.43 170.59 232.03 C 170.08 225.35 170.95 218.66 171.60 212.02 C 172.64 204.65 174.04 196.84 179.00 190.99 C 181.42 188.16 184.34 185.31 188.00 184.30 C 197.00 184.04 206.02 184.39 215.03 184.13 C 220.72 178.44 226.64 173.00 232.36 167.35 C 233.93 166.01 233.69 163.74 234.13 161.92 C 236.89 142.96 239.80 124.02 242.52 105.06 C 242.89 102.41 243.15 99.74 243.91 97.17 C 246.34 97.27 248.78 97.26 251.22 97.18 C 252.35 90.75 253.28 84.28 254.02 77.79 C 243.34 77.74 232.67 77.72 221.99 77.80 C 217.63 105.39 213.89 133.07 209.56 160.66 C 193.43 160.79 177.29 160.69 161.15 160.71 C 161.63 154.72 162.69 148.78 163.72 142.87 C 170.44 142.87 177.15 142.88 183.87 142.86 C 190.21 136.81 196.69 130.90 202.94 124.76 C 204.83 115.91 205.67 106.83 207.10 97.89 C 199.09 97.81 191.08 97.85 183.08 97.86 C 181.87 105.02 180.89 112.21 179.80 119.39 C 175.60 119.54 171.39 119.48 167.19 119.41 C 168.91 105.60 171.24 91.87 173.19 78.09 C 162.43 77.83 151.66 77.90 140.90 78.03 C 139.86 84.40 138.93 90.78 137.99 97.17 C 140.39 97.26 142.79 97.25 145.20 97.24 C 144.70 104.67 143.20 112.01 142.21 119.39 C 135.84 119.43 129.45 119.67 123.09 119.25 C 126.13 99.19 128.93 79.09 132.14 59.05 C 132.28 57.21 134.75 58.13 135.93 57.87 C 153.59 58.05 171.25 57.63 188.90 58.08 C 188.39 64.60 187.03 71.02 186.18 77.50 C 194.10 78.09 202.07 77.54 210.02 77.78 C 211.38 70.87 211.98 63.83 213.26 56.90 C 213.35 55.40 214.09 53.60 212.89 52.34 C 208.69 46.45 204.40 40.62 200.11 34.80 C 176.26 34.76 152.39 34.92 128.54 34.73 C 129.19 33.06 130.70 32.04 132.03 30.95 C 138.98 25.50 146.75 21.10 155.00 17.97 Z" />
<path fill="#000000" d=" M 90.11 67.84 C 95.41 66.22 100.74 64.51 106.30 64.04 C 103.50 84.09 100.30 104.10 97.54 124.15 C 102.09 130.78 107.74 136.76 112.95 142.94 C 121.48 142.82 130.02 142.94 138.56 142.88 C 137.77 150.62 136.49 158.30 135.27 165.98 C 138.40 170.37 141.93 174.47 144.96 178.93 C 136.83 182.99 128.02 185.88 118.92 186.60 C 109.31 187.51 99.47 188.13 89.98 185.96 C 80.93 184.18 73.43 177.33 63.98 177.18 C 61.37 178.30 58.74 180.08 57.85 182.92 C 55.16 189.25 56.27 196.24 55.23 202.88 C 54.74 211.66 53.75 220.99 48.19 228.20 C 45.11 231.81 40.09 233.38 37.73 237.67 C 35.41 241.54 32.03 244.83 27.89 246.70 C 26.19 247.09 25.67 245.07 24.79 244.09 C 19.44 235.69 13.65 227.44 9.96 218.14 C 8.51 213.59 6.88 208.09 9.67 203.73 C 12.72 198.66 12.87 192.37 16.30 187.50 C 19.27 183.10 22.61 178.93 25.14 174.25 C 28.04 168.31 26.08 161.31 28.41 155.24 C 31.66 148.89 36.79 143.13 43.57 140.53 C 45.62 139.78 48.39 138.72 47.79 135.96 C 45.80 126.42 46.60 116.50 48.57 107.02 C 48.99 104.41 51.80 101.72 50.06 99.12 C 44.91 96.59 39.15 94.55 35.40 89.97 C 35.48 89.46 35.65 88.45 35.74 87.95 C 42.16 87.54 48.60 87.93 55.02 87.84 C 56.27 87.82 57.74 87.74 58.56 86.64 C 66.51 76.90 78.44 71.65 90.11 67.84 Z" />
<path fill="#ffffff" d=" M 274.93 116.07 C 279.91 104.42 291.17 97.00 302.18 91.69 C 298.06 100.26 293.02 108.56 290.95 117.95 C 289.77 122.14 289.62 127.10 286.21 130.24 C 282.98 133.59 276.50 132.95 274.38 128.69 C 272.15 124.75 273.53 120.04 274.93 116.07 Z" />
<path fill="#000000" d=" M 251.59 210.88 C 258.16 209.05 264.84 215.99 262.32 222.44 C 260.82 229.25 250.65 231.06 246.78 225.34 C 242.61 220.63 245.46 212.16 251.59 210.88 Z" />
<path fill="#ffffff" d=" M 250.02 212.01 C 255.82 208.86 263.73 214.53 262.12 221.06 C 261.59 227.93 251.80 230.92 247.57 225.47 C 243.57 221.55 245.19 214.43 250.02 212.01 Z" />
<path fill="#000000" d=" M 250.25 214.23 C 253.22 214.15 257.18 213.36 258.40 216.95 C 257.65 217.84 256.91 218.73 256.17 219.62 C 256.52 221.36 258.69 224.04 257.00 225.49 C 255.30 224.31 256.03 221.75 254.68 220.28 C 253.98 220.22 252.59 220.08 251.90 220.01 C 251.82 221.72 251.85 223.45 251.81 225.17 C 251.41 225.16 250.61 225.14 250.21 225.13 C 250.22 221.49 250.21 217.86 250.25 214.23 Z" />
<path fill="#ffffff" d=" M 251.84 215.23 C 253.47 215.37 256.08 214.66 256.56 216.94 C 256.25 219.27 253.61 218.85 251.98 218.65 C 251.94 217.79 251.88 216.09 251.84 215.23 Z" />
</svg>
