<?xml version="1.0" encoding="UTF-8" standalone="no"?>
<svg
   xmlns:dc="http://purl.org/dc/elements/1.1/"
   xmlns:cc="http://creativecommons.org/ns#"
   xmlns:rdf="http://www.w3.org/1999/02/22-rdf-syntax-ns#"
   xmlns:svg="http://www.w3.org/2000/svg"
   xmlns="http://www.w3.org/2000/svg"
   xmlns:sodipodi="http://sodipodi.sourceforge.net/DTD/sodipodi-0.dtd"
   xmlns:inkscape="http://www.inkscape.org/namespaces/inkscape"
   width="139.93004"
   height="91.363708"
   viewBox="0 0 111.94403 73.090967"
   version="1.1"
   id="svg2"
   inkscape:version="0.48.1 "
   sodipodi:docname="Dartmouth Big Green.svg">
  <metadata
     id="metadata77">
    <rdf:RDF>
      <cc:Work
         rdf:about="">
        <dc:format>image/svg+xml</dc:format>
        <dc:type
           rdf:resource="http://purl.org/dc/dcmitype/StillImage" />
        <dc:title></dc:title>
      </cc:Work>
    </rdf:RDF>
  </metadata>
  <defs
     id="defs75" />
  <sodipodi:namedview
     pagecolor="#ffffff"
     bordercolor="#666666"
     borderopacity="1"
     objecttolerance="10"
     gridtolerance="10"
     guidetolerance="10"
     inkscape:pageopacity="0"
     inkscape:pageshadow="2"
     inkscape:window-width="1680"
     inkscape:window-height="994"
     id="namedview73"
     showgrid="false"
     fit-margin-top="0"
     fit-margin-left="0"
     fit-margin-right="0"
     fit-margin-bottom="0"
     inkscape:zoom="8.5044709"
     inkscape:cx="69.965019"
     inkscape:cy="45.681854"
     inkscape:window-x="-4"
     inkscape:window-y="-4"
     inkscape:window-maximized="1"
     inkscape:current-layer="svg2" />
  <g
     id="g3054"
     transform="matrix(0.08731916,0,0,0.08731916,-3.4793412,-6.9684064)">
    <g
       id="#01683bff">
      <path
         id="path5"
         d="m 509.34,98.98 c 0.16,-1.19 -0.57,-3.84 1.58,-3.37 87.06,-0.02 174.12,-0.01 261.18,0 1.15,0.01 2.13,0.44 2.97,1.3 16.43,14.88 32.96,29.65 49.46,44.46 3.3,3.33 7.32,6 10.26,9.63 0.12,93.03 0.07,186.07 0.03,279.11 56.48,19.26 113.05,38.27 169.57,57.43 13.58,4.43 26.99,9.46 40.67,13.54 53.3,0.36 106.64,0.05 159.95,0.15 33.39,-0.04 66.78,0.09 100.16,-0.06 0.52,23.26 0.08,46.56 0.22,69.84 -0.01,60.43 0.03,120.85 -0.01,181.28 -14.38,0.1 -28.75,0.01 -43.13,0.02 -10.27,50.88 -20.18,101.83 -30.41,152.72 -359.3,0.08 -718.6,0.01 -1077.9,0.04 -8.16,-0.15 -16.34,0.3 -24.48,-0.26 -9.79,-50.82 -20.18,-101.52 -30.06,-152.33 -14.47,-0.45 -28.97,0.12 -43.45,-0.27 -0.12,-0.32 -0.38,-0.95 -0.51,-1.26 0.01,-83.22 -0.05,-166.44 0.04,-249.66 84.16,-0.14 168.32,-0.02 252.49,-0.06 3.76,-0.1 7.67,0.44 11.3,-0.85 63.35,-21.47 126.83,-42.56 190.14,-64.13 -0.1,-13.37 0.02,-26.74 -0.07,-40.11 5.82,-0.09 11.64,0.07 17.46,-0.15 0.06,-60.74 0.04,-121.48 0,-182.22 -5.8,-0.14 -11.6,0 -17.39,-0.09 -0.1,-38.23 0.03,-76.47 -0.07,-114.7 m 24.2,20.76 c -0.09,23.21 0.09,46.43 -0.09,69.64 5.66,0.5 11.36,0.22 17.03,0.11 0.14,1.15 0.23,2.31 0.29,3.48 -0.06,75.55 0.02,151.1 -0.04,226.66 -5.73,0.08 -11.45,-0.01 -17.18,0.06 -0.06,23.47 -0.01,46.93 -0.02,70.4 76.16,0.08 152.32,-0.01 228.48,0.04 1.41,0.08 2.9,-0.19 3.88,-1.32 14.84,-13.46 29.94,-26.65 44.76,-40.14 0.01,-94.9 -0.01,-189.81 0.01,-284.71 -0.17,-1.21 0.22,-2.79 -0.89,-3.64 -13.9,-12.45 -27.87,-24.83 -41.74,-37.31 -1.72,-1.53 -3.39,-3.73 -5.98,-3.3 -76.17,0.04 -152.34,-0.02 -228.51,0.03 M 79.17,524.66 c -0.6,14.25 -0.11,28.54 -0.25,42.81 3.08,-0.02 6.17,0 9.26,0 0,39.77 0.01,79.53 0,119.3 -2.99,0 -5.98,0.01 -8.97,-0.05 -0.7,14 -0.12,28.06 -0.3,42.09 28.16,-0.06 56.33,0.22 84.49,-0.14 5,-8.38 10.82,-16.27 15.7,-24.71 0.29,-49.98 0,-99.99 0.14,-149.97 -0.07,-1.74 0.29,-3.66 -0.87,-5.12 -5.09,-8.05 -10.21,-16.08 -15.27,-24.15 -27.98,-0.05 -55.95,0.07 -83.93,-0.06 m 134.56,158.5 c -3.08,0 -6.16,0.02 -9.24,0.01 -0.01,15.22 -0.01,30.44 0.01,45.66 13.83,0 27.66,0 41.49,0 0.01,-15.22 0.01,-30.44 0,-45.66 9.88,0.01 19.76,-0.03 29.64,0.03 0.01,15.21 0.01,30.42 0,45.63 14.04,0 28.08,0 42.12,0 0.01,-15.22 0,-30.44 0,-45.66 -3.09,-0.01 -6.18,-0.01 -9.26,0.02 -6.13,-52.81 -11.93,-105.67 -18.04,-158.48 -19.58,0.01 -39.15,0 -58.73,0.01 -6.05,52.8 -11.95,105.63 -17.99,158.44 M 346.74,524.72 c -0.02,12.38 0.01,24.77 -0.02,37.15 3.31,-0.01 6.62,-0.01 9.93,0.08 -0.19,40.43 0.17,80.87 -0.18,121.3 -3.25,-0.13 -6.49,-0.1 -9.74,-0.07 0.01,15.21 0,30.42 0,45.64 13.22,0.03 26.43,0 39.65,0.01 -0.04,-27.61 -0.01,-55.22 -0.02,-82.82 7.21,-0.03 14.41,-0.01 21.61,0 1.29,2.93 3.92,5.53 3.75,8.93 -0.06,24.62 0,49.25 -0.03,73.87 13.21,0.04 26.42,0.01 39.63,0.02 0.02,-15.22 0.01,-30.44 0,-45.65 -3.25,-0.02 -6.49,-0.06 -9.73,0.07 -0.4,-15.49 0.12,-31 -0.26,-46.48 -2.2,-4.66 -4.93,-9.05 -7.34,-13.6 2.12,-3.93 4.29,-7.82 6.43,-11.73 0.84,-1.32 1.16,-2.86 1.06,-4.4 -0.06,-19.38 0,-38.76 -0.03,-58.14 -6.45,-8.05 -12.83,-16.16 -19.3,-24.19 -25.14,0.02 -50.27,-0.01 -75.41,0.01 m 123.08,-0.01 c 0.01,19.37 0,38.74 0,58.12 8.05,0.01 16.11,-0.02 24.16,0.01 0.01,-4.11 -0.01,-8.21 0.07,-12.31 4.49,0.01 8.99,0.01 13.49,0 0.03,37.55 0.08,75.11 -0.02,112.66 -3.3,-0.03 -6.59,-0.03 -9.88,-0.02 -0.01,15.22 0,30.44 -0.01,45.67 16.52,-0.03 33.05,0.01 49.57,-0.02 0.02,-15.22 0.02,-30.43 0,-45.64 -3.25,-0.02 -6.49,-0.05 -9.73,0.07 -0.31,-37.57 -0.09,-75.15 -0.11,-112.72 4.29,0.01 8.58,-0.02 12.88,0.01 0,4.09 0.01,8.18 0,12.28 8.04,0.02 16.08,0 24.12,0.01 0.01,-19.37 0.01,-38.75 0,-58.12 -34.85,0.01 -69.69,0 -104.54,0 m 134.81,0 c -0.04,15.27 -0.02,30.54 -0.01,45.81 3.3,0.01 6.61,0.02 9.92,0.02 -0.05,37.55 0.11,75.11 -0.08,112.66 -3.28,-0.05 -6.56,-0.04 -9.84,-0.02 -0.02,15.21 -0.01,30.42 0,45.64 13.26,-0.07 26.53,0.18 39.79,-0.13 -0.21,-32.8 -0.16,-65.61 -0.02,-98.42 7.33,22.66 14.85,45.26 22.21,67.9 0.51,1.71 1.09,3.43 2.01,4.99 7.45,-24.32 15.83,-48.38 22.89,-72.81 0.78,8.54 0.19,17.13 0.37,25.7 0,24.26 0,48.51 0.01,72.77 13.21,0.02 26.41,0.01 39.63,0 0.02,-15.21 0.01,-30.43 0,-45.65 -3.29,0.01 -6.58,-0.01 -9.87,-0.03 -0.02,-37.53 0,-75.07 -0.01,-112.6 3.29,-0.01 6.58,-0.02 9.87,-0.02 0.03,-15.26 0.03,-30.53 -0.01,-45.8 -12.82,-0.01 -25.64,-0.02 -38.46,0.01 -8.04,26.21 -16.33,52.35 -24.42,78.55 -1.65,-2.73 -2.17,-5.92 -3.24,-8.88 -7.43,-23.23 -14.92,-46.43 -22.3,-69.68 -12.81,-0.02 -25.63,0 -38.44,-0.01 m 173.24,-0.01 c -5.46,10.28 -10.85,20.59 -16.33,30.87 -0.81,1.33 -1.21,2.86 -1.08,4.43 0.15,45.36 -0.16,90.73 0.16,136.08 5.4,10.98 11.54,21.61 16.95,32.6 20.61,0.22 41.25,0.3 61.86,-0.04 5.32,-11.04 11.58,-21.62 16.89,-32.65 0.2,-46.03 0.14,-92.08 0.02,-138.11 -5.34,-11.23 -11.58,-22.06 -17.23,-33.15 -20.41,-0.04 -40.82,0.01 -61.24,-0.03 m 107.59,45.84 c 3.28,-0.01 6.57,0 9.86,0.01 0.01,41.14 0.03,82.29 -0.01,123.44 -0.26,2.64 1.52,4.8 2.61,7.05 4.84,9.23 9.88,18.35 14.55,27.67 20.32,0.22 40.67,0.16 61,0.03 4.73,-9.3 9.71,-18.46 14.55,-27.69 1.08,-2.24 2.85,-4.38 2.61,-7.01 -0.04,-41.17 -0.02,-82.33 -0.01,-123.49 3.3,-0.02 6.6,-0.03 9.91,-0.01 0,-15.28 0.04,-30.55 -0.02,-45.82 -14.23,-0.01 -28.46,0 -42.69,-0.01 0.02,49.79 -0.02,99.57 0.02,149.36 0.26,3.47 -2.41,6.11 -3.75,9.1 -7.39,0 -14.79,-0.02 -22.18,0 -1.35,-2.99 -4.03,-5.64 -3.75,-9.13 0.04,-49.77 0.03,-99.55 0.01,-149.33 -14.23,0 -28.46,0 -42.69,0 -0.06,15.28 -0.02,30.55 -0.02,45.83 m 141.68,-45.83 c -0.09,19.38 -0.03,38.76 -0.03,58.14 8.05,-0.05 16.1,0.01 24.15,-0.03 0.01,-4.08 0.03,-8.16 -0.01,-12.23 4.3,-0.11 8.61,-0.04 12.92,-0.05 0.02,37.55 0.03,75.09 0,112.64 -3.3,-0.02 -6.59,-0.01 -9.87,0 0,15.01 0.01,30.02 0,45.03 16.5,0.05 33.01,0.01 49.52,0.02 0,-15.02 0,-30.04 0,-45.07 -3.3,0.02 -6.59,0.01 -9.88,0 0,-37.54 -0.01,-75.08 0.01,-112.62 4.51,0 9.02,-0.01 13.54,0 0.03,4.1 0.01,8.2 0.03,12.3 8.06,-0.02 16.13,0 24.19,-0.02 -0.05,-19.37 0.05,-38.74 -0.05,-58.11 -34.84,0 -69.68,0.01 -104.52,0 m 132.95,0 c -0.07,15.27 -0.02,30.55 -0.03,45.83 3.28,-0.01 6.57,0 9.86,-0.01 0.02,37.55 0.04,75.09 -0.01,112.64 -3.29,-0.01 -6.58,0 -9.85,0 -0.01,15.22 0,30.44 -0.01,45.66 15.9,0 31.81,0.01 47.72,-0.01 -0.02,-15.21 -0.02,-30.43 -0.01,-45.64 -2.69,-0.02 -5.37,-0.02 -8.04,0 -0.04,-12.39 -0.01,-24.79 -0.01,-37.18 14.19,-0.02 28.39,0.02 42.59,-0.01 -0.01,12.39 0.02,24.79 -0.01,37.18 -2.69,-0.01 -5.37,0 -8.04,0 -0.01,15.22 0,30.44 0,45.67 15.9,-0.02 31.79,-0.01 47.69,-0.01 -0.01,-15.22 -0.02,-30.45 0,-45.67 -3.09,0 -6.17,0 -9.25,0.01 -0.06,-37.54 -0.01,-75.09 -0.02,-112.63 3.08,0 6.17,-0.01 9.27,-0.02 -0.02,-15.26 0.01,-30.53 -0.03,-45.8 -15.88,0 -31.77,-0.04 -47.65,0.02 -0.02,15.27 -0.01,30.53 -0.01,45.8 2.67,-0.01 5.36,-0.01 8.05,0 0,10.31 0,20.62 -0.01,30.94 -14.19,-0.02 -28.38,0 -42.57,-0.01 -0.03,-10.31 -0.04,-20.63 0.01,-30.94 2.66,0 5.34,0 8.02,0 0.01,-15.27 0.01,-30.53 0,-45.8 -15.89,-0.04 -31.78,0 -47.66,-0.02 M 129.6,776.67 c 6.67,34.39 13.51,68.76 20.48,103.1 353.81,-0.07 707.63,0.02 1061.45,-0.05 6.71,-34.43 13.84,-68.79 20.4,-103.25 -322.98,0.03 -645.95,0.01 -968.92,0.01 -44.47,0.12 -88.95,-0.24 -133.41,0.19 z"
         inkscape:connector-curvature="0"
         style="fill:#01683b" />
      <path
         id="path7"
         d="m 625.78,189.63 c 33.48,0.03 66.97,-0.08 100.44,0.06 3.31,2.67 6.22,5.84 9.53,8.55 -0.01,71.12 0.07,142.25 -0.04,213.37 -3.35,2.53 -6.11,6.09 -9.82,7.98 -33.32,0.18 -66.64,0 -99.96,0.09 -0.35,-76.68 -0.04,-153.37 -0.15,-230.05 m 24.14,24.08 c -0.01,58.31 -0.01,116.62 0,174.92 10.38,-3.33 20.62,-7.05 30.99,-10.4 10.25,3.49 20.46,7.1 30.76,10.43 0.02,-58.27 -0.05,-116.54 0.04,-174.8 -20.59,-0.36 -41.19,-0.07 -61.79,-0.15 z"
         inkscape:connector-curvature="0"
         style="fill:#01683b" />
      <path
         id="path9"
         d="m 386.38,561.92 c 7.21,-0.08 14.41,-0.03 21.62,-0.03 1.29,2.98 3.98,5.61 3.71,9.08 -0.02,8.67 -0.02,17.35 0,26.04 0.21,3.2 -2.42,5.55 -3.77,8.22 -7.17,0.02 -14.33,-0.05 -21.5,0.04 -0.17,-14.45 -0.06,-28.9 -0.06,-43.35 z"
         inkscape:connector-curvature="0"
         style="fill:#01683b" />
      <path
         id="path11"
         d="m 260.8,564.42 c 3.77,26.36 7.38,52.73 11.06,79.1 -6.55,-0.01 -13.09,0.01 -19.64,-0.01 2.81,-26.37 5.63,-52.74 8.58,-79.09 z"
         inkscape:connector-curvature="0"
         style="fill:#01683b" />
      <path
         id="path13"
         d="m 119.22,567.46 c 8.86,-0.01 17.72,0.04 26.58,-0.01 1.16,2 2.68,4.03 2.41,6.49 -0.04,35.7 -0.01,71.39 -0.02,107.08 0.24,2.22 -1.28,3.98 -2.34,5.76 -8.88,-0.03 -17.76,-0.01 -26.63,-0.01 -0.01,-39.77 -0.01,-79.54 0,-119.31 z"
         inkscape:connector-curvature="0"
         style="fill:#01683b" />
      <path
         id="path15"
         d="m 794.01,570.54 c 9.65,-0.01 19.31,-0.02 28.97,0.01 1.32,2.76 4.04,5.15 3.71,8.45 -0.04,31.66 -0.03,63.32 0,94.99 0.31,3.49 -2.37,6.15 -3.67,9.16 -9.68,0.05 -19.35,0.03 -29.02,0 -1.2,-2.99 -3.34,-5.81 -3.17,-9.17 0.02,-31.67 0.02,-63.34 0.01,-95 -0.2,-3.16 1.99,-5.69 3.17,-8.44 z"
         inkscape:connector-curvature="0"
         style="fill:#01683b" />
      <path
         id="path17"
         d="m 280.79,795.24 c 10.08,-0.03 20.16,-0.03 30.25,0 7.46,0.26 15.89,0.66 21.49,6.3 3.39,2.71 4.02,7.46 3.52,11.52 -0.45,5.3 -4.3,9.67 -8.78,12.2 4.69,1.93 9.82,4.47 11.93,9.41 2.64,6.42 2.08,14.54 -2.76,19.8 -4.2,4.48 -10.57,5.92 -16.5,5.92 -13.05,0.07 -26.1,0.01 -39.15,0.02 -0.01,-21.72 -0.02,-43.45 0,-65.17 m 20.3,11 c -0.07,5.24 -0.03,10.48 -0.03,15.73 4.55,-0.15 9.31,0.21 13.64,-1.45 4.22,-2.81 4.22,-9.98 -0.01,-12.76 -4.31,-1.69 -9.07,-1.27 -13.6,-1.52 m -0.04,26.84 c 0.01,5.64 -0.02,11.28 0.02,16.93 5.74,-0.21 12.21,0.88 17.19,-2.65 4.14,-3.05 3.68,-10.27 -1,-12.56 -5.03,-2.42 -10.81,-1.51 -16.21,-1.72 z"
         inkscape:connector-curvature="0"
         style="fill:#01683b" />
      <path
         id="path19"
         d="m 382.71,795.33 c 6.83,-0.1 13.66,-0.02 20.49,-0.05 0.02,21.83 0.02,43.66 0,65.48 -6.82,0.02 -13.63,0.01 -20.45,0.01 -0.06,-21.81 0.02,-43.63 -0.04,-65.44 z"
         inkscape:connector-curvature="0"
         style="fill:#01683b" />
      <path
         id="path21"
         d="m 456.77,802.73 c 4.31,-3.6 9.35,-6.66 15.05,-7.24 12.84,-2.66 26.13,-0.57 38.48,3.38 0,5.17 0,10.35 -0.01,15.52 -8.6,-5.61 -19.42,-7.94 -29.42,-5.25 -4.75,2.04 -9.6,4.81 -12.28,9.4 -3.39,6.77 -3.1,15.88 2.42,21.47 5.97,6.19 15.77,7.08 23.69,4.73 -0.03,-2.56 -0.04,-5.13 -0.02,-7.68 -3.03,0.06 -6.06,0.02 -9.08,-0.14 0.04,-4.29 0.04,-8.57 0.02,-12.85 8.65,-0.03 17.3,-0.03 25.95,0 -0.01,10.4 0.03,20.8 -0.03,31.21 -16.61,6.54 -36.74,8.55 -52.56,-1.19 -16.13,-11.55 -17.06,-38.39 -2.21,-51.36 z"
         inkscape:connector-curvature="0"
         style="fill:#01683b" />
      <path
         id="path23"
         d="m 650.98,797.19 c 13.67,-3.24 28.04,-1.5 41.26,2.87 0,5.18 0,10.36 0,15.54 -8.67,-5.83 -19.8,-8.02 -29.91,-5.08 -4.55,1.93 -9.09,4.67 -11.67,9.05 -3.54,6.69 -3.28,15.87 2.26,21.45 5.93,6.39 15.75,7.22 23.76,4.95 -0.02,-2.6 -0.01,-5.19 0,-7.77 -3.02,-0.02 -6.03,-0.03 -9.04,-0.02 -0.01,-4.29 0,-8.58 -0.01,-12.86 8.64,-0.06 17.29,-0.03 25.94,-0.02 0.02,10.35 -0.01,20.7 0.02,31.05 -11.88,4.78 -25.12,7.04 -37.83,4.77 -6.88,-2.01 -14.28,-4.09 -19.2,-9.67 -11.75,-13.1 -11.19,-35.95 2.26,-47.68 3.66,-2.79 7.54,-5.68 12.16,-6.58 z"
         inkscape:connector-curvature="0"
         style="fill:#01683b" />
      <path
         id="path25"
         d="m 738.24,796.07 c 10.25,-0.03 20.5,-0.01 30.74,-0.02 3.91,0.03 7.97,-0.01 11.64,1.57 4.55,1.98 9.35,4.82 10.95,9.85 2.98,5.53 3.59,12.62 0.16,18.09 -1.81,3.22 -5.03,5.2 -8.11,7.04 4.59,2.86 7.55,7.42 9.75,12.26 2.53,5.34 5.28,10.58 7.86,15.91 -7.1,0.03 -14.2,-0.02 -21.29,0.01 -3.8,-7.64 -6.53,-16.03 -12.29,-22.5 -2.71,-2.26 -6.47,-2.38 -9.82,-2.37 -0.01,8.29 0,16.58 -0.02,24.87 -6.52,-0.01 -13.03,0 -19.55,0 -0.04,-21.57 0,-43.14 -0.02,-64.71 m 19.59,12.31 c -0.01,5.34 -0.01,10.69 -0.01,16.04 5.19,-0.26 11.27,0.66 15.57,-2.87 1.95,-3.43 1.75,-8.66 -1.86,-10.94 -4.14,-2.34 -9.1,-2.1 -13.7,-2.23 z"
         inkscape:connector-curvature="0"
         style="fill:#01683b" />
      <path
         id="path27"
         d="m 844.5,796.49 c 15.94,-0.02 31.87,-0.01 47.81,0 -0.02,4.44 0,8.88 -0.03,13.33 -9.71,0 -19.41,0.02 -29.12,0 -0.02,3.83 -0.01,7.67 0.01,11.52 9.12,0.03 18.25,-0.01 27.38,0.01 -0.01,4.39 -0.01,8.78 0,13.18 -9.13,0.02 -18.25,-0.02 -27.37,0.02 -0.04,4.7 -0.03,9.4 -0.02,14.11 10.03,0 20.06,-0.02 30.09,0 0.02,4.16 0.03,8.33 0,12.49 -16.25,0.05 -32.49,0 -48.74,0.03 -0.04,-21.57 -0.04,-43.13 -0.01,-64.69 z"
         inkscape:connector-curvature="0"
         style="fill:#01683b" />
      <path
         id="path29"
         d="m 936.6,797.44 c 15.94,-0.07 31.88,-0.03 47.82,-0.03 0.01,4.39 0.01,8.78 0,13.18 -9.71,0.01 -19.42,0 -29.12,-0.01 -0.05,3.84 -0.04,7.68 -0.02,11.53 9.12,0.04 18.26,0 27.39,0.01 -0.01,4.45 0.02,8.9 -0.03,13.35 -9.13,-0.01 -18.25,0 -27.37,-0.01 0,4.7 -0.01,9.41 0.01,14.12 10.01,0.01 20.03,0 30.05,0.01 -0.01,4.1 -0.02,8.21 0.02,12.33 -16.25,0.02 -32.5,0.04 -48.75,0 0,-21.5 0,-42.99 0,-64.48 z"
         inkscape:connector-curvature="0"
         style="fill:#01683b" />
      <path
         id="path31"
         d="m 1029.51,862.42 c 0.01,-21.6 -0.01,-43.19 0.01,-64.79 5.85,0.04 11.7,-0.02 17.56,0.04 10.91,12.06 21.95,24 32.8,36.12 0.39,-12.04 0.07,-24.1 0.17,-36.14 6.73,-0.02 13.46,0.01 20.19,-0.02 0,21.6 0,43.2 0,64.8 -5.92,-0.29 -12.08,0.5 -17.84,-0.39 -11.21,-11.58 -22.24,-23.34 -33.29,-35.07 -0.19,11.82 0.11,23.66 -0.16,35.48 -6.48,-0.08 -12.96,-0.03 -19.44,-0.03 z"
         inkscape:connector-curvature="0"
         style="fill:#01683b" />
    </g>
    <g
       id="#010201ff">
      <path
         id="path34"
         d="m 500.33,84.25 c 88.9,-0.17 177.79,-0.03 266.69,-0.07 3.51,0.15 7.11,-0.39 10.59,0.27 22.29,19.83 44.33,40 66.66,59.81 0.41,92.41 0,184.84 0.2,277.25 59.53,20.16 119.06,40.3 178.6,60.42 8.3,2.56 16.36,6.09 24.82,8.03 89.06,0.12 178.13,-0.04 267.19,0.08 0.04,89.93 0.07,179.86 -0.01,269.79 -14.97,0.02 -29.94,-0.12 -44.9,0.06 -10.27,50.86 -20.11,101.81 -30.43,152.66 -372.47,-0.08 -744.93,0 -1117.4,-0.04 -10.31,-50.86 -20.09,-101.82 -30.44,-152.67 -15.19,-0.09 -30.37,0.03 -45.56,-0.05 -0.05,-89.92 0.01,-179.83 -0.03,-269.74 89.61,-0.2 179.23,0.14 268.82,-0.17 61.77,-20.41 123.34,-41.5 185.06,-62.08 0.29,-14.25 0.07,-28.52 0.11,-42.78 5.8,-0.28 11.6,0.03 17.4,-0.19 0.03,-54.58 0.02,-109.16 0,-163.74 -5.8,-0.14 -11.6,0.05 -17.4,-0.13 0.05,-45.57 -0.01,-91.14 0.03,-136.71 m 9.01,14.73 c 0.1,38.23 -0.03,76.47 0.07,114.7 5.79,0.09 11.59,-0.05 17.39,0.09 0.04,60.74 0.06,121.48 0,182.22 -5.82,0.22 -11.64,0.06 -17.46,0.15 0.09,13.37 -0.03,26.74 0.07,40.11 -63.31,21.57 -126.79,42.66 -190.14,64.13 -3.63,1.29 -7.54,0.75 -11.3,0.85 -84.17,0.04 -168.33,-0.08 -252.49,0.06 -0.09,83.22 -0.03,166.44 -0.04,249.66 0.13,0.31 0.39,0.94 0.51,1.26 14.48,0.39 28.98,-0.18 43.45,0.27 9.88,50.81 20.27,101.51 30.06,152.33 8.14,0.56 16.32,0.11 24.48,0.26 359.3,-0.03 718.6,0.04 1077.9,-0.04 10.23,-50.89 20.14,-101.84 30.41,-152.72 14.38,-0.01 28.75,0.08 43.13,-0.02 0.04,-60.43 0,-120.85 0.01,-181.28 -0.14,-23.28 0.3,-46.58 -0.22,-69.84 -33.38,0.15 -66.77,0.02 -100.16,0.06 -53.31,-0.1 -106.65,0.21 -159.95,-0.15 -13.68,-4.08 -27.09,-9.11 -40.67,-13.54 -56.52,-19.16 -113.09,-38.17 -169.57,-57.43 0.04,-93.04 0.09,-186.08 -0.03,-279.11 -2.94,-3.63 -6.96,-6.3 -10.26,-9.63 -16.5,-14.81 -33.03,-29.58 -49.46,-44.46 -0.84,-0.86 -1.82,-1.29 -2.97,-1.3 -87.06,-0.01 -174.12,-0.02 -261.18,0 -2.15,-0.47 -1.42,2.18 -1.58,3.37 z"
         inkscape:connector-curvature="0"
         style="fill:#010201" />
      <path
         id="path36"
         d="m 533.54,119.74 c 76.17,-0.05 152.34,0.01 228.51,-0.03 2.59,-0.43 4.26,1.77 5.98,3.3 13.87,12.48 27.84,24.86 41.74,37.31 1.11,0.85 0.72,2.43 0.89,3.64 -0.02,94.9 0,189.81 -0.01,284.71 -14.82,13.49 -29.92,26.68 -44.76,40.14 -0.98,1.13 -2.47,1.4 -3.88,1.32 -76.16,-0.05 -152.32,0.04 -228.48,-0.04 0.01,-23.47 -0.04,-46.93 0.02,-70.4 5.73,-0.07 11.45,0.02 17.18,-0.06 0.06,-75.56 -0.02,-151.11 0.04,-226.66 -0.06,-1.17 -0.15,-2.33 -0.29,-3.48 -5.67,0.11 -11.37,0.39 -17.03,-0.11 0.18,-23.21 0,-46.43 0.09,-69.64 m 8.65,8.57 c -0.01,17.73 0,35.46 -0.01,53.19 5.77,0 11.54,0 17.31,-0.01 0.02,82.28 0.01,164.55 0.01,246.82 -5.77,-0.01 -11.54,0.01 -17.31,-0.01 -0.01,17.73 -0.02,35.47 0.01,53.2 73.01,-0.01 146.03,0.02 219.04,-0.01 12.96,-11.79 25.89,-23.61 38.9,-35.35 0.76,-0.86 2.19,-1.57 1.86,-2.97 0.01,-92.78 -0.01,-185.55 0,-278.32 -13.37,-11.95 -26.73,-23.91 -40.1,-35.87 -1,-1.03 -2.6,-0.55 -3.85,-0.7 -71.95,0.07 -143.91,0.02 -215.86,0.03 z"
         inkscape:connector-curvature="0"
         style="fill:#010201" />
      <path
         id="path38"
         d="m 617,181.5 c 28.98,0 57.95,0 86.93,0 8.59,0.14 17.22,-0.27 25.79,0.19 5.13,4.07 10.06,8.4 14.77,12.95 -0.11,73.57 -0.03,147.14 -0.05,220.71 -4.49,4.23 -9.19,8.24 -13.89,12.22 -1.22,1.2 -3.08,0.59 -4.58,0.77 -36.32,-0.06 -72.65,-0.01 -108.97,-0.03 0,-82.27 0,-164.54 0,-246.81 m 8.78,8.13 c 0.11,76.68 -0.2,153.37 0.15,230.05 33.32,-0.09 66.64,0.09 99.96,-0.09 3.71,-1.89 6.47,-5.45 9.82,-7.98 0.11,-71.12 0.03,-142.25 0.04,-213.37 -3.31,-2.71 -6.22,-5.88 -9.53,-8.55 -33.47,-0.14 -66.96,-0.03 -100.44,-0.06 z"
         inkscape:connector-curvature="0"
         style="fill:#010201" />
      <path
         id="path40"
         d="m 649.92,213.71 c 20.6,0.08 41.2,-0.21 61.79,0.15 -0.09,58.26 -0.02,116.53 -0.04,174.8 -10.3,-3.33 -20.51,-6.94 -30.76,-10.43 -10.37,3.35 -20.61,7.07 -30.99,10.4 -0.01,-58.3 -0.01,-116.61 0,-174.92 m 9.64,7.35 c -0.07,50.87 -0.04,101.74 -0.01,152.6 7.2,-2.18 14.18,-5.05 21.41,-7.1 7.35,1.89 14.38,4.93 21.66,7.11 0.05,-50.85 0.01,-101.7 0.02,-152.55 -14.36,-0.16 -28.72,-0.06 -43.08,-0.06 z"
         inkscape:connector-curvature="0"
         style="fill:#010201" />
      <path
         id="path42"
         d="m 129.6,776.67 c 44.46,-0.43 88.94,-0.07 133.41,-0.19 322.97,0 645.94,0.02 968.92,-0.01 -6.56,34.46 -13.69,68.82 -20.4,103.25 -353.82,0.07 -707.64,-0.02 -1061.45,0.05 -6.97,-34.34 -13.81,-68.71 -20.48,-103.1 m 8.71,7.28 c 5.97,29.47 11.97,58.94 17.92,88.41 349.67,0.03 699.35,0 1049.02,0.02 5.76,-29.48 11.55,-58.95 17.3,-88.43 -361.41,-0.01 -722.83,-0.02 -1084.24,0 z"
         inkscape:connector-curvature="0"
         style="fill:#010201" />
    </g>
    <g
       id="#ffffffff">
      <path
         id="path45"
         d="m 542.19,128.31 c 71.95,-0.01 143.91,0.04 215.86,-0.03 1.25,0.15 2.85,-0.33 3.85,0.7 13.37,11.96 26.73,23.92 40.1,35.87 -0.01,92.77 0.01,185.54 0,278.32 0.33,1.4 -1.1,2.11 -1.86,2.97 -13.01,11.74 -25.94,23.56 -38.9,35.35 -73.01,0.03 -146.03,0 -219.04,0.01 -0.03,-17.73 -0.02,-35.47 -0.01,-53.2 5.77,0.02 11.54,0 17.31,0.01 0,-82.27 0.01,-164.54 -0.01,-246.82 -5.77,0.01 -11.54,0.01 -17.31,0.01 0.01,-17.73 0,-35.46 0.01,-53.19 M 617,181.5 c 0,82.27 0,164.54 0,246.81 36.32,0.02 72.65,-0.03 108.97,0.03 1.5,-0.18 3.36,0.43 4.58,-0.77 4.7,-3.98 9.4,-7.99 13.89,-12.22 0.02,-73.57 -0.06,-147.14 0.05,-220.71 -4.71,-4.55 -9.64,-8.88 -14.77,-12.95 -8.57,-0.46 -17.2,-0.05 -25.79,-0.19 -28.98,0 -57.95,0 -86.93,0 z"
         inkscape:connector-curvature="0"
         style="fill:#ffffff" />
      <path
         id="path47"
         d="m 79.17,524.66 c 27.98,0.13 55.95,0.01 83.93,0.06 5.06,8.07 10.18,16.1 15.27,24.15 1.16,1.46 0.8,3.38 0.87,5.12 -0.14,49.98 0.15,99.99 -0.14,149.97 -4.88,8.44 -10.7,16.33 -15.7,24.71 -28.16,0.36 -56.33,0.08 -84.49,0.14 0.18,-14.03 -0.4,-28.09 0.3,-42.09 2.99,0.06 5.98,0.05 8.97,0.05 0.01,-39.77 0,-79.53 0,-119.3 -3.09,0 -6.18,-0.02 -9.26,0 0.14,-14.27 -0.35,-28.56 0.25,-42.81 m 40.05,42.8 c -0.01,39.77 -0.01,79.54 0,119.31 8.87,0 17.75,-0.02 26.63,0.01 1.06,-1.78 2.58,-3.54 2.34,-5.76 0.01,-35.69 -0.02,-71.38 0.02,-107.08 0.27,-2.46 -1.25,-4.49 -2.41,-6.49 -8.86,0.05 -17.72,0 -26.58,0.01 z"
         inkscape:connector-curvature="0"
         style="fill:#ffffff" />
      <path
         id="path49"
         d="m 213.73,683.16 c 6.04,-52.81 11.94,-105.64 17.99,-158.44 19.58,-0.01 39.15,0 58.73,-0.01 6.11,52.81 11.91,105.67 18.04,158.48 3.08,-0.03 6.17,-0.03 9.26,-0.02 0,15.22 0.01,30.44 0,45.66 -14.04,0 -28.08,0 -42.12,0 0.01,-15.21 0.01,-30.42 0,-45.63 -9.88,-0.06 -19.76,-0.02 -29.64,-0.03 0.01,15.22 0.01,30.44 0,45.66 -13.83,0 -27.66,0 -41.49,0 -0.02,-15.22 -0.02,-30.44 -0.01,-45.66 3.08,0.01 6.16,-0.01 9.24,-0.01 M 260.8,564.42 c -2.95,26.35 -5.77,52.72 -8.58,79.09 6.55,0.02 13.09,0 19.64,0.01 -3.68,-26.37 -7.29,-52.74 -11.06,-79.1 z"
         inkscape:connector-curvature="0"
         style="fill:#ffffff" />
      <path
         id="path51"
         d="m 346.74,524.72 c 25.14,-0.02 50.27,0.01 75.41,-0.01 6.47,8.03 12.85,16.14 19.3,24.19 0.03,19.38 -0.03,38.76 0.03,58.14 0.1,1.54 -0.22,3.08 -1.06,4.4 -2.14,3.91 -4.31,7.8 -6.43,11.73 2.41,4.55 5.14,8.94 7.34,13.6 0.38,15.48 -0.14,30.99 0.26,46.48 3.24,-0.13 6.48,-0.09 9.73,-0.07 0.01,15.21 0.02,30.43 0,45.65 -13.21,-0.01 -26.42,0.02 -39.63,-0.02 0.03,-24.62 -0.03,-49.25 0.03,-73.87 0.17,-3.4 -2.46,-6 -3.75,-8.93 -7.2,-0.01 -14.4,-0.03 -21.61,0 0.01,27.6 -0.02,55.21 0.02,82.82 -13.22,-0.01 -26.43,0.02 -39.65,-0.01 0,-15.22 0.01,-30.43 0,-45.64 3.25,-0.03 6.49,-0.06 9.74,0.07 0.35,-40.43 -0.01,-80.87 0.18,-121.3 -3.31,-0.09 -6.62,-0.09 -9.93,-0.08 0.03,-12.38 0,-24.77 0.02,-37.15 m 39.64,37.2 c 0,14.45 -0.11,28.9 0.06,43.35 7.17,-0.09 14.33,-0.02 21.5,-0.04 1.35,-2.67 3.98,-5.02 3.77,-8.22 -0.02,-8.69 -0.02,-17.37 0,-26.04 0.27,-3.47 -2.42,-6.1 -3.71,-9.08 -7.21,0 -14.41,-0.05 -21.62,0.03 z"
         inkscape:connector-curvature="0"
         style="fill:#ffffff" />
      <path
         id="path53"
         d="m 469.82,524.71 c 34.85,0 69.69,0.01 104.54,0 0.01,19.37 0.01,38.75 0,58.12 -8.04,-0.01 -16.08,0.01 -24.12,-0.01 0.01,-4.1 0,-8.19 0,-12.28 -4.3,-0.03 -8.59,0 -12.88,-0.01 0.02,37.57 -0.2,75.15 0.11,112.72 3.24,-0.12 6.48,-0.09 9.73,-0.07 0.02,15.21 0.02,30.42 0,45.64 -16.52,0.03 -33.05,-0.01 -49.57,0.02 0.01,-15.23 0,-30.45 0.01,-45.67 3.29,-0.01 6.58,-0.01 9.88,0.02 0.1,-37.55 0.05,-75.11 0.02,-112.66 -4.5,0.01 -9,0.01 -13.49,0 -0.08,4.1 -0.06,8.2 -0.07,12.31 -8.05,-0.03 -16.11,0 -24.16,-0.01 0,-19.38 0.01,-38.75 0,-58.12 z"
         inkscape:connector-curvature="0"
         style="fill:#ffffff" />
      <path
         id="path55"
         d="m 604.63,524.71 c 12.81,0.01 25.63,-0.01 38.44,0.01 7.38,23.25 14.87,46.45 22.3,69.68 1.07,2.96 1.59,6.15 3.24,8.88 8.09,-26.2 16.38,-52.34 24.42,-78.55 12.82,-0.03 25.64,-0.02 38.46,-0.01 0.04,15.27 0.04,30.54 0.01,45.8 -3.29,0 -6.58,0.01 -9.87,0.02 0.01,37.53 -0.01,75.07 0.01,112.6 3.29,0.02 6.58,0.04 9.87,0.03 0.01,15.22 0.02,30.44 0,45.65 -13.22,0.01 -26.42,0.02 -39.63,0 -0.01,-24.26 -0.01,-48.51 -0.01,-72.77 -0.18,-8.57 0.41,-17.16 -0.37,-25.7 -7.06,24.43 -15.44,48.49 -22.89,72.81 -0.92,-1.56 -1.5,-3.28 -2.01,-4.99 -7.36,-22.64 -14.88,-45.24 -22.21,-67.9 -0.14,32.81 -0.19,65.62 0.02,98.42 -13.26,0.31 -26.53,0.06 -39.79,0.13 -0.01,-15.22 -0.02,-30.43 0,-45.64 3.28,-0.02 6.56,-0.03 9.84,0.02 0.19,-37.55 0.03,-75.11 0.08,-112.66 -3.31,0 -6.62,-0.01 -9.92,-0.02 -0.01,-15.27 -0.03,-30.54 0.01,-45.81 z"
         inkscape:connector-curvature="0"
         style="fill:#ffffff" />
      <path
         id="path57"
         d="m 777.87,524.7 c 20.42,0.04 40.83,-0.01 61.24,0.03 5.65,11.09 11.89,21.92 17.23,33.15 0.12,46.03 0.18,92.08 -0.02,138.11 -5.31,11.03 -11.57,21.61 -16.89,32.65 -20.61,0.34 -41.25,0.26 -61.86,0.04 -5.41,-10.99 -11.55,-21.62 -16.95,-32.6 -0.32,-45.35 -0.01,-90.72 -0.16,-136.08 -0.13,-1.57 0.27,-3.1 1.08,-4.43 5.48,-10.28 10.87,-20.59 16.33,-30.87 m 16.14,45.84 c -1.18,2.75 -3.37,5.28 -3.17,8.44 0.01,31.66 0.01,63.33 -0.01,95 -0.17,3.36 1.97,6.18 3.17,9.17 9.67,0.03 19.34,0.05 29.02,0 1.3,-3.01 3.98,-5.67 3.67,-9.16 -0.03,-31.67 -0.04,-63.33 0,-94.99 0.33,-3.3 -2.39,-5.69 -3.71,-8.45 -9.66,-0.03 -19.32,-0.02 -28.97,-0.01 z"
         inkscape:connector-curvature="0"
         style="fill:#ffffff" />
      <path
         id="path59"
         d="m 885.46,570.54 c 0,-15.28 -0.04,-30.55 0.02,-45.83 14.23,0 28.46,0 42.69,0 0.02,49.78 0.03,99.56 -0.01,149.33 -0.28,3.49 2.4,6.14 3.75,9.13 7.39,-0.02 14.79,0 22.18,0 1.34,-2.99 4.01,-5.63 3.75,-9.1 -0.04,-49.79 0,-99.57 -0.02,-149.36 14.23,0.01 28.46,0 42.69,0.01 0.06,15.27 0.02,30.54 0.02,45.82 -3.31,-0.02 -6.61,-0.01 -9.91,0.01 -0.01,41.16 -0.03,82.32 0.01,123.49 0.24,2.63 -1.53,4.77 -2.61,7.01 -4.84,9.23 -9.82,18.39 -14.55,27.69 -20.33,0.13 -40.68,0.19 -61,-0.03 -4.67,-9.32 -9.71,-18.44 -14.55,-27.67 -1.09,-2.25 -2.87,-4.41 -2.61,-7.05 0.04,-41.15 0.02,-82.3 0.01,-123.44 -3.29,-0.01 -6.58,-0.02 -9.86,-0.01 z"
         inkscape:connector-curvature="0"
         style="fill:#ffffff" />
      <path
         id="path61"
         d="m 1027.14,524.71 c 34.84,0.01 69.68,0 104.52,0 0.1,19.37 0,38.74 0.05,58.11 -8.06,0.02 -16.13,0 -24.19,0.02 -0.02,-4.1 0,-8.2 -0.03,-12.3 -4.52,-0.01 -9.03,0 -13.54,0 -0.02,37.54 -0.01,75.08 -0.01,112.62 3.29,0.01 6.58,0.02 9.88,0 0,15.03 0,30.05 0,45.07 -16.51,-0.01 -33.02,0.03 -49.52,-0.02 0.01,-15.01 0,-30.02 0,-45.03 3.28,-0.01 6.57,-0.02 9.87,0 0.03,-37.55 0.02,-75.09 0,-112.64 -4.31,0.01 -8.62,-0.06 -12.92,0.05 0.04,4.07 0.02,8.15 0.01,12.23 -8.05,0.04 -16.1,-0.02 -24.15,0.03 0,-19.38 -0.06,-38.76 0.03,-58.14 z"
         inkscape:connector-curvature="0"
         style="fill:#ffffff" />
      <path
         id="path63"
         d="m 1160.09,524.71 c 15.88,0.02 31.77,-0.02 47.66,0.02 0.01,15.27 0.01,30.53 0,45.8 -2.68,0 -5.36,0 -8.02,0 -0.05,10.31 -0.04,20.63 -0.01,30.94 14.19,0.01 28.38,-0.01 42.57,0.01 0.01,-10.32 0.01,-20.63 0.01,-30.94 -2.69,-0.01 -5.38,-0.01 -8.05,0 0,-15.27 -0.01,-30.53 0.01,-45.8 15.88,-0.06 31.77,-0.02 47.65,-0.02 0.04,15.27 0.01,30.54 0.03,45.8 -3.1,0.01 -6.19,0.02 -9.27,0.02 0.01,37.54 -0.04,75.09 0.02,112.63 3.08,-0.01 6.16,-0.01 9.25,-0.01 -0.02,15.22 -0.01,30.45 0,45.67 -15.9,0 -31.79,-0.01 -47.69,0.01 0,-15.23 -0.01,-30.45 0,-45.67 2.67,0 5.35,-0.01 8.04,0 0.03,-12.39 0,-24.79 0.01,-37.18 -14.2,0.03 -28.4,-0.01 -42.59,0.01 0,12.39 -0.03,24.79 0.01,37.18 2.67,-0.02 5.35,-0.02 8.04,0 -0.01,15.21 -0.01,30.43 0.01,45.64 -15.91,0.02 -31.82,0.01 -47.72,0.01 0.01,-15.22 0,-30.44 0.01,-45.66 3.27,0 6.56,-0.01 9.85,0 0.05,-37.55 0.03,-75.09 0.01,-112.64 -3.29,0.01 -6.58,0 -9.86,0.01 0.01,-15.28 -0.04,-30.56 0.03,-45.83 z"
         inkscape:connector-curvature="0"
         style="fill:#ffffff" />
      <path
         id="path65"
         d="m 138.31,783.95 c 361.41,-0.02 722.83,-0.01 1084.24,0 -5.75,29.48 -11.54,58.95 -17.3,88.43 -349.67,-0.02 -699.35,0.01 -1049.02,-0.02 -5.95,-29.47 -11.95,-58.94 -17.92,-88.41 m 142.48,11.29 c -0.02,21.72 -0.01,43.45 0,65.17 13.05,-0.01 26.1,0.05 39.15,-0.02 5.93,0 12.3,-1.44 16.5,-5.92 4.84,-5.26 5.4,-13.38 2.76,-19.8 -2.11,-4.94 -7.24,-7.48 -11.93,-9.41 4.48,-2.53 8.33,-6.9 8.78,-12.2 0.5,-4.06 -0.13,-8.81 -3.52,-11.52 -5.6,-5.64 -14.03,-6.04 -21.49,-6.3 -10.09,-0.03 -20.17,-0.03 -30.25,0 m 101.92,0.09 c 0.06,21.81 -0.02,43.63 0.04,65.44 6.82,0 13.63,0.01 20.45,-0.01 0.02,-21.82 0.02,-43.65 0,-65.48 -6.83,0.03 -13.66,-0.05 -20.49,0.05 m 74.06,7.4 c -14.85,12.97 -13.92,39.81 2.21,51.36 15.82,9.74 35.95,7.73 52.56,1.19 0.06,-10.41 0.02,-20.81 0.03,-31.21 -8.65,-0.03 -17.3,-0.03 -25.95,0 0.02,4.28 0.02,8.56 -0.02,12.85 3.02,0.16 6.05,0.2 9.08,0.14 -0.02,2.55 -0.01,5.12 0.02,7.68 -7.92,2.35 -17.72,1.46 -23.69,-4.73 -5.52,-5.59 -5.81,-14.7 -2.42,-21.47 2.68,-4.59 7.53,-7.36 12.28,-9.4 10,-2.69 20.82,-0.36 29.42,5.25 0.01,-5.17 0.01,-10.35 0.01,-15.52 -12.35,-3.95 -25.64,-6.04 -38.48,-3.38 -5.7,0.58 -10.74,3.64 -15.05,7.24 m 194.21,-5.54 c -4.62,0.9 -8.5,3.79 -12.16,6.58 -13.45,11.73 -14.01,34.58 -2.26,47.68 4.92,5.58 12.32,7.66 19.2,9.67 12.71,2.27 25.95,0.01 37.83,-4.77 -0.03,-10.35 0,-20.7 -0.02,-31.05 -8.65,-0.01 -17.3,-0.04 -25.94,0.02 0.01,4.28 0,8.57 0.01,12.86 3.01,-0.01 6.02,0 9.04,0.02 -0.01,2.58 -0.02,5.17 0,7.77 -8.01,2.27 -17.83,1.44 -23.76,-4.95 -5.54,-5.58 -5.8,-14.76 -2.26,-21.45 2.58,-4.38 7.12,-7.12 11.67,-9.05 10.11,-2.94 21.24,-0.75 29.91,5.08 0,-5.18 0,-10.36 0,-15.54 -13.22,-4.37 -27.59,-6.11 -41.26,-2.87 m 87.26,-1.12 c 0.02,21.57 -0.02,43.14 0.02,64.71 6.52,0 13.03,-0.01 19.55,0 0.02,-8.29 0.01,-16.58 0.02,-24.87 3.35,-0.01 7.11,0.11 9.82,2.37 5.76,6.47 8.49,14.86 12.29,22.5 7.09,-0.03 14.19,0.02 21.29,-0.01 -2.58,-5.33 -5.33,-10.57 -7.86,-15.91 -2.2,-4.84 -5.16,-9.4 -9.75,-12.26 3.08,-1.84 6.3,-3.82 8.11,-7.04 3.43,-5.47 2.82,-12.56 -0.16,-18.09 -1.6,-5.03 -6.4,-7.87 -10.95,-9.85 -3.67,-1.58 -7.73,-1.54 -11.64,-1.57 -10.24,0.01 -20.49,-0.01 -30.74,0.02 m 106.26,0.42 c -0.03,21.56 -0.03,43.12 0.01,64.69 16.25,-0.03 32.49,0.02 48.74,-0.03 0.03,-4.16 0.02,-8.33 0,-12.49 -10.03,-0.02 -20.06,0 -30.09,0 -0.01,-4.71 -0.02,-9.41 0.02,-14.11 9.12,-0.04 18.24,0 27.37,-0.02 -0.01,-4.4 -0.01,-8.79 0,-13.18 -9.13,-0.02 -18.26,0.02 -27.38,-0.01 -0.02,-3.85 -0.03,-7.69 -0.01,-11.52 9.71,0.02 19.41,0 29.12,0 0.03,-4.45 0.01,-8.89 0.03,-13.33 -15.94,-0.01 -31.87,-0.02 -47.81,0 m 92.1,0.95 c 0,21.49 0,42.98 0,64.48 16.25,0.04 32.5,0.02 48.75,0 -0.04,-4.12 -0.03,-8.23 -0.02,-12.33 -10.02,-0.01 -20.04,0 -30.05,-0.01 -0.02,-4.71 -0.01,-9.42 -0.01,-14.12 9.12,0.01 18.24,0 27.37,0.01 0.05,-4.45 0.02,-8.9 0.03,-13.35 -9.13,-0.01 -18.27,0.03 -27.39,-0.01 -0.02,-3.85 -0.03,-7.69 0.02,-11.53 9.7,0.01 19.41,0.02 29.12,0.01 0.01,-4.4 0.01,-8.79 0,-13.18 -15.94,0 -31.88,-0.04 -47.82,0.03 m 92.91,64.98 c 6.48,0 12.96,-0.05 19.44,0.03 0.27,-11.82 -0.03,-23.66 0.16,-35.48 11.05,11.73 22.08,23.49 33.29,35.07 5.76,0.89 11.92,0.1 17.84,0.39 0,-21.6 0,-43.2 0,-64.8 -6.73,0.03 -13.46,0 -20.19,0.02 -0.1,12.04 0.22,24.1 -0.17,36.14 -10.85,-12.12 -21.89,-24.06 -32.8,-36.12 -5.86,-0.06 -11.71,0 -17.56,-0.04 -0.02,21.6 0,43.19 -0.01,64.79 z"
         inkscape:connector-curvature="0"
         style="fill:#ffffff" />
      <path
         id="path67"
         d="m 301.09,806.24 c 4.53,0.25 9.29,-0.17 13.6,1.52 4.23,2.78 4.23,9.95 0.01,12.76 -4.33,1.66 -9.09,1.3 -13.64,1.45 0,-5.25 -0.04,-10.49 0.03,-15.73 z"
         inkscape:connector-curvature="0"
         style="fill:#ffffff" />
      <path
         id="path69"
         d="m 757.83,808.38 c 4.6,0.13 9.56,-0.11 13.7,2.23 3.61,2.28 3.81,7.51 1.86,10.94 -4.3,3.53 -10.38,2.61 -15.57,2.87 0,-5.35 0,-10.7 0.01,-16.04 z"
         inkscape:connector-curvature="0"
         style="fill:#ffffff" />
      <path
         id="path71"
         d="m 301.05,833.08 c 5.4,0.21 11.18,-0.7 16.21,1.72 4.68,2.29 5.14,9.51 1,12.56 -4.98,3.53 -11.45,2.44 -17.19,2.65 -0.04,-5.65 -0.01,-11.29 -0.02,-16.93 z"
         inkscape:connector-curvature="0"
         style="fill:#ffffff" />
    </g>
  </g>
</svg>
