<?xml version="1.0" encoding="UTF-8" standalone="no"?>
<!-- Created with Inkscape (http://www.inkscape.org/) -->

<svg
   xmlns:dc="http://purl.org/dc/elements/1.1/"
   xmlns:cc="http://creativecommons.org/ns#"
   xmlns:rdf="http://www.w3.org/1999/02/22-rdf-syntax-ns#"
   xmlns:svg="http://www.w3.org/2000/svg"
   xmlns="http://www.w3.org/2000/svg"
   version="1.1"
   width="538.58264"
   height="572.95276"
   id="svg7941">
  <defs
     id="defs7943" />
  <metadata
     id="metadata7946">
    <rdf:RDF>
      <cc:Work
         rdf:about="">
        <dc:format>image/svg+xml</dc:format>
        <dc:type
           rdf:resource="http://purl.org/dc/dcmitype/StillImage" />
        <dc:title></dc:title>
      </cc:Work>
    </rdf:RDF>
  </metadata>
  <g
     transform="translate(-104.18429,-213.75496)"
     id="layer1">
    <g
       transform="translate(3.5432927,-3.6105848)"
       id="g9042">
      <g
         transform="matrix(15.428938,0,0,-15.428938,104.18429,220.97629)"
         id="g6118"
         style="fill:#ffdb57;fill-opacity:1">
        <path
           d="m 0,0 34.448,-0.001 0,-32.435 L 0,-32.435 0,0 z"
           id="path6120"
           style="fill:#ffdb57;fill-opacity:1;fill-rule:nonzero;stroke:none" />
      </g>
      <g
         transform="matrix(15.428938,0,0,-15.428938,123.0245,561.027)"
         id="g6122"
         style="fill:#000066;fill-opacity:1">
        <path
           d="m 0,0 0,-0.36 c 0.952,-0.077 1.055,-0.18 1.055,-1.57 l 0,-4.503 c 0,-1.39 -0.103,-1.494 -1.157,-1.571 l 0,-0.359 3.152,0 c 3.011,0 5.456,1.389 5.456,4.554 0,1.132 -0.49,2.084 -1.081,2.676 C 6.576,-0.308 5.263,0 3.822,0 L 0,0 z m 2.496,-1.235 c 0,0.334 0,0.566 0.078,0.631 0.077,0.064 0.411,0.115 0.836,0.115 2.059,0 3.448,-0.952 3.448,-3.705 0,-2.138 -1.105,-3.643 -3.242,-3.643 -0.991,0 -1.12,0.246 -1.12,1.429 l 0,5.173 z m 8.58,-1.364 c -0.669,-0.206 -1.52,-0.386 -2.149,-0.49 l 0,-0.295 C 9.724,-3.46 9.751,-3.487 9.751,-4.273 l 0,-2.867 c 0,-0.709 -0.078,-0.787 -0.838,-0.864 l 0,-0.359 3.179,-0.002 0,0.361 c -0.939,0.077 -1.016,0.155 -1.016,0.864 l 0,2.597 c 0.283,0.567 0.579,0.721 0.797,0.721 0.206,0 0.412,-0.103 0.592,-0.282 0.078,-0.079 0.232,-0.104 0.373,-0.052 0.297,0.117 0.528,0.489 0.528,0.811 0,0.36 -0.334,0.746 -0.797,0.746 -0.632,0 -1.146,-0.812 -1.455,-1.3 l -0.038,0 0,1.3 z m 6.756,-4.376 c -0.502,-0.387 -0.914,-0.54 -1.352,-0.54 -0.965,0 -1.981,0.669 -1.955,2.291 1.402,0.05 3.063,0.18 3.243,0.205 0.244,0.052 0.27,0.077 0.27,0.554 0,0.926 -0.837,1.839 -1.917,1.839 -1.699,0 -2.896,-1.582 -2.869,-3.191 0.024,-1.504 1.015,-2.702 2.702,-2.702 0.36,0 1.325,0.258 2.058,1.326 l -0.18,0.218 z m -3.244,2.278 c 0.104,0.966 0.644,1.568 1.185,1.568 0.566,0 0.964,-0.667 0.964,-1.183 0,-0.283 -0.05,-0.359 -0.231,-0.359 l -1.918,-0.026 z m 6.948,1.917 0,-0.36 0.334,-0.039 c 0.244,-0.038 0.18,-0.181 -0.012,-0.501 -0.193,-0.322 -0.425,-0.669 -0.682,-1.03 l -0.747,1.12 c -0.167,0.245 -0.141,0.373 0.078,0.398 l 0.334,0.052 0,0.36 -2.845,0 0,-0.36 c 0.696,-0.077 0.786,-0.129 1.211,-0.785 l 1.196,-1.853 c -0.399,-0.54 -0.772,-1.03 -1.068,-1.415 -0.54,-0.695 -0.733,-0.707 -1.466,-0.811 l 0,-0.361 2.419,0 0,0.361 -0.374,0.065 c -0.205,0.039 -0.244,0.116 -0.038,0.463 0.244,0.412 0.527,0.836 0.811,1.248 l 0.836,-1.273 c 0.167,-0.259 0.155,-0.426 -0.077,-0.452 l -0.373,-0.051 0,-0.361 3.049,0 0,0.361 c -0.694,0.077 -0.862,0.128 -1.364,0.888 l -1.3,1.968 c 0.452,0.618 0.811,1.069 0.952,1.249 0.542,0.657 0.695,0.682 1.507,0.759 l 0,0.36 -2.381,0 z m 6.852,-4.195 c -0.5,-0.387 -0.912,-0.54 -1.35,-0.54 -0.966,0 -1.981,0.669 -1.957,2.291 1.404,0.05 3.063,0.18 3.243,0.205 0.245,0.052 0.271,0.077 0.271,0.554 0,0.926 -0.837,1.839 -1.918,1.839 -1.698,0 -2.894,-1.582 -2.869,-3.191 0.026,-1.506 1.017,-2.702 2.702,-2.702 0.361,0 1.325,0.258 2.059,1.326 l -0.181,0.218 z m -3.242,2.278 c 0.104,0.964 0.644,1.568 1.183,1.568 0.568,0 0.966,-0.669 0.966,-1.183 0,-0.283 -0.051,-0.359 -0.231,-0.359 l -1.918,-0.026 z m 5.647,5.469 C 30.11,0.617 29.16,0.41 28.605,0.334 l 0,-0.334 c 0.837,-0.079 0.864,-0.079 0.864,-0.836 l 0,-6.306 c 0,-0.707 -0.078,-0.785 -0.876,-0.862 l 0,-0.361 3.089,0 0,0.361 c -0.837,0.077 -0.889,0.155 -0.889,0.862 l 0,7.914 z"
           id="path6124"
           style="fill:#000066;fill-opacity:1;fill-rule:nonzero;stroke:none" />
      </g>
      <g
         transform="matrix(15.428938,0,0,-15.428938,167.84396,746.00602)"
         id="g6126"
         style="fill:#ffdb57;fill-opacity:1">
        <path
           d="m 0,0 0,-1.403 c 0,-0.437 -0.022,-0.835 -0.566,-0.835 -0.544,0 -0.566,0.398 -0.566,0.835 l 0,1.403 -0.554,0 0,-1.619 c 0,-0.686 0.494,-1.019 1.12,-1.019 0.626,0 1.12,0.333 1.12,1.019 L 0.554,0 0,0 z"
           id="path6128"
           style="fill:#ffdb57;fill-opacity:1;fill-rule:nonzero;stroke:none" />
      </g>
      <g
         transform="matrix(15.428938,0,0,-15.428938,234.57733,785.86983)"
         id="g6130"
         style="fill:#ffdb57;fill-opacity:1">
        <path
           d="m 0,0 0,2.583 -0.519,0 0,-2.025 -0.008,-0.007 -0.983,2.032 -0.822,0 0,-2.583 0.519,0 0,2.14 0.007,0.008 L -0.786,0 0,0 z"
           id="path6132"
           style="fill:#ffdb57;fill-opacity:1;fill-rule:nonzero;stroke:none" />
      </g>
      <path
         d="m 264.22397,746.00146 -8.56306,0 0,39.85295 8.56306,0 0,-39.85295 z"
         id="path6134"
         style="fill:#ffdb57;fill-opacity:1;fill-rule:nonzero;stroke:none" />
      <g
         transform="matrix(15.428938,0,0,-15.428938,297.23881,785.86983)"
         id="g6136"
         style="fill:#ffdb57;fill-opacity:1">
        <path
           d="m 0,0 0.604,0 0.952,2.583 -0.547,0 -0.676,-2.036 -0.007,0 -0.673,2.036 -0.606,0 L 0,0 z"
           id="path6138"
           style="fill:#ffdb57;fill-opacity:1;fill-rule:nonzero;stroke:none" />
      </g>
      <g
         transform="matrix(15.428938,0,0,-15.428938,339.36438,785.86983)"
         id="g6140"
         style="fill:#ffdb57;fill-opacity:1">
        <path
           d="m 0,0 1.772,0 0,0.429 -1.217,0 0,0.691 1.102,0 0,0.429 -1.102,0 0,0.605 1.177,0 0,0.429 L 0,2.583 0,0 z"
           id="path6142"
           style="fill:#ffdb57;fill-opacity:1;fill-rule:nonzero;stroke:none" />
      </g>
      <g
         transform="matrix(15.428938,0,0,-15.428938,396.10893,769.81288)"
         id="g6144"
         style="fill:#ffdb57;fill-opacity:1">
        <path
           d="m 0,0 0.587,0 c 0.182,-0.006 0.218,-0.205 0.232,-0.347 0.026,-0.234 0.05,-0.465 0.096,-0.694 l 0.613,0 C 1.425,-0.898 1.402,-0.594 1.377,-0.429 1.331,-0.072 1.331,0.189 0.906,0.236 l 0,0.007 c 0.318,0.068 0.535,0.291 0.535,0.626 0,0.527 -0.454,0.669 -0.897,0.674 l -1.1,0 0,-2.584 0.556,0 L 0,0 z m 0,1.113 0.465,0 C 0.708,1.11 0.851,1.012 0.851,0.784 0.851,0.555 0.708,0.434 0.465,0.43 L 0,0.43 0,1.113 z"
           id="path6146"
           style="fill:#ffdb57;fill-opacity:1;fill-rule:nonzero;stroke:none" />
      </g>
      <g
         transform="matrix(15.428938,0,0,-15.428938,468.71442,757.37567)"
         id="g6148"
         style="fill:#ffdb57;fill-opacity:1">
        <path
           d="m 0,0 c 0,0.519 -0.39,0.789 -0.891,0.789 -0.531,0 -1.074,-0.259 -1.074,-0.851 0,-0.459 0.494,-0.623 0.855,-0.711 0.222,-0.057 0.592,-0.079 0.592,-0.384 0,-0.274 -0.295,-0.344 -0.517,-0.344 -0.289,0 -0.454,0.194 -0.432,0.48 l -0.566,0 c -0.018,-0.651 0.401,-0.88 0.99,-0.88 0.556,0 1.115,0.221 1.115,0.861 0,0.519 -0.581,0.631 -0.974,0.732 -0.222,0.052 -0.472,0.085 -0.472,0.365 0,0.226 0.207,0.333 0.411,0.333 0.268,0 0.408,-0.13 0.43,-0.39 L 0,0 z"
           id="path6150"
           style="fill:#ffdb57;fill-opacity:1;fill-rule:nonzero;stroke:none" />
      </g>
      <path
         d="m 498.58954,746.00146 -8.57849,0 0,39.85295 8.57849,0 0,-39.85295 z"
         id="path6152"
         style="fill:#ffdb57;fill-opacity:1;fill-rule:nonzero;stroke:none" />
      <g
         transform="matrix(15.428938,0,0,-15.428938,516.98849,752.64207)"
         id="g6154"
         style="fill:#ffdb57;fill-opacity:1">
        <path
           d="m 0,0 0.771,0 0,-2.154 0.554,0 0,2.154 0.77,0 0,0.43 L 0,0.43 0,0 z"
           id="path6156"
           style="fill:#ffdb57;fill-opacity:1;fill-rule:nonzero;stroke:none" />
      </g>
      <g
         transform="matrix(15.428938,0,0,-15.428938,578.50218,785.86983)"
         id="g6158"
         style="fill:#ffdb57;fill-opacity:1">
        <path
           d="m 0,0 0.554,0 0,0.844 0.87,1.739 -0.569,0 -0.544,-1.185 -0.534,1.185 -0.646,0 L 0,0.844 0,0 z"
           id="path6160"
           style="fill:#ffdb57;fill-opacity:1;fill-rule:nonzero;stroke:none" />
      </g>
      <g
         transform="matrix(15.428938,0,0,-15.428938,493.09992,279.08933)"
         id="g6162">
        <path
           d="m 0,0 c -0.568,-0.078 -1.076,-0.419 -1.383,-0.946 -0.276,-0.512 -0.385,-1.255 0.015,-1.752 0.2,-0.233 0.446,-0.42 0.754,-0.434 0.83,0.093 1.367,0.961 2.166,1.162 0.522,0.171 0.953,-0.124 1.322,-0.419 0.276,-0.17 0.661,-0.123 0.923,0.047 C 2.935,-3.039 2.352,-4.079 2.259,-5.211 2.136,-4.683 1.813,-4.109 1.291,-3.923 0.707,-3.706 0.199,-4.063 -0.2,-4.451 -0.568,-4.838 -0.722,-5.335 -0.922,-5.8 c 0.276,0.249 0.616,0.574 1.03,0.652 0.523,0.155 1.014,-0.016 1.429,-0.325 0.138,-0.141 0.306,-0.264 0.369,-0.482 -0.523,-0.355 -0.692,-0.961 -0.661,-1.597 -0.169,0.496 -0.354,1.101 -0.922,1.318 -0.369,0.155 -0.83,0.109 -1.122,-0.202 -0.245,-0.262 -0.261,-0.681 -0.2,-1.038 0.231,-1.008 1.153,-1.597 2.029,-1.892 0.907,-0.326 1.737,-1.163 1.844,-2.156 0.138,0.032 0.369,0.141 0.491,-0.014 0.139,0.464 0.354,1.069 0.908,1.223 0.399,0.156 0.814,0 1.121,-0.278 0.323,-0.358 0.476,-0.822 0.385,-1.319 -0.046,-0.201 -0.139,-0.388 -0.262,-0.557 0.047,0.232 0.077,0.604 -0.077,0.821 -0.123,0.171 -0.307,0.295 -0.507,0.295 -0.153,0.016 -0.261,-0.078 -0.338,-0.201 -0.169,-0.76 0.783,-0.962 0.813,-1.675 0.017,-0.388 -0.137,-0.745 -0.475,-0.915 -0.368,-0.155 -0.768,-0.016 -1.03,0.264 -0.138,0.123 -0.245,0.279 -0.307,0.434 0.276,-0.14 0.784,-0.28 1.076,-0.016 0.138,0.124 0.2,0.279 0.2,0.465 0.03,0.279 -0.185,0.513 -0.369,0.667 -0.169,0.124 -0.353,0.202 -0.568,0.234 0.122,-0.249 0.107,-0.591 -0.063,-0.808 -0.276,-0.387 -0.767,-0.357 -1.198,-0.31 -0.461,-1.162 -1.736,-1.783 -2.873,-2.093 l -0.83,-0.061 c 0.522,-0.327 1.075,-0.575 1.628,-0.838 0.293,0.527 0.707,1.116 1.338,1.24 0.461,0.062 0.891,-0.093 1.153,-0.464 0.215,-0.389 0.353,-0.916 0.168,-1.366 l -0.2,-0.372 c 0.092,0.341 -0.015,0.776 -0.307,1.039 -0.153,0.125 -0.353,0.186 -0.553,0.155 -0.185,-0.03 -0.369,-0.155 -0.43,-0.34 -0.2,-0.916 1.152,-0.931 0.999,-1.861 -0.031,-0.249 -0.139,-0.449 -0.354,-0.62 -0.322,-0.265 -0.907,-0.295 -1.29,-0.094 -0.247,0.094 -0.462,0.295 -0.662,0.465 -0.307,-0.17 -0.784,-0.185 -1.059,0.063 -0.415,0.34 -0.492,0.836 -0.616,1.317 -1.69,0.668 -3.273,1.644 -4.594,3.07 -0.938,1.008 -1.352,2.389 -1.138,3.8 0.215,1.302 0.092,2.808 -1.029,3.582 -0.523,0.28 -1.198,0.418 -1.783,0.187 -0.584,-0.249 -0.984,-0.9 -0.999,-1.551 0.031,-1.164 0.677,-2.14 1.199,-3.132 0.492,-1.179 0.276,-2.653 -0.645,-3.52 -0.722,-0.885 -1.752,-1.148 -2.551,-1.876 -0.107,-0.108 -0.154,-0.28 -0.092,-0.42 0.26,-0.341 0.767,-0.341 1.198,-0.31 0.922,0.17 1.613,0.868 2.49,1.117 0.553,0.077 1.09,-0.109 1.383,-0.59 0.107,-0.202 0.199,-0.464 0.123,-0.713 -0.077,-0.248 -0.261,-0.481 -0.477,-0.588 -0.137,-0.063 -0.337,-0.048 -0.49,-0.033 0.183,0.063 0.413,0.203 0.475,0.451 0.046,0.201 -0.016,0.419 -0.153,0.573 -0.169,0.155 -0.354,0.233 -0.584,0.233 0.138,-0.171 0.262,-0.403 0.23,-0.666 -0.062,-0.404 -0.338,-0.791 -0.738,-0.901 -0.199,-0.062 -0.399,0.017 -0.568,0.125 -0.153,0.125 -0.216,0.265 -0.293,0.418 0.108,-0.108 0.246,-0.185 0.4,-0.17 0.216,0.03 0.369,0.155 0.446,0.357 0.046,0.139 0.046,0.326 -0.031,0.45 -0.092,0.139 -0.245,0.232 -0.43,0.186 -0.584,-0.186 -0.706,-1.008 -1.306,-1.194 -0.768,-0.062 -1.583,0.03 -2.382,-0.016 l -2.428,-0.061 c -0.139,0.045 -0.307,0.077 -0.369,0.231 -0.277,0.467 0.416,0.993 -0.169,1.349 -1.475,1.008 -3.12,2.016 -4.089,3.66 -0.874,1.472 -1.628,3.691 -0.521,5.303 0.583,0.838 1.552,1.334 2.612,1.148 0.845,-0.108 1.552,-0.807 1.767,-1.613 l 0.047,-0.279 c -0.323,0.574 -0.845,1.148 -1.506,1.365 0.061,-0.171 0.031,-0.42 0,-0.605 -0.125,0.279 -0.461,0.527 -0.769,0.636 0.138,-0.248 0.292,-0.543 0.246,-0.869 -0.215,0.249 -0.538,0.497 -0.891,0.404 0.276,-0.234 0.522,-0.481 0.629,-0.838 -0.246,0.155 -0.615,0.309 -0.951,0.171 0.292,-0.187 0.813,-0.341 0.813,-0.823 -0.153,0.109 -0.368,0.155 -0.553,0.109 l -0.23,-0.109 c 0.23,-0.093 0.553,-0.17 0.721,-0.418 l 0.139,-0.248 c -0.322,0.03 -0.66,-0.015 -0.89,-0.264 0.353,-0.061 0.721,-0.108 0.952,-0.434 -0.307,-0.078 -0.63,-0.247 -0.738,-0.588 0.292,0.154 0.738,0.154 1.015,-0.078 -0.339,-0.188 -0.693,-0.542 -0.599,-0.993 0.291,0.232 0.706,0.434 1.106,0.248 -0.431,-0.185 -0.707,-0.62 -0.723,-1.054 l 0.016,-0.125 c 0.307,0.357 0.707,0.59 1.183,0.497 -0.415,-0.202 -0.599,-0.621 -0.552,-1.086 0.076,0.047 0.137,0.155 0.229,0.218 0.293,0.185 0.585,0.371 0.923,0.387 -0.231,-0.31 -0.555,-0.713 -0.415,-1.163 0.215,0.404 0.613,0.838 1.075,0.884 -0.23,-0.311 -0.308,-0.698 -0.308,-1.102 0.323,0.451 0.8,0.978 1.338,1.179 -0.185,-0.341 -0.354,-0.914 -0.153,-1.334 0.153,0.512 0.475,1.04 0.859,1.381 -0.076,-0.435 0.062,-0.838 0.4,-1.133 l 0.03,0.032 c -0.015,0.559 0.201,1.039 0.476,1.458 -0.061,-0.374 0.155,-0.713 0.478,-0.899 l 0.137,-0.062 c -0.153,0.387 -0.261,0.837 -0.184,1.317 0.278,-0.294 0.677,-0.651 1.122,-0.59 -0.661,0.59 -1.322,1.242 -1.598,2.064 0.261,-0.28 0.676,-0.467 1.122,-0.435 -0.83,0.59 -1.583,1.612 -1.66,2.683 0.185,-0.435 0.599,-0.775 1.03,-0.93 -0.585,0.869 -1.198,1.876 -0.877,3.054 0.078,-0.558 0.4,-1.178 0.984,-1.349 -0.323,0.606 -0.753,1.225 -0.661,2.001 0.031,0.48 0.185,0.946 0.461,1.333 -0.199,-0.434 -0.231,-1.117 0.17,-1.519 l 0.03,-0.032 c -0.123,1.21 0.338,2.404 1.384,2.962 l 0.398,0.218 c -0.322,-0.419 -0.537,-0.869 -0.537,-1.411 0.46,0.992 1.428,1.968 2.658,1.906 0.184,0.016 0.353,-0.015 0.523,-0.046 -0.507,-0.233 -1.137,-0.621 -1.199,-1.256 0.83,0.76 1.997,1.178 3.135,0.76 0.261,-0.108 0.552,-0.248 0.723,-0.466 -0.401,0.218 -0.86,0.047 -1.199,-0.17 -0.153,-0.109 -0.368,-0.264 -0.431,-0.45 0.784,0.295 1.982,0.497 2.598,-0.295 l 0.384,-0.604 c -0.415,0.279 -0.907,0.511 -1.445,0.403 -0.092,-0.031 -0.184,-0.079 -0.276,-0.156 0.861,-0.03 1.705,-0.449 2.058,-1.255 l 0.108,-0.481 c -0.215,0.418 -0.66,0.837 -1.168,0.853 0.292,-0.31 0.737,-0.621 0.876,-1.055 0.292,-0.651 0.369,-1.442 1.076,-1.845 0.277,-0.139 0.569,-0.232 0.876,-0.28 -1.06,0.435 -1.445,1.707 -1.521,2.823 0.261,-0.326 0.599,-0.62 0.967,-0.775 -0.184,0.233 -0.368,0.388 -0.568,0.635 -0.615,0.744 -0.983,1.722 -0.753,2.714 0.169,0.636 0.599,1.164 1.014,1.689 -0.337,-0.65 -0.399,-1.596 0.015,-2.232 0.2,-0.311 0.478,-0.573 0.754,-0.775 -0.538,0.714 -0.784,1.769 -0.462,2.683 0.461,1.255 1.753,1.922 2.997,2.016 L 0,0 z"
           id="path6164"
           style="fill:#000066;fill-opacity:1;fill-rule:nonzero;stroke:none" />
      </g>
      <g
         transform="matrix(15.428938,0,0,-15.428938,470.58145,332.9225)"
         id="g6166"
         style="fill:#ffdb57;fill-opacity:1">
        <path
           d="m 0,0 c 0.2,-0.155 0.492,-0.248 0.754,-0.139 0.044,0.015 0.091,0.046 0.153,0.061 C 0.677,-0.326 0.43,-0.837 0,-0.729 -0.369,-0.45 -0.23,0.124 -0.262,0.543 -0.246,0.326 -0.154,0.155 0,0"
           id="path6168"
           style="fill:#ffdb57;fill-opacity:1;fill-rule:nonzero;stroke:none" />
      </g>
      <g
         transform="matrix(15.428938,0,0,-15.428938,451.61151,446.08598)"
         id="g6170"
         style="fill:#ffdb57;fill-opacity:1">
        <path
           d="m 0,0 c 0.307,0.032 0.584,0.233 0.754,0.481 0.184,-0.559 0.46,-1.412 0,-1.939 C 0.614,-1.597 0.446,-1.659 0.246,-1.659 -0.523,-1.613 -0.86,-0.806 -1.075,-0.155 -1.23,0.295 -1.23,0.791 -1.291,1.287 -1.06,0.745 -0.676,-0.015 0,0"
           id="path6172"
           style="fill:#ffdb57;fill-opacity:1;fill-rule:nonzero;stroke:none" />
      </g>
      <g
         transform="matrix(15.428938,0,0,-15.428938,522.51205,547.28908)"
         id="g6174"
         style="fill:#ffdb57;fill-opacity:1">
        <path
           d="m 0,0 c 0.139,-0.14 0.215,-0.293 0.185,-0.497 0,-0.169 -0.155,-0.339 -0.294,-0.402 -0.321,-0.141 -0.706,-0.03 -0.983,0.124 0.262,0.264 0.416,0.573 0.462,0.915 C -0.4,0.172 -0.185,0.125 0,0"
           id="path6176"
           style="fill:#ffdb57;fill-opacity:1;fill-rule:nonzero;stroke:none" />
      </g>
      <g
         transform="matrix(15.428938,0,0,-15.428938,531.51489,319.28949)"
         id="g6178"
         style="fill:#ffdb57;fill-opacity:1">
        <path
           d="M 0,0 C 0.03,-0.171 -0.062,-0.31 -0.2,-0.372 -0.431,-0.434 -0.737,-0.434 -0.907,-0.247 -0.983,-0.139 -1.03,0.016 -0.938,0.124 -0.707,0.403 -0.17,0.341 0,0"
           id="path6180"
           style="fill:#ffdb57;fill-opacity:1;fill-rule:nonzero;stroke:none" />
      </g>
      <g
         transform="matrix(15.428938,0,0,-15.428938,491.68503,548.24098)"
         id="g6182"
         style="fill:#ffdb57;fill-opacity:1">
        <path
           d="M 0,0 C -0.015,-0.14 -0.122,-0.263 -0.261,-0.295 -0.446,-0.31 -0.491,-0.14 -0.537,0 L -0.554,0.216 0,0 z"
           id="path6184"
           style="fill:#ffdb57;fill-opacity:1;fill-rule:nonzero;stroke:none" />
      </g>
      <g
         transform="matrix(15.428938,0,0,-15.428938,542.42007,471.44807)"
         id="g6186"
         style="fill:#ffdb57;fill-opacity:1">
        <path
           d="m 0,0 c -0.015,-0.248 -0.184,-0.357 -0.4,-0.434 0.077,0.233 0.093,0.512 0.063,0.759 C -0.2,0.263 -0.062,0.155 0,0"
           id="path6188"
           style="fill:#ffdb57;fill-opacity:1;fill-rule:nonzero;stroke:none" />
      </g>
    </g>
  </g>
</svg>
