<svg xmlns="http://www.w3.org/2000/svg" xmlns:xlink="http://www.w3.org/1999/xlink" version="1.1" id="Layer_1" x="0px" y="0px" width="100px" height="100px" viewBox="0 0 100 100" enable-background="new 0 0 100 100" xml:space="preserve">
<rect x="12.295" y="30.175" stroke="#000000" stroke-width="0.5" stroke-miterlimit="10" width="6.978" height="34.353"/>
<path fill="none" stroke="#000000" stroke-width="0.5" stroke-miterlimit="10" d="M41.713,39.52h0.371v-9.345h-6.978v9.345  c0.694,0,1.388,0,2.082,0v0.625c-0.694,0-1.388,0-2.082,0v14.37c0.694,0,1.388,0,2.082,0v0.625c-0.694,0-1.388,0-2.082,0v9.388  h6.978v-9.388c-0.626,0-1.253,0-1.879,0v-0.625c0.754,0,0.754,0,1.509,0h0.371v-14.37h-0.371c-0.754,0-0.754,0-1.509,0V39.52  C40.708,39.52,41.211,39.52,41.713,39.52z"/>
<path fill="none" stroke="#000000" stroke-width="0.5" stroke-miterlimit="10" d="M49.317,39.52h0.371v-9.345h-6.978v9.345  c0.694,0,1.388,0,2.082,0v0.625c-0.694,0-1.388,0-2.082,0v14.37c0.694,0,1.388,0,2.082,0v0.625c-0.694,0-1.388,0-2.082,0v9.388  h6.978v-9.388c-0.626,0-1.253,0-1.879,0v-0.625c0.754,0,0.754,0,1.509,0h0.371v-14.37h-0.371c-0.754,0-0.754,0-1.509,0V39.52  C48.311,39.52,48.814,39.52,49.317,39.52z"/>
<path fill="none" stroke="#000000" stroke-width="0.5" stroke-miterlimit="10" d="M56.92,39.52h0.371v-9.345h-6.978v9.345  c0.694,0,1.388,0,2.082,0v0.625c-0.694,0-1.388,0-2.082,0v14.37c0.694,0,1.388,0,2.082,0v0.625c-0.694,0-1.388,0-2.082,0v9.388  h6.978v-9.388c-0.626,0-1.253,0-1.879,0v-0.625c0.754,0,0.754,0,1.509,0h0.371v-14.37H56.92c-0.754,0-0.754,0-1.509,0V39.52  C55.915,39.52,56.417,39.52,56.92,39.52z"/>
<path fill="none" stroke="#000000" stroke-width="0.5" stroke-miterlimit="10" d="M64.524,39.52h0.371v-9.345h-6.978v9.345  c0.694,0,1.388,0,2.082,0v0.625c-0.694,0-1.388,0-2.082,0v14.37c0.694,0,1.388,0,2.082,0v0.625c-0.694,0-1.388,0-2.082,0v9.388  h6.978v-9.388c-0.626,0-1.253,0-1.879,0v-0.625c0.754,0,0.754,0,1.509,0h0.371v-14.37h-0.371c-0.754,0-0.754,0-1.509,0V39.52  C63.518,39.52,64.021,39.52,64.524,39.52z"/>
<path fill="none" stroke="#000000" stroke-width="0.5" stroke-miterlimit="10" d="M72.127,39.52h0.371v-9.345h-6.978v9.345  c0.694,0,1.388,0,2.082,0v0.625c-0.694,0-1.388,0-2.082,0v14.37c0.694,0,1.388,0,2.082,0v0.625c-0.694,0-1.388,0-2.082,0v9.388  h6.978v-9.388c-0.626,0-1.253,0-1.879,0v-0.625c0.754,0,0.754,0,1.509,0h0.371v-14.37h-0.371c-0.754,0-0.754,0-1.509,0V39.52  C71.121,39.52,71.624,39.52,72.127,39.52z"/>
<path fill="none" stroke="#000000" stroke-width="0.5" stroke-miterlimit="10" d="M79.73,39.52h0.371v-9.345h-6.978v9.345  c0.694,0,1.388,0,2.082,0v0.625c-0.694,0-1.388,0-2.082,0v14.37c0.694,0,1.388,0,2.082,0v0.625c-0.694,0-1.388,0-2.082,0v9.388  h6.978v-9.388c-0.626,0-1.253,0-1.879,0v-0.625c0.754,0,0.754,0,1.509,0h0.371v-14.37H79.73c-0.754,0-0.754,0-1.509,0V39.52  C78.725,39.52,79.228,39.52,79.73,39.52z"/>
<path fill="none" stroke="#000000" stroke-width="0.5" stroke-miterlimit="10" d="M34.11,39.52h0.371v-9.345h-6.978v9.345  c0.694,0,1.388,0,2.082,0v0.625c-0.694,0-1.388,0-2.082,0v14.37c0.694,0,1.388,0,2.082,0v0.625c-0.694,0-1.388,0-2.082,0v9.388  h6.978v-9.388c-0.626,0-1.253,0-1.879,0v-0.625c0.754,0,0.754,0,1.509,0h0.371v-14.37H34.11c-0.754,0-0.754,0-1.509,0V39.52  C33.104,39.52,33.607,39.52,34.11,39.52z"/>
<path fill="none" stroke="#000000" stroke-width="0.5" stroke-miterlimit="10" d="M26.507,39.52h0.371v-9.345h-6.978v9.345  c0.694,0,1.388,0,2.082,0v0.625c-0.694,0-1.388,0-2.082,0v14.37c0.694,0,1.388,0,2.082,0v0.625c-0.694,0-1.388,0-2.082,0v9.388  h6.978v-9.388c-0.626,0-1.253,0-1.879,0v-0.625c0.754,0,0.754,0,1.509,0h0.371v-14.37h-0.371c-0.754,0-0.754,0-1.509,0V39.52  C25.501,39.52,26.004,39.52,26.507,39.52z"/>
<rect x="80.726" y="30.175" stroke="#000000" stroke-width="0.5" stroke-miterlimit="10" width="6.978" height="34.353"/>
<rect x="34.877" y="27.193" fill="none" stroke="#000000" stroke-width="0.5" stroke-miterlimit="10" width="30.414" height="2.981"/>
<rect x="34.986" y="64.527" fill="none" stroke="#000000" stroke-width="0.5" stroke-miterlimit="10" width="30.414" height="2.981"/>
<rect x="4.797" y="24.922" fill="none" stroke="#000000" stroke-width="0.75" stroke-miterlimit="10" width="90.149" height="45.145"/>
<g>
	<rect x="7.268" y="43.346" width="0.617" height="8.915"/>
	<rect x="7.886" y="43.346" width="1.852" height="0.617"/>
	<rect x="7.886" y="51.643" width="1.852" height="0.617"/>
	<rect x="6.068" y="47.528" width="1.509" height="0.617"/>
</g>
<g>
	<rect x="91.863" y="43.071" width="0.617" height="8.915"/>
	<rect x="90.011" y="43.071" width="1.852" height="0.617"/>
	<rect x="90.011" y="51.369" width="1.852" height="0.617"/>
	<rect x="92.171" y="47.253" width="1.509" height="0.617"/>
</g>
</svg>