<?xml version="1.0" encoding="UTF-8" standalone="no"?>
<svg
   xmlns:dc="http://purl.org/dc/elements/1.1/"
   xmlns:cc="http://creativecommons.org/ns#"
   xmlns:rdf="http://www.w3.org/1999/02/22-rdf-syntax-ns#"
   xmlns:svg="http://www.w3.org/2000/svg"
   xmlns="http://www.w3.org/2000/svg"
   viewBox="0 0 708.66248 183.7375"
   height="183.7375"
   width="708.66248"
   xml:space="preserve"
   version="1.1"
   id="svg2"><metadata
     id="metadata8"><rdf:RDF><cc:Work
         rdf:about=""><dc:format>image/svg+xml</dc:format><dc:type
           rdf:resource="http://purl.org/dc/dcmitype/StillImage" /></cc:Work></rdf:RDF></metadata><defs
     id="defs6" /><g
     transform="matrix(1.25,0,0,-1.25,0,183.7375)"
     id="g10"><g
       transform="scale(0.1,0.1)"
       id="g12"><path
         id="path14"
         style="fill:#231f20;fill-opacity:1;fill-rule:evenodd;stroke:none"
         d="m 714.203,660.586 115.039,0 0,-348.398 -115.039,0 0,348.398" /><path
         id="path16"
         style="fill:#231f20;fill-opacity:1;fill-rule:evenodd;stroke:none"
         d="m 1941.48,716.57 135.29,0 0,-374.304 -135.29,0 0,374.304" /><path
         id="path18"
         style="fill:#231f20;fill-opacity:1;fill-rule:evenodd;stroke:none"
         d="m 2371.48,590.41 135.28,0 0,-290.586 -135.28,0 0,290.586" /><path
         id="path20"
         style="fill:#231f20;fill-opacity:1;fill-rule:evenodd;stroke:none"
         d="m 2394.24,603.152 102.35,0 0,-290.593 -102.35,0 0,290.593" /><path
         id="path22"
         style="fill:#231f20;fill-opacity:1;fill-rule:evenodd;stroke:none"
         d="m 2640.66,620.566 135.27,0 0,-290.586 -135.27,0 0,290.586" /><path
         id="path24"
         style="fill:#231f20;fill-opacity:1;fill-rule:evenodd;stroke:none"
         d="m 2630.38,627.363 102.35,0 0,-25.801 -102.35,0 0,25.801" /><path
         id="path26"
         style="fill:#231f20;fill-opacity:1;fill-rule:evenodd;stroke:none"
         d="m 2912.06,699.824 135.28,0 0,-374.316 -135.28,0 0,374.316" /><path
         id="path28"
         style="fill:#231f20;fill-opacity:1;fill-rule:evenodd;stroke:none"
         d="m 3230.42,770.797 223.1,0 0,-459.656 -223.1,0 0,459.656" /><path
         id="path30"
         style="fill:#231f20;fill-opacity:1;fill-rule:evenodd;stroke:none"
         d="m 3224.21,777.977 226.33,0 0,-20.715 -226.33,0 0,20.715" /><path
         id="path32"
         style="fill:#231f20;fill-opacity:1;fill-rule:evenodd;stroke:none"
         d="m 3238.18,786.91 40.53,0 0,-20.715 -40.53,0 0,20.715" /><path
         id="path34"
         style="fill:#231f20;fill-opacity:1;fill-rule:evenodd;stroke:none"
         d="m 3301.69,781.648 40.52,0 0,-20.71 -40.52,0 0,20.71" /><path
         id="path36"
         style="fill:#231f20;fill-opacity:1;fill-rule:evenodd;stroke:none"
         d="m 3353.83,781.648 40.53,0 0,-20.71 -40.53,0 0,20.71" /><path
         id="path38"
         style="fill:#231f20;fill-opacity:1;fill-rule:evenodd;stroke:none"
         d="m 3418.2,786.91 40.52,0 0,-20.715 -40.52,0 0,20.715" /><path
         id="path40"
         style="fill:#231f20;fill-opacity:1;fill-rule:evenodd;stroke:none"
         d="m 5089.9,520.008 135.29,0 0,-198.555 -135.29,0 0,198.555" /><path
         id="path42"
         style="fill:#231f20;fill-opacity:1;fill-rule:evenodd;stroke:none"
         d="m 4708.68,442.949 135.28,0 0,-111.523 -135.28,0 0,111.523" /><path
         id="path44"
         style="fill:#231f20;fill-opacity:1;fill-rule:evenodd;stroke:none"
         d="m 5345.66,582.48 135.29,0 0,-259.453 -135.29,0 0,259.453" /><path
         id="path46"
         style="fill:#231f20;fill-opacity:1;fill-rule:evenodd;stroke:none"
         d="m 5345.66,588.797 122.32,0 0,-17.086 -122.32,0 0,17.086" /><path
         id="path48"
         style="fill:#231f20;fill-opacity:1;fill-rule:evenodd;stroke:none"
         d="m 3890.08,1079.34 225.74,0 0,-796.305 -225.74,0 0,796.305" /><path
         id="path50"
         style="fill:#231f20;fill-opacity:1;fill-rule:evenodd;stroke:none"
         d="m 4016.36,1034.59 225.74,0 0,-796.309 -225.74,0 0,796.309" /><path
         id="path52"
         style="fill:#231f20;fill-opacity:1;fill-rule:evenodd;stroke:none"
         d="m 1684.55,1338.25 310.18,0 0,-1020.992 -310.18,0 0,1020.992" /><path
         id="path54"
         style="fill:#231f20;fill-opacity:1;fill-rule:evenodd;stroke:none"
         d="m 783.078,1086.66 285.882,0 0,-769.402 -285.882,0 0,769.402" /><path
         id="path56"
         style="fill:#231f20;fill-opacity:1;fill-rule:evenodd;stroke:none"
         d="m 771.562,1076.29 285.878,0 0,-14.15 -285.878,0 0,14.15" /><path
         id="path58"
         style="fill:#231f20;fill-opacity:1;fill-rule:evenodd;stroke:none"
         d="m 771.562,906.418 285.878,0 0,-14.156 -285.878,0 0,14.156" /><path
         id="path60"
         style="fill:#231f20;fill-opacity:1;fill-rule:evenodd;stroke:none"
         d="m 771.562,736.527 285.878,0 0,-14.156 -285.878,0 0,14.156" /><path
         id="path62"
         style="fill:#231f20;fill-opacity:1;fill-rule:evenodd;stroke:none"
         d="m 771.562,566.648 285.878,0 0,-14.148 -285.878,0 0,14.148" /><path
         id="path64"
         style="fill:#231f20;fill-opacity:1;fill-rule:evenodd;stroke:none"
         d="m 771.562,396.766 285.878,0 0,-14.149 -285.878,0 0,14.149" /><path
         id="path66"
         style="fill:#231f20;fill-opacity:1;fill-rule:evenodd;stroke:none"
         d="m 771.562,1047.98 285.878,0 0,-14.15 -285.878,0 0,14.15" /><path
         id="path68"
         style="fill:#231f20;fill-opacity:1;fill-rule:evenodd;stroke:none"
         d="m 771.562,878.094 285.878,0 0,-14.149 -285.878,0 0,14.149" /><path
         id="path70"
         style="fill:#231f20;fill-opacity:1;fill-rule:evenodd;stroke:none"
         d="m 771.562,708.223 285.878,0 0,-14.161 -285.878,0 0,14.161" /><path
         id="path72"
         style="fill:#231f20;fill-opacity:1;fill-rule:evenodd;stroke:none"
         d="m 771.562,538.34 285.878,0 0,-14.16 -285.878,0 0,14.16" /><path
         id="path74"
         style="fill:#231f20;fill-opacity:1;fill-rule:evenodd;stroke:none"
         d="m 771.562,368.457 285.878,0 0,-14.16 -285.878,0 0,14.16" /><path
         id="path76"
         style="fill:#231f20;fill-opacity:1;fill-rule:evenodd;stroke:none"
         d="m 771.562,1019.67 285.878,0 0,-14.16 -285.878,0 0,14.16" /><path
         id="path78"
         style="fill:#231f20;fill-opacity:1;fill-rule:evenodd;stroke:none"
         d="m 771.562,849.785 285.878,0 0,-14.152 -285.878,0 0,14.152" /><path
         id="path80"
         style="fill:#231f20;fill-opacity:1;fill-rule:evenodd;stroke:none"
         d="m 771.562,679.902 285.878,0 0,-14.148 -285.878,0 0,14.148" /><path
         id="path82"
         style="fill:#231f20;fill-opacity:1;fill-rule:evenodd;stroke:none"
         d="m 771.562,510.02 285.878,0 0,-14.153 -285.878,0 0,14.153" /><path
         id="path84"
         style="fill:#231f20;fill-opacity:1;fill-rule:evenodd;stroke:none"
         d="m 771.562,340.137 285.878,0 0,-14.153 -285.878,0 0,14.153" /><path
         id="path86"
         style="fill:#231f20;fill-opacity:1;fill-rule:evenodd;stroke:none"
         d="m 771.562,991.352 285.878,0 0,-14.157 -285.878,0 0,14.157" /><path
         id="path88"
         style="fill:#231f20;fill-opacity:1;fill-rule:evenodd;stroke:none"
         d="m 771.562,821.469 285.878,0 0,-14.157 -285.878,0 0,14.157" /><path
         id="path90"
         style="fill:#231f20;fill-opacity:1;fill-rule:evenodd;stroke:none"
         d="m 771.562,651.59 285.878,0 0,-14.149 -285.878,0 0,14.149" /><path
         id="path92"
         style="fill:#231f20;fill-opacity:1;fill-rule:evenodd;stroke:none"
         d="m 771.562,481.711 285.878,0 0,-14.152 -285.878,0 0,14.152" /><path
         id="path94"
         style="fill:#231f20;fill-opacity:1;fill-rule:evenodd;stroke:none"
         d="m 771.562,963.043 285.878,0 0,-14.156 -285.878,0 0,14.156" /><path
         id="path96"
         style="fill:#231f20;fill-opacity:1;fill-rule:evenodd;stroke:none"
         d="m 771.562,793.16 285.878,0 0,-14.156 -285.878,0 0,14.156" /><path
         id="path98"
         style="fill:#231f20;fill-opacity:1;fill-rule:evenodd;stroke:none"
         d="m 771.562,623.281 285.878,0 0,-14.16 -285.878,0 0,14.16" /><path
         id="path100"
         style="fill:#231f20;fill-opacity:1;fill-rule:evenodd;stroke:none"
         d="m 771.562,453.398 285.878,0 0,-14.16 -285.878,0 0,14.16" /><path
         id="path102"
         style="fill:#231f20;fill-opacity:1;fill-rule:evenodd;stroke:none"
         d="m 771.562,934.727 285.878,0 0,-14.157 -285.878,0 0,14.157" /><path
         id="path104"
         style="fill:#231f20;fill-opacity:1;fill-rule:evenodd;stroke:none"
         d="m 771.562,764.844 285.878,0 0,-14.156 -285.878,0 0,14.156" /><path
         id="path106"
         style="fill:#231f20;fill-opacity:1;fill-rule:evenodd;stroke:none"
         d="m 771.562,594.961 285.878,0 0,-14.152 -285.878,0 0,14.152" /><path
         id="path108"
         style="fill:#231f20;fill-opacity:1;fill-rule:evenodd;stroke:none"
         d="m 771.562,425.078 285.878,0 0,-14.152 -285.878,0 0,14.152" /><path
         id="path110"
         style="fill:#231f20;fill-opacity:1;fill-rule:evenodd;stroke:none"
         d="m 216.109,569.766 231.325,0 0,-254.258 -231.325,0 0,254.258" /><path
         id="path112"
         style="fill:#231f20;fill-opacity:1;fill-rule:evenodd;stroke:none"
         d="m 15.375,472.266 101.324,0 0,-139.563 -101.324,0 0,139.563" /><path
         id="path114"
         style="fill:#231f20;fill-opacity:1;fill-rule:evenodd;stroke:none"
         d="m 15.375,420.645 135.738,0 0,-87.942 -135.738,0 0,87.942" /><path
         id="path116"
         style="fill:#231f20;fill-opacity:1;fill-rule:evenodd;stroke:none"
         d="m 2150.81,436.551 -108.97,0 0,-126.18 108.97,0 0,126.18" /><path
         id="path118"
         style="fill:#231f20;fill-opacity:1;fill-rule:evenodd;stroke:none"
         d="m 2089.63,478.613 61.18,0 0,-61.183 -61.18,0 0,61.183" /><path
         id="path120"
         style="fill:#231f20;fill-opacity:1;fill-rule:evenodd;stroke:none"
         d="m 2512.73,476.023 161.43,0 0,-159.48 -161.43,0 0,159.48" /><path
         id="path122"
         style="fill:#231f20;fill-opacity:1;fill-rule:evenodd;stroke:none"
         d="m 2985.96,532.508 75.18,0 0,-215.965 -75.18,0 0,215.965" /><path
         id="path124"
         style="fill:#231f20;fill-opacity:1;fill-rule:evenodd;stroke:none"
         d="m 3106.48,604.504 133.77,0 0,-286.859 -133.77,0 0,286.859" /><path
         id="path126"
         style="fill:#231f20;fill-opacity:1;fill-rule:evenodd;stroke:none"
         d="m 3416.05,529.188 72.97,0 0,-201.571 -72.97,0 0,201.571" /><path
         id="path128"
         style="fill:#231f20;fill-opacity:1;fill-rule:evenodd;stroke:none"
         d="m 3515.74,837.391 316.34,0 0,-524.59 -316.34,0 0,524.59" /><path
         id="path130"
         style="fill:#231f20;fill-opacity:1;fill-rule:evenodd;stroke:none"
         d="m 3636.69,874.672 130.26,0 0,-99.86 -130.26,0 0,99.86" /><path
         id="path132"
         style="fill:#231f20;fill-opacity:1;fill-rule:evenodd;stroke:none"
         d="m 5153.12,767.125 227.93,0 0,-468.91 -227.93,0 0,468.91" /><path
         id="path134"
         style="fill:#231f20;fill-opacity:1;fill-rule:evenodd;stroke:none"
         d="m 5175.25,777.543 59.93,0 0,-18.238 -59.93,0 0,18.238" /><path
         id="path136"
         style="fill:#231f20;fill-opacity:1;fill-rule:evenodd;stroke:none"
         d="m 5274.25,773.637 35.16,0 0,-18.239 -35.16,0 0,18.239" /><path
         id="path138"
         style="fill:#231f20;fill-opacity:1;fill-rule:evenodd;stroke:none"
         d="m 4603.44,606.914 89.87,0 0,-307.402 -89.87,0 0,307.402" /><path
         id="path140"
         style="fill:#231f20;fill-opacity:1;fill-rule:evenodd;stroke:none"
         d="m 4745.42,490.984 63.82,0 0,-175.839 -63.82,0 0,175.839" /><path
         id="path142"
         style="fill:#231f20;fill-opacity:1;fill-rule:evenodd;stroke:none"
         d="m 5046.31,451.914 69.03,0 0,-147.187 -69.03,0 0,147.187" /><path
         id="path144"
         style="fill:#231f20;fill-opacity:1;fill-rule:evenodd;stroke:none"
         d="m 5403.2,492.285 106.81,0 0,-187.558 -106.81,0 0,187.558" /><path
         id="path146"
         style="fill:#231f20;fill-opacity:1;fill-rule:evenodd;stroke:none"
         d="m 5459.21,437.578 130.26,0 0,-143.273 -130.26,0 0,143.273" /><path
         id="path148"
         style="fill:#231f20;fill-opacity:1;fill-rule:evenodd;stroke:none"
         d="m 5564.72,386.785 70.34,0 0,-62.527 -70.34,0 0,62.527" /><path
         id="path150"
         style="fill:#231f20;fill-opacity:1;fill-rule:evenodd;stroke:none"
         d="m 5576.44,450.605 -45.59,0 0,-15.636 45.59,0 0,15.636" /><path
         id="path152"
         style="fill:#231f20;fill-opacity:1;fill-rule:evenodd;stroke:none"
         d="m 5611.61,403.711 18.23,0 0,-20.84 -18.23,0 0,20.84" /><path
         id="path154"
         style="fill:#231f20;fill-opacity:1;fill-rule:evenodd;stroke:none"
         d="m 1472.38,470.586 130.11,0 0,-156.133 -130.11,0 0,156.133" /><path
         id="path156"
         style="fill:#231f20;fill-opacity:1;fill-rule:evenodd;stroke:none"
         d="m 4110.23,605.684 177.52,0 0,-364.836 -177.52,0 0,364.836" /><path
         id="path158"
         style="fill:#231f20;fill-opacity:1;fill-rule:evenodd;stroke:none"
         d="m 425.359,818.281 249.879,0 0,-493.234 -249.879,0 0,493.234" /><path
         id="path160"
         style="fill:#231f20;fill-opacity:1;fill-rule:evenodd;stroke:none"
         d="m 1133.71,1361.6 354.17,0 0,-1076.327 -354.17,0 0,1076.327" /><path
         id="path162"
         style="fill:none;stroke:#231f20;stroke-width:2.16000009;stroke-linecap:butt;stroke-linejoin:miter;stroke-miterlimit:2.61310005;stroke-dasharray:none;stroke-opacity:1"
         d="m 1133.71,1361.6 354.17,0 0,-1076.327 -354.17,0 0,1076.327 z" /><path
         id="path164"
         style="fill:#231f20;fill-opacity:1;fill-rule:evenodd;stroke:none"
         d="m 1383.95,1468.82 -159.04,0 0,-208.18 159.04,0 0,208.18" /><path
         id="path166"
         style="fill:none;stroke:#231f20;stroke-width:2.16000009;stroke-linecap:butt;stroke-linejoin:miter;stroke-miterlimit:2.61310005;stroke-dasharray:none;stroke-opacity:1"
         d="m 1383.95,1468.82 -159.04,0 0,-208.18 159.04,0 0,208.18 z" /><path
         id="path168"
         style="fill:#231f20;fill-opacity:1;fill-rule:evenodd;stroke:none"
         d="m 1237.86,1462.57 c 51.92,0 94.27,-49.37 94.27,-109.9 0,-60.53 -42.35,-109.9 -94.27,-109.9 -51.92,0 -94.26,49.37 -94.26,109.9 0,60.53 42.34,109.9 94.26,109.9 l 0,0" /><path
         id="path170"
         style="fill:none;stroke:#231f20;stroke-width:2.16000009;stroke-linecap:butt;stroke-linejoin:miter;stroke-miterlimit:2.61310005;stroke-dasharray:none;stroke-opacity:1"
         d="m 1237.86,1462.57 c 51.92,0 94.27,-49.37 94.27,-109.9 0,-60.53 -42.35,-109.9 -94.27,-109.9 -51.92,0 -94.26,49.37 -94.26,109.9 0,60.53 42.34,109.9 94.26,109.9 l 0,0 z" /><path
         id="path172"
         style="fill:#231f20;fill-opacity:1;fill-rule:evenodd;stroke:none"
         d="m 1387.98,1422.36 c 51.91,0 94.25,-34.92 94.25,-77.73 0,-42.82 -42.34,-77.74 -94.25,-77.74 -51.93,0 -94.27,34.92 -94.27,77.74 0,42.81 42.34,77.73 94.27,77.73 l 0,0" /><path
         id="path174"
         style="fill:none;stroke:#231f20;stroke-width:2.16000009;stroke-linecap:butt;stroke-linejoin:miter;stroke-miterlimit:2.61310005;stroke-dasharray:none;stroke-opacity:1"
         d="m 1387.98,1422.36 c 51.91,0 94.25,-34.92 94.25,-77.73 0,-42.82 -42.34,-77.74 -94.25,-77.74 -51.93,0 -94.27,34.92 -94.27,77.74 0,42.81 42.34,77.73 94.27,77.73 l 0,0 z" /><path
         id="path176"
         style="fill:#231f20;fill-opacity:1;fill-rule:evenodd;stroke:none"
         d="m 1535.59,952.43 217.9,0 0,-627.383 -217.9,0 0,627.383" /><path
         id="path178"
         style="fill:#231f20;fill-opacity:1;fill-rule:evenodd;stroke:none"
         d="m 1535.59,919.781 256.77,0 0,-594.734 -256.77,0 0,594.734" /><path
         id="path180"
         style="fill:#231f20;fill-opacity:1;fill-rule:evenodd;stroke:none"
         d="m 2136.26,680.352 315.03,0 0,-355.305 -315.03,0 0,355.305" /><path
         id="path182"
         style="fill:#231f20;fill-opacity:1;fill-rule:evenodd;stroke:none"
         d="m 2164.53,713.926 244.35,0 0,-355.313 -244.35,0 0,355.313" /><path
         id="path184"
         style="fill:#231f20;fill-opacity:1;fill-rule:evenodd;stroke:none"
         d="m 2189.26,692.723 244.36,0 0,-355.313 -244.36,0 0,355.313" /><path
         id="path186"
         style="fill:#231f20;fill-opacity:1;fill-rule:evenodd;stroke:none"
         d="m 2705.14,1300.26 295.58,0 0,-996.217 -295.58,0 0,996.217" /><path
         id="path188"
         style="fill:#231f20;fill-opacity:1;fill-rule:evenodd;stroke:none"
         d="m 2776.36,1328.07 201.41,0 0,-416.277 -201.41,0 0,416.277" /><path
         id="path190"
         style="fill:#231f20;fill-opacity:1;fill-rule:evenodd;stroke:none"
         d="m 4312.51,1234.94 236.3,0 0,-929.893 -236.3,0 0,929.893" /><path
         id="path192"
         style="fill:#231f20;fill-opacity:1;fill-rule:evenodd;stroke:none"
         d="m 4394.1,1297.84 236.31,0 0,-992.793 -236.31,0 0,992.793" /><path
         id="path194"
         style="fill:#231f20;fill-opacity:1;fill-rule:evenodd;stroke:none"
         d="m 4787.43,770.316 284.97,0 0,-492.464 -284.97,0 0,492.464" /><path
         id="path196"
         style="fill:#231f20;fill-opacity:1;fill-rule:evenodd;stroke:none"
         d="m 4799.58,781.57 260.67,0 0,-492.468 -260.67,0 0,492.468" /><path
         id="path198"
         style="fill:#231f20;fill-opacity:1;fill-rule:evenodd;stroke:none"
         d="m 4818.86,790.41 222.12,0 0,-492.472 -222.12,0 0,492.472" /><path
         id="path200"
         style="fill:#231f20;fill-opacity:1;fill-rule:evenodd;stroke:none"
         d="m 4830.11,796.836 79.56,42.586 40.5,0 79.56,-42.586 0,-492.473 -199.62,0 0,492.473" /><path
         id="path202"
         style="fill:#231f20;fill-opacity:1;fill-rule:evenodd;stroke:none"
         d="m 3847.58,567.273 140.43,0 0,-288.632 -140.43,0 0,288.632" /><path
         id="path204"
         style="fill:#231f20;fill-opacity:1;fill-rule:evenodd;stroke:none"
         d="m 4078.87,539.344 177.51,0 0,-298.496 -177.51,0 0,298.496" /><path
         id="path206"
         style="fill:#231f20;fill-opacity:1;fill-rule:evenodd;stroke:none"
         d="m 5134.35,439.023 130.88,0 0,-124.601 -130.88,0 0,124.601" /><path
         id="path208"
         style="fill:#231f20;fill-opacity:1;fill-rule:evenodd;stroke:none"
         d="m 5241.33,406.297 84.31,0 0,-74.254 -84.31,0 0,74.254" /><path
         id="path210"
         style="fill:#231f20;fill-opacity:1;fill-rule:evenodd;stroke:none"
         d="m 5340.75,437.762 130.89,0 0,-114.532 -130.89,0 0,114.532" /><path
         id="path212"
         style="fill:#231f20;fill-opacity:1;fill-rule:evenodd;stroke:none"
         d="m 5415.01,450.352 47.82,0 0,-26.434 -47.82,0 0,26.434" /><path
         id="path214"
         style="fill:#231f20;fill-opacity:1;fill-rule:evenodd;stroke:none"
         d="m 5496.82,417.629 55.38,0 0,-105.727 -55.38,0 0,105.727" /><path
         id="path216"
         style="fill:#231f20;fill-opacity:1;fill-rule:evenodd;stroke:none"
         d="m 5527.02,355.957 94.4,0 0,-55.383 -94.4,0 0,55.383" /><path
         id="path218"
         style="fill:#231f20;fill-opacity:1;fill-rule:evenodd;stroke:none"
         d="m 3045.91,484.453 172.89,0 0,-164.363 -172.89,0 0,164.363" /><path
         id="path220"
         style="fill:#231f20;fill-opacity:1;fill-rule:evenodd;stroke:none"
         d="m 3197.45,394.805 198.51,0 0,-64.043 -198.51,0 0,64.043" /><path
         id="path222"
         style="fill:#231f20;fill-opacity:1;fill-rule:evenodd;stroke:none"
         d="m 3353.27,460.965 98.19,0 0,-140.875 -98.19,0 0,140.875" /><path
         id="path224"
         style="fill:#231f20;fill-opacity:1;fill-rule:evenodd;stroke:none"
         d="m 3474.94,407.605 181.43,0 0,-68.3 -181.43,0 0,68.3" /><path
         id="path226"
         style="fill:#231f20;fill-opacity:1;fill-rule:evenodd;stroke:none"
         d="m 3538.98,450.293 85.38,0 0,-44.824 -85.38,0 0,44.824" /><path
         id="path228"
         style="fill:#231f20;fill-opacity:1;fill-rule:evenodd;stroke:none"
         d="m 3641.43,478.047 96.05,0 0,-155.82 -96.05,0 0,155.82" /><path
         id="path230"
         style="fill:#231f20;fill-opacity:1;fill-rule:evenodd;stroke:none"
         d="m 3724.67,384.133 166.49,0 0,-64.043 -166.49,0 0,64.043" /><path
         id="path232"
         style="fill:#231f20;fill-opacity:1;fill-rule:evenodd;stroke:none"
         d="m 3861.28,420.41 108.86,0 0,-115.265 -108.86,0 0,115.265" /><path
         id="path234"
         style="fill:#231f20;fill-opacity:1;fill-rule:evenodd;stroke:none"
         d="m 957.145,480.996 257.615,0 0,-184.758 -257.615,0 0,184.758" /><path
         id="path236"
         style="fill:#231f20;fill-opacity:1;fill-rule:evenodd;stroke:none"
         d="m 1886.13,465.383 122.3,0 0,-156.137 -122.3,0 0,156.137" /><path
         id="path238"
         style="fill:#231f20;fill-opacity:1;fill-rule:evenodd;stroke:none"
         d="m 2424.79,415.938 169.14,0 0,-96.282 -169.14,0 0,96.282" /><path
         id="path240"
         style="fill:#231f20;fill-opacity:1;fill-rule:evenodd;stroke:none"
         d="m 2536.68,431.551 33.83,0 0,-28.621 -33.83,0 0,28.621" /><path
         id="path242"
         style="fill:#231f20;fill-opacity:1;fill-rule:evenodd;stroke:none"
         d="m 2612.14,392.52 132.72,0 0,-54.649 -132.72,0 0,54.649" /><path
         id="path244"
         style="fill:#231f20;fill-opacity:1;fill-rule:evenodd;stroke:none"
         d="m 657.891,384.715 208.171,0 0,-80.672 -208.171,0 0,80.672" /><path
         id="path246"
         style="fill:#231f20;fill-opacity:1;fill-rule:evenodd;stroke:none"
         d="m 806.215,400.332 83.273,0 0,-67.664 -83.273,0 0,67.664" /><path
         id="path248"
         style="fill:#231f20;fill-opacity:1;fill-rule:evenodd;stroke:none"
         d="m 166.074,413.34 158.731,0 0,-83.274 -158.731,0 0,83.274" /><path
         id="path250"
         style="fill:#231f20;fill-opacity:1;fill-rule:evenodd;stroke:none"
         d="m 267.559,434.16 41.636,0 0,-46.848 -41.636,0 0,46.848" /><path
         id="path252"
         style="fill:#231f20;fill-opacity:1;fill-rule:evenodd;stroke:none"
         d="m 431.5,389.922 -130.113,0 0,-57.254 130.113,0 0,57.254" /><path
         id="path254"
         style="fill:#231f20;fill-opacity:1;fill-rule:evenodd;stroke:none"
         d="m 974.562,503.672 83.268,0 0,-67.664 -83.268,0 0,67.664" /><path
         id="path256"
         style="fill:#231f20;fill-opacity:1;fill-rule:evenodd;stroke:none"
         d="m 1079.57,493.66 83.27,0 0,-67.652 -83.27,0 0,67.652" /><path
         id="path258"
         style="fill:#231f20;fill-opacity:1;fill-rule:evenodd;stroke:none"
         d="m 0,354.688 5669.3,0 L 5669.3,0 0,0 0,354.688" /></g></g></svg>