<?xml version="1.0" encoding="UTF-8" standalone="no"?>
<!-- Created with Inkscape (http://www.inkscape.org/) -->

<svg
   xmlns:dc="http://purl.org/dc/elements/1.1/"
   xmlns:cc="http://creativecommons.org/ns#"
   xmlns:rdf="http://www.w3.org/1999/02/22-rdf-syntax-ns#"
   xmlns:svg="http://www.w3.org/2000/svg"
   xmlns="http://www.w3.org/2000/svg"
   xmlns:sodipodi="http://sodipodi.sourceforge.net/DTD/sodipodi-0.dtd"
   xmlns:inkscape="http://www.inkscape.org/namespaces/inkscape"
   width="632.15546"
   height="670"
   id="svg2"
   version="1.1"
   inkscape:version="0.48.2 r9819"
   sodipodi:docname="New document 1">
  <defs
     id="defs4" />
  <sodipodi:namedview
     id="base"
     pagecolor="#ffffff"
     bordercolor="#666666"
     borderopacity="1.0"
     inkscape:pageopacity="0.0"
     inkscape:pageshadow="2"
     inkscape:zoom="0.98994949"
     inkscape:cx="316.86977"
     inkscape:cy="343.97753"
     inkscape:document-units="px"
     inkscape:current-layer="layer1"
     showgrid="false"
     fit-margin-top="0"
     fit-margin-left="0"
     fit-margin-right="0"
     fit-margin-bottom="0"
     inkscape:window-width="1366"
     inkscape:window-height="719"
     inkscape:window-x="0"
     inkscape:window-y="25"
     inkscape:window-maximized="1" />
  <metadata
     id="metadata7">
    <rdf:RDF>
      <cc:Work
         rdf:about="">
        <dc:format>image/svg+xml</dc:format>
        <dc:type
           rdf:resource="http://purl.org/dc/dcmitype/StillImage" />
        <dc:title></dc:title>
      </cc:Work>
    </rdf:RDF>
  </metadata>
  <g
     inkscape:label="Layer 1"
     inkscape:groupmode="layer"
     id="layer1"
     transform="translate(-58.130232,-165.93361)">
    <g
       id="g2996"
       transform="translate(14.285697,1.4285706e-7)">
      <path
         style="fill:#f8f7f8"
         d="m 43.999973,500.93361 0,-335 315.999997,0 316,0 0,335 0,335 -316,0 -315.999997,0 0,-335 z"
         id="path3002"
         inkscape:connector-curvature="0" />
      <path
         style="fill:#8e0020"
         d="m 85.999973,835.00523 c -21.842684,-3.20037 -33.139041,-12.3558 -39.571328,-32.07162 -1.577734,-4.83597 -1.842048,-10.48287 -2.189242,-46.77186 l -0.394868,-41.27187 19.327719,0.27187 19.327719,0.27186 0.5,40.67836 c 0.480786,39.11519 0.57923,40.78442 2.561789,43.43822 3.785342,5.06694 7.039775,6.76572 13.698982,7.15074 8.232316,0.47597 14.329606,-2.44808 17.239226,-8.26732 1.87013,-3.74026 2.03247,-6.56494 2.5,-43.5 l 0.5,-39.5 19,0 19,0 -0.0199,40 c -0.0177,35.53779 -0.22222,40.72511 -1.8338,46.5 -4.80094,17.20353 -14.70888,26.91942 -32.14633,31.5232 -6.91178,1.82483 -29.303229,2.7494 -37.499997,1.54842 z m 399.499997,-0.72835 c -18.53854,-3.9558 -33.04251,-16.45063 -36.38998,-31.34911 -1.54616,-6.88147 -1.26401,-6.99416 17.51242,-6.99416 17.8476,0 17.08446,-0.22544 21.67234,6.40221 2.92336,4.22309 7.39584,5.98291 15.20522,5.98291 11.00414,0 17.17301,-4.61915 14.37377,-10.76282 -1.70912,-3.75111 -7.23217,-6.15049 -24.09288,-10.46669 -23.93707,-6.12769 -33.29744,-11.43656 -39.31274,-22.29681 -2.73574,-4.93919 -2.96815,-6.14183 -2.96815,-15.3588 0,-8.93333 0.29932,-10.60954 2.80615,-15.71444 4.98182,-10.14496 15.64299,-17.40178 30.03647,-20.44514 10.4547,-2.21055 32.03947,-1.38238 40.15738,1.54077 12.73023,4.58399 22.84026,14.60169 26.11913,25.88061 2.46019,8.46277 2.91005,8.2437 -16.83775,8.19968 l -17.28138,-0.0385 -2.00521,-3.21148 c -3.08639,-4.94307 -7.76334,-6.87875 -15.67134,-6.486 -10.33637,0.51336 -14.13552,5.80049 -8.15244,11.34543 2.67854,2.48238 6.01066,3.63191 27.29277,9.41557 19.83519,5.39043 29.66515,11.46211 34.46709,21.28927 7.47758,15.30285 2.04645,34.89783 -12.3343,44.50093 -13.45762,8.98665 -36.02987,12.5284 -54.59657,8.56659 z m 121,1.02926 c -11.67823,-1.82176 -23.71126,-7.48855 -30.66307,-14.44036 -8.09932,-8.09932 -13.6336,-22.64501 -9.25514,-24.32518 0.86998,-0.33385 8.72724,-0.60699 17.46057,-0.60699 16.96543,0 16.5235,-0.12393 19.89888,5.58004 2.66359,4.50113 8.25955,6.87875 16.05876,6.82307 9.95174,-0.0711 16.01996,-4.20313 14.58264,-9.92986 -0.99566,-3.96705 -5.83557,-6.3384 -21.25044,-10.41183 -22.83435,-6.03406 -30.64397,-9.37319 -37.15854,-15.88776 -6.348,-6.348 -8.57926,-12.22171 -8.61308,-22.67366 -0.0248,-7.66095 0.36251,-9.84032 2.60311,-14.64796 7.02358,-15.07043 23.32695,-22.8684 47.74627,-22.83726 18.02623,0.023 29.32939,3.55581 38.53981,12.04569 6.13141,5.65173 13.15333,19.73824 11.80888,23.68953 -0.31848,0.936 -4.8089,1.25 -17.87571,1.25 l -17.45039,0 -2.01171,-3.4096 c -2.45031,-4.15296 -7.99458,-6.5904 -14.99074,-6.5904 -8.98969,0 -13.85251,4.41708 -10.4984,9.5361 2.28139,3.48185 7.76697,5.97803 19.67119,8.95126 21.96159,5.48517 30.37427,9.07267 37.99813,16.2039 3.31996,3.10543 5.50261,6.29154 6.96415,10.16587 4.6442,12.31104 0.52106,29.86332 -9.04527,38.50593 -5.12217,4.62757 -14.36098,9.26078 -22.25963,11.16307 -6.3574,1.5311 -26.78621,2.70034 -32.26027,1.8464 z m -428.03165,-3.59825 c -0.26813,-0.70085 -0.3707,-27.14928 -0.22793,-58.77428 l 0.25958,-57.5 23.17374,-0.26824 23.17374,-0.26825 1.5116,5.26825 c 0.83138,2.89753 5.18341,18.31824 9.67117,34.26824 4.48777,15.95 8.51607,29.37671 8.95179,29.83713 0.43573,0.46043 1.09353,0.34962 1.46179,-0.24624 0.36825,-0.59585 4.69092,-15.37256 9.60592,-32.83713 4.915,-17.46457 9.37984,-32.76626 9.92187,-34.00376 0.98098,-2.23967 1.09123,-2.25 24.01493,-2.25 l 23.02944,0 -0.258,58.75 -0.25799,58.75 -15.86623,0.27598 c -11.73676,0.20416 -16.2665,-0.0561 -17.40414,-1 -1.34587,-1.11665 -1.45474,-4.70067 -0.87185,-28.7017 0.36633,-15.08414 0.94765,-29.82164 1.29182,-32.75 1.41351,-12.02674 -1.79996,-3.71341 -10.60124,27.42572 -5.09112,18.0125 -9.71483,33.3125 -10.27491,34 -0.71415,0.8766 -4.67914,1.25 -13.27345,1.25 -8.6252,0 -12.53958,-0.37024 -13.21552,-1.25 -0.52823,-0.6875 -5.0749,-15.82907 -10.10372,-33.64793 -5.02881,-17.81887 -9.37672,-32.63137 -9.66203,-32.91667 -1.1935,-1.19351 -1.25057,1.03542 -0.38475,15.02707 0.50073,8.09186 0.78794,23.16686 0.63822,33.5 l -0.2722,18.78753 -16.77207,0.27428 c -12.86926,0.21045 -16.88551,-0.0222 -17.25958,-1 z m 145.10885,0.35063 c -0.29746,-0.4813 8.80041,-26.9188 20.21748,-58.75 l 20.75832,-57.87491 19.40128,-0.27222 c 10.67071,-0.14971 19.76113,0.0876 20.20094,0.52744 1.42676,1.42676 41.87783,115.38229 41.29327,116.32812 -0.91508,1.48063 -36.00357,1.16626 -37.20533,-0.33334 -0.55094,-0.6875 -1.77579,-3.95 -2.72187,-7.25 -0.94608,-3.3 -2.23791,-6.33061 -2.87072,-6.73469 -2.10922,-1.34682 -36.29463,-0.90388 -37.40741,0.48469 -0.55094,0.6875 -1.77579,3.95 -2.72187,7.25 -0.94608,3.3 -2.23791,6.33061 -2.87072,6.73469 -1.6397,1.04702 -35.42197,0.94421 -36.07337,-0.10978 z M 394.87,792.0351 c 1.11564,-0.70674 0.4013,-4.18544 -3.84709,-18.73469 -2.86942,-9.82674 -5.58629,-18.53199 -6.0375,-19.345 -1.15635,-2.08362 -2.05307,0.31079 -7.61176,20.32484 -3.8798,13.96924 -4.4394,16.99832 -3.27633,17.73469 1.80669,1.14385 18.97255,1.16051 20.77268,0.0202 z M 44.019545,576.68361 l 0.01957,-107.25 3.730428,4.49892 c 11.507679,13.87833 25.058378,21.47352 44.029666,24.6787 7.922984,1.33858 11.294661,1.44182 18.684161,0.57214 9.67154,-1.13825 22.6586,-5.00256 23.26249,-6.92176 0.2245,-0.71346 -3.07703,-2.2221 -8.43855,-3.85602 -23.52581,-7.16946 -38.332642,-18.01521 -45.763621,-33.52106 -4.372024,-9.12288 -5.970429,-18.7277 -5.233967,-31.45092 2.156801,-37.26122 28.083458,-73.41654 75.000568,-104.59003 28.79494,-19.13244 61.67923,-33.81123 94.18968,-42.04411 9.60757,-2.433 14.90221,-3.14715 26.55698,-3.58204 41.32665,-1.54207 59.13106,13.18665 48.06708,39.76353 -9.08971,21.83446 -32.00264,49.84316 -93.62967,114.45265 -31.18157,32.69061 -58.85423,62.30668 -71.01287,76 -59.046679,66.49964 -85.115692,112.6303 -80.442572,142.34789 1.92256,12.22606 10.51073,26.83186 19.626254,33.37813 2.384139,1.71216 4.334799,3.48674 4.334799,3.9435 0,0.45676 -11.925,0.83048 -26.5,0.83048 l -26.5,0 0.01957,-107.25 z M 174.40439,683.08826 c 0.29378,-0.47535 3.36047,-1.89296 6.81486,-3.15024 21.66544,-7.88549 51.70454,-25.05962 78.7326,-45.01345 5.95319,-4.39503 11.33142,-7.99096 11.95163,-7.99096 0.81651,0 1.05436,7.79452 0.86206,28.25 l -0.26557,28.25 -49.31486,0.25946 c -27.53471,0.14487 -49.07896,-0.12225 -48.78072,-0.60481 z m 323.59558,-0.10012 c 0,-0.52001 3.2625,-2.65287 7.25,-4.73969 25.2179,-13.19752 46.23056,-36.61434 54.12242,-60.31484 7.61765,-22.87698 4.70846,-43.07218 -8.23203,-57.14554 -6.60972,-7.18837 -7.68354,-6.51092 -8.41007,5.30572 -1.11526,18.13914 -6.32515,36.38894 -15.39805,53.93811 -13.33577,25.79459 -36.52497,48.64725 -56.84189,56.01696 -8.59652,3.11829 -22.99822,3.12254 -29.99038,0.009 -13.15195,-5.85671 -18.55208,-19.02002 -15.53478,-37.8674 5.54817,-34.65621 37.04404,-102.58576 83.34509,-179.75671 30.15154,-50.25422 65.3164,-101.88831 89.33981,-131.18152 4.59243,-5.59983 8.34988,-10.608 8.34988,-11.12927 0,-1.98255 -72.60736,0.21402 -75.9803,2.29861 -0.52071,0.32182 -8.93126,10.80622 -18.69011,23.29866 -9.75884,12.49243 -27.26546,34.66603 -38.90359,49.27465 -131.0132,164.45268 -228.86857,253.87735 -298.30957,272.60877 -12.4637,3.36203 -32.60777,3.92787 -37.8495,1.06317 -5.00158,-2.73344 -6.591,-6.78158 -6.03912,-15.38116 0.38908,-6.06265 1.24159,-8.88523 5.08433,-16.83366 12.62642,-26.117 37.86192,-57.26978 112.20753,-138.51839 70.4075,-76.94484 95.42458,-106.4059 114.95342,-135.37346 17.71631,-26.27899 23.50276,-42.33932 20.08261,-55.73934 -2.22897,-8.73301 -6.83685,-16.02032 -14.55448,-23.01774 -6.32717,-5.73672 -6.4592,-5.95685 -5,-8.33642 2.87781,-4.69295 88.51567,-102.32794 90.49878,-103.17687 1.1,-0.47089 51.3875,-0.74169 111.75,-0.60177 l 109.75,0.25441 0,257.99559 0,257.9956 -88.5,0 c -54.93065,0 -88.5,-0.35863 -88.5,-0.94547 z M 43.999973,290.10028 l 0,-122.16667 111.058427,0 111.05844,0 3.83846,4.25 c 13.8537,15.33901 83.02975,95.41192 83.03644,96.11663 0.009,0.96423 -0.46566,0.84244 -10.68067,-2.73959 -35.85156,-12.57181 -98.37912,-8.58844 -147.20428,9.37778 -61.81202,22.74501 -115.920303,69.76799 -144.864436,125.89494 -3.006545,5.83013 -5.641031,10.78774 -5.854413,11.01691 -0.213382,0.22916 -0.387968,-54.55834 -0.387968,-121.75 z"
         id="path3000"
         inkscape:connector-curvature="0" />
      <path
         style="fill:#041c3d"
         d="M 85.530753,834.89027 C 62.251954,831.22641 49.357011,819.08529 45.445364,797.14825 44.445573,791.54128 44.060217,779.25674 44.034861,752.18361 l -0.03489,-37.25 18.893011,0 c 16.305465,0 18.976143,0.21664 19.5,1.58179 0.333844,0.86998 0.616872,18.75748 0.628951,39.75 0.02052,35.66932 0.149529,38.44928 1.970426,42.46136 2.671522,5.8863 8.621925,8.59175 17.634591,8.01787 7.16265,-0.45609 10.65191,-2.44696 13.87302,-7.91555 1.88516,-3.2005 2.02871,-5.69233 2.5,-43.39547 l 0.5,-40 19,0 19,0 0,39 c 0,26.96587 -0.37226,40.57246 -1.20642,44.096 -4.58627,19.37278 -14.47028,29.85895 -32.85653,34.85826 -7.15188,1.94462 -29.475027,2.82939 -37.906269,1.5024 z M 486.13083,834.4639 c -13.24735,-3.02272 -25.16026,-10.35232 -31.27812,-19.24433 -3.27696,-4.76289 -7.27342,-15.79628 -6.29505,-17.37931 0.30819,-0.49866 8.55839,-0.90665 18.33378,-0.90665 l 17.77345,0 2.41754,3.70583 c 3.72655,5.7124 8.13668,7.799 16.41754,7.76778 11.01378,-0.0415 16.98955,-4.42561 14.59982,-10.71107 -1.42606,-3.75081 -6.93578,-6.26585 -22.42124,-10.23472 -16.39751,-4.20262 -23.67798,-6.87205 -30.40012,-11.1464 -10.06341,-6.39892 -14.90454,-16.72411 -14.05416,-29.97479 1.39049,-21.66678 20.01798,-34.43206 50.18566,-34.39185 17.84615,0.0238 30.40563,4.09683 39.3059,12.74691 4.8512,4.71482 10.41115,15.43389 10.6392,20.5114 l 0.14494,3.22691 -17.11375,0.27303 -17.11374,0.27303 -2.68795,-3.52408 c -3.76632,-4.9379 -7.38529,-6.52198 -14.90004,-6.52198 -9.55984,0 -13.8404,4.10319 -10.599,10.1598 1.55427,2.90418 7.63411,5.30385 24.96461,9.85336 23.33883,6.12678 33.42087,11.98467 38.31631,22.26259 3.22301,6.76667 4.11297,14.09066 2.60134,21.40778 -3.2735,15.84549 -14.05557,25.95981 -32.8228,30.79003 -9.01877,2.32121 -28.02795,2.87898 -36.01412,1.05673 z m 116.36914,-0.0717 c -19.56643,-4.25128 -35.10777,-18.022 -37.14935,-32.91698 l -0.6094,-4.44602 16.48808,-0.2978 c 9.06844,-0.16378 17.18315,-0.16067 18.03268,0.007 0.84954,0.16759 2.71121,2.06754 4.13704,4.22212 4.38972,6.63332 13.02809,9.3564 22.3067,7.03175 8.28199,-2.07495 11.29069,-6.76324 7.66356,-11.9417 -2.19994,-3.14085 -6.24232,-4.71079 -23.80053,-9.24346 -17.76795,-4.58681 -25.80064,-8.13937 -32.43455,-14.34463 -6.95873,-6.50907 -9.48409,-12.75403 -9.51467,-23.52878 -0.0293,-10.31746 2.68958,-17.13916 9.48862,-23.80722 9.79011,-9.60152 23.77489,-13.66472 44.39182,-12.89781 14.37175,0.5346 21.07201,2.2968 29.64164,7.79592 8.8009,5.64752 15.83148,16.19213 16.17971,24.26666 l 0.17865,4.14236 -17.26974,0.2737 -17.26975,0.2737 -2.02407,-3.43055 c -2.60941,-4.42263 -7.34233,-6.61685 -14.27247,-6.61685 -7.00884,0 -10.38003,1.28271 -11.84994,4.50881 -0.97481,2.13947 -0.84198,2.98613 0.82682,5.27008 2.83885,3.8853 6.85515,5.56879 24.35001,10.20665 19.46881,5.16116 28.26519,9.28091 34.41058,16.11606 5.86956,6.52837 8.02492,13.35306 7.38184,23.37371 -1.12014,17.45407 -12.67342,29.61128 -33.28328,35.02309 -8.85523,2.32524 -27.4363,2.82081 -36,0.96016 z M 178.459,831.68361 c -0.26301,-0.6875 -0.36138,-27.125 -0.21861,-58.75 l 0.25958,-57.5 22.43039,-0.26961 c 12.99082,-0.15615 22.82423,0.12423 23.36625,0.66625 0.51472,0.51472 5.27105,16.131 10.56961,34.70285 5.29856,18.57185 10.11698,33.92061 10.70758,34.10836 0.63231,0.20101 4.46231,-11.69549 9.31488,-28.93324 4.53257,-16.10103 8.99935,-31.74961 9.92617,-34.77461 l 1.68512,-5.5 23,0 23,0 0,58.5 0,58.5 -16.5,0 -16.5,0 0.002,-34.15562 c 9.9e-4,-18.78558 -0.26771,-33.98905 -0.59711,-33.78547 -0.3294,0.20358 -4.79139,15.12361 -9.91555,33.15562 -5.12416,18.03201 -9.74806,33.34797 -10.27534,34.03547 -0.67586,0.88124 -4.61644,1.25 -13.35767,1.25 -11.89254,0 -12.44022,-0.0919 -13.40817,-2.25 -0.55504,-1.2375 -4.98065,-16.32276 -9.83469,-33.5228 -11.03141,-39.08921 -11.41946,-39.7724 -10.06903,-17.7272 1.32553,21.63862 1.18904,50.86673 -0.24423,52.3 -1.73526,1.73526 -32.67575,1.68886 -33.34097,-0.05 z m 145.89686,-0.26494 c -0.7604,-1.98159 -2.20929,2.33322 19.13524,-56.98506 10.29115,-28.6 19.27345,-53.575 19.96066,-55.5 l 1.24947,-3.5 19.86915,0 19.86915,0 20.64553,57.5 c 14.46274,40.28024 20.34973,57.87434 19.65778,58.75 -1.13451,1.43572 -33.31927,1.80548 -35.52131,0.4081 -0.70314,-0.44621 -2.279,-3.92682 -3.50191,-7.73469 l -2.22348,-6.92341 -18.36788,-0.27302 c -11.67338,-0.17352 -18.8255,0.10676 -19.62345,0.769 -0.69056,0.57311 -1.82238,3.17097 -2.51515,5.77302 -2.55532,9.59768 -1.71938,9.231 -21.04413,9.231 -14.27059,0 -17.1019,-0.24385 -17.58967,-1.51494 z m 71.25077,-39.90243 c 0.54909,-1.43088 -9.26887,-36.35009 -10.66728,-37.93999 -0.41475,-0.47155 -1.18698,-0.0216 -1.71605,1 -1.85406,3.57988 -10.35763,35.56499 -9.82461,36.95403 0.78587,2.04794 21.42169,2.0349 22.20794,-0.014 z M 44.011062,576.68361 l 0.01109,-107.25 2.659896,3.5 c 5.746647,7.56167 13.867047,14.17121 22.817925,18.57247 12.930973,6.35832 19.577124,7.86485 34.499997,7.82032 11.16199,-0.0333 13.40985,-0.35069 21,-2.96504 5.17701,-1.78317 8.5,-3.47029 8.5,-4.31554 0,-0.86253 -2.84811,-2.2347 -7.52502,-3.62542 -36.618855,-10.88893 -53.552247,-31.83885 -51.662777,-63.91697 2.033773,-34.528 22.99413,-67.0999 62.187797,-96.63838 33.44092,-25.2029 82.16015,-47.13982 118.42622,-53.32405 11.90117,-2.02943 27.48421,-2.05671 37.97583,-0.0665 19.37986,3.67631 28.09795,11.2042 28.09795,24.26202 0,21.4402 -22.42252,51.10883 -99.52146,131.68301 -86.58566,90.48853 -119.04106,130.14291 -137.512263,168.01408 -14.714527,30.16892 -15.284899,50.34105 -1.959906,69.31515 2.692159,3.8335 6.942064,8.64754 9.444233,10.69788 2.50217,2.05034 4.549399,4.12369 4.549399,4.60743 0,0.48375 -11.7,0.87954 -26,0.87954 l -26,0 0.01109,-107.25 z m 131.529268,106.3132 c 0.5278,-0.52584 5.41106,-2.80776 10.85168,-5.07094 24.17394,-10.05581 49.64312,-24.99513 75.26459,-44.14755 5.03614,-3.76459 9.65565,-6.84471 10.26557,-6.84471 0.79203,0 1.03305,8.07346 0.84337,28.25 l -0.26557,28.25 -48.95964,0.25964 c -31.14194,0.16515 -48.6104,-0.0883 -48,-0.69644 z M 44.023489,290.17926 l -0.02352,-122.25434 111.221011,0.25434 111.22101,0.25435 11.02899,12.55642 c 6.06594,6.90603 21.58073,24.68103 34.4773,39.5 12.89656,14.81897 27.47382,31.56632 32.3939,37.21634 4.92008,5.65002 8.67523,10.54313 8.34478,10.87359 -0.33046,0.33045 -3.65772,-0.62348 -7.39391,-2.11985 -26.95201,-10.79448 -75.77629,-11.03542 -120.5092,-0.59471 -73.41892,17.13606 -140.013344,68.64915 -174.804404,135.21726 l -5.932445,11.35095 -0.02352,-122.25435 z"
         id="path2998"
         inkscape:connector-curvature="0" />
    </g>
  </g>
</svg>
