<?xml version="1.0" encoding="UTF-8" standalone="no"?>
<svg
   xmlns:dc="http://purl.org/dc/elements/1.1/"
   xmlns:cc="http://creativecommons.org/ns#"
   xmlns:rdf="http://www.w3.org/1999/02/22-rdf-syntax-ns#"
   xmlns:svg="http://www.w3.org/2000/svg"
   xmlns="http://www.w3.org/2000/svg"
   xmlns:sodipodi="http://sodipodi.sourceforge.net/DTD/sodipodi-0.dtd"
   xmlns:inkscape="http://www.inkscape.org/namespaces/inkscape"
   width="78.762596"
   height="85.982193"
   viewBox="0 0 63.010077 68.785754"
   version="1.1"
   id="svg2"
   inkscape:version="0.48.1 "
   sodipodi:docname="Minnesota_Duluth_Bulldogs.svg">
  <metadata
     id="metadata60">
    <rdf:RDF>
      <cc:Work
         rdf:about="">
        <dc:format>image/svg+xml</dc:format>
        <dc:type
           rdf:resource="http://purl.org/dc/dcmitype/StillImage" />
      </cc:Work>
    </rdf:RDF>
  </metadata>
  <defs
     id="defs58" />
  <sodipodi:namedview
     pagecolor="#ffffff"
     bordercolor="#666666"
     borderopacity="1"
     objecttolerance="10"
     gridtolerance="10"
     guidetolerance="10"
     inkscape:pageopacity="0"
     inkscape:pageshadow="2"
     inkscape:window-width="1680"
     inkscape:window-height="994"
     id="namedview56"
     showgrid="false"
     fit-margin-top="0"
     fit-margin-left="0"
     fit-margin-right="0"
     fit-margin-bottom="0"
     inkscape:zoom="6.3899506"
     inkscape:cx="39.381298"
     inkscape:cy="42.991096"
     inkscape:window-x="-4"
     inkscape:window-y="-4"
     inkscape:window-maximized="1"
     inkscape:current-layer="svg2" />
  <path
     style="fill:#d2d2d2;stroke:#d2d2d2;stroke-opacity:1;fill-opacity:1"
     inkscape:connector-curvature="0"
     d="m 6.7179185,40.281534 c 0.8087159,0.01498 1.6623604,-0.0037 2.4049313,0.364422 0.1822106,0.768779 0.2296353,1.560023 0.27706,2.346274 0.033696,0.607785 -0.2171552,1.253011 0.073633,1.830843 0.4580227,0.839916 1.2954431,1.364084 1.9107161,2.074206 0.355685,0.416839 0.80622,0.730091 1.223058,1.078288 -0.185955,0.339461 -0.395622,0.671434 -0.67393,0.94475 C 10.685369,47.792109 10.056367,46.179669 9.1053775,44.821825 8.5138168,43.450253 8.0770104,42.012536 7.7500296,40.557346 7.4143127,40.435041 7.0586275,40.38512 6.7179185,40.281534 z"
     id="path36" />
  <path
     style="fill:#892034;stroke:#892034;stroke-opacity:1"
     inkscape:connector-curvature="0"
     d="m 6.545692,42.364477 c 0.275812,0.650217 0.4929672,1.321651 0.6065369,2.020542 -0.4380545,-0.114818 -0.8985732,-0.26458 -1.3366276,-0.0624 0.046177,-0.713867 0.4043579,-1.340372 0.7300907,-1.958141 z"
     id="path38" />
  <path
     style="fill:#892034;stroke:#892034;stroke-opacity:1"
     inkscape:connector-curvature="0"
     d="m 8.181844,46.023667 c 0.7962356,1.272978 2.036766,2.17904 3.269808,2.993996 -0.153506,0.777515 -0.609033,1.510102 -1.304179,1.909468 C 9.5758804,51.242879 8.8957104,51.262847 8.2617171,51.18547 8.0795065,50.929627 7.7874702,50.697495 7.8061905,50.353042 7.7163331,49.971148 8.2642132,49.856331 8.2130444,49.471941 8.4539119,48.327508 8.0944827,47.176836 8.181844,46.023667 z"
     id="path44" />
  <path
     style="fill:#892034;stroke:#892034;stroke-opacity:1"
     inkscape:connector-curvature="0"
     d="m 41.513917,60.465734 c 0.445542,-0.05491 0.878605,-0.170978 1.309171,-0.293284 -0.269572,0.511688 -0.766283,0.83118 -1.214322,1.169393 -0.194691,-0.203427 -0.370661,-0.423078 -0.531656,-0.652713 0.123554,-0.114818 0.257092,-0.224644 0.436807,-0.223396 z"
     id="path48" />
  <path
     style="fill:#892034;stroke:#892034;stroke-opacity:1"
     inkscape:connector-curvature="0"
     d="m 31.482346,61.655096 c 0.230883,-0.331973 0.562856,-0.565352 0.894829,-0.785004 0.564104,0.225892 1.168145,0.348197 1.777178,0.335717 1.015887,-0.0037 2.033022,0 3.048909,-0.0062 -0.52916,0.622761 -0.595305,1.481398 -1.088272,2.121631 -0.128546,0.189699 -0.37815,0.218403 -0.585321,0.248356 -0.42807,0.03619 -0.833676,0.198435 -1.264243,0.215907 0.02995,-0.414342 0.27082,-0.780011 0.27082,-1.199346 -0.383141,-0.470502 -0.846156,-0.904813 -1.433973,-1.097008 -0.542888,-0.141026 -1.087024,0.08611 -1.619927,0.165987 z"
     id="path50" />
  <path
     style="fill:#000000"
     inkscape:connector-curvature="0"
     d="M 29.7833,0.57458417 C 30.70933,0.33746069 31.66281,0.15025795 32.62254,0.18021039 32.21818,1.4843895 31.63661,2.7386479 30.86159,3.8643604 c -0.4443,0.7051303 -0.94101,1.3840523 -1.50886,1.9955813 -0.68766,0.619017 -1.32914,1.3029311 -2.08544,1.8395789 -0.0299,0.043681 -0.0911,0.131042 -0.12105,0.1747226 -1.3229,0.9335177 -2.62708,1.9419165 -4.14467,2.5472058 -0.15725,0.05366 -0.26334,0.184706 -0.37316,0.300772 0.61902,0.253348 1.26424,0.411846 1.91945,0.5354 0.67518,0.262084 1.41775,0.02122 2.1079,0.204675 0.62776,-0.04992 1.25551,-0.13853 1.8895,-0.104834 1.80963,-1.8333386 4.10099,-3.0950851 6.36864,-4.2707183 0.46177,-0.3107566 0.99592,-0.5041994 1.45519,-0.8199481 0.68516,-0.2670759 1.36408,-0.549128 2.03302,-0.8611326 0.88734,-0.2471076 1.83085,-0.681418 2.75688,-0.3469491 0.32573,0.1634904 0.7201,0.1048336 1.0346,0.2995244 0.52292,0.3095086 1.06082,0.5940567 1.57875,0.9123014 0.68141,0.4380544 1.26174,1.0071508 1.79714,1.6099436 0.42807,0.341957 0.96597,0.4967113 1.43897,0.7625392 1.50885,0.7375788 3.02519,1.4601815 4.5615,2.1353595 0.2209,0.408102 -0.16598,0.670186 -0.43056,0.907309 -0.16849,0.131042 -0.33697,0.263332 -0.50171,0.398118 -1.58498,0.244612 -3.09134,0.838668 -4.68506,1.044591 -0.36067,0.07863 -0.70887,0.210915 -1.07329,0.274564 0.70638,0.5354 1.40027,1.111985 1.94191,1.817115 0.44055,0.476743 0.80747,1.017135 1.12946,1.578743 0.42433,0.624009 0.68641,1.346612 0.99717,2.033022 0.42682,0.255844 0.93726,0.330725 1.3516,0.609033 0.17847,0.112321 0.38065,0.179714 0.57908,0.250851 0.0299,0.03994 0.0886,0.11981 0.11856,0.159747 0.79749,0.159746 1.37033,0.807468 1.99683,1.261746 0.56036,0.08112 1.07455,0.560361 1.11448,1.140689 0.0724,0.879853 -0.23712,1.733497 -0.20717,2.61335 -0.32074,0.542888 -0.24586,1.226802 -0.49297,1.804635 -0.20217,0.448038 -0.19344,0.970958 -0.009,1.422741 0.13853,0.07862 0.2833,0.147266 0.43431,0.207171 0.30702,0.04243 0.60654,0.127298 0.89109,0.250851 0.2858,0.2209 0.55287,0.460519 0.76129,0.760044 0.37441,1.054575 0.17098,2.19776 -0.009,3.271056 0.70014,0.375653 1.32041,0.884845 1.92819,1.392788 0.15475,-0.173475 0.26957,-0.376902 0.39313,-0.57284 0.0799,-0.304517 0.15475,-0.620266 0.34819,-0.874861 0.1298,-0.604041 0.39812,-1.160657 0.62152,-1.733498 0.13603,-0.26458 0.41683,-0.650217 0.7513,-0.44055 0.5042,0.451782 0.35444,1.196849 0.46551,1.79465 0.19345,0.858637 0.25959,1.73849 0.36942,2.610854 0.0512,0.325733 0.0112,0.676426 0.156,0.982191 0.0524,0.728843 -0.0661,1.506358 0.28704,2.180288 0.15226,0.09984 0.30202,0.203427 0.45428,0.304516 0.27831,0.129794 0.60529,0.199683 0.8187,0.436807 0.25709,0.375653 0.47425,0.780011 0.77627,1.125712 0.0437,0.81246 0.0112,1.648632 -0.33946,2.399939 -0.55787,0.566601 -1.09326,1.185618 -1.84457,1.49887 -2.10416,0.984687 -4.39802,1.435221 -6.617,2.067967 0.0574,0.197187 0.10858,0.401862 0.21342,0.582824 0.18221,0.439303 0.22963,0.917294 0.37939,1.36658 0.11981,0.416838 0.161,0.868621 0.38689,1.248019 0.21715,0.614025 0.16599,1.279218 0.31824,1.909468 0.0162,0.57908 0.0487,1.156913 0.0799,1.735993 -0.20467,0.735083 -0.025,1.491382 -0.0574,2.241441 -0.002,0.706378 0.0112,1.528822 -0.51044,2.076702 -0.49546,0.509192 -0.9123,1.153169 -1.62741,1.37282 -0.59531,0.360678 -1.32664,0.250852 -1.96813,0.445543 -0.79873,0.03869 -1.6037,0.106082 -2.40118,0.0087 -0.53415,-0.183459 -1.12197,-0.194691 -1.62243,-0.477991 -0.43306,-0.07738 -0.76254,-0.370661 -1.15192,-0.546632 -0.33821,0.81246 -1.13819,1.265491 -1.62617,1.969373 -0.38813,1.188113 -1.40776,2.030526 -2.36374,2.771849 -0.10733,0.57908 -0.15476,1.166897 -0.22465,1.752217 -0.15849,0.82494 -0.28829,1.657369 -0.33446,2.494789 -0.87487,-0.11981 -1.50012,-0.883597 -2.38122,-0.989679 -0.76254,-0.224643 -1.33164,-0.827436 -1.93693,-1.314163 -0.38938,-0.168482 -0.76378,-0.453031 -1.21182,-0.393126 -0.24462,0.330725 -0.65646,0.175971 -1.00091,0.199683 -0.23713,0.0075 -0.45054,0.122306 -0.6627,0.215907 -0.11732,0.134786 -0.24461,0.260836 -0.38564,0.369414 -0.33197,0.461767 -0.50919,0.992174 -0.72385,1.510102 -0.24087,0.746315 -0.0637,1.646136 -0.62276,2.267649 -0.64772,0.213411 -0.88984,-0.617769 -1.31541,-0.933517 -0.21341,-0.309509 -0.50046,-0.557865 -0.72011,-0.861133 -0.27581,-0.262084 -0.51668,-0.557864 -0.76878,-0.839916 -0.29453,-0.302021 -0.5329,-0.653962 -0.83367,-0.949742 -1.24053,0.01747 -2.46609,0.265828 -3.70163,0.350693 -0.39936,0.0337 -0.81994,-0.0312 -1.19809,0.128546 -1.53382,0.06739 -3.08511,-0.03245 -4.586471,-0.363174 -0.41559,-0.154754 -0.802476,-0.383141 -1.246771,-0.45303 -0.973454,-0.346949 -1.954396,-0.742571 -2.778088,-1.380308 -0.207171,-0.123554 -0.410598,-0.2521 -0.624009,-0.360678 C 13.087998,62.224192 11.922349,60.667913 10.770428,59.261397 10.547033,59.033009 10.440951,58.727245 10.264981,58.466409 9.884334,57.141014 10.418487,55.741985 10.032849,54.41659 8.623836,53.242204 7.202343,52.070315 5.864468,50.811065 5.576175,50.683767 5.237962,50.711225 4.954662,50.562709 4.399294,50.449139 3.832694,50.397971 3.277326,50.283153 2.537251,50.043534 1.741015,50.056014 1.005932,49.795178 0.782537,49.704078 0.476773,49.755238 0.305794,49.578023 0.242144,49.078815 0.703912,48.736858 0.922315,48.336245 1.37285,47.984303 1.733527,47.542505 2.10918,47.115683 c 0.272068,-0.269572 0.584073,-0.51668 0.740075,-0.878605 0.05491,-0.02995 0.165987,-0.09111 0.2209,-0.121058 0.0337,-0.0624 0.09984,-0.188451 0.13229,-0.250852 C 3.886359,45.19623 4.613953,44.558493 5.209258,43.807186 5.086952,43.205641 5.000839,42.577888 4.661378,42.051224 3.891351,41.972604 3.00401,42.101144 2.337568,41.653107 1.954426,41.579477 1.540084,41.566997 1.218095,41.318638 0.992204,41.230028 0.766313,41.142667 0.540421,41.05281 0.388163,40.863111 0.222177,40.67466 0.176,40.428801 c 0.307013,-0.399366 0.738827,-0.657706 1.153169,-0.92603 0.416838,-0.39687 0.959726,-0.607785 1.423989,-0.937262 0.591561,-0.381893 1.144433,-0.874861 1.857051,-1.015887 0.08487,-0.08112 0.172227,-0.162242 0.259588,-0.242115 0.214659,-2.091679 0.137282,-4.199582 0.338213,-6.292508 0.164738,-0.66769 0.17597,-1.387797 0.514183,-2.000574 0.0624,-0.511687 0.212164,-1.008399 0.370662,-1.496374 0.127298,-0.500455 0.139778,-1.037103 0.371909,-1.50511 0.14477,-0.365669 0.175971,-0.777515 0.400614,-1.10824 C 7.327145,23.460744 8.09218,22.14034 8.687485,20.750048 8.907136,20.234616 9.296518,19.740401 9.239109,19.153833 9.041922,18.811876 8.994497,18.405022 8.796063,18.061817 8.52025,17.580082 8.432889,16.984777 8.605116,16.451873 c 0.292036,-0.616521 0.614025,-1.218066 0.919789,-1.829595 0.453031,-0.762539 0.871117,-1.552535 1.404021,-2.263905 0.127298,-0.143522 0.08237,-0.335717 0.04992,-0.502951 -0.218403,-1.160657 -0.319493,-2.3525149 -0.129794,-3.5244041 0.148514,-1.6848247 0.93851,-3.2872802 2.1728,-4.4429451 C 14.23867,2.7923127 15.7313,1.993581 17.346235,1.6978006 19.122165,1.1399365 21.0179,1.5705028 22.81505,1.1511686 25.13637,0.96895795 27.47141,0.88284469 29.78274,0.57458417 M 29.23167,1.997325 C 28.6476,2.1807837 28.0186,2.1882718 27.452,2.4278913 c -0.44305,0.1909468 -0.93227,0.2271394 -1.3828,0.3981179 -0.47051,0.1772186 -0.98344,0.067393 -1.46767,0.1634904 -0.33572,0.067393 -0.67893,0.077377 -1.01839,0.1148177 -1.37157,0.2633318 -2.77434,0.2433635 -4.163385,0.3357169 -1.800891,0.2433636 -3.704119,0.614025 -5.113131,1.8558032 -0.798732,0.8436604 -1.51135,1.8320909 -1.734746,2.9952439 -0.05991,0.6402334 0.04992,1.2804668 0.04368,1.9219487 0.04618,0.05616 0.13853,0.16973 0.184707,0.225891 0.05366,0.707626 0.14477,1.41026 0.195939,2.117887 0.323236,0.225891 0.252099,0.658954 0.413094,0.979694 0.27706,0.771276 0.746315,1.451446 1.060815,2.206497 0.506696,0.896077 1.094512,1.744729 1.636152,2.618342 0.05866,0.05991 0.177219,0.179715 0.235876,0.239619 -0.04243,-0.01747 -0.129794,-0.05366 -0.173475,-0.07114 -1.219314,-1.316659 -2.417411,-2.660775 -3.680406,-3.937497 -0.108577,-0.118562 -0.245859,-0.204675 -0.376901,-0.294533 -0.351942,0.304517 -0.487976,0.758796 -0.740075,1.135697 -0.195939,0.542888 -0.594057,0.999663 -0.677674,1.586231 0.198435,1.080784 0.955982,1.925693 1.53631,2.82177 0.380646,0.489223 0.783756,0.959726 1.208082,1.411508 C 12.684199,20.958464 12.014013,20.476729 11.23525,20.24335 10.946958,20.1485 10.58628,19.888912 10.305476,20.133524 9.766332,20.989665 9.448087,21.969359 9.277109,22.962781 9.007537,23.726569 8.985072,24.546517 8.791629,25.329024 8.58945,25.843208 8.57073,26.411056 8.326119,26.911511 7.894304,27.89495 7.581052,28.923317 7.291511,29.955428 7.035668,30.625614 6.984499,31.35196 6.762352,32.03213 c 0.03494,0.992175 -0.183459,1.973117 -0.175971,2.962796 0.198435,1.100752 0.04119,2.251425 0.406854,3.324721 0.349445,0.328228 0.842412,0.455526 1.301683,0.557864 1.04584,0.299524 2.170304,0.509191 3.012717,1.248018 0.658953,0.66145 1.190609,1.440213 1.653624,2.246433 -0.222147,-0.237123 -0.454279,-0.472999 -0.760043,-0.599049 -0.190947,0.08736 -0.398118,0.0961 -0.604041,0.07987 -0.242116,-0.208419 -0.517928,-0.370661 -0.762539,-0.575336 -0.0624,-0.01248 -0.185955,-0.03744 -0.248356,-0.04992 -0.108577,1.153169 0.05117,2.32381 0.449287,3.408338 0.524167,1.048336 1.054575,2.114143 1.793402,3.030189 0.13853,-0.475495 0.326981,-0.939758 0.527912,-1.390293 0.285796,-0.340709 0.228387,-0.817452 0.40935,-1.205585 0.200931,-0.429319 0.263332,-0.904814 0.375653,-1.36034 0.12605,-0.660202 0.489224,-1.246771 0.586569,-1.913212 0.04867,-0.410598 0.24586,-0.786252 0.2833,-1.19685 0.02871,-1.042095 0.319493,-2.05923 0.298276,-3.105069 0.102338,-0.746315 0.07863,-1.495126 -0.0012,-2.241441 0.01997,-1.577495 -0.410598,-3.103822 -0.602792,-4.658853 -0.24586,-0.869868 -0.253348,-1.783418 -0.489224,-2.653287 -0.148514,-0.652713 -0.15725,-1.329139 -0.339461,-1.974364 -0.04493,-0.137283 -0.04618,-0.283301 -0.01123,-0.420583 0.02371,0.14477 0.04368,0.290789 0.06115,0.436807 0.631497,1.79465 1.160657,3.630485 1.859547,5.401423 0.142275,0.416838 0.51668,0.70513 0.620266,1.136945 0.330724,0.881101 0.391877,1.835835 0.405606,2.769352 0.117313,0.12605 0.178466,0.274564 0.18221,0.445543 0.06365,0.897325 0.04493,1.80713 -0.13229,2.690727 -0.15101,1.641144 -0.631497,3.232368 -1.225554,4.759942 -0.222147,0.775019 -0.643977,1.475158 -0.884845,2.240193 1.302931,-1.276723 2.623335,-2.558438 3.666678,-4.064796 0.27082,-0.399366 0.670186,-0.691402 0.916046,-1.109488 0.469254,-0.747563 1.124464,-1.352852 1.619924,-2.080447 0.27082,-0.431814 0.78501,-0.650217 0.99717,-1.129456 1.1619,-1.140689 2.35751,-2.290114 3.79772,-3.076365 1.16315,-0.722603 2.39994,-1.33538 3.70287,-1.759706 0.45428,-0.355685 1.0683,-0.364421 1.59497,-0.565352 0.90731,-0.163491 1.7909,-0.450535 2.71069,-0.54164 1.44396,-0.406854 2.96779,-0.272068 4.43671,-0.54788 1.10824,-0.159747 2.2352,-0.174723 3.3372,-0.39063 1.26799,-0.207171 2.5784,-0.189699 3.80895,-0.604041 -1.89948,0.06115 -3.80022,0.08362 -5.6997,0.07363 -0.52167,-0.15725 -1.0708,-0.128546 -1.59996,-0.243363 -0.58782,-0.12605 -1.19061,-0.143522 -1.78966,-0.143522 -0.48173,0.02122 -0.95972,-0.189699 -1.44021,-0.05741 -0.49546,0.134786 -1.01464,0.01622 -1.51509,0.106081 -0.58158,0.249604 -1.23429,0.194691 -1.82461,0.41559 -0.53664,0.22714 -1.11822,0.323237 -1.69106,0.40935 -0.33572,-0.01997 -0.65147,-0.152258 -0.96347,-0.267076 -0.22589,-0.240867 -0.54663,-0.45927 -0.54414,-0.828684 -0.0936,-0.919789 0.50795,-1.683576 0.96347,-2.419907 0.24212,-0.328229 0.38065,-0.717611 0.61403,-1.050832 0.0175,-0.07239 0.0512,-0.215907 0.0686,-0.287044 -0.1897,-0.170978 -0.4106,-0.313252 -0.67144,-0.333221 -0.41559,-0.03619 -0.80247,-0.189698 -1.18936,-0.335717 -0.0861,-0.259587 -0.16723,-0.521671 -0.26583,-0.776267 -0.20592,-1.6374 0.78501,-3.070125 1.64489,-4.365568 0.45303,-0.841164 1.24677,-1.416501 1.80713,-2.174048 -0.14477,0.505448 -0.24835,1.023375 -0.42557,1.520086 -0.0886,0.582825 -0.32698,1.235539 -0.0324,1.792155 0.74132,0.167234 1.49388,0.294532 2.24893,0.386885 1.06456,-0.0075 2.07046,0.391878 3.11755,0.526664 0.62026,0.06365 1.20059,0.312005 1.80713,0.445543 1.65487,0.661449 2.42115,2.428643 3.81769,3.435794 0.67892,0.485479 1.1619,1.176881 1.6686,1.827099 0.80122,1.009647 2.09916,1.401524 3.30849,1.667352 0.60779,-0.172226 1.25925,-0.162242 1.83833,-0.439302 -0.1535,-0.7875 -0.0724,-1.596216 0.0749,-2.376227 0.34446,-0.916045 1.18313,-1.88326 0.69265,-2.899147 -0.88484,-0.339461 -1.82709,-0.0062 -2.73565,-0.02371 -0.34196,-0.03494 -0.78501,-0.06365 -0.94101,-0.426822 -0.52167,-1.068304 -1.15941,-2.076703 -1.80838,-3.070125 -0.34695,-0.430567 -0.57908,-0.983439 -1.07204,-1.272979 -0.70638,-0.450534 -1.34911,-0.990926 -2.05674,-1.438965 0.10983,0.03619 0.22215,0.07239 0.33322,0.108578 0.5666,0.41559 1.20434,0.72385 1.79091,1.111984 1.03585,0.713866 2.14909,1.322899 3.09883,2.15408 0.22963,0.174722 0.26333,0.477991 0.39936,0.713866 0.24586,0.388134 0.39937,0.828684 0.69016,1.190609 0.86737,0.05367 1.73599,0.164739 2.56218,0.450535 0.34445,0.318245 0.65771,0.726347 0.63649,1.223058 -0.0399,0.852396 -0.44305,1.6374 -0.51918,2.484804 -0.10358,0.676426 -0.17721,1.374069 -0.0162,2.047998 0.49671,-0.04742 0.99842,-0.0287 1.49638,-0.06614 0.0924,-0.343205 0.10358,-0.69889 0.16598,-1.047087 0.2259,-0.303268 0.33697,-0.675178 0.57284,-0.970958 0.53166,-0.723851 1.15567,-1.400277 1.50886,-2.237697 0.21091,-0.433062 0.19719,-0.954734 0.015,-1.395284 -0.0998,-0.129794 -0.19095,-0.26458 -0.27706,-0.400614 -1.0371,-0.577833 -2.27139,-0.269572 -3.37464,-0.616521 -1.01339,-0.162243 -1.99808,-0.718859 -2.50103,-1.636152 -0.26209,-0.423078 -0.21466,-0.958478 -0.48423,-1.377812 -0.38065,-0.984687 -1.0396,-1.830843 -1.75846,-2.590886 -0.39313,-0.428071 -0.91729,-0.693899 -1.419,-0.968463 -1.73849,-0.8187 -3.63547,-1.229298 -5.53621,-1.446453 -0.5354,-0.08237 -1.06081,-0.259588 -1.60994,-0.234627 -0.89857,-0.04867 -1.80339,0.254595 -2.69322,0.0337 -0.47924,-0.09735 -0.95224,0.122306 -1.43398,0.08362 -0.91355,-0.02995 -1.82959,-0.121057 -2.72816,-0.290788 -0.6652,-0.202179 -1.36783,-0.239619 -2.02928,-0.455527 -0.66769,-0.202179 -1.37781,-0.210915 -2.03926,-0.435558 -0.55163,-0.142274 -1.16316,-0.05741 -1.6736,-0.348197 -1.258,-0.496711 -2.55095,-0.894829 -3.82892,-1.342868 0.40561,1.054576 1.13944,1.961885 1.4814,3.047661 0.52417,0.894829 0.88485,1.873275 1.41276,2.763112 -0.0936,-0.0337 -0.18596,-0.06864 -0.27831,-0.102337 -0.36442,-0.505447 -0.89982,-0.858637 -1.32789,-1.307923 -0.9123,-0.725099 -1.415254,-1.800891 -1.913214,-2.82177 -1.00715,-0.761291 -2.156575,-1.466421 -2.724423,-2.6470464 -0.10109,-0.274564 -0.07987,-0.5765844 -0.170979,-0.8536445 -0.203427,-0.5216717 -0.159746,-1.092016 -0.279556,-1.6324079 0.433062,0.683914 0.770027,1.4976219 1.478902,1.9469085 0.474247,0.2383715 0.985934,0.4480386 1.525078,0.4567747 C 20.30846,9.6002574 21.24198,9.1334987 22.15553,8.7728214 22.50123,8.5644023 22.85941,8.3771996 23.25129,8.26987 23.29619,8.218701 23.38608,8.1163638 23.43225,8.065195 24.59666,7.6521009 25.64749,6.9681869 26.72702,6.3716342 28.01373,5.5254778 29.24303,4.5445354 30.18029,3.3102453 30.7419,2.5040255 31.38587,1.7577105 31.94748,0.9514907 31.02145,1.246023 30.17155,1.7414863 29.2318,1.99733 m 8.71615,4.8647754 c -0.8761,0.619017 -1.89823,0.9734542 -2.79556,1.5562788 -1.46642,0.9260296 -2.87668,1.9606368 -4.1197,3.1724628 0.87361,-0.01747 1.74972,0.04368 2.62083,-0.04493 0.57284,-0.04368 1.15442,-0.02496 1.71603,0.103586 0.4705,0.107329 0.9747,0.142274 1.43023,-0.04368 0.0549,0.04119 0.16224,0.121058 0.21715,0.162242 0.19719,-0.02246 0.39687,-0.04618 0.59406,-0.08237 -0.0824,-0.04368 -0.24461,-0.133538 -0.32698,-0.178467 -0.0325,-0.0599 -0.0986,-0.180962 -0.13104,-0.240867 0.0861,-0.07488 0.17472,-0.148514 0.26208,-0.223395 0.21591,-0.01248 0.43057,-0.02621 0.64772,-0.04368 -0.46925,-0.65521 -1.00216,-1.2654905 -1.39778,-1.9718689 0.005,-0.046177 0.0137,-0.139778 0.0175,-0.1872027 0.74632,0.8823489 1.70355,1.5924716 2.78683,2.0005736 0.48797,0.284548 1.06705,0.30826 1.58997,0.500455 0.96722,0.142274 1.9569,0.242116 2.93285,0.141026 2.26889,-0.463015 4.59769,-0.351941 6.8928,-0.5666 C 50.37071,10.748429 49.83281,10.703501 49.3049,10.611147 48.08309,10.24423 46.75894,10.331591 45.56833,9.8461121 45.31623,9.7762231 45.0217,9.7899511 44.83325,9.5802842 43.77743,8.6430225 43.17838,7.3288592 42.30726,6.2380912 41.9054,5.8724219 41.47483,5.4281273 40.88951,5.4343674 39.7925,5.6178261 38.86897,6.2805238 37.94793,6.8621004 m -4.8448,14.8052406 c -0.75131,0.686411 -0.92728,1.737242 -1.06706,2.69572 -0.0212,0.882349 -0.0474,1.772186 0.0749,2.649543 0.0512,0.245859 -0.02,0.557864 0.20967,0.730091 0.85988,0.109825 1.731,0.05117 2.59463,0.114817 0.63274,0.167235 1.30418,0.08362 1.9519,0.06365 -0.006,-0.04368 -0.0187,-0.129794 -0.025,-0.172226 -0.2808,-0.203427 -0.19594,-0.575337 -0.1922,-0.871117 0.0162,-0.500455 0.26209,-0.949742 0.46302,-1.396533 0.35568,-0.550376 0.74631,-1.084528 1.04334,-1.6686 -0.8137,-0.66769 -1.62367,-1.545047 -2.7394,-1.611192 -0.75879,-0.218403 -1.51759,-0.495463 -2.31382,-0.534152 m 6.23385,3.591797 c -0.10733,0.54788 -0.33572,1.060816 -0.44055,1.607448 0.53041,0.136034 0.9772,-0.197187 1.31541,-0.564105 -0.23962,-0.351941 -0.51044,-0.678922 -0.7588,-1.024623 -0.0287,-0.0037 -0.0874,-0.01373 -0.11606,-0.01872 m 11.87988,3.591797 c 0.47051,-0.06365 0.94101,-0.174723 1.42025,-0.121058 0.30576,0.111074 0.63774,0.09859 0.94974,0.187203 0.42433,0.16973 0.83867,0.374405 1.15317,0.716362 0.10234,0.253348 0.20343,0.507944 0.312,0.758795 -0.0549,0.104834 -0.10982,0.208419 -0.16349,0.314501 0.15351,-0.121058 0.29953,-0.249604 0.4443,-0.381894 -0.0624,-0.41559 -0.13853,-0.888589 -0.51918,-1.13944 -0.468,-0.429319 -1.12821,-0.459271 -1.72601,-0.52292 -0.62775,-0.129794 -1.26174,0.04243 -1.87078,0.188451 m -4.44793,0.917293 c -0.57784,0.307013 -1.25426,0.269572 -1.86205,0.489223 -1.02212,0.13229 -2.0455,0.283301 -3.02894,0.609033 -0.62026,0.263332 -1.31915,0.193443 -1.95315,0.410598 -0.45677,0.169731 -0.941,0.237124 -1.40776,0.376902 -0.94725,0.297028 -1.96563,0.224643 -2.91287,0.521672 -2.27639,0.413094 -4.50909,1.067055 -6.62698,2.003069 -1.78841,0.730091 -3.4021,1.809626 -4.98958,2.89665 -1.11947,0.856141 -1.66985,2.218977 -2.65828,3.198671 -0.36442,0.350693 -0.65271,0.76878 -0.93976,1.181874 -0.741318,0.960974 -1.523825,1.889499 -2.312573,2.810537 -0.501703,0.537896 -0.911053,1.175633 -1.520086,1.604951 -0.451783,0.37191 -0.879853,0.771276 -1.299187,1.180626 -1.387797,1.411508 -2.514757,3.107565 -3.118798,4.998313 -0.08112,0.411846 -0.173475,0.822444 -0.292036,1.225554 -0.12605,0.581576 0.02621,1.279219 -0.408102,1.753466 -0.05242,0.5666 0.103585,1.118224 0.149762,1.677336 0.0936,0.91355 0.360677,1.847067 0.958478,2.562182 0.01498,0.0624 0.04493,0.187203 0.06115,0.249603 0.214659,0.290789 0.365669,0.626506 0.622761,0.88859 0.79374,0.86862 1.910716,1.354099 3.012716,1.701048 0.438055,0.248356 0.965966,0.253348 1.406517,0.496712 0.482983,0.252099 1.039599,0.218403 1.565015,0.284548 0.450534,0.04742 0.877353,0.272068 1.340373,0.202179 1.16065,-0.09735 2.32256,0.13853 3.48197,-0.01123 0.50919,-0.02621 0.98968,-0.235876 1.50136,-0.253348 0.69765,-0.04243 1.37907,-0.193443 2.04176,-0.406854 0.92978,-0.506695 1.78717,-1.134449 2.6458,-1.75097 1.68108,-1.209329 3.21864,-2.665767 4.31066,-4.437953 0.4705,-0.809964 0.81994,-1.677336 1.22305,-2.519749 1.30044,-2.855466 2.677,-5.689715 4.42922,-8.303065 0.1897,-0.213412 0.27332,-0.486728 0.34321,-0.757548 0.0437,-0.02122 0.13104,-0.0649 0.17472,-0.08611 0.43431,-0.752555 0.89857,-1.49263 1.47391,-2.147839 0.1248,-0.121058 0.24461,-0.247108 0.35818,-0.37815 0.72635,-0.676426 1.55878,-1.287955 2.55594,-1.471413 0.33322,-1.100753 0.51419,-2.232705 0.72385,-3.360914 0.12855,-1.124464 0.19844,-2.253921 0.30077,-3.380881 0.64523,-0.08362 1.21807,0.228387 1.75472,0.539144 0.69015,0.466758 1.26799,1.078287 1.76095,1.745977 0.39687,0.597801 0.67268,1.262995 1.05458,1.869532 l 0.0786,0.02371 c 0.22339,-0.443046 0.52292,-0.844908 0.6627,-1.326643 0.30576,-0.348198 0.41184,-0.796236 0.45303,-1.248019 0.0986,-0.148514 0.19469,-0.299524 0.28954,-0.450534 0.48672,0.0012 0.87111,0.329476 1.26299,0.576584 0.58158,0.454279 1.05582,1.029615 1.50636,1.609944 0.20343,0.190947 0.36692,0.419334 0.5641,0.617769 0.35818,-0.760043 1.01963,-1.440213 0.96472,-2.331298 -0.49047,-0.274564 -0.7226,-0.826189 -1.17688,-1.141937 -0.2209,-0.162243 -0.49671,-0.05117 -0.73134,0.0025 -0.92977,-0.318245 -1.78217,-0.83742 -2.70945,-1.170641 -1.87826,-0.360678 -3.36091,-1.913212 -3.98617,-3.676662 -0.3769,0.05741 -0.75879,0.12605 -1.0995,0.303268 m 12.07832,2.366243 c -0.2184,0.663946 -0.51294,1.297939 -0.71262,1.969373 -0.59655,1.533814 -1.05457,3.135022 -1.73849,4.636388 1.03087,0.05242 2.08294,-0.114818 3.09883,0.12605 -0.19843,-0.203427 -0.43556,-0.435559 -0.37815,-0.750059 0.0686,-0.551624 0.009,-1.121969 0.18721,-1.654873 0.13603,-0.343205 -0.0112,-0.713866 0.0749,-1.065807 0.0949,-0.587817 0.0562,-1.185618 0.0212,-1.777178 -0.0487,-0.867373 0.007,-1.734746 0.004,-2.602118 -0.27831,0.32074 -0.35319,0.753803 -0.55662,1.118224 M 46.5433,34.334727 c 0.17597,0.515432 0.43555,1.010895 0.50045,1.557527 0.19844,1.327892 0.1248,2.683239 -0.12979,3.997403 -0.0424,0.04493 -0.1273,0.134786 -0.16973,0.179714 0.84865,0.08611 1.67359,-0.174722 2.51475,-0.215907 0.35943,-0.460519 0.0549,-1.059567 0.0549,-1.583735 -0.33072,-0.892333 -0.50669,-1.855803 -1.02337,-2.672007 -0.34445,-0.66769 -1.02587,-1.104496 -1.74723,-1.262995 m 5.45135,3.624245 c -0.20717,0.494216 -0.18221,1.114481 -0.57908,1.510102 0.2184,0.0012 0.44429,0.05117 0.6602,-0.01373 0.81371,-0.304516 1.70479,-0.219651 2.54096,-0.44055 -0.14601,-0.79998 -0.40186,-1.565015 -0.70263,-2.318818 -0.31949,-0.537896 -0.72884,-1.027119 -1.31791,-1.280467 -0.29952,0.823692 -0.45053,1.683577 -0.60154,2.543461 M 0.905753,40.433793 c 0.371909,0.01248 0.745067,0.03994 1.109488,0.119809 0.901069,0.185955 1.884508,0.149763 2.679495,0.676426 0.0087,-0.960974 0.117314,-1.92694 0.0012,-2.885418 -1.267986,0.685162 -2.509764,1.422741 -3.790231,2.089183 m 51.727865,-0.02122 c -1.20434,0.175971 -2.40993,0.331973 -3.61801,0.477991 -0.54538,0.0961 -1.07704,0.321989 -1.64364,0.263332 -1.33164,-0.162242 -2.61709,0.348197 -3.81769,0.861133 -1.34162,1.267986 -2.53847,2.735656 -3.34219,4.406752 -0.26333,0.641482 -0.33197,1.34786 -0.60155,1.989342 -0.89482,1.868283 -1.90572,3.686646 -2.63456,5.626066 -0.0549,0.430566 -0.42433,0.738827 -0.43806,1.179377 -0.0487,0.629002 -0.26333,1.235539 -0.23962,1.872028 -0.0362,0.707626 0.18471,1.390292 0.38564,2.060478 0.23338,0.300772 0.45802,0.677674 0.84366,0.7875 0.61028,0.01997 1.2318,0.01747 1.83084,-0.117314 0.62651,-0.141026 1.28297,-0.136034 1.8945,-0.346949 0.38189,-0.146018 0.80372,-0.111074 1.19185,-0.234628 0.68392,-0.243363 1.26924,-0.688906 1.77469,-1.203089 0.2833,-0.393126 0.49671,-0.83118 0.5616,-1.315412 0.37691,-1.077039 0.85115,-2.116639 1.25052,-3.184942 0.38314,-0.753803 0.61028,-1.573751 0.93726,-2.351267 0.42058,-1.336627 0.89857,-2.673255 0.9747,-4.08726 -0.0537,-0.584072 -0.46176,-1.045839 -0.80123,-1.493878 -0.41434,-0.45927 -0.76753,-1.01339 -1.34161,-1.291699 -0.5092,-0.258339 -1.11823,-0.581576 -1.17938,-1.219313 0.5978,0.0025 1.10699,0.351941 1.67733,0.474247 0.39438,0.07363 0.74882,0.2833 1.14818,0.341957 0.25959,0.05491 0.54663,0.03245 0.77003,0.200931 0.30951,0.005 0.59281,-0.141027 0.89982,-0.156003 0.86238,-0.0012 1.71977,-0.149762 2.55594,-0.354437 -0.629,0.476743 -1.3516,0.798732 -2.05049,1.153169 2.54595,0.09735 5.07319,-0.303269 7.55051,-0.849901 0.86363,-0.114817 1.71103,-0.364421 2.50103,-0.733834 0.9123,-0.399366 1.79465,-0.942254 2.36624,-1.779674 0.13603,-0.366918 0.18221,-0.761292 0.0337,-1.133201 -0.0998,-0.08861 -0.19844,-0.178467 -0.29578,-0.268324 -0.19469,0.04118 -0.38689,0.09859 -0.57534,0.16349 -0.0849,-0.0075 -0.25334,-0.02122 -0.33821,-0.02746 -0.8162,0.336965 -1.66361,-0.122306 -2.48605,-0.199683 -1.92195,0.05366 -3.82518,0.37815 -5.74463,0.490471 M 6.717424,40.281534 c 0.340709,0.103586 0.696394,0.153507 1.032111,0.275812 0.326981,1.45519 0.763787,2.892907 1.355348,4.264479 0.95099,1.357844 1.579992,2.970284 2.82801,4.098492 0.278308,-0.273316 0.487975,-0.605289 0.67393,-0.94475 C 12.189985,47.62737 11.73945,47.314118 11.383765,46.897279 10.768492,46.187157 9.931071,45.662989 9.473048,44.823073 9.18226,44.245241 9.433108,43.600015 9.399418,42.99223 9.351998,42.205979 9.304568,41.414735 9.122358,40.645956 8.379787,40.27779 7.526143,40.296511 6.717427,40.281534 m -0.172226,2.082943 c -0.325733,0.617769 -0.683915,1.244274 -0.730091,1.958141 0.438054,-0.202179 0.898573,-0.05242 1.336627,0.0624 C 7.038168,43.686128 6.821013,43.014694 6.545201,42.364477 M 5.616675,46.152212 C 3.999243,47.240484 2.344371,48.271348 0.687003,49.297219 2.182129,49.117504 3.66727,48.71689 5.184861,48.86166 c 0.239619,0.04118 0.425574,0.218403 0.626505,0.344453 0.391878,0.257092 0.556616,0.866125 1.110736,0.827436 0.09984,-0.30202 0.168483,-0.612777 0.205923,-0.928525 C 7.156725,48.693178 7.432542,48.29506 7.265307,47.87947 7.015703,47.216772 7.046904,46.501658 6.909622,45.816496 6.764852,45.69419 6.61509,45.578124 6.444111,45.495755 6.216972,45.770319 5.899975,45.943793 5.616675,46.152212 m 43.015448,-0.466758 c 0.0886,0.721354 -0.22839,1.381556 -0.34196,2.079198 -0.23837,1.013391 -0.10733,2.057982 -0.16723,3.086349 -0.007,0.426823 -0.29578,0.826188 -0.14852,1.256755 0.13853,0.546632 0.16599,1.116976 0.33822,1.65612 0.25834,0.656458 0.52916,1.33538 1.0371,1.845819 0.7226,0.827436 1.79715,1.307923 2.88292,1.401525 0.30826,0.05366 0.62276,-0.07987 0.92603,0.0287 0.36692,-0.589065 1.12322,-0.945998 1.17938,-1.712281 0.0112,-0.993423 0.0374,-1.986845 0.007,-2.980268 -0.009,-0.620265 -0.23213,-1.209329 -0.25959,-1.828346 -0.0499,-0.705131 -0.3432,-1.351604 -0.473,-2.039262 -0.29703,-0.941006 -0.68641,-1.853308 -1.1956,-2.699464 -0.47674,-0.06615 -0.94475,0.04368 -1.41525,0.06864 -0.78376,-0.134786 -1.57999,-0.103585 -2.36999,-0.16349 m -40.45078,0.338218 c -0.08736,1.153169 0.272067,2.303841 0.0312,3.448274 0.05117,0.38439 -0.496712,0.499207 -0.406854,0.881101 -0.01872,0.344453 0.273316,0.576585 0.455526,0.832428 0.633994,0.07738 1.314164,0.05741 1.885756,-0.258339 0.695146,-0.399366 1.150673,-1.131953 1.304179,-1.909468 -1.233041,-0.814956 -2.473572,-1.721018 -3.269807,-2.993996 m 33.33207,14.442067 c -0.17971,-0.0012 -0.31325,0.108578 -0.4368,0.223396 0.16099,0.229635 0.33696,0.449286 0.53165,0.652713 0.44804,-0.338213 0.94475,-0.657705 1.21432,-1.169393 -0.43056,0.122306 -0.86363,0.238372 -1.30917,0.293284 m -10.03157,1.189362 c 0.5329,-0.07987 1.07704,-0.307013 1.61993,-0.165987 0.58782,0.192195 1.05083,0.626506 1.43397,1.097008 0,0.419335 -0.24087,0.785004 -0.27082,1.199346 0.43057,-0.01747 0.83617,-0.179715 1.26424,-0.215907 0.20718,-0.02995 0.45678,-0.05866 0.58533,-0.248356 0.49296,-0.640233 0.55911,-1.49887 1.08827,-2.121631 -1.01589,0.0062 -2.03302,0.0025 -3.04891,0.0062 -0.60903,0.01248 -1.21308,-0.109825 -1.77718,-0.335717 -0.33197,0.219652 -0.66395,0.453031 -0.89483,0.785004 m 6.2326,0.733835 c -0.0786,0.247107 -0.12605,0.506695 -0.25085,0.738826 0.0711,0.08487 0.14352,0.169731 0.21716,0.255844 0.26957,0.05242 0.55037,0.09859 0.7875,0.250852 1.03211,0.619017 1.89075,1.491382 2.62708,2.436132 0.16099,-1.030864 0.14227,-2.076703 0.20218,-3.115054 0.004,-0.2833 0.0449,-0.577833 -0.0387,-0.852397 -0.46427,-0.329476 -0.97221,-0.601544 -1.49638,-0.817452 -0.82993,-0.121057 -1.63365,0.410598 -2.048,1.103249 m -6.39983,0.490471 c -0.42183,0.224643 -0.85365,0.449286 -1.19685,0.786251 -0.33946,0.338213 -0.32449,0.962222 0.0512,1.269235 0.47924,0.423078 1.04459,0.742571 1.61493,1.029615 0.24087,0.611529 0.36692,1.261746 0.48049,1.906972 0.47924,-1.126961 0.3794,-2.379971 0.7226,-3.53938 0.0549,-0.453031 0.0537,-0.909805 0.15101,-1.356596 -0.0299,-0.06864 -0.0923,-0.203427 -0.1223,-0.27082 -0.5691,-0.005 -1.16191,-0.03494 -1.70105,0.174723 z"
     id="path4" />
  <path
     style="fill:#d2d2d2"
     inkscape:connector-curvature="0"
     d="m 29.232169,1.997325 c 0.939757,-0.2558437 1.789658,-0.751307 2.715687,-1.0458393 -0.561608,0.8062198 -1.205585,1.5525348 -1.767193,2.3587546 -0.937262,1.2342901 -2.16656,2.2152325 -3.453267,3.0613889 -1.079536,0.5965527 -2.130367,1.2804667 -3.294768,1.6935608 -0.04618,0.051169 -0.136034,0.1535063 -0.180963,0.204675 -0.391878,0.1073296 -0.750059,0.2945323 -1.09576,0.5029514 -0.91355,0.3606773 -1.847067,0.8274361 -2.856714,0.751307 -0.539144,-0.00874 -1.050831,-0.2184032 -1.525078,-0.4567747 -0.708875,-0.4492866 -1.04584,-1.2629945 -1.478902,-1.9469085 0.11981,0.5403919 0.07613,1.1107362 0.279556,1.6324079 0.0911,0.2770601 0.06989,0.5790805 0.170979,0.8536445 0.567848,1.1806254 1.717273,1.8857554 2.724423,2.6470464 0.49796,1.020879 1.000911,2.096671 1.913213,2.82177 0.42807,0.449286 0.96347,0.802476 1.327891,1.307923 0.09235,0.0337 0.184707,0.06864 0.278308,0.102337 -0.527912,-0.889837 -0.888589,-1.868283 -1.412757,-2.763112 -0.341957,-1.085776 -1.075791,-1.993085 -1.481397,-3.047661 1.27797,0.448039 2.570917,0.846157 3.82892,1.342868 0.510439,0.290788 1.121968,0.205923 1.673592,0.348197 0.66145,0.224643 1.371572,0.233379 2.039262,0.435558 0.66145,0.215908 1.364084,0.253348 2.029278,0.455527 0.898573,0.169731 1.814619,0.260836 2.728168,0.290788 0.481735,0.03869 0.954734,-0.180962 1.433973,-0.08362 0.889837,0.220899 1.79465,-0.08237 2.693224,-0.0337 0.549128,-0.02496 1.074543,0.152258 1.609943,0.234627 1.900732,0.217155 3.79772,0.627753 5.536209,1.446453 0.501704,0.274564 1.025871,0.540392 1.418997,0.968463 0.718859,0.760043 1.377812,1.606199 1.758458,2.590886 0.269572,0.419334 0.222147,0.954734 0.484231,1.377812 0.502951,0.917293 1.487638,1.473909 2.501029,1.636152 1.103248,0.346949 2.337538,0.03869 3.374641,0.616521 0.08611,0.136034 0.177219,0.27082 0.27706,0.400614 0.182211,0.44055 0.195939,0.962222 -0.01498,1.395284 -0.353189,0.83742 -0.977198,1.513846 -1.508854,2.237697 -0.235876,0.29578 -0.346949,0.66769 -0.572841,0.970958 -0.0624,0.348197 -0.07363,0.703882 -0.165986,1.047087 -0.497959,0.03744 -0.999663,0.01872 -1.496374,0.06614 -0.160994,-0.673929 -0.08736,-1.371572 0.01622,-2.047998 0.07613,-0.847404 0.479239,-1.632408 0.519176,-2.484804 0.02122,-0.496711 -0.292036,-0.904813 -0.636489,-1.223058 C 48.796103,22.377464 47.927483,22.26639 47.06011,22.212725 46.769322,21.8508 46.615816,21.41025 46.369956,21.022116 46.233922,20.786241 46.200225,20.482972 45.97059,20.30825 c -0.949742,-0.831181 -2.062974,-1.440214 -3.098829,-2.15408 -0.586569,-0.388134 -1.224306,-0.696394 -1.790907,-1.111984 -0.111073,-0.03619 -0.223395,-0.07239 -0.333221,-0.108578 0.707627,0.448039 1.350356,0.988431 2.056735,1.438965 0.492967,0.28954 0.725098,0.842412 1.072047,1.272979 0.64897,0.993422 1.286707,2.001821 1.808379,3.070125 0.156002,0.363173 0.599049,0.391878 0.941006,0.426822 0.908557,0.01747 1.850811,-0.315749 2.735656,0.02371 0.490471,1.015887 -0.348197,1.983102 -0.69265,2.899147 -0.147267,0.780011 -0.228388,1.588727 -0.07488,2.376227 -0.579081,0.27706 -1.230547,0.267076 -1.838331,0.439302 -1.20933,-0.265828 -2.507269,-0.657705 -3.308497,-1.667352 -0.506695,-0.650218 -0.989678,-1.34162 -1.6686,-1.827099 -1.396533,-1.007151 -2.162816,-2.774345 -3.817688,-3.435794 -0.606537,-0.133538 -1.186866,-0.381894 -1.807131,-0.445543 -1.047087,-0.134786 -2.05299,-0.534152 -3.11755,-0.526664 -0.755051,-0.09235 -1.507606,-0.219651 -2.248929,-0.386885 -0.294532,-0.556616 -0.05616,-1.20933 0.03245,-1.792155 0.177219,-0.496711 0.280804,-1.014638 0.425574,-1.520086 -0.56036,0.757547 -1.3541,1.332884 -1.80713,2.174048 -0.859885,1.295443 -1.850811,2.728168 -1.644888,4.365568 0.09859,0.254596 0.179714,0.51668 0.265827,0.776267 0.386886,0.146019 0.773772,0.299525 1.189362,0.335717 0.260836,0.01997 0.481735,0.162243 0.671434,0.333221 -0.01747,0.07114 -0.05117,0.214659 -0.06864,0.287044 -0.23338,0.333221 -0.37191,0.722603 -0.614025,1.050832 -0.455527,0.736331 -1.057072,1.500118 -0.96347,2.419907 -0.0025,0.369414 0.318244,0.587817 0.544136,0.828684 0.312004,0.114818 0.627753,0.247108 0.96347,0.267076 0.57284,-0.08611 1.154417,-0.18221 1.691064,-0.40935 0.590313,-0.220899 1.243027,-0.165986 1.824603,-0.41559 0.500456,-0.08986 1.019631,0.02871 1.515094,-0.106081 0.480487,-0.13229 0.958479,0.07863 1.440214,0.05741 0.599048,0 1.201841,0.01747 1.789658,0.143522 0.52916,0.114817 1.078288,0.08611 1.599959,0.243363 1.899484,0.01 3.800216,-0.01248 5.6997,-0.07363 -1.230546,0.414342 -2.540965,0.39687 -3.808952,0.604041 -1.102,0.215907 -2.228961,0.230883 -3.337201,0.39063 -1.468917,0.275812 -2.992748,0.141026 -4.436705,0.54788 -0.919789,0.0911 -1.803386,0.378149 -2.710696,0.54164 -0.526663,0.200931 -1.140688,0.209667 -1.594967,0.565352 -1.302931,0.424326 -2.539717,1.037103 -3.70287,1.759706 -1.440214,0.786251 -2.635815,1.935676 -3.79772,3.076365 -0.212163,0.479239 -0.726347,0.697642 -0.997167,1.129456 -0.495463,0.727595 -1.150673,1.332884 -1.619927,2.080447 -0.24586,0.418086 -0.645226,0.710122 -0.916046,1.109488 -1.043343,1.506358 -2.363747,2.788073 -3.666678,4.064796 0.240868,-0.765035 0.662698,-1.465174 0.884845,-2.240193 0.594057,-1.527574 1.074544,-3.118798 1.225554,-4.759942 0.177219,-0.883597 0.195939,-1.793402 0.13229,-2.690727 -0.0037,-0.170979 -0.0649,-0.319493 -0.18221,-0.445543 -0.01373,-0.933517 -0.07488,-1.888251 -0.405606,-2.769352 -0.103586,-0.431815 -0.477991,-0.720107 -0.620266,-1.136945 -0.69889,-1.770938 -1.22805,-3.606773 -1.859547,-5.401423 -0.01747,-0.146018 -0.03744,-0.292037 -0.06115,-0.436807 -0.03494,0.137282 -0.0337,0.2833 0.01123,0.420583 0.182211,0.645225 0.190947,1.321651 0.339461,1.974364 0.235876,0.869869 0.243364,1.783419 0.489224,2.653287 0.192194,1.555031 0.622761,3.081358 0.602792,4.658853 0.07987,0.746315 0.103586,1.495126 0.0012,2.241441 0.02122,1.045839 -0.269571,2.062974 -0.298276,3.105069 -0.03744,0.410598 -0.234627,0.786252 -0.2833,1.19685 -0.09735,0.666441 -0.460519,1.25301 -0.586569,1.913212 -0.112321,0.455526 -0.174722,0.931021 -0.375653,1.36034 -0.180963,0.388133 -0.123554,0.864876 -0.40935,1.205585 -0.200931,0.450535 -0.389382,0.914798 -0.527912,1.390293 -0.738827,-0.916046 -1.269235,-1.981853 -1.793402,-3.030189 -0.398118,-1.084528 -0.557864,-2.255169 -0.449287,-3.408338 0.0624,0.01248 0.185955,0.03744 0.248356,0.04992 0.244611,0.204675 0.520423,0.366917 0.762539,0.575336 0.205923,0.01622 0.413094,0.0075 0.604041,-0.07987 0.305764,0.12605 0.537896,0.361926 0.760043,0.599049 C 12.498739,41.565745 11.967083,40.786982 11.30813,40.125532 10.465717,39.386705 9.341253,39.177038 8.2954136,38.877514 7.8361429,38.775176 7.3431757,38.647878 6.9937305,38.31965 6.6280612,37.246354 6.7853115,36.095681 6.5868766,34.994929 6.5793885,34.00525 6.7977917,33.024308 6.7628472,32.032133 6.9849944,31.351963 7.0361632,30.625617 7.2920069,29.955431 7.5815472,28.92332 7.8947998,27.894953 8.3266141,26.911514 8.5712257,26.411059 8.5899459,25.843211 8.7921249,25.329027 8.9855677,24.54652 9.0080321,23.726572 9.277604,22.962784 c 0.1709785,-0.993422 0.4892232,-1.973116 1.028367,-2.829257 0.280804,-0.244612 0.641482,0.01498 0.929774,0.109826 0.778763,0.233379 1.448949,0.715114 2.202752,1.009646 -0.424326,-0.451782 -0.827436,-0.922285 -1.208082,-1.411508 -0.580328,-0.896077 -1.337875,-1.740986 -1.53631,-2.82177 0.08362,-0.586568 0.481735,-1.043343 0.677674,-1.586231 0.252099,-0.376901 0.388133,-0.83118 0.740075,-1.135697 0.131042,0.08986 0.268324,0.175971 0.376901,0.294533 1.262995,1.276722 2.461092,2.620838 3.680406,3.937497 0.04368,0.01747 0.131042,0.05366 0.173475,0.07114 -0.05866,-0.0599 -0.177219,-0.179714 -0.235876,-0.239619 -0.54164,-0.873613 -1.129456,-1.722265 -1.636152,-2.618342 -0.3145,-0.755051 -0.783755,-1.435221 -1.060815,-2.206497 -0.160995,-0.32074 -0.08986,-0.753803 -0.413094,-0.979694 -0.05117,-0.707627 -0.142275,-1.410261 -0.195939,-2.117887 -0.04618,-0.05616 -0.13853,-0.169731 -0.184707,-0.225891 0.0062,-0.6414819 -0.103586,-1.2817153 -0.04368,-1.9219487 0.223396,-1.163153 0.936014,-2.1515835 1.734746,-2.9952439 1.409012,-1.2417782 3.31224,-1.6124396 5.113131,-1.8558032 1.389044,-0.092353 2.791817,-0.072385 4.163389,-0.3357169 0.339461,-0.037441 0.682666,-0.047425 1.018383,-0.1148177 0.484231,-0.096097 0.997166,0.013728 1.467669,-0.1634904 0.450535,-0.1709785 0.939758,-0.2071711 1.382805,-0.3981179 0.5666,-0.2396195 1.195601,-0.2471076 1.779674,-0.4305663 M 10.580535,21.221799 c -0.162242,0.635241 -0.431814,1.235538 -0.555368,1.882012 -0.2508517,0.552872 -0.2845482,1.169393 -0.5179276,1.727257 -0.3719095,1.476405 -0.7787634,2.945323 -1.0608156,4.444193 -0.2421155,0.747563 -0.2645798,1.540055 -0.4692548,2.296354 -0.1859548,0.943502 -0.2208993,1.909468 -0.3581813,2.861706 -0.1560023,1.097008 -0.043681,2.208992 0.2121631,3.282288 0.9335177,0.312004 1.8982359,0.565352 2.7830812,0.997166 0.822444,0.149763 1.131952,1.050832 1.879515,1.33538 -0.27082,-0.712618 -1.170641,-0.814956 -1.51759,-1.461429 C 10.22485,37.426069 9.7730673,36.080705 9.6258011,34.709133 9.3999098,33.86672 9.4435905,32.989363 9.4373504,32.125735 9.4523266,31.489245 9.4261182,30.845268 9.547176,30.216267 9.7318827,29.35763 9.7094184,28.466545 9.9240775,27.612901 10.130001,26.981403 10.11128,26.298737 10.353396,25.677224 c 0.318244,-1.433973 0.71761,-2.85297 1.214322,-4.233278 -0.330725,-0.07114 -0.656458,-0.15725 -0.987183,-0.222147 m 4.658852,2.857962 c 0.173475,0.245859 0.335717,0.499207 0.477991,0.765035 0.527912,0.707626 0.924782,1.501366 1.326644,2.285122 0.921037,2.008061 1.593719,4.162141 1.738489,6.378621 0.03869,0.385638 -0.04992,0.791244 0.08237,1.164401 0.339461,-1.106992 0.336965,-2.280129 0.303268,-3.42581 -0.07114,-0.697642 -0.13853,-1.405269 -0.39687,-2.062974 -0.576584,-2.036766 -1.93318,-3.756535 -3.531892,-5.104395 z"
     id="path6" />
  <path
     style="fill:#d2d2d2"
     inkscape:connector-curvature="0"
     d="m 37.948328,6.8621004 c 0.921038,-0.5815766 1.844571,-1.2442743 2.94158,-1.427733 0.58532,-0.00624 1.015886,0.4380545 1.417748,0.8037238 0.871117,1.090768 1.470166,2.4049313 2.525989,3.342193 0.188451,0.2096671 0.482983,0.1959389 0.735083,0.2658279 1.19061,0.4854789 2.514757,0.3981179 3.736567,0.7650349 0.527912,0.09235 1.065808,0.137282 1.579991,0.304517 -2.295106,0.214659 -4.623908,0.103585 -6.892805,0.5666 -0.97595,0.10109 -1.965629,0.0012 -2.932843,-0.141026 -0.52292,-0.192195 -1.102,-0.215907 -1.589975,-0.500455 -1.08328,-0.408102 -2.04051,-1.1182247 -2.786825,-2.0005736 -0.0037,0.047425 -0.01248,0.141026 -0.01747,0.1872027 0.395621,0.7063784 0.928525,1.3166589 1.39778,1.9718689 -0.217155,0.01747 -0.431814,0.0312 -0.647721,0.04368 -0.08736,0.07488 -0.175971,0.148514 -0.262084,0.223395 0.03245,0.05991 0.09859,0.180963 0.131042,0.240867 0.08237,0.04493 0.244611,0.134786 0.32698,0.178467 -0.197186,0.03619 -0.396869,0.05991 -0.594056,0.08237 -0.05491,-0.04118 -0.162243,-0.121057 -0.217155,-0.162242 -0.455527,0.185955 -0.959726,0.15101 -1.430229,0.04368 -0.561609,-0.128546 -1.143185,-0.147267 -1.716026,-0.103586 -0.871116,0.08861 -1.747225,0.02746 -2.620838,0.04493 1.243026,-1.211826 2.653287,-2.2464332 4.119708,-3.1724628 0.897326,-0.5828246 1.919453,-0.9372618 2.795561,-1.5562788 z"
     id="path8" />
  <path
     style="fill:#000000"
     inkscape:connector-curvature="0"
     d="m 10.580535,21.221799 c 0.330725,0.0649 0.656458,0.15101 0.987183,0.222147 -0.496712,1.380308 -0.896078,2.799305 -1.214322,4.233278 -0.242116,0.621513 -0.223395,1.304179 -0.4293185,1.935677 -0.2146591,0.853644 -0.1921948,1.744729 -0.3769015,2.603366 -0.1210578,0.629001 -0.094849,1.272978 -0.1098256,1.909468 0.00624,0.863628 -0.037441,1.740985 0.1884507,2.583398 0.1472662,1.371572 0.5990489,2.716936 1.3503559,3.877593 0.346949,0.646473 1.24677,0.748811 1.51759,1.461429 -0.747563,-0.284548 -1.057071,-1.185617 -1.879515,-1.33538 C 9.7293867,38.280961 8.7646685,38.027613 7.8311508,37.715609 7.5753071,36.642313 7.4629854,35.530329 7.6189877,34.433321 c 0.137282,-0.952238 0.1722265,-1.918204 0.3581813,-2.861706 0.204675,-0.756299 0.2271393,-1.548791 0.4692548,-2.296354 0.2820522,-1.49887 0.6889061,-2.967788 1.0608156,-4.444193 0.2333794,-0.557864 0.2670759,-1.174385 0.5179276,-1.727257 0.123554,-0.646474 0.393126,-1.246771 0.555368,-1.882012 z"
     id="path10" />
  <path
     style="fill:#ffffff"
     inkscape:connector-curvature="0"
     d="m 33.103521,21.667341 c 0.796236,0.03869 1.555031,0.315749 2.313826,0.534152 1.115729,0.06615 1.925693,0.943502 2.7394,1.611192 -0.297028,0.584072 -0.687658,1.118224 -1.043343,1.6686 -0.200931,0.446791 -0.44679,0.896078 -0.463015,1.396533 -0.0037,0.29578 -0.08861,0.66769 0.192195,0.871117 0.0062,0.04243 0.01872,0.128546 0.02496,0.172226 -0.647722,0.01997 -1.319156,0.103586 -1.951901,-0.06365 -0.863629,-0.06365 -1.734745,-0.005 -2.59463,-0.114817 -0.229635,-0.172227 -0.158498,-0.484232 -0.209667,-0.730091 -0.122306,-0.877357 -0.0961,-1.767194 -0.07488,-2.649543 0.139778,-0.958478 0.315748,-2.009309 1.067055,-2.69572 z"
     id="path12" />
  <path
     style="fill:#000000"
     inkscape:connector-curvature="0"
     d="m 15.239387,24.079761 c 1.598712,1.34786 2.955308,3.067629 3.531892,5.104395 0.25834,0.657705 0.325733,1.365332 0.39687,2.062974 0.0337,1.145681 0.03619,2.318818 -0.303268,3.42581 -0.13229,-0.373157 -0.04368,-0.778763 -0.08237,-1.164401 -0.14477,-2.21648 -0.817452,-4.37056 -1.738489,-6.378621 C 16.64216,26.346162 16.24529,25.552422 15.717378,24.844796 15.575104,24.578968 15.412862,24.32562 15.239387,24.079761 z"
     id="path14" />
  <path
     style="fill:#ffffff"
     inkscape:connector-curvature="0"
     d="m 39.337373,25.259138 c 0.0287,0.005 0.08736,0.01498 0.116066,0.01872 0.248355,0.345701 0.519175,0.672682 0.758795,1.024623 -0.338213,0.366918 -0.785004,0.700139 -1.315412,0.564105 0.104834,-0.546632 0.333221,-1.059568 0.440551,-1.607448 z"
     id="path16" />
  <path
     style="fill:#ffffff"
     inkscape:connector-curvature="0"
     d="m 51.217259,28.850935 c 0.609033,-0.146018 1.243026,-0.318245 1.870779,-0.188451 0.597801,0.06365 1.258003,0.0936 1.72601,0.52292 0.380645,0.250851 0.456774,0.72385 0.519175,1.13944 -0.14477,0.13229 -0.290788,0.260836 -0.444294,0.381894 0.05367,-0.106082 0.108577,-0.209667 0.16349,-0.314501 -0.108577,-0.250851 -0.209667,-0.505447 -0.312004,-0.758795 -0.314501,-0.341957 -0.728843,-0.546632 -1.153169,-0.716362 -0.312005,-0.08861 -0.643978,-0.07613 -0.949742,-0.187203 -0.479239,-0.05366 -0.949742,0.05741 -1.420245,0.121058 z"
     id="path18" />
  <path
     style="fill:#d2d2d2"
     inkscape:connector-curvature="0"
     d="m 46.769322,29.768228 c 0.340709,-0.177218 0.722602,-0.245859 1.099504,-0.303268 0.625257,1.76345 2.107903,3.315984 3.98617,3.676662 0.927278,0.333221 1.779674,0.852396 2.709448,1.170641 0.234628,-0.05367 0.51044,-0.164739 0.731339,-0.0025 0.454278,0.315748 0.68641,0.867373 1.176881,1.141937 0.05491,0.891085 -0.606537,1.571255 -0.964718,2.331298 -0.197187,-0.198435 -0.360677,-0.426822 -0.564104,-0.617769 -0.450535,-0.580329 -0.924782,-1.155665 -1.506358,-1.609944 -0.391878,-0.247108 -0.776268,-0.575336 -1.262995,-0.576584 -0.09485,0.15101 -0.190947,0.30202 -0.28954,0.450534 -0.04118,0.451783 -0.147266,0.899821 -0.453031,1.248019 -0.139778,0.481735 -0.439302,0.883597 -0.662698,1.326643 l -0.07862,-0.02371 c -0.381893,-0.606537 -0.657705,-1.271731 -1.054575,-1.869532 -0.492967,-0.66769 -1.0708,-1.279219 -1.760954,-1.745977 -0.536648,-0.310757 -1.109488,-0.622761 -1.754714,-0.539144 -0.102337,1.12696 -0.172226,2.256417 -0.300772,3.380881 -0.209667,1.128209 -0.39063,2.260161 -0.723851,3.360914 -0.997166,0.183458 -1.829595,0.794987 -2.555941,1.471413 -0.11357,0.131042 -0.23338,0.257092 -0.358181,0.37815 -0.575337,0.655209 -1.0396,1.395284 -1.47391,2.147839 -0.04368,0.02122 -0.131042,0.0649 -0.174723,0.08611 -0.06989,0.27082 -0.153506,0.544136 -0.343205,0.757548 -1.752217,2.61335 -3.128782,5.447599 -4.429217,8.303065 -0.40311,0.842413 -0.752555,1.709785 -1.223058,2.519749 -1.092016,1.772186 -2.629574,3.228624 -4.310655,4.437953 -0.858636,0.616521 -1.716025,1.244275 -2.645799,1.75097 -0.662697,0.213411 -1.344115,0.364421 -2.041758,0.406854 -0.511687,0.01747 -0.992174,0.227139 -1.501366,0.253348 -1.159409,0.149762 -2.321314,-0.08611 -3.481971,0.01123 -0.463014,0.06989 -0.889837,-0.154754 -1.340371,-0.202179 -0.525416,-0.06614 -1.082032,-0.03245 -1.565015,-0.284548 -0.440551,-0.243364 -0.968462,-0.248356 -1.406517,-0.496712 -1.102,-0.346949 -2.218976,-0.832428 -3.012716,-1.701048 -0.257092,-0.262084 -0.408102,-0.597801 -0.622761,-0.88859 -0.01622,-0.0624 -0.04618,-0.187202 -0.06115,-0.249603 -0.597801,-0.715115 -0.864877,-1.648632 -0.958478,-2.562182 -0.04618,-0.559112 -0.202179,-1.110736 -0.149762,-1.677336 0.43431,-0.474247 0.282052,-1.17189 0.408102,-1.753466 0.118561,-0.40311 0.210915,-0.813708 0.292036,-1.225554 0.604041,-1.890748 1.731001,-3.586805 3.118798,-4.998313 0.419334,-0.40935 0.847404,-0.808716 1.299187,-1.180626 0.609033,-0.429318 1.018383,-1.067055 1.520086,-1.604951 0.788748,-0.921038 1.571255,-1.849563 2.312578,-2.810537 0.287044,-0.413094 0.575336,-0.831181 0.939758,-1.181874 0.98843,-0.979694 1.538806,-2.34253 2.658279,-3.198671 1.587479,-1.087024 3.201167,-2.166559 4.989577,-2.89665 2.117887,-0.936014 4.350592,-1.589975 6.626977,-2.003069 0.947246,-0.297029 1.965629,-0.224644 2.912875,-0.521672 0.466759,-0.139778 0.95099,-0.207171 1.407764,-0.376902 0.633994,-0.217155 1.332884,-0.147266 1.953149,-0.410598 0.983438,-0.325732 2.006813,-0.476743 3.02894,-0.609033 0.607785,-0.219651 1.284211,-0.18221 1.862044,-0.489223 m -8.920835,5.184268 c -0.299524,0.06365 -0.614025,0.0037 -0.909805,0.07987 -0.756299,0.484232 -1.594968,0.882349 -2.196513,1.567511 -2.376226,4.406753 -4.929672,8.7224 -7.635376,12.938206 -0.833676,1.258003 -1.749721,2.502277 -3.000236,3.379634 -0.555368,0.331973 -1.194353,0.683914 -1.863291,0.519175 -0.983438,-0.454278 -1.804634,-1.196849 -2.469828,-2.04051 0.04119,0.562857 0.359429,1.038352 0.576584,1.543799 0.217156,0.353189 0.373158,0.758795 0.720107,1.012143 0.803724,0.3145 1.664856,0.15101 2.451108,-0.134786 0.99467,-0.577833 1.923196,-1.296691 2.694471,-2.150336 0.280805,-0.220899 0.520424,-0.490471 0.750059,-0.763787 1.71977,-1.936924 3.131278,-4.122204 4.565251,-6.273788 0.505448,-1.254258 1.627416,-2.131615 2.124127,-3.389618 0.877357,-1.327891 1.759706,-2.653286 2.638311,-3.981178 0.670186,-0.720106 1.550039,-1.194353 2.353763,-1.747226 0.817452,-0.470502 1.581239,-1.042095 2.446116,-1.423988 0.274564,-0.224644 0.602792,-0.364422 0.904813,-0.54788 -1.36034,0.537895 -2.736904,1.029615 -4.149661,1.412756 m 6.102809,0.182211 c -0.433062,0.217155 -0.927277,0.235875 -1.376564,0.404358 -0.410598,0.152258 -0.839916,0.239619 -1.262994,0.348197 -1.023375,0.715114 -1.88326,1.6374 -2.744392,2.534725 -1.351604,1.470166 -2.534726,3.140014 -3.189935,5.039498 -0.25834,0.928526 -0.411846,1.88326 -0.430567,2.847978 -0.149762,0.811212 -0.414342,1.611191 -0.42183,2.44362 0.829932,-2.476069 1.678585,-4.960873 2.624583,-7.392013 0.268324,-0.388133 0.678922,-0.641481 1.010895,-0.96971 0.787499,-0.756299 1.619927,-1.466421 2.431139,-2.194016 0.770027,-0.600297 1.48015,-1.279219 2.29885,-1.814619 0.781259,-0.696394 1.864539,-0.823692 2.795561,-1.231794 -0.575337,-0.08611 -1.159409,-0.08362 -1.734746,-0.01622 m -26.62023,17.101595 c 0.08487,0.525415 0.200931,1.045839 0.370662,1.551286 0.56036,1.443958 1.386548,2.799305 2.492292,3.893818 0.118562,0.111073 0.263332,0.187202 0.401862,0.272068 1.191857,0.360677 2.469828,-0.01622 3.463251,-0.708875 0.897325,-0.633993 1.663608,-1.438965 2.327554,-2.310082 0.04119,-0.102337 0.08237,-0.204675 0.124802,-0.307012 -0.511688,0.425574 -1.124465,0.687658 -1.684825,1.028367 -0.455527,0.156002 -0.908557,0.315748 -1.365332,0.468007 -0.777515,0.179714 -1.593719,0.200931 -2.379971,0.04867 -0.881101,-0.257091 -1.707289,-0.737578 -2.302594,-1.445205 -0.620265,-0.738827 -1.161905,-1.563767 -1.447701,-2.491044 z"
     id="path20" />
  <path
     style="fill:#ffffff"
     inkscape:connector-curvature="0"
     d="m 58.847643,32.134471 c 0.203427,-0.364421 0.278308,-0.797484 0.556616,-1.118224 0.0037,0.867372 -0.05242,1.734745 -0.0037,2.602118 0.03495,0.59156 0.07363,1.189361 -0.02122,1.777178 -0.08611,0.351941 0.06115,0.722602 -0.07488,1.065807 -0.178467,0.532904 -0.118562,1.103249 -0.187203,1.654873 -0.05741,0.3145 0.179714,0.546632 0.378149,0.750059 -1.015887,-0.240868 -2.067966,-0.07363 -3.098829,-0.12605 0.683914,-1.501366 1.141937,-3.102574 1.738489,-4.636388 0.199683,-0.671434 0.494216,-1.305427 0.712619,-1.969373 z"
     id="path22" />
  <path
     style="fill:#000000"
     inkscape:connector-curvature="0"
     d="m 37.848487,34.952496 c 1.412757,-0.383141 2.789321,-0.874861 4.149661,-1.412756 -0.302021,0.183458 -0.630249,0.323236 -0.904813,0.54788 -0.864877,0.381893 -1.628664,0.953486 -2.446116,1.423988 -0.803724,0.552873 -1.683577,1.02712 -2.353763,1.747226 -0.878605,1.327892 -1.760954,2.653287 -2.638311,3.981178 -0.496711,1.258003 -1.618679,2.13536 -2.124127,3.389618 -1.433973,2.151584 -2.845481,4.336864 -4.565251,6.273788 -0.229635,0.273316 -0.469254,0.542888 -0.750059,0.763787 -0.771275,0.853645 -1.699801,1.572503 -2.694471,2.150336 -0.786252,0.285796 -1.647384,0.449286 -2.451108,0.134786 -0.346949,-0.253348 -0.502951,-0.658954 -0.720107,-1.012143 -0.217155,-0.505447 -0.535399,-0.980942 -0.576584,-1.543799 0.665194,0.843661 1.48639,1.586232 2.469828,2.04051 0.668938,0.164739 1.307923,-0.187202 1.863291,-0.519175 1.250515,-0.877357 2.16656,-2.121631 3.000236,-3.379634 2.705704,-4.215806 5.25915,-8.531453 7.635376,-12.938206 0.601545,-0.685162 1.440214,-1.083279 2.196513,-1.567511 0.29578,-0.07613 0.610281,-0.01622 0.909805,-0.07987 z"
     id="path24" />
  <path
     style="fill:#ffffff"
     inkscape:connector-curvature="0"
     d="m 46.54343,34.334727 c 0.721355,0.158499 1.402773,0.595305 1.747226,1.262995 0.51668,0.816204 0.69265,1.779674 1.023375,2.672007 0,0.524168 0.304517,1.123216 -0.05491,1.583735 -0.841164,0.04118 -1.666104,0.302021 -2.514757,0.215907 0.04243,-0.04493 0.127298,-0.134786 0.169731,-0.179714 0.254596,-1.314164 0.328229,-2.669511 0.129794,-3.997403 -0.0649,-0.546632 -0.324485,-1.042095 -0.500456,-1.557527 z"
     id="path26" />
  <path
     style="fill:#000000"
     inkscape:connector-curvature="0"
     d="m 43.951296,35.134707 c 0.575337,-0.06739 1.159409,-0.06989 1.734746,0.01622 -0.931022,0.408102 -2.014302,0.5354 -2.795561,1.231794 -0.8187,0.5354 -1.528823,1.214322 -2.29885,1.814619 -0.811212,0.727595 -1.64364,1.437717 -2.431139,2.194016 -0.331973,0.328229 -0.742571,0.581577 -1.010895,0.96971 -0.945998,2.43114 -1.794651,4.915944 -2.624583,7.392013 0.0075,-0.832429 0.272068,-1.632408 0.42183,-2.44362 0.01872,-0.964718 0.172227,-1.919452 0.430567,-2.847978 0.655209,-1.899484 1.838331,-3.569332 3.189935,-5.039498 0.861132,-0.897325 1.721017,-1.819611 2.744392,-2.534725 0.423078,-0.108578 0.852396,-0.195939 1.262994,-0.348197 0.449287,-0.168483 0.943502,-0.187203 1.376564,-0.404358 z"
     id="path28" />
  <path
     style="fill:#ffffff"
     inkscape:connector-curvature="0"
     d="m 51.994774,37.958972 c 0.151011,-0.859884 0.302021,-1.719769 0.601545,-2.543461 0.589065,0.253348 0.998415,0.742571 1.317908,1.280467 0.300772,0.753803 0.556616,1.518838 0.702634,2.318818 -0.836172,0.220899 -1.727257,0.136034 -2.540965,0.44055 -0.215908,0.0649 -0.441799,0.01498 -0.660202,0.01373 0.39687,-0.395621 0.371909,-1.015886 0.57908,-1.510102 z"
     id="path30" />
  <path
     style="fill:#ffbc3a"
     inkscape:connector-curvature="0"
     d="M 0.90589727,40.433793 C 2.186364,39.767351 3.4281423,39.029772 4.6961288,38.34461 c 0.1160658,0.958478 0.00749,1.924444 -0.00125,2.885418 C 3.8998932,40.703365 2.9164548,40.739557 2.0153855,40.553602 1.6509642,40.473729 1.2778067,40.446273 0.90589727,40.433793 z"
     id="path32" />
  <path
     style="fill:#d2d2d2"
     inkscape:connector-curvature="0"
     d="m 52.63376,40.412576 c 1.919452,-0.112321 3.82268,-0.436806 5.744628,-0.490471 0.822444,0.07738 1.669848,0.536648 2.486052,0.199683 0.08487,0.0062 0.253348,0.01997 0.338213,0.02746 0.188451,-0.0649 0.380646,-0.122305 0.575337,-0.16349 0.09734,0.08986 0.195939,0.179715 0.29578,0.268324 0.148514,0.371909 0.102338,0.766283 -0.0337,1.133201 -0.571593,0.83742 -1.453942,1.380308 -2.366243,1.779674 -0.789996,0.369413 -1.6374,0.619017 -2.501029,0.733834 -2.477316,0.546632 -5.004553,0.947246 -7.55051,0.849901 0.69889,-0.354437 1.421492,-0.676426 2.050494,-1.153169 -0.836173,0.204675 -1.693561,0.353189 -2.555942,0.354437 -0.307012,0.01498 -0.590312,0.160995 -0.899821,0.156003 -0.223395,-0.168483 -0.510439,-0.146019 -0.770027,-0.200931 -0.399366,-0.05866 -0.753803,-0.268324 -1.148177,-0.341957 -0.570344,-0.122306 -1.079536,-0.471751 -1.677337,-0.474247 0.06115,0.637737 0.670186,0.960974 1.179378,1.219313 0.574088,0.278309 0.927277,0.832429 1.341619,1.291699 0.339461,0.448039 0.747563,0.909806 0.801228,1.493878 -0.07613,1.414005 -0.55412,2.750633 -0.974702,4.08726 -0.326981,0.777516 -0.55412,1.597464 -0.937262,2.351267 -0.399366,1.068303 -0.873613,2.107903 -1.250514,3.184942 -0.0649,0.484232 -0.278308,0.922286 -0.561609,1.315412 -0.505447,0.514183 -1.090768,0.959726 -1.774682,1.203089 -0.388133,0.123554 -0.809964,0.08861 -1.191857,0.234628 -0.611529,0.210915 -1.267987,0.205923 -1.894492,0.346949 -0.599049,0.134786 -1.220562,0.137282 -1.830843,0.117314 -0.385637,-0.109826 -0.610281,-0.486728 -0.84366,-0.7875 -0.200931,-0.670186 -0.42183,-1.352852 -0.385638,-2.060478 -0.02371,-0.636489 0.190947,-1.243026 0.23962,-1.872028 0.01373,-0.44055 0.383141,-0.748811 0.438054,-1.179377 0.728843,-1.93942 1.739738,-3.757783 2.634567,-5.626066 0.269572,-0.641482 0.338213,-1.34786 0.601545,-1.989342 0.803723,-1.671096 2.000573,-3.138766 3.342193,-4.406752 1.200593,-0.512936 2.486052,-1.023375 3.817688,-0.861133 0.5666,0.05866 1.098256,-0.167234 1.64364,-0.263332 1.208081,-0.146018 2.413667,-0.30202 3.618005,-0.477991 z"
     id="path34" />
  <path
     style="fill:#ffbc3a"
     inkscape:connector-curvature="0"
     d="m 5.6171664,46.152212 c 0.2833001,-0.208419 0.6002968,-0.381893 0.8274361,-0.656457 0.1709785,0.08237 0.3207407,0.198435 0.4655108,0.320741 0.137282,0.685162 0.1060816,1.400276 0.3556852,2.062974 0.1672345,0.41559 -0.1085776,0.813708 -0.137282,1.225554 -0.03744,0.315748 -0.1060815,0.626505 -0.205923,0.928525 C 6.3684734,50.072238 6.203735,49.463205 5.8118572,49.206113 5.6109263,49.080063 5.4249715,48.902845 5.185352,48.86166 3.6677618,48.71689 2.18262,49.117504 0.68749407,49.297219 2.3448624,48.271348 3.9997346,47.240484 5.6171664,46.152212 z"
     id="path40" />
  <path
     style="fill:#d2d2d2"
     inkscape:connector-curvature="0"
     d="m 48.632613,45.685454 c 0.789996,0.05991 1.586231,0.0287 2.369987,0.16349 0.470503,-0.02496 0.93851,-0.134786 1.415253,-0.06864 0.509191,0.846156 0.898573,1.758458 1.195601,2.699464 0.129794,0.687658 0.423078,1.334131 0.472999,2.039262 0.02746,0.619017 0.250852,1.208081 0.259588,1.828346 0.02995,0.993423 0.0037,1.986845 -0.0075,2.980268 -0.05616,0.766283 -0.81246,1.123216 -1.179378,1.712281 -0.303268,-0.108577 -0.617769,0.02496 -0.926029,-0.0287 -1.085776,-0.0936 -2.16032,-0.574089 -2.882922,-1.401525 -0.507944,-0.510439 -0.778764,-1.189361 -1.037104,-1.845819 -0.172226,-0.539144 -0.199683,-1.109488 -0.338213,-1.65612 -0.147266,-0.430567 0.141027,-0.829932 0.148515,-1.256755 0.05991,-1.028367 -0.07114,-2.072958 0.167234,-3.086349 0.11357,-0.697642 0.430566,-1.357844 0.341957,-2.079198 z"
     id="path42" />
  <path
     style="fill:#000000"
     inkscape:connector-curvature="0"
     d="m 17.331066,52.236302 c 0.285796,0.927277 0.827436,1.752217 1.447701,2.491044 0.595305,0.707627 1.421493,1.188114 2.302594,1.445205 0.786252,0.152259 1.602456,0.131042 2.379971,-0.04867 0.456775,-0.152259 0.909805,-0.312005 1.365332,-0.468007 0.56036,-0.340709 1.173137,-0.602793 1.684825,-1.028367 -0.04243,0.102337 -0.08362,0.204675 -0.124802,0.307012 -0.663946,0.871117 -1.430229,1.676089 -2.327554,2.310082 -0.993423,0.69265 -2.271394,1.069552 -3.463251,0.708875 -0.13853,-0.08487 -0.2833,-0.160995 -0.401862,-0.272068 -1.105744,-1.094513 -1.931932,-2.44986 -2.492292,-3.893818 -0.169731,-0.505447 -0.285797,-1.025871 -0.370662,-1.551286 z"
     id="path46" />
  <path
     style="fill:#ffbc3a"
     inkscape:connector-curvature="0"
     d="m 37.714949,62.388931 c 0.414342,-0.692651 1.218066,-1.224306 2.047998,-1.103249 0.524168,0.215908 1.032111,0.487976 1.496374,0.817452 0.08362,0.274564 0.04243,0.569097 0.03869,0.852397 -0.05991,1.038351 -0.04118,2.08419 -0.202179,3.115054 -0.736331,-0.94475 -1.594968,-1.817115 -2.627079,-2.436132 -0.237123,-0.152258 -0.517928,-0.198435 -0.787499,-0.250852 -0.07363,-0.08611 -0.146019,-0.170978 -0.217156,-0.255844 0.124802,-0.232131 0.172227,-0.491719 0.250852,-0.738826 z"
     id="path52" />
  <path
     style="fill:#ffbc3a"
     inkscape:connector-curvature="0"
     d="m 31.315111,62.879402 c 0.539144,-0.209667 1.131953,-0.179715 1.701049,-0.174723 0.02995,0.06739 0.09235,0.202179 0.122306,0.27082 -0.09735,0.446791 -0.0961,0.903565 -0.15101,1.356596 -0.343205,1.159409 -0.243364,2.412419 -0.722603,3.53938 -0.11357,-0.645226 -0.239619,-1.295443 -0.480487,-1.906972 -0.570344,-0.287044 -1.135697,-0.606537 -1.614936,-1.029615 -0.375653,-0.307013 -0.390629,-0.931022 -0.05117,-1.269235 0.343205,-0.336965 0.775019,-0.561608 1.196849,-0.786251 z"
     id="path54" />
</svg>
