<?xml version="1.0" encoding="UTF-8" standalone="no"?>
<svg
   xmlns:dc="http://purl.org/dc/elements/1.1/"
   xmlns:cc="http://creativecommons.org/ns#"
   xmlns:rdf="http://www.w3.org/1999/02/22-rdf-syntax-ns#"
   xmlns:svg="http://www.w3.org/2000/svg"
   xmlns="http://www.w3.org/2000/svg"
   xmlns:sodipodi="http://sodipodi.sourceforge.net/DTD/sodipodi-0.dtd"
   xmlns:inkscape="http://www.inkscape.org/namespaces/inkscape"
   width="100.01543"
   height="74.332108"
   viewBox="0 0 80.01234 59.465685"
   version="1.1"
   id="svg2"
   inkscape:version="0.48.1 "
   sodipodi:docname="UNO Mavericks.svg">
  <metadata
     id="metadata29">
    <rdf:RDF>
      <cc:Work
         rdf:about="">
        <dc:format>image/svg+xml</dc:format>
        <dc:type
           rdf:resource="http://purl.org/dc/dcmitype/StillImage" />
        <dc:title></dc:title>
      </cc:Work>
    </rdf:RDF>
  </metadata>
  <defs
     id="defs27" />
  <sodipodi:namedview
     pagecolor="#ffffff"
     bordercolor="#666666"
     borderopacity="1"
     objecttolerance="10"
     gridtolerance="10"
     guidetolerance="10"
     inkscape:pageopacity="0"
     inkscape:pageshadow="2"
     inkscape:window-width="1680"
     inkscape:window-height="994"
     id="namedview25"
     showgrid="false"
     fit-margin-top="0"
     fit-margin-left="0"
     fit-margin-right="0"
     fit-margin-bottom="0"
     inkscape:zoom="10.453087"
     inkscape:cx="50.007713"
     inkscape:cy="37.166054"
     inkscape:window-x="-4"
     inkscape:window-y="-4"
     inkscape:window-maximized="1"
     inkscape:current-layer="svg2" />
  <g
     id="g3779"
     transform="matrix(0.33860405,0,0,0.33860405,-7.4316659,-6.6711534)">
    <path
       d="m 116.34,56.86 c 3.51,-0.86 6.98,-2.08 10.62,-2.16 8.51,-0.31 16.56,3.44 25.06,3.17 6.33,0.21 12.64,-0.32 18.95,-0.5 2.7,-0.25 4.94,1.38 7.16,2.62 0.57,2.31 1.84,4.68 1.13,7.11 -0.63,1.71 -1.46,3.32 -2.19,4.99 3.93,0.28 8.96,2.06 9.61,6.52 -2.44,-1.58 -5.47,-1.64 -8.23,-1.1 -4.5,2.96 -3.79,9.05 -5.23,13.61 -1.38,4.2 -2.42,9.2 -6.61,11.52 2.26,0.17 4.48,-0.29 6.62,-0.99 0.17,5.46 -0.31,10.93 0.04,16.39 0.18,4.08 2.58,7.54 4.36,11.07 -3.6,-0.07 -7.21,0.15 -10.74,0.88 -3.4,0.83 -6.7,-0.66 -9.8,-1.88 -3.4,-1.44 -7.17,-0.74 -10.73,-0.62 -1,1.18 -2.26,2.2 -2.91,3.63 -0.84,4.66 -0.33,9.45 0.74,14.04 -1.2,2.54 -4.55,1.14 -6.76,1.4 -1.61,-1.92 -3.76,-3.82 -3.77,-6.54 -0.4,-4.55 -0.78,-9.17 -2.46,-13.47 -2.07,-5.26 -2.53,-10.96 -2.78,-16.55 -1.25,3.69 -2.82,7.46 -2.08,11.45 -11.06,-6.33 -20.86,-16.95 -22.17,-30.09 -0.43,0.03 -1.29,0.08 -1.71,0.1 -0.7,2.17 -1.18,4.4 -1.44,6.66 -8.65,2.81 -18.41,2.74 -26.62,-1.42 -4.56,-2.74 -8.15,-7.37 -8.83,-12.75 9.98,0.57 19.45,-3.22 28.16,-7.67 -3.85,4.47 -8.96,7.53 -14.18,10.16 13.82,-0.6 28.86,-6.48 35.48,-19.39 1.96,-3.07 1.37,-6.76 1.31,-10.19 m 3.25,19.65 c 2.02,1.32 4.14,2.46 6.31,3.5 -1.84,0.85 -3.68,1.73 -5.51,2.61 -0.06,2.37 -0.53,4.97 0.79,7.11 1.02,2.34 3.59,3.16 5.65,4.29 1.07,0.93 2.33,1.42 3.79,1.46 0.48,0.03 1.44,0.08 1.91,0.11 3.43,5.29 9.68,9.12 16.15,7.82 -2.46,-1.09 -5,-2.23 -6.76,-4.35 -5.68,-5.7 -6.93,-14.1 -11.54,-20.48 -2.68,-3.15 -7.16,-2.51 -10.79,-2.07 z"
       id="path21"
       inkscape:connector-curvature="0"
       style="fill:#ea0c0d;stroke:#ea0c0d;stroke-opacity:1" />
    <path
       d="m 99.04,107.15 c 1.13,-0.56 2.2,-1.21 3.22,-1.96 1.92,8.63 4.34,17.26 8.62,25.05 3.05,5.79 6.53,11.34 9.51,17.16 3.61,7.83 4.29,16.68 3.67,25.19 -12.05,-8.4 -18.74,-22.32 -22.85,-36.02 -2.14,-7.02 -2.4,-14.38 -3.58,-21.58 -2.35,5.31 -4.45,10.8 -5.24,16.59 -0.08,0.99 -0.53,1.79 -1.35,2.39 -6.49,-8.91 -15.64,-15.53 -24.94,-21.28 11.22,0.34 22.51,-1.34 32.94,-5.54 z"
       id="path23"
       inkscape:connector-curvature="0"
       style="fill:#ea0c0d;stroke:#ea0c0d;stroke-opacity:1" />
    <path
       d="m 27.35,20.63 c 0.45,-0.06 1.34,-0.19 1.78,-0.25 8.74,10.4 18.34,20.68 30.57,26.96 8.15,2.92 16.92,3.68 25.49,4.42 7.18,1.03 14.51,0.65 21.73,0.32 2.13,-0.42 4.2,-1.06 6.17,-1.99 8.7,-2.92 18.02,-1.3 26.86,0.03 2.65,0.33 5.32,0.51 7.93,1.08 4.07,0.33 8.16,0.39 12.23,0.02 5.85,-1.5 11.99,-1.13 17.98,-0.98 3.95,0.03 7.52,1.91 10.66,4.14 1.81,0.35 3.67,0.29 5.5,0.43 1.52,0.06 3.04,0.07 4.57,0 4.41,-0.24 8.85,-0.27 13.26,-0.69 2.6,-0.61 5.29,-0.7 7.94,-1 10.02,-1.41 18,-8.33 25.06,-15.08 3.89,-3.72 7.44,-7.76 11.08,-11.71 0.25,0.44 0.76,1.33 1.02,1.77 -2.16,5.62 -5.04,10.95 -7.94,16.22 -4.26,7.36 -8.87,14.98 -16.02,19.87 -9.91,5.26 -20.81,8.56 -31.8,10.68 1.98,0.63 3.48,2.1 5.08,3.34 7.27,5.79 16.45,9.21 25.76,9.33 -4.74,7.33 -11.36,14.4 -20.24,16.2 -6.02,0.04 -12.35,1.02 -18.14,-1.08 -0.67,1.38 -1.38,2.74 -2.12,4.08 -2.78,4.3 -6.18,8.26 -8.08,13.07 0.04,2.58 -0.63,5.37 0.6,7.78 3.29,5.5 1.63,12.68 -2.43,17.33 -2.92,3.14 -3.94,8.04 -8.2,9.81 -6.85,2.92 -14.86,-1.3 -21.54,2.46 -8.85,4.13 -13.67,13.5 -15.38,22.72 -0.54,4.97 -0.5,9.97 -0.38,14.96 -1.34,-1.09 -2.86,-1.91 -4.45,-2.55 -14.73,-7.05 -26.28,-19.9 -32.1,-35.12 -1.27,-3.43 -2.49,-6.91 -2.92,-10.57 -0.91,5.07 -0.42,10.22 -0.05,15.31 C 87.34,145.08 72.1,131.91 55.24,122.71 44.89,117.41 33.93,112.93 22.4,111.1 c 6.18,-3.38 12.18,-7.06 18.43,-10.31 4.39,-2.24 8.74,-4.56 13.27,-6.51 1.46,-0.7 2.91,-1.41 4.36,-2.11 -2.3,-3.5 -3.67,-7.47 -4.95,-11.42 4.96,-0.21 9.8,-1.39 14.63,-2.5 1.28,-0.47 2.58,-0.91 3.87,-1.35 3.38,-1.48 7.25,-2.73 9.43,-5.9 -6.17,0.13 -11.73,-2.91 -17.45,-4.77 -2.64,-1.1 -5.27,-2.22 -7.84,-3.48 -4.33,-2 -7.98,-5.21 -10.91,-8.93 -7.5,-9.25 -12.59,-20.1 -17.7,-30.77 -0.07,-0.8 -0.13,-1.61 -0.19,-2.42 m 27.06,29.69 c 1.59,1.13 3.15,2.32 4.64,3.58 7.64,4.68 16.36,7.24 25.09,8.94 2.25,0.5 4.54,0.8 6.8,1.29 2.99,0.34 6.02,0.4 8.96,1.06 3.4,0.29 6.8,0.41 10.21,0.35 0.34,-0.6 1.03,-1.8 1.38,-2.4 -0.08,-1.59 -0.46,-3.13 -1.09,-4.58 -0.56,-0.18 -1.68,-0.55 -2.24,-0.73 C 97.77,57.79 87.32,58.11 77,56.69 69.17,55.95 61.33,54.19 54.41,50.32 m 61.93,6.54 c 0.06,3.43 0.65,7.12 -1.31,10.19 -6.62,12.91 -21.66,18.79 -35.48,19.39 5.22,-2.63 10.33,-5.69 14.18,-10.16 -8.71,4.45 -18.18,8.24 -28.16,7.67 0.68,5.38 4.27,10.01 8.83,12.75 8.21,4.16 17.97,4.23 26.62,1.42 0.26,-2.26 0.74,-4.49 1.44,-6.66 0.42,-0.02 1.28,-0.07 1.71,-0.1 1.31,13.14 11.11,23.76 22.17,30.09 -0.74,-3.99 0.83,-7.76 2.08,-11.45 0.25,5.59 0.71,11.29 2.78,16.55 1.68,4.3 2.06,8.92 2.46,13.47 0.01,2.72 2.16,4.62 3.77,6.54 2.21,-0.26 5.56,1.14 6.76,-1.4 -1.07,-4.59 -1.58,-9.38 -0.74,-14.04 0.65,-1.43 1.91,-2.45 2.91,-3.63 3.56,-0.12 7.33,-0.82 10.73,0.62 3.1,1.22 6.4,2.71 9.8,1.88 3.53,-0.73 7.14,-0.95 10.74,-0.88 -1.78,-3.53 -4.18,-6.99 -4.36,-11.07 -0.35,-5.46 0.13,-10.93 -0.04,-16.39 -2.14,0.7 -4.36,1.16 -6.62,0.99 4.19,-2.32 5.23,-7.32 6.61,-11.52 1.44,-4.56 0.73,-10.65 5.23,-13.61 2.76,-0.54 5.79,-0.48 8.23,1.1 -0.65,-4.46 -5.68,-6.24 -9.61,-6.52 0.73,-1.67 1.56,-3.28 2.19,-4.99 0.71,-2.43 -0.56,-4.8 -1.13,-7.11 -2.22,-1.24 -4.46,-2.87 -7.16,-2.62 -6.31,0.18 -12.62,0.71 -18.95,0.5 -8.5,0.27 -16.55,-3.48 -25.06,-3.17 -3.64,0.08 -7.11,1.3 -10.62,2.16 m -17.3,50.29 c -10.43,4.2 -21.72,5.88 -32.94,5.54 9.3,5.75 18.45,12.37 24.94,21.28 0.82,-0.6 1.27,-1.4 1.35,-2.39 0.79,-5.79 2.89,-11.28 5.24,-16.59 1.18,7.2 1.44,14.56 3.58,21.58 4.11,13.7 10.8,27.62 22.85,36.02 0.62,-8.51 -0.06,-17.36 -3.67,-25.19 -2.98,-5.82 -6.46,-11.37 -9.51,-17.16 -4.28,-7.79 -6.7,-16.42 -8.62,-25.05 -1.02,0.75 -2.09,1.4 -3.22,1.96 m 53.74,32.19 c 1.87,-0.13 3.75,-0.19 5.62,-0.23 0.56,0.48 1.68,1.46 2.24,1.95 -0.86,-1.06 -1.7,-2.13 -2.52,-3.2 -2,-1.94 -4.01,-3.87 -6.14,-5.66 -2.16,2.19 -2.38,5.79 0.8,7.14 m 24.89,-4.86 c -1.54,1.27 -3.1,2.52 -4.58,3.87 -0.58,0.2 -1.72,0.61 -2.29,0.82 3.36,-0.3 7.87,1.8 9.82,-2.07 -0.36,-0.68 -1.09,-2.05 -1.45,-2.73 -0.37,0.03 -1.12,0.09 -1.5,0.11 z"
       id="path7"
       inkscape:connector-curvature="0"
       style="fill:#000000" />
    <path
       d="m 119.59,76.51 c 3.63,-0.44 8.11,-1.08 10.79,2.07 4.61,6.38 5.86,14.78 11.54,20.48 1.76,2.12 4.3,3.26 6.76,4.35 -6.47,1.3 -12.72,-2.53 -16.15,-7.82 -0.47,-0.03 -1.43,-0.08 -1.91,-0.11 -1.38,-1.17 -2.08,-2.8 -2.51,-4.51 1.05,0.3 2.1,0.61 3.15,0.93 -0.76,-1.48 -1.49,-2.96 -2.21,-4.46 -1.26,0.42 -2.51,0.84 -3.77,1.27 0.18,1.85 0.56,3.7 1.55,5.31 -2.06,-1.13 -4.63,-1.95 -5.65,-4.29 -1.32,-2.14 -0.85,-4.74 -0.79,-7.11 1.83,-0.88 3.67,-1.76 5.51,-2.61 -2.17,-1.04 -4.29,-2.18 -6.31,-3.5 z"
       id="path9"
       inkscape:connector-curvature="0"
       style="fill:#000000" />
    <g
       id="#ffffffff">
      <path
         id="path12"
         d="m 54.41,50.32 c 6.92,3.87 14.76,5.63 22.59,6.37 10.32,1.42 20.77,1.1 31.16,1.14 0.56,0.18 1.68,0.55 2.24,0.73 0.63,1.45 1.01,2.99 1.09,4.58 -0.35,0.6 -1.04,1.8 -1.38,2.4 C 106.7,65.6 103.3,65.48 99.9,65.19 96.96,64.53 93.93,64.47 90.94,64.13 88.68,63.64 86.39,63.34 84.14,62.84 75.41,61.14 66.69,58.58 59.05,53.9 57.56,52.64 56,51.45 54.41,50.32 z"
         inkscape:connector-curvature="0"
         style="fill:#ffffff" />
      <path
         id="path14"
         d="m 125.28,88.71 c 1.26,-0.43 2.51,-0.85 3.77,-1.27 0.72,1.5 1.45,2.98 2.21,4.46 -1.05,-0.32 -2.1,-0.63 -3.15,-0.93 0.43,1.71 1.13,3.34 2.51,4.51 -1.46,-0.04 -2.72,-0.53 -3.79,-1.46 -0.99,-1.61 -1.37,-3.46 -1.55,-5.31 z"
         inkscape:connector-curvature="0"
         style="fill:#ffffff" />
      <path
         id="path16"
         d="m 152.78,139.34 c -3.18,-1.35 -2.96,-4.95 -0.8,-7.14 2.13,1.79 4.14,3.72 6.14,5.66 0.82,1.07 1.66,2.14 2.52,3.2 -0.56,-0.49 -1.68,-1.47 -2.24,-1.95 -1.87,0.04 -3.75,0.1 -5.62,0.23 z"
         inkscape:connector-curvature="0"
         style="fill:#ffffff" />
      <path
         id="path18"
         d="m 177.67,134.48 c 0.38,-0.02 1.13,-0.08 1.5,-0.11 0.36,0.68 1.09,2.05 1.45,2.73 -1.95,3.87 -6.46,1.77 -9.82,2.07 0.57,-0.21 1.71,-0.62 2.29,-0.82 1.48,-1.35 3.04,-2.6 4.58,-3.87 z"
         inkscape:connector-curvature="0"
         style="fill:#ffffff" />
    </g>
  </g>
</svg>
