<?xml version="1.0" standalone="no"?>
<!DOCTYPE svg PUBLIC "-//W3C//DTD SVG 20010904//EN"
 "http://www.w3.org/TR/2001/REC-SVG-20010904/DTD/svg10.dtd">
<svg version="1.0" xmlns="http://www.w3.org/2000/svg"
 width="367.000000pt" height="272.000000pt" viewBox="0 0 367.000000 272.000000"
 preserveAspectRatio="xMidYMid meet">
<metadata>
Created by potrace 1.11, written by Peter Selinger 2001-2013
</metadata>
<g transform="translate(0.000000,272.000000) scale(0.100000,-0.100000)"
fill="#000000" stroke="none">
<path d="M1798 2620 c-20 -23 -40 -55 -43 -71 -4 -15 -15 -31 -26 -34 -10 -4
-24 -15 -29 -26 -9 -16 -22 -19 -76 -19 -159 0 -503 -52 -736 -111 -253 -63
-619 -191 -644 -224 -6 -8 -22 -15 -35 -15 -13 0 -55 -17 -94 -38 -67 -35 -70
-39 -73 -76 -2 -22 4 -59 13 -83 17 -43 16 -123 0 -231 -5 -28 -3 -48 4 -55 7
-7 11 -62 11 -152 0 -132 1 -143 23 -173 44 -59 117 -102 174 -102 l28 0 -25
-20 -25 -20 39 -35 c36 -32 61 -44 131 -60 29 -7 30 -7 7 -18 -28 -13 -28 -18
6 -49 37 -35 81 -56 149 -72 48 -11 54 -14 35 -20 -13 -4 -21 -13 -19 -19 5
-17 96 -65 137 -73 54 -10 66 -20 79 -66 22 -71 85 -189 148 -273 271 -365
745 -525 1179 -399 326 94 594 337 715 648 22 58 32 73 56 80 102 31 173 66
173 85 0 5 -10 13 -22 17 -19 6 -12 10 35 20 68 16 112 37 150 72 33 31 33 36
5 49 -23 11 -22 11 7 18 70 16 95 28 131 60 l39 35 -25 20 -25 20 30 0 c65 0
159 71 195 147 17 36 20 63 20 165 0 110 -3 129 -25 176 -30 65 -30 65 -6 52
11 -5 22 -10 25 -10 10 0 6 163 -4 202 -29 104 -113 176 -285 246 -373 150
-851 259 -1218 278 -108 6 -129 10 -137 25 -6 10 -19 20 -29 24 -11 3 -22 19
-26 35 -3 16 -23 48 -44 71 l-37 42 -36 -43z m-87 -232 c10 -13 18 -26 19 -29
0 -3 -64 -9 -142 -12 -322 -15 -720 -96 -1045 -212 -53 -19 -99 -33 -101 -30
-2 2 -2 15 2 28 7 31 72 58 271 115 284 81 561 132 840 155 114 10 136 8 156
-15z m584 -4 c245 -31 555 -101 811 -185 127 -41 164 -63 164 -98 0 -18 -5
-18 -82 11 -358 133 -873 237 -1175 238 -40 0 -73 3 -73 6 0 3 8 16 18 30 17
25 19 25 117 19 55 -3 154 -13 220 -21z m-617 -117 c23 -24 27 -36 30 -105 2
-42 8 -87 14 -99 8 -17 8 -29 0 -45 -6 -13 -12 -62 -14 -110 -3 -83 -5 -89
-35 -119 -26 -27 -41 -33 -87 -37 -112 -9 -146 29 -146 168 0 47 -4 80 -10 80
-12 0 -13 37 -1 44 5 3 10 43 13 90 5 95 21 129 71 152 51 23 132 13 165 -19z
m287 21 c15 -7 33 -24 41 -39 19 -39 19 -158 -2 -187 -14 -20 -14 -24 0 -44
12 -16 16 -47 16 -109 0 -65 4 -90 15 -99 8 -7 15 -21 15 -31 0 -15 -7 -19
-34 -19 -65 0 -66 2 -66 115 0 117 -9 135 -66 135 l-34 0 0 -126 0 -125 -37 3
-38 3 -3 128 c-1 73 -7 127 -12 127 -6 0 -10 9 -10 20 0 11 5 20 10 20 6 0 10
38 10 94 0 53 -4 98 -10 101 -5 3 -10 15 -10 26 0 17 8 19 95 19 52 0 106 -5
120 -12z m225 -23 c0 -13 -4 -27 -10 -30 -6 -4 -10 -87 -10 -216 0 -192 1
-209 18 -209 9 0 27 -3 40 -6 21 -6 22 -4 22 69 0 79 7 91 49 80 20 -5 21 -12
21 -107 0 -57 -2 -105 -4 -107 -3 -2 -53 0 -113 6 l-108 10 -3 120 c-1 67 -7
130 -14 143 -9 17 -9 25 0 34 15 15 16 184 2 193 -5 3 -10 16 -10 28 0 21 4
22 60 19 55 -4 60 -6 60 -27z m335 -24 l80 -16 3 -82 c3 -82 3 -83 -22 -83
-37 0 -56 25 -56 76 0 24 -4 44 -9 44 -5 0 -23 3 -40 6 l-32 7 3 -84 3 -84 50
-10 c47 -10 50 -13 53 -44 3 -28 1 -32 -15 -28 -10 3 -35 8 -55 12 l-38 6 0
-91 c0 -64 4 -92 13 -94 6 -3 24 -7 40 -10 26 -6 27 -5 27 38 0 51 17 70 54
60 25 -6 26 -9 26 -84 0 -44 -4 -81 -9 -84 -5 -3 -56 2 -115 12 l-106 17 0
118 c0 89 -4 123 -15 141 -14 21 -14 25 0 39 21 21 21 164 0 191 -8 11 -15 28
-15 38 0 20 27 18 175 -11z m-1295 -4 c0 -7 -7 -22 -14 -33 -20 -28 -39 -183
-26 -199 11 -13 4 -45 -10 -45 -4 0 -13 -54 -20 -119 -7 -66 -16 -124 -19
-129 -9 -15 -105 -32 -112 -21 -3 6 -18 78 -33 162 -24 133 -36 182 -36 151 0
-21 -59 -346 -63 -350 -10 -10 -107 -32 -111 -26 -2 4 -9 57 -17 117 -9 77
-17 114 -28 122 -13 10 -14 15 -4 32 16 26 -1 168 -24 193 -8 10 -13 24 -10
32 7 17 78 40 88 28 4 -4 17 -101 30 -216 13 -115 25 -203 28 -195 2 8 21 111
40 229 33 199 38 215 60 226 31 16 50 8 57 -22 3 -13 21 -106 38 -206 19 -104
35 -174 39 -163 3 11 16 113 28 227 25 224 21 214 87 217 20 1 32 -4 32 -12z
m1571 -54 c44 -9 55 -30 74 -150 10 -62 21 -113 25 -113 13 0 21 -32 11 -44
-6 -7 -1 -59 13 -139 12 -70 21 -129 19 -131 -2 -2 -19 1 -38 7 -32 9 -34 13
-40 66 -4 31 -9 63 -11 72 -5 17 -91 45 -103 34 -3 -4 -10 -32 -16 -63 -10
-56 -11 -57 -40 -53 -16 1 -33 5 -36 7 -3 2 4 56 16 120 18 91 20 122 11 136
-9 16 -8 22 6 32 23 17 55 163 39 179 -6 6 -11 22 -11 35 0 21 3 23 26 18 15
-4 39 -10 55 -13z m-2401 -66 c0 -7 -7 -22 -15 -33 -19 -25 -21 -215 -3 -244
10 -16 10 -24 0 -40 -8 -13 -12 -68 -12 -170 l0 -150 -27 -11 c-14 -5 -31 -8
-37 -6 -5 2 -31 73 -57 158 l-48 154 0 -181 c-1 -191 -2 -194 -48 -208 l-23
-7 0 145 c0 98 -4 153 -12 166 -10 15 -10 22 0 32 15 15 17 234 2 243 -23 14
-9 45 30 65 21 11 43 20 48 20 5 0 31 -73 58 -162 l49 -162 3 188 2 187 33 14
c41 18 57 18 57 2z m2652 -8 c24 -10 30 -25 67 -157 22 -81 43 -162 47 -180
14 -70 19 -33 16 124 -2 101 0 164 6 164 5 0 26 -7 46 -15 35 -15 49 -46 26
-60 -14 -9 -13 -171 2 -195 10 -15 10 -22 0 -32 -8 -8 -12 -50 -12 -131 l0
-119 -32 6 c-18 3 -35 12 -39 18 -5 7 -29 89 -56 183 l-48 170 -3 -157 c-3
-169 -4 -173 -53 -148 -17 10 -19 22 -19 133 0 84 -4 127 -12 135 -10 10 -10
17 0 32 15 24 16 186 2 195 -5 3 -10 17 -10 31 0 27 7 27 72 3z m-2382 -73 c0
-78 -1 -84 -22 -90 -44 -11 -48 -8 -48 38 0 25 -3 47 -8 50 -4 2 -22 -2 -40
-9 l-32 -14 0 -81 c0 -44 4 -80 9 -80 5 0 25 7 44 15 48 20 49 20 45 -17 -3
-28 -9 -35 -48 -49 l-45 -17 -3 -91 c-1 -50 0 -91 3 -91 3 0 21 7 40 14 33 14
35 17 35 65 0 46 3 52 30 66 16 8 32 15 35 15 3 0 4 -39 3 -86 l-3 -86 -107
-38 c-60 -22 -110 -35 -113 -29 -4 5 -5 58 -4 119 1 73 -3 115 -10 124 -10 11
-10 20 -1 36 16 29 15 176 0 195 -25 31 -6 47 100 86 147 53 140 56 140 -45z
m2776 28 c71 -34 110 -104 102 -184 l-3 -33 -32 27 c-25 21 -33 36 -33 60 0
40 -37 79 -72 74 -21 -3 -23 -8 -26 -72 l-3 -69 51 -47 c27 -27 50 -51 50 -54
0 -4 17 -32 38 -63 36 -54 37 -59 40 -159 3 -93 2 -104 -17 -123 -27 -27 -54
-26 -116 3 -59 27 -100 71 -115 124 -22 80 -7 101 44 61 19 -15 26 -30 26 -54
0 -25 8 -40 31 -59 57 -48 79 -29 79 66 0 83 -18 131 -56 150 -16 7 -30 22
-33 33 -2 11 -18 37 -37 59 -45 53 -57 94 -52 183 3 60 7 78 23 90 22 16 58
12 111 -13z m-1861 -395 c4 -5 -5 -27 -19 -47 -14 -20 -37 -64 -53 -97 -23
-50 -27 -74 -28 -145 0 -72 4 -94 27 -142 14 -31 45 -77 69 -102 23 -26 39
-49 36 -52 -10 -10 -44 15 -100 76 -46 49 -61 74 -78 132 -25 81 -22 178 7
261 9 26 14 50 12 52 -7 7 -228 -25 -358 -51 -170 -35 -401 -103 -578 -170
-81 -31 -161 -61 -178 -66 -35 -12 -112 -2 -98 12 33 32 379 162 599 225 305
87 718 151 740 114z m745 -9 c245 -34 476 -91 725 -178 130 -45 352 -137 369
-152 14 -14 -64 -23 -98 -12 -17 5 -97 35 -178 66 -177 67 -408 135 -578 170
-129 26 -351 58 -358 51 -2 -2 4 -28 14 -57 12 -35 18 -83 19 -143 0 -117 -30
-188 -115 -270 -52 -49 -80 -66 -80 -49 0 3 19 27 41 52 118 133 128 291 27
457 -21 36 -36 70 -33 75 9 15 96 12 245 -10z m-407 -101 c26 -10 42 -24 54
-49 33 -71 25 -180 -14 -180 -9 0 -27 -10 -40 -22 -13 -12 -26 -18 -30 -14
-12 11 12 41 36 44 35 5 59 92 25 92 -15 0 -27 -11 -74 -70 -17 -21 -21 -23
-30 -10 -5 8 -10 33 -11 55 -1 41 -3 37 -14 -27 -8 -49 -24 -48 -52 1 -21 37
-57 61 -70 47 -4 -3 -2 -23 3 -43 6 -27 16 -39 33 -43 26 -6 50 -35 38 -46 -4
-4 -17 2 -30 14 -13 12 -31 22 -40 22 -25 0 -40 47 -34 107 6 55 33 113 53
113 6 0 25 7 40 15 33 18 97 15 157 -6z m-595 -129 c-3 -45 -6 -52 -28 -56
-14 -3 -122 -31 -240 -62 -247 -65 -337 -73 -386 -36 -15 11 -29 25 -32 32 -6
18 303 105 523 147 174 34 167 35 163 -25z m1174 25 c222 -41 532 -128 525
-148 -2 -6 -15 -20 -30 -31 -43 -32 -128 -33 -233 -3 -75 22 -302 79 -396 101
-26 6 -28 10 -28 56 0 37 4 50 14 50 8 0 75 -11 148 -25z m-1156 -190 c7 -22
14 -41 14 -42 0 -4 -257 -83 -337 -104 -90 -23 -142 -20 -206 12 l-42 22 33
14 c91 37 491 146 516 139 4 -1 14 -20 22 -41z m1189 0 c134 -34 355 -103 355
-110 0 -11 -80 -44 -120 -50 -50 -7 -124 10 -333 76 -109 34 -128 43 -122 57
3 9 9 29 12 45 7 33 7 33 208 -18z m-1098 -161 c-1 -1 -67 -28 -147 -59 -121
-48 -156 -58 -210 -59 -50 -1 -73 4 -95 18 l-30 19 215 73 215 72 27 -31 c14
-18 26 -33 25 -33z m1261 -91 c-17 -21 -88 -35 -137 -28 -25 4 -110 32 -188
62 l-142 56 25 32 25 33 214 -71 c168 -56 212 -74 203 -84z m-973 45 c3 -13
19 -95 35 -182 27 -144 30 -193 15 -243 -8 -24 -33 -1 -39 35 -3 20 -26 87
-51 147 -25 61 -45 125 -45 143 0 42 23 97 47 111 26 15 32 14 38 -11z m270
-4 c28 -30 40 -80 31 -124 -3 -16 -24 -74 -47 -127 -23 -54 -44 -115 -47 -135
-4 -33 -25 -57 -35 -40 -18 31 -16 97 9 230 45 245 44 244 89 196z m-479 -13
l25 -20 -58 -37 c-85 -55 -143 -74 -221 -74 -37 0 -73 4 -80 8 -8 5 41 32 135
74 82 37 154 67 161 67 8 1 25 -8 38 -18z m832 -48 c96 -42 147 -70 140 -75
-7 -4 -44 -8 -83 -8 -79 0 -150 25 -229 79 l-49 34 24 18 c13 10 29 19 34 19
6 0 79 -30 163 -67z m-705 -213 c19 -47 38 -96 42 -110 l8 -24 -39 29 c-71 54
-123 128 -123 175 -1 26 31 103 52 129 10 11 13 2 18 -50 4 -37 22 -100 42
-149z m483 125 c14 -38 15 -52 5 -85 -12 -40 -116 -160 -139 -160 -8 0 -3 22
15 68 53 137 62 168 63 217 l1 50 19 -23 c10 -12 26 -43 36 -67z"/>
<path d="M1542 2224 c-21 -15 -22 -20 -22 -204 0 -177 1 -190 19 -200 29 -15
56 -12 74 8 15 16 17 46 17 205 0 174 -1 187 -19 197 -27 14 -43 13 -69 -6z"/>
<path d="M1850 2155 l0 -85 40 0 c48 0 60 18 60 89 0 59 -17 81 -66 81 l-34 0
0 -85z"/>
</g>
</svg>
