<?xml version="1.0" standalone="no"?>
<!DOCTYPE svg PUBLIC "-//W3C//DTD SVG 20010904//EN"
 "http://www.w3.org/TR/2001/REC-SVG-20010904/DTD/svg10.dtd">
<svg version="1.0" xmlns="http://www.w3.org/2000/svg"
 width="225.000000pt" height="279.000000pt" viewBox="0 0 225.000000 279.000000"
 preserveAspectRatio="xMidYMid meet">
<metadata>
Created by potrace 1.11, written by Peter Selinger 2001-2013
</metadata>
<g transform="translate(0.000000,279.000000) scale(0.100000,-0.100000)"
fill="#000000" stroke="none">
<path d="M68 2745 c16 -14 40 -46 53 -72 l24 -48 5 -750 6 -750 27 -75 c15
-41 54 -130 86 -197 173 -357 402 -600 711 -755 139 -70 162 -70 302 -1 294
146 547 413 708 748 37 77 78 169 91 205 l24 65 5 750 c5 734 5 751 26 795 11
25 35 60 53 78 l33 32 -199 0 -200 0 -24 -26 c-86 -92 -263 -92 -348 0 l-24
26 -297 0 -297 0 -24 -26 c-44 -47 -97 -68 -174 -68 -77 0 -130 21 -174 68
l-24 26 -200 0 -199 0 30 -25z m296 -340 c27 -41 50 -75 52 -75 2 0 4 27 4 59
0 41 -5 65 -16 75 -14 15 -12 16 22 16 33 0 35 -2 21 -12 -14 -11 -17 -35 -19
-138 l-3 -125 -65 102 c-36 56 -68 102 -72 102 -13 1 -9 -164 4 -177 9 -9 6
-12 -17 -12 -23 0 -26 3 -17 12 19 19 16 212 -4 232 -14 15 -12 16 23 16 36 0
40 -4 87 -75z m286 33 l-1 -43 -14 33 c-11 26 -20 32 -45 32 -29 0 -30 -1 -30
-50 0 -53 14 -66 30 -27 10 25 12 22 12 -33 0 -55 -2 -58 -12 -32 -16 39 -30
24 -30 -33 0 -51 2 -55 23 -55 26 0 50 16 65 45 10 17 11 15 12 -17 l0 -38
-92 1 c-51 0 -87 3 -80 6 8 3 12 37 12 118 0 98 -2 115 -17 124 -13 8 7 10 75
11 l92 0 0 -42z m113 24 c-2 -10 6 -50 18 -88 l22 -69 13 35 c17 48 17 92 -2
118 -15 22 -15 22 38 21 29 0 47 -3 41 -6 -7 -2 -13 -12 -13 -20 0 -25 33
-123 41 -123 4 0 15 30 25 66 15 56 15 67 3 75 -10 6 -5 9 19 9 31 0 32 -1 18
-22 -8 -13 -29 -74 -47 -135 -18 -62 -35 -113 -39 -113 -3 0 -17 37 -31 83
l-25 82 -28 -83 c-16 -46 -32 -80 -36 -75 -4 4 -22 55 -40 113 -17 58 -38 115
-46 128 -14 22 -14 22 30 22 38 0 43 -3 39 -18z m400 11 c-19 -7 -15 -32 12
-83 l23 -45 26 55 c18 40 22 57 14 67 -8 10 -3 13 22 13 31 0 32 -1 17 -17 -8
-10 -29 -47 -46 -83 -35 -74 -40 -133 -13 -149 13 -8 4 -10 -38 -10 -30 0 -49
3 -42 6 24 10 13 86 -24 163 -19 41 -41 78 -47 82 -7 4 15 7 48 7 33 0 54 -3
48 -6z m316 -9 c13 -9 29 -32 37 -50 41 -97 -11 -204 -98 -204 -111 0 -158
180 -65 252 28 22 95 23 126 2z m241 -4 c26 -26 26 -81 0 -105 -19 -17 -19
-18 2 -59 11 -22 27 -49 36 -58 14 -17 13 -18 -19 -18 -30 0 -37 5 -62 50 -38
68 -47 70 -47 11 0 -30 5 -51 13 -54 6 -3 -8 -6 -33 -6 l-45 -1 3 122 c2 92 0
123 -10 129 -8 5 19 9 65 9 64 0 80 -3 97 -20z m152 8 c-7 -7 -12 -35 -12 -62
l0 -50 45 44 c46 45 55 64 33 73 -7 3 7 6 32 6 37 0 42 -2 29 -12 -8 -7 -31
-30 -51 -53 l-37 -40 40 -65 c23 -35 48 -70 57 -76 13 -11 7 -13 -37 -13 -33
0 -50 4 -46 10 7 11 -45 100 -57 100 -14 0 -9 -98 5 -103 6 -3 -10 -6 -37 -6
-39 -1 -47 2 -38 11 8 8 12 49 12 120 0 91 -3 108 -17 117 -14 8 -5 10 37 11
42 0 51 -3 42 -12z m218 -428 c0 -20 -8 -20 -727 -22 l-726 -3 612 -688 c496
-558 610 -691 600 -703 -6 -7 -15 -11 -19 -9 -5 3 -289 320 -631 705 l-621
700 -204 0 c-197 0 -204 1 -204 20 0 20 7 20 960 20 952 0 960 0 960 -20z
m-1482 -209 c58 -69 68 -93 52 -131 -17 -40 -60 -70 -103 -70 -32 0 -35 -3
-61 -62 -28 -67 -32 -93 -16 -103 5 -3 80 26 166 65 86 39 158 69 161 66 2 -2
-34 -65 -80 -139 -46 -74 -88 -146 -93 -161 l-9 -27 -39 47 c-30 36 -34 45
-18 40 16 -5 25 1 42 30 l23 36 -29 29 -29 29 -33 -20 c-27 -17 -32 -25 -26
-43 6 -22 6 -21 -21 3 -15 14 -40 41 -56 62 l-29 36 34 81 c19 44 32 82 28 85
-4 3 -29 -16 -56 -41 -32 -32 -46 -52 -43 -65 8 -27 -4 -21 -47 28 -39 44 -39
44 -13 44 32 0 243 188 241 214 -3 27 11 19 54 -33z m210 -918 c339 -381 619
-698 621 -704 2 -7 -1 -10 -8 -8 -16 6 -1261 1408 -1261 1421 0 6 6 6 15 -2 9
-7 294 -325 633 -707z m-31 -25 c329 -370 603 -679 610 -688 10 -15 2 -22 -60
-57 -40 -22 -102 -52 -139 -67 l-68 -27 -77 33 c-171 71 -288 151 -438 302
-131 131 -247 297 -335 480 -102 212 -103 218 -108 480 -2 158 0 226 7 222 6
-4 279 -309 608 -678z m143 580 l24 -31 -33 -91 c-18 -50 -36 -100 -39 -111
-4 -13 17 0 62 39 48 43 66 65 63 78 -7 24 2 23 30 -4 28 -26 30 -38 4 -31
-13 3 -54 -27 -142 -106 -68 -60 -125 -106 -127 -102 -2 5 20 72 48 149 27 77
50 143 50 147 0 4 -40 -30 -90 -76 -66 -60 -90 -88 -90 -106 l0 -25 -25 30
c-30 36 -31 42 -7 35 17 -4 52 23 191 150 28 25 44 48 44 63 0 31 7 30 37 -8z
m234 -255 c15 -15 30 -40 33 -55 3 -16 12 -28 21 -28 11 0 3 -13 -23 -40 -47
-48 -61 -51 -40 -9 34 64 17 119 -37 119 -40 0 -82 -23 -140 -78 -77 -72 -96
-123 -59 -156 19 -17 21 -17 61 15 28 23 40 39 37 51 -8 29 9 21 42 -19 35
-43 38 -53 13 -47 -10 3 -29 -7 -46 -25 -17 -17 -40 -31 -52 -31 -31 0 -104
70 -105 101 -3 70 10 105 62 157 48 49 96 71 155 72 43 0 56 -5 78 -27z m226
-265 c0 -3 -18 -21 -40 -38 -22 -17 -40 -27 -40 -22 0 5 7 15 15 22 21 17 19
53 -4 81 l-19 24 -48 -45 c-27 -24 -50 -48 -52 -52 -6 -14 43 -8 66 8 44 30
21 -3 -37 -54 -64 -56 -81 -65 -57 -30 16 22 22 58 10 58 -11 0 -104 -83 -104
-93 0 -6 7 -19 17 -29 18 -21 82 -25 101 -6 6 6 14 9 18 6 3 -3 -16 -21 -42
-38 l-47 -33 -63 69 c-64 69 -77 91 -49 80 10 -3 56 31 130 97 102 89 115 105
110 127 -4 19 11 7 64 -50 39 -41 70 -78 71 -82z m136 -167 c15 -55 -56 -129
-113 -118 -22 4 -28 -2 -49 -50 -14 -31 -28 -71 -32 -90 l-7 -34 -27 28 -26
28 34 84 c18 47 32 86 30 89 -3 2 -28 -15 -56 -39 -43 -37 -50 -48 -44 -69 l6
-25 -27 25 c-15 14 -35 37 -46 51 -18 26 -18 26 5 22 34 -7 242 184 239 218
-2 20 7 14 52 -36 30 -33 58 -71 61 -84z m107 -100 c16 -6 28 -21 32 -40 4
-19 13 -31 23 -31 11 0 4 -12 -23 -40 -47 -48 -62 -52 -35 -7 32 51 22 97 -21
97 -37 0 -49 -28 -49 -112 0 -80 0 -81 -39 -119 -32 -32 -45 -39 -79 -39 -32
0 -45 6 -61 26 -12 15 -21 33 -21 40 0 8 -8 14 -17 14 -13 0 -8 9 18 36 18 20
42 40 52 45 15 9 15 6 -3 -23 -39 -65 -17 -134 35 -110 34 15 45 49 39 114 -7
66 17 115 67 140 39 21 48 22 82 9z"/>
<path d="M1385 2446 c-23 -34 -30 -123 -13 -171 17 -51 57 -61 83 -21 25 38
18 182 -10 202 -27 20 -42 17 -60 -10z"/>
</g>
</svg>
