<?xml version="1.0" encoding="UTF-8" standalone="no"?>
<!-- Created with Inkscape (http://www.inkscape.org/) -->

<svg
   xmlns:svg="http://www.w3.org/2000/svg"
   xmlns="http://www.w3.org/2000/svg"
   version="1.1"
   width="295"
   height="243"
   id="svg2">
  <defs
     id="defs4" />
  <g
     transform="translate(-195.35715,-296.57648)"
     id="layer1">
    <path
       d="m 342.85715,302.48273 c -39.67119,0 -76.17553,7.71096 -97.28125,21.9375 -23.72768,15.99391 -43,29.99377 -43,93.65625 0,63.66248 19.27232,77.66234 43,93.65625 21.10572,14.22654 57.61006,21.9375 97.28125,21.9375 39.67119,0 76.17553,-7.71096 97.28125,-21.9375 23.72768,-15.99391 43,-29.99377 43,-93.65625 0,-63.66248 -19.27232,-77.66234 -43,-93.65625 -21.10572,-14.22654 -57.61006,-21.9375 -97.28125,-21.9375 z m 0,18.65625 c 29.2434,0 51.78166,15.02166 61.09375,30.40625 9.31208,15.38459 8.40625,33.86628 8.40625,66.53125 0,32.66497 0.90583,51.14666 -8.40625,66.53125 -9.31209,15.38459 -31.85035,30.40625 -61.09375,30.40625 -29.2434,0 -51.78166,-15.02166 -61.09375,-30.40625 -9.31208,-15.38459 -8.40625,-33.86628 -8.40625,-66.53125 0,-32.66497 -0.90583,-51.14666 8.40625,-66.53125 9.31209,-15.38459 31.85035,-30.40625 61.09375,-30.40625 z"
       id="path2835"
       style="font-size:420.59945679px;font-style:normal;font-variant:normal;font-weight:bold;font-stretch:normal;fill:#004a00;fill-opacity:1;stroke:none;font-family:Century Schoolbook L;-inkscape-font-specification:Andale Mono Bold" />
  </g>
</svg>
