<?xml version="1.0" encoding="UTF-8" standalone="no"?>
<svg
   xmlns:dc="http://purl.org/dc/elements/1.1/"
   xmlns:cc="http://creativecommons.org/ns#"
   xmlns:rdf="http://www.w3.org/1999/02/22-rdf-syntax-ns#"
   xmlns:svg="http://www.w3.org/2000/svg"
   xmlns="http://www.w3.org/2000/svg"
   xmlns:sodipodi="http://sodipodi.sourceforge.net/DTD/sodipodi-0.dtd"
   xmlns:inkscape="http://www.inkscape.org/namespaces/inkscape"
   width="86.235268"
   height="79.183006"
   viewBox="0 0 68.988214 63.346404"
   version="1.1"
   id="svg2"
   inkscape:version="0.48.1 "
   sodipodi:docname="Rensselaer Engineers.svg">
  <metadata
     id="metadata27">
    <rdf:RDF>
      <cc:Work
         rdf:about="">
        <dc:format>image/svg+xml</dc:format>
        <dc:type
           rdf:resource="http://purl.org/dc/dcmitype/StillImage" />
        <dc:title></dc:title>
      </cc:Work>
    </rdf:RDF>
  </metadata>
  <defs
     id="defs25" />
  <sodipodi:namedview
     pagecolor="#ffffff"
     bordercolor="#666666"
     borderopacity="1"
     objecttolerance="10"
     gridtolerance="10"
     guidetolerance="10"
     inkscape:pageopacity="0"
     inkscape:pageshadow="2"
     inkscape:window-width="1680"
     inkscape:window-height="994"
     id="namedview23"
     showgrid="false"
     fit-margin-top="0"
     fit-margin-left="0"
     fit-margin-right="0"
     fit-margin-bottom="0"
     inkscape:zoom="9.8127115"
     inkscape:cx="43.117634"
     inkscape:cy="39.591503"
     inkscape:window-x="-4"
     inkscape:window-y="-4"
     inkscape:window-maximized="1"
     inkscape:current-layer="svg2" />
  <path
     id="path17"
     d="m 2.4319215,2.1420262 c 0.7805912,-0.5432058 1.77433,-0.694334 2.7031978,-0.5717206 0.6651064,0.07699 1.3109653,0.2758802 1.9218937,0.5453445 0.2922761,-0.023525 0.5717206,-0.1375836 0.862571,-0.17893 1.3159555,-0.2309694 2.652584,-0.3100979 3.984935,-0.3678402 1.213303,-0.044198 2.432308,-0.083406 3.641333,0.047762 1.519836,0.1504153 3.043236,0.4940179 4.402677,1.2090251 1.082134,0.5731464 2.039517,1.4221729 2.62193,2.5092975 0.448395,0.8390463 0.698612,1.7935774 0.657978,2.7473956 0.01925,0.9516796 0.260197,1.9860517 0.993739,2.6468807 -0.565305,0.474058 -0.863997,1.196194 -0.955244,1.914765 -0.07343,0.500434 -0.01069,1.012987 -0.122613,1.50843 -0.194613,1.097105 -0.817661,2.075161 -1.611083,2.840069 -1.144154,1.085699 -2.579872,1.827795 -4.073332,2.308268 1.325936,0.61877 2.307556,1.783598 2.999039,3.045375 0.933858,1.719439 1.481341,3.627788 1.785736,5.553959 0.08626,0.831205 0.578136,1.549064 1.116352,2.159992 0.605225,0.665107 1.307401,1.23255 2.05021,1.735835 -0.79271,0.522533 -1.781459,0.638018 -2.708188,0.547483 -0.771324,-0.06915 -1.527677,-0.261622 -2.2491,-0.541067 -0.943838,0.445543 -1.996032,0.683641 -3.041811,0.598097 0.06986,-2.170685 -0.02139,-4.372023 -0.572433,-6.482827 -0.419167,-1.586846 -1.143441,-3.158008 -2.38811,-4.267232 -1.246807,-1.122055 -3.013296,-1.631756 -4.6671507,-1.353024 -0.00285,2.440862 0,4.882437 -0.00143,7.324012 0.00214,0.213147 -0.01497,0.42986 0.025663,0.641581 0.2801572,1.360867 1.0350852,2.597694 2.0516362,3.536542 -0.833344,0.523958 -1.852746,0.650849 -2.8165442,0.548908 -0.732116,-0.0777 -1.4556777,-0.260197 -2.1343286,-0.54677 -0.9402737,0.398494 -1.9653787,0.670097 -2.9933352,0.550335 -0.5275228,-0.06487 -1.0621742,-0.228118 -1.4806281,-0.567444 0.8148088,-0.421305 1.3209455,-1.243955 1.6574195,-2.068031 0.2067319,-0.536791 0.3835233,-1.093541 0.4491072,-1.665261 0.00713,-2.877138 0.00285,-5.754276 0.00214,-8.631414 C 4.5348839,18.429648 4.3231619,17.356781 3.6031647,16.627516 3.9945295,16.374448 4.2048258,15.938172 4.3424094,15.509025 4.534171,14.883127 4.5904877,14.223723 4.5819332,13.571448 4.5740917,10.887498 4.6018936,8.2021222 4.5555571,5.5181719 4.3780528,4.1665731 3.6901346,2.7814694 2.4319215,2.1420262 M 11.127493,5.0840349 C 10.708326,5.2073612 10.265635,5.3891427 10.009002,5.761973 9.8044086,6.0399917 9.7637751,6.3971389 9.7623494,6.7321871 c -7.129e-4,2.7096136 0.00143,5.4199399 -7.129e-4,8.1295539 0,0.351444 0.2081576,0.662255 0.4327115,0.916036 0.523958,0.55675 1.274609,0.825502 2.010289,0.963085 0.841898,0.145425 1.708033,0.171089 2.554921,0.04705 0.907482,-0.132594 1.805696,-0.513266 2.439437,-1.191917 0.819798,-0.887521 1.217579,-2.183516 0.943125,-3.371155 -0.110495,-0.585265 -0.408474,-1.123481 -0.830492,-1.541222 0.697898,-0.626612 0.901779,-1.6246277 0.920313,-2.5242679 C 18.177763,7.3252938 17.785685,6.5190394 17.191866,5.9344872 16.398443,5.1631634 15.269972,4.8459368 14.185699,4.8238379 c -1.022966,-0.0057 -2.061616,0.00285 -3.058206,0.260197 z"
     inkscape:connector-curvature="0"
     style="fill:#f7001f;stroke:#f7001f;stroke-opacity:1" />
  <path
     id="path19"
     d="m 29.400454,16.952584 c 0.682215,-0.448394 1.505578,-0.652275 2.318248,-0.603799 0.811958,0.04063 1.61037,0.258058 2.348902,0.595245 1.511995,-0.403484 3.087434,-0.471919 4.642913,-0.555325 1.320233,-0.05489 2.646882,-0.100514 3.962837,0.05489 1.583994,0.175366 3.181533,0.551048 4.564498,1.370134 0.918174,0.541067 1.723716,1.294569 2.251952,2.225575 0.498295,0.868987 0.761343,1.875558 0.722848,2.877851 0.01283,0.948115 0.27089,1.961814 0.987323,2.628346 -0.717858,0.611642 -0.990174,1.587559 -0.993026,2.500743 0.01782,1.082135 -0.368553,2.147161 -1.002293,3.016147 -0.811957,1.124194 -1.965379,1.954686 -3.186523,2.584862 -1.775042,0.883244 -3.75254,1.422886 -5.745008,1.366569 -1.171243,-0.0093 -2.341773,-0.06915 -3.512303,-0.110495 0.01141,2.680386 -0.0086,5.361485 0.01069,8.041158 0.248791,1.403639 1.01156,2.71104 2.075873,3.654165 -0.851165,0.570295 -1.924745,0.65869 -2.919197,0.555324 -0.708591,-0.07841 -1.391519,-0.29584 -2.06019,-0.526097 -0.968075,0.400633 -2.023834,0.672235 -3.076741,0.523959 -0.497582,-0.0663 -0.980194,-0.247366 -1.384391,-0.548196 0.857581,-0.441266 1.378688,-1.318807 1.714449,-2.190645 0.220277,-0.631602 0.44483,-1.288154 0.406335,-1.966092 7.13e-4,-2.685376 -7.12e-4,-5.370039 0.0014,-8.055415 0.0029,-1.03865 -0.183207,-2.178527 -0.940273,-2.949138 0.539641,-0.379959 0.752789,-1.049342 0.869699,-1.668825 0.08198,-0.450533 0.111921,-0.908907 0.104079,-1.365856 -0.0029,-2.685376 0.01069,-5.370752 -0.02424,-8.055415 -0.174652,-1.359441 -0.861858,-2.768782 -2.137892,-3.399671 m 7.967019,3.264938 c -0.407761,0.253782 -0.631602,0.729265 -0.61877,1.204036 -0.0021,2.779474 -0.0036,5.558949 7.13e-4,8.338424 0.06701,0.503998 0.444117,0.907481 0.846175,1.19049 0.851878,0.562453 1.899082,0.696473 2.897098,0.73069 1.196906,0.02281 2.474367,-0.210296 3.410363,-1.007283 0.806255,-0.682215 1.259639,-1.727993 1.312391,-2.773059 -0.0036,-0.864709 -0.251642,-1.802132 -0.931006,-2.384545 0.697186,-0.63374 0.907482,-1.626054 0.931719,-2.530684 -0.04063,-0.640156 -0.28087,-1.265342 -0.6537,-1.785023 -0.465503,-0.659403 -1.179798,-1.118491 -1.948983,-1.343044 -0.988036,-0.300118 -2.03524,-0.237385 -3.052503,-0.18392 -0.749225,0.06843 -1.539084,0.139009 -2.193497,0.543918 z"
     inkscape:connector-curvature="0"
     style="fill:#f7001f;stroke:#f7001f;stroke-opacity:1" />
  <path
     id="path21"
     d="m 53.811213,31.729637 c 1.050055,-0.549621 2.276902,-0.667245 3.441017,-0.532512 0.871125,0.09624 1.748666,0.377107 2.427317,0.949541 0.806968,-0.682929 1.882686,-0.937423 2.916346,-0.990888 1.012273,-0.05418 2.050923,0.106218 2.95983,0.571008 -1.08855,0.199603 -2.117932,0.837621 -2.669693,1.814251 -0.508275,0.854016 -0.630888,1.870567 -0.619483,2.84791 -0.0029,1.899794 -0.04277,3.798876 -0.05347,5.698671 0.01782,0.645859 -0.06772,1.295282 0.04348,1.936864 0.111208,0.787007 0.493305,1.557618 1.14059,2.038092 0.302969,0.237385 0.656552,0.39778 1.020828,0.515404 -0.779165,0.220276 -1.474925,0.758492 -1.832072,1.492034 -0.354296,0.702888 -0.424157,1.511994 -0.377108,2.287595 0.0078,2.234843 0.0556,4.468973 0.06059,6.703816 0.0093,0.813383 0.136871,1.644588 0.517543,2.37314 0.399919,0.780591 1.090689,1.401499 1.901933,1.732983 0.269464,0.124039 0.563879,0.175366 0.844036,0.27089 -0.799125,0.396355 -1.69734,0.580988 -2.587713,0.559602 -1.147718,0.0078 -2.364585,-0.240236 -3.262799,-0.995877 -0.716433,0.609502 -1.655281,0.882531 -2.57702,0.968075 -1.117065,0.09766 -2.290447,-0.01283 -3.293453,-0.549621 0.998729,-0.180356 1.944705,-0.734968 2.519278,-1.581856 0.571007,-0.826927 0.768472,-1.85631 0.752076,-2.846484 -0.0014,-2.164982 0,-4.329251 -7.13e-4,-6.49352 0.01141,-0.739245 0.01996,-1.505579 -0.277306,-2.198487 -0.319365,-0.836908 -1.062887,-1.470648 -1.914765,-1.720865 0.707166,-0.231682 1.351599,-0.687205 1.726568,-1.33948 0.351444,-0.604512 0.476909,-1.316668 0.466216,-2.009576 -0.0021,-2.446565 0,-4.89313 -7.13e-4,-7.339696 -0.01782,-1.101381 -0.349306,-2.249813 -1.141303,-3.0468 -0.563166,-0.593819 -1.332351,-0.963085 -2.130051,-1.114214 z"
     inkscape:connector-curvature="0"
     style="fill:#f7001f;stroke:#f7001f;stroke-opacity:1" />
  <g
     id="#ffffffff"
     transform="translate(-22.58,-825.25371)" />
  <g
     id="#000000ff"
     transform="matrix(0.07128686,0,0,0.07128686,-1.2835496,-0.32521199)">
    <path
       style="fill:#000000"
       inkscape:connector-curvature="0"
       d="M 22.58,39.12 C 34.84,24.89 52.5,15.86 70.85,12.55 c 16.22,-2.98 32.68,1.07 47.92,6.47 27.02,-5.75 54.77,-6.69 82.3,-7.53 31.42,-0.58 63.58,2.52 92.82,14.73 22.35,9.33 42.56,25.31 53.87,47.03 5.52,10.46 9.02,21.99 10.25,33.76 0.82,7 -0.43,14.27 2.13,21.02 4.19,12.84 15.64,21.63 27.51,27.05 -9.46,3.9 -18.54,9.76 -24.21,18.47 -3.39,5.15 -5.17,11.27 -5.16,17.43 0.22,18.12 -6.27,36.01 -17.26,50.33 -12.4,16.27 -29.5,28.39 -47.71,37.38 19.58,19 31.92,44.13 40.37,69.77 4.99,15.46 8.79,31.33 11.03,47.43 0.85,6.41 4.66,11.91 8.57,16.87 12.72,15.24 29.17,26.96 46.55,36.31 -10.73,11.08 -24.43,19.64 -39.72,22.57 -16.8,3.28 -34.23,0.88 -50.47,-4.01 -1.84,-0.39 -3.74,-1.86 -5.6,-0.79 -13.3,5.32 -27.81,7.78 -42.11,6.71 -4.91,-0.53 -9.77,-1.42 -14.68,-1.95 1.34,-28.15 1.37,-56.59 -3.71,-84.41 -4.22,-22.46 -11.54,-45.37 -27.03,-62.72 -11.77,-13.27 -29.02,-21.23 -46.74,-21.78 -0.04,28.45 -0.01,56.9 -0.02,85.35 0.04,4.82 -0.32,9.71 0.88,14.43 2.73,11.07 9.06,20.86 16.25,29.55 6.28,7.35 13.4,14.17 21.94,18.85 -13.8,12.82 -32.01,21.02 -50.85,22.28 -14.61,0.77 -29.23,-2.08 -42.99,-6.87 -15.18,5.74 -31.85,8.9 -47.98,5.81 -15.89,-2.99 -30.18,-12.47 -39.99,-25.2 12.21,-2.73 23.09,-10.44 29.92,-20.9 6.51,-10.06 10.56,-21.95 10.33,-34.01 -0.03,-38.33 0.01,-76.65 -0.02,-114.98 -0.09,-10 -2.26,-20.55 -8.91,-28.35 -5.31,-6.51 -12.79,-10.62 -20.21,-14.28 7.82,-1.81 15.75,-4.93 21.2,-11.07 6.03,-6.51 8.38,-15.62 8.44,-24.31 C 67.72,166.98 67.8,134.97 67.72,102.97 66.94,93.69 68.68,84.13 65.65,75.13 60.08,55.95 42.21,41.67 22.58,39.12 m 29.54,-4.51 c 17.65,8.97 27.3,28.4 29.79,47.36 0.65,37.65 0.26,75.32 0.37,112.97 0.12,9.15 -0.67,18.4 -3.36,27.18 -1.93,6.02 -4.88,12.14 -10.37,15.69 10.1,10.23 13.07,25.28 13.2,39.17 0.01,40.36 0.07,80.72 -0.03,121.08 -0.92,8.02 -3.4,15.83 -6.3,23.36 -4.72,11.56 -11.82,23.1 -23.25,29.01 5.87,4.76 13.37,7.05 20.77,7.96 14.42,1.68 28.8,-2.13 41.99,-7.72 9.52,4.02 19.67,6.58 29.94,7.67 13.52,1.43 27.82,-0.35 39.51,-7.7 -14.26,-13.17 -24.85,-30.52 -28.78,-49.61 -0.57,-2.97 -0.33,-6.01 -0.36,-9 0.02,-34.25 -0.02,-68.5 0.02,-102.74 23.2,-3.91 47.98,3.24 65.47,18.98 17.46,15.56 27.62,37.6 33.5,59.86 7.73,29.61 9.01,60.49 8.03,90.94 14.67,1.2 29.43,-2.14 42.67,-8.39 10.12,3.92 20.73,6.62 31.55,7.59 13,1.27 26.87,-0.35 37.99,-7.68 -10.42,-7.06 -20.27,-15.02 -28.76,-24.35 -7.55,-8.57 -14.45,-18.64 -15.66,-30.3 -4.27,-27.02 -11.95,-53.79 -25.05,-77.91 -9.7,-17.7 -23.47,-34.04 -42.07,-42.72 20.95,-6.74 41.09,-17.15 57.14,-32.38 11.13,-10.73 19.87,-24.45 22.6,-39.84 1.57,-6.95 0.69,-14.14 1.72,-21.16 1.28,-10.08 5.47,-20.21 13.4,-26.86 C 347.5,145.8 344.12,131.29 343.85,117.94 344.42,104.56 340.91,91.17 334.62,79.4 326.45,64.15 313.02,52.24 297.84,44.2 278.77,34.17 257.4,29.35 236.08,27.24 219.12,25.4 202.02,25.95 185,26.57 c -18.69,0.81 -37.44,1.92 -55.9,5.16 -4.08,0.58 -8,2.18 -12.1,2.51 -8.57,-3.78 -17.63,-6.57 -26.96,-7.65 -13.03,-1.72 -26.97,0.4 -37.92,8.02 z"
       id="path6" />
    <path
       style="fill:#000000"
       inkscape:connector-curvature="0"
       d="m 174.1,75.88 c 13.98,-3.61 28.55,-3.73 42.9,-3.65 15.21,0.31 31.04,4.76 42.17,15.58 8.33,8.2 13.83,19.51 14.59,31.21 -0.26,12.62 -3.12,26.62 -12.91,35.41 5.92,5.86 10.1,13.41 11.65,21.62 3.85,16.66 -1.73,34.84 -13.23,47.29 -8.89,9.52 -21.49,14.86 -34.22,16.72 -11.88,1.74 -24.03,1.38 -35.84,-0.66 -10.32,-1.93 -20.85,-5.7 -28.2,-13.51 -3.15,-3.56 -6.07,-7.92 -6.07,-12.85 0.03,-38.01 0,-76.03 0.01,-114.04 0.02,-4.7 0.59,-9.71 3.46,-13.61 3.6,-5.23 9.81,-7.78 15.69,-9.51 m 7.89,13.04 c -3.8,0.85 -7.78,1.71 -11,4.03 -1.63,1.1 -1.37,3.29 -1.5,5.01 0.07,38.34 -0.09,76.69 0.08,115.02 1.35,3.22 4.42,5.39 7.35,7.12 9.78,5.29 21.15,6.25 32.06,6.6 10.92,0 22.28,-1.45 31.85,-7.07 14.91,-8.66 22.76,-29.06 15.69,-45.12 -4.45,-10.23 -14.78,-15.96 -24.66,-19.91 5.82,-2.49 11.64,-5.21 16.55,-9.27 6.25,-4.87 9.91,-12.43 10.51,-20.27 1.74,-10.67 -3.28,-21.72 -11.51,-28.46 -8.22,-6.75 -19.02,-9.32 -29.44,-9.83 -12.01,-0.15 -24.12,-0.06 -35.98,2.15 z"
       id="path8" />
    <path
       style="fill:#000000"
       inkscape:connector-curvature="0"
       d="m 568.01,219.63 c 23.23,-0.99 46.66,-0.44 69.53,4.05 21.13,4.06 42.02,11.4 59.54,24.16 20.41,14.56 35.11,37.23 38.79,62.16 2.06,10.62 -0.65,22.01 4.18,32.08 5.07,11.23 16.85,17.06 27.79,21.19 -9.12,2.5 -18.21,6.83 -24.11,14.48 -4.78,5.96 -6.98,13.65 -6.96,21.23 0.15,18.17 -6.41,36.06 -17.22,50.55 -10.81,14.62 -25.3,26.16 -40.96,35.22 -19.63,11.22 -41.24,18.91 -63.47,22.98 -22.05,4.23 -44.6,2.12 -66.86,1.48 0,31.93 -0.05,63.87 0.03,95.8 2.66,15.47 11.16,29.53 22.16,40.55 5.58,4.81 11.31,9.44 16.95,14.18 -10.78,6.68 -20.9,15.01 -33.36,18.36 -19.97,5.71 -41.38,2.61 -60.73,-4.02 -14.68,5.71 -30.79,8.56 -46.48,6.11 -9.11,-1.55 -18.18,-4.82 -25.39,-10.74 -5.31,-4.83 -10.68,-9.61 -15.9,-14.53 6.24,-3.26 12.5,-6.48 18.74,-9.73 4.45,-2.34 7.8,-6.26 10.52,-10.41 5.69,-8.98 9.18,-19.32 10.9,-29.77 0.12,-39.68 0,-79.36 0.06,-119.05 0.04,-9.48 -1.97,-19.29 -7.6,-27.09 -5.15,-7.43 -12.78,-12.75 -20.87,-16.58 8.09,-2.29 16.57,-5.28 22.29,-11.77 5.57,-6.43 6.54,-15.34 6.67,-23.52 -0.1,-38.69 0.26,-77.39 -0.35,-116.07 -1.66,-10.94 -6.15,-21.81 -14.31,-29.5 -8.08,-7.77 -18.93,-11.9 -29.78,-13.96 9.57,-14.27 25.99,-22.21 42.28,-26.06 17.66,-4.5 36.31,-1.01 52.99,5.55 23.25,-5.26 47.19,-6.33 70.93,-7.33 m -137.58,22.74 c 17.9,8.85 27.54,28.62 29.99,47.69 0.49,37.66 0.3,75.33 0.34,113 0.11,6.41 -0.31,12.84 -1.46,19.16 -1.64,8.69 -4.63,18.08 -12.2,23.41 10.62,10.81 13.23,26.8 13.19,41.37 -0.03,37.67 -0.01,75.33 -0.02,113 0.54,9.51 -2.61,18.72 -5.7,27.58 -4.71,12.23 -12.02,24.54 -24.05,30.73 5.67,4.22 12.44,6.76 19.42,7.69 14.77,2.08 29.58,-1.73 43.16,-7.35 9.38,3.23 18.96,6.28 28.9,7.38 13.95,1.45 29.01,0.21 40.95,-7.79 -14.93,-13.23 -25.63,-31.57 -29.12,-51.26 -0.27,-37.59 0.01,-75.2 -0.15,-112.8 16.42,0.58 32.84,1.42 49.27,1.55 27.95,0.79 55.69,-6.78 80.59,-19.17 17.13,-8.84 33.31,-20.49 44.7,-36.26 8.89,-12.19 14.31,-27.13 14.06,-42.31 0.04,-12.81 3.86,-26.5 13.93,-35.08 -10.05,-9.35 -13.67,-23.57 -13.85,-36.87 0.54,-14.06 -3.15,-28.18 -10.14,-40.37 -7.41,-13.06 -18.71,-23.63 -31.59,-31.22 -19.4,-11.49 -41.81,-16.76 -64.03,-19.22 -18.46,-2.18 -37.07,-1.54 -55.59,-0.77 -21.82,1.17 -43.92,2.13 -65.13,7.79 -10.36,-4.73 -21.56,-7.78 -32.95,-8.35 -11.4,-0.68 -22.95,2.18 -32.52,8.47 z"
       id="path10" />
    <path
       style="fill:#000000"
       inkscape:connector-curvature="0"
       d="m 542.19,288.17 c 9.18,-5.68 20.26,-6.67 30.77,-7.63 14.27,-0.75 28.96,-1.63 42.82,2.58 10.79,3.15 20.81,9.59 27.34,18.84 5.23,7.29 8.6,16.06 9.17,25.04 -0.34,12.69 -3.29,26.61 -13.07,35.5 9.53,8.17 13.01,21.32 13.06,33.45 -0.74,14.66 -7.1,29.33 -18.41,38.9 -13.13,11.18 -31.05,14.45 -47.84,14.13 -14,-0.48 -28.69,-2.36 -40.64,-10.25 -5.64,-3.97 -10.93,-9.63 -11.87,-16.7 -0.06,-38.99 -0.04,-77.98 -0.01,-116.97 -0.18,-6.66 2.96,-13.33 8.68,-16.89 m 13.59,9.71 c -3.38,1.02 -8.34,2.57 -7.77,7.05 -0.04,38.06 0.02,76.13 -0.02,114.19 -0.23,3.18 2.65,5.4 4.9,7.18 7.06,4.93 15.81,6.6 24.21,7.58 13.54,1.28 27.93,0.87 40.32,-5.38 16.73,-8.35 25.49,-30.95 16.85,-47.93 -4.6,-9.2 -13.8,-14.98 -23.18,-18.41 7.66,-3.44 15.56,-7.4 20.84,-14.16 4.72,-5.88 5.78,-13.72 5.83,-21.03 -0.73,-10.99 -7.72,-21.09 -17.32,-26.29 -9.53,-5.24 -20.69,-6.45 -31.4,-6.18 -11.14,0.14 -22.45,0.46 -33.26,3.38 z"
       id="path12" />
    <path
       style="fill:#000000"
       inkscape:connector-curvature="0"
       d="m 788.9,429.14 c 8.55,-1.61 17.42,-3.09 26.06,-1.26 13.56,2.31 27.47,4.31 40.08,10.09 16.7,-9.14 36.25,-12.22 55.08,-10.55 24.76,2.68 48.3,13.41 67.59,28.99 -16.94,0.47 -34.49,3.19 -49.06,12.38 -10.81,6.68 -19.16,17.61 -21.67,30.18 -1.72,7.23 -1.14,14.7 -1.23,22.07 0,30.97 0,61.94 0,92.91 0.07,10.7 5.7,20.78 13.88,27.47 11.19,9.37 25.57,13.85 39.72,16.38 -14.05,2.4 -28.22,6.97 -39.4,16.12 -8.12,6.61 -13.95,16.48 -14.18,27.12 -0.04,30 0,59.99 -0.02,89.99 0.21,9.3 -0.83,18.81 1.78,27.89 3.05,12.02 11.51,22.23 22.1,28.49 14.45,8.67 31.62,11.45 48.25,11.66 -14.64,11.83 -31.65,20.82 -49.84,25.73 -24.08,6.66 -50.87,4.74 -73.04,-7.14 -22.44,12.08 -49.65,13.8 -73.97,6.89 -17.83,-5.01 -34.53,-13.85 -48.9,-25.52 17.8,-0.14 36.38,-3.37 51.32,-13.61 12.75,-8.38 20.63,-23.24 20.79,-38.46 0.01,-35.33 0.01,-70.67 0.01,-106 -0.24,-10.38 -5.78,-20.01 -13.61,-26.6 -11.27,-9.48 -25.77,-14.03 -40.04,-16.6 14.24,-2.41 28.63,-7.04 39.89,-16.41 8.12,-6.65 13.72,-16.7 13.76,-27.33 -0.01,-34.99 -0.01,-69.99 0,-104.98 -0.08,-13.59 -6.13,-27.03 -16.68,-35.69 -15.26,-12.84 -35.9,-16.43 -55.28,-16.93 16.44,-13.27 35.88,-22.97 56.61,-27.28 m -16.04,20.52 c 11.19,2.12 21.98,7.3 29.88,15.63 11.11,11.18 15.76,27.29 16.01,42.74 0.01,34.32 -0.02,68.64 0.01,102.96 0.15,9.72 -1.61,19.71 -6.54,28.19 -5.26,9.15 -14.3,15.54 -24.22,18.79 11.95,3.51 22.38,12.4 26.86,24.14 4.17,9.72 4.05,20.47 3.89,30.84 0.01,30.36 -0.01,60.72 0.01,91.09 0.23,13.89 -2.54,28.33 -10.55,39.93 -8.06,11.88 -21.33,19.66 -35.34,22.19 14.07,7.53 30.53,9.08 46.2,7.71 12.93,-1.2 26.1,-5.03 36.15,-13.58 12.6,10.6 29.67,14.08 45.77,13.97 12.49,0.3 25.09,-2.29 36.3,-7.85 -3.93,-1.34 -8.06,-2.06 -11.84,-3.8 -11.38,-4.65 -21.07,-13.36 -26.68,-24.31 -5.34,-10.22 -7.13,-21.88 -7.26,-33.29 -0.07,-31.35 -0.74,-62.69 -0.85,-94.04 -0.66,-10.88 0.32,-22.23 5.29,-32.09 5.01,-10.29 14.77,-17.84 25.7,-20.93 -5.11,-1.65 -10.07,-3.9 -14.32,-7.23 -9.08,-6.74 -14.44,-17.55 -16,-28.59 -1.56,-9 -0.36,-18.11 -0.61,-27.17 0.15,-26.65 0.71,-53.29 0.75,-79.94 -0.16,-13.71 1.56,-27.97 8.69,-39.95 7.74,-13.7 22.18,-22.65 37.45,-25.45 -12.75,-6.52 -27.32,-8.77 -41.52,-8.01 -14.5,0.75 -29.59,4.32 -40.91,13.9 -9.52,-8.03 -21.83,-11.97 -34.05,-13.32 -16.33,-1.89 -33.54,-0.24 -48.27,7.47 z"
       id="path14" />
  </g>
</svg>
