<?xml version="1.0" standalone="no"?>
<!DOCTYPE svg PUBLIC "-//W3C//DTD SVG 20010904//EN"
 "http://www.w3.org/TR/2001/REC-SVG-20010904/DTD/svg10.dtd">
<svg version="1.0" xmlns="http://www.w3.org/2000/svg"
 width="300.000000pt" height="266.000000pt" viewBox="0 0 300.000000 266.000000"
 preserveAspectRatio="xMidYMid meet">
<metadata>
Created by potrace 1.11, written by Peter Selinger 2001-2013
</metadata>
<g transform="translate(0.000000,266.000000) scale(0.100000,-0.100000)"
fill="#000000" stroke="none">
<path d="M1015 2525 c-33 -7 -76 -20 -97 -29 -66 -28 -68 -33 -68 -176 0 -122
1 -130 25 -158 32 -38 109 -71 193 -82 37 -4 182 -8 322 -9 l255 0 3 -76 3
-75 -146 0 -145 0 0 28 0 27 -246 -3 -245 -3 3 -110 3 -110 550 0 c542 -1 551
0 618 22 37 12 78 32 92 45 24 22 25 27 25 157 0 151 -7 170 -78 206 -69 35
-135 41 -432 41 l-290 0 0 75 0 75 144 0 c142 0 145 0 148 -22 l3 -23 220 0
220 0 3 108 3 107 -513 -1 c-389 0 -528 -4 -573 -14z"/>
<path d="M884 1631 c-2 -2 -4 -46 -4 -97 l0 -93 58 -3 57 -3 3 -178 2 -178
-22 7 c-13 3 -35 13 -50 20 -15 8 -32 14 -38 14 -16 0 -14 -216 3 -223 6 -3
140 -57 297 -120 157 -63 307 -125 333 -136 27 -12 53 -21 58 -21 6 0 8 46 7
111 l-3 111 -55 22 -55 22 0 105 0 104 153 3 152 3 0 79 0 80 -155 0 -156 0 3
88 3 87 135 0 135 0 3 -27 3 -28 205 0 204 0 0 128 0 127 -636 0 c-350 0 -638
-2 -640 -4z"/>
</g>
</svg>
