<svg xmlns="http://www.w3.org/2000/svg" xmlns:xlink="http://www.w3.org/1999/xlink" version="1.1" id="Layer_3" x="0px" y="0px" width="100px" height="100px" viewBox="0 0 100 100" enable-background="new 0 0 100 100" xml:space="preserve">
<rect x="30" y="30" display="none" fill="#000000" width="40" height="40"/>
<g>
	<circle fill="none" cx="64" cy="36" r="2"/>
	<circle fill="none" cx="36" cy="50" r="2"/>
	<circle fill="none" cx="64" cy="64" r="2"/>
	<path d="M64,58c-1.618,0-3.083,0.643-4.162,1.684L41.95,50.739C41.979,50.496,42,50.251,42,50c0-0.25-0.021-0.496-0.05-0.739   l17.889-8.944C60.918,41.357,62.383,42,64,42c3.314,0,6-2.686,6-6s-2.686-6-6-6s-6,2.686-6,6c0,0.25,0.021,0.496,0.05,0.739   l-17.889,8.944C39.082,44.643,37.617,44,36,44c-3.313,0-6,2.687-6,6c0,3.314,2.687,6,6,6c1.617,0,3.082-0.643,4.161-1.683   l17.889,8.944C58.021,63.504,58,63.75,58,64c0,3.314,2.686,6,6,6s6-2.686,6-6S67.314,58,64,58z M64,34c1.103,0,2,0.897,2,2   s-0.897,2-2,2s-2-0.897-2-2S62.897,34,64,34z M36,52c-1.103,0-2-0.897-2-2c0-1.103,0.897-2,2-2s2,0.897,2,2   C38,51.103,37.103,52,36,52z M64,66c-1.103,0-2-0.897-2-2s0.897-2,2-2s2,0.897,2,2S65.103,66,64,66z"/>
</g>
</svg>