<svg xmlns="http://www.w3.org/2000/svg" xmlns:xlink="http://www.w3.org/1999/xlink" version="1.1" id="Layer_1" x="0px" y="0px" width="90px" height="90px" viewBox="0 0 90 90" enable-background="new 0 0 90 90" xml:space="preserve">
<path d="M10.169,22.902v10.818v23.545v10.818h72.099V22.902H10.169z M45.218,52.88c-3.381-0.521-5.989-3.63-5.989-7.386  c0-3.757,2.608-6.867,5.989-7.388V52.88z M47.218,38.106c3.381,0.521,5.99,3.631,5.99,7.388c0,3.756-2.609,6.865-5.99,7.387V38.106z   M12.169,35.721h7.622v19.545h-7.622V35.721z M12.169,57.266h9.622v-4.911c3.17-0.51,5.609-3.388,5.609-6.86  c0-3.474-2.439-6.353-5.609-6.862v-4.912h-9.622v-8.818h33.049v11.181c-4.487,0.526-7.989,4.544-7.989,9.411  c0,4.866,3.502,8.883,7.989,9.409v11.181H12.169V57.266z M21.791,40.669c2.061,0.493,3.609,2.465,3.609,4.825  c0,2.359-1.548,4.331-3.609,4.823V40.669z M47.218,66.084V54.903c4.487-0.526,7.99-4.543,7.99-9.409c0-4.867-3.503-8.885-7.99-9.411  V24.902h33.05v8.818h-9.854v4.912c-3.17,0.509-5.608,3.388-5.608,6.862c0,3.473,2.438,6.351,5.608,6.86v4.911h9.854v8.818H47.218z   M80.036,35.721v19.545h-7.623V35.721H80.036z M70.413,50.317c-2.061-0.493-3.608-2.464-3.608-4.823c0-2.36,1.548-4.332,3.608-4.825  V50.317z"/>
</svg>