<?xml version="1.0" encoding="UTF-8" standalone="no"?>
<svg
   xmlns:dc="http://purl.org/dc/elements/1.1/"
   xmlns:cc="http://creativecommons.org/ns#"
   xmlns:rdf="http://www.w3.org/1999/02/22-rdf-syntax-ns#"
   xmlns:svg="http://www.w3.org/2000/svg"
   xmlns="http://www.w3.org/2000/svg"
   xmlns:sodipodi="http://sodipodi.sourceforge.net/DTD/sodipodi-0.dtd"
   xmlns:inkscape="http://www.inkscape.org/namespaces/inkscape"
   width="49.56303"
   height="35.479858"
   viewBox="0 0 39.650424 28.383887"
   version="1.1"
   id="svg2"
   inkscape:version="0.48.1 "
   sodipodi:docname="St._Cloud_State_Huskies.svg">
  <metadata
     id="metadata18">
    <rdf:RDF>
      <cc:Work
         rdf:about="">
        <dc:format>image/svg+xml</dc:format>
        <dc:type
           rdf:resource="http://purl.org/dc/dcmitype/StillImage" />
        <dc:title />
      </cc:Work>
    </rdf:RDF>
  </metadata>
  <defs
     id="defs16" />
  <sodipodi:namedview
     pagecolor="#ffffff"
     bordercolor="#666666"
     borderopacity="1"
     objecttolerance="10"
     gridtolerance="10"
     guidetolerance="10"
     inkscape:pageopacity="0"
     inkscape:pageshadow="2"
     inkscape:window-width="1680"
     inkscape:window-height="994"
     id="namedview14"
     showgrid="false"
     fit-margin-top="0"
     fit-margin-left="0"
     fit-margin-right="0"
     fit-margin-bottom="0"
     inkscape:zoom="21.899749"
     inkscape:cx="17.72664"
     inkscape:cy="17.739929"
     inkscape:window-x="-4"
     inkscape:window-y="-4"
     inkscape:window-maximized="1"
     inkscape:current-layer="svg2" />
  <path
     style="fill:#000000"
     inkscape:connector-curvature="0"
     d="M 9.8669979,1.6065408 C 12.600063,0.54522166 15.548918,0.15646315 18.466706,0.11028234 c 1.404736,-0.005878 2.811991,0.0226706 4.205812,0.20319559 1.930358,0.30563303 3.831329,0.77079977 5.728101,1.23512687 0.230904,-0.1838836 0.460968,-0.3677672 0.691033,-0.5516508 2.256143,0.6230212 4.513125,1.2443631 6.770107,1.8648653 0.55501,2.4165162 1.10918,4.833872 1.658312,7.2529067 -0.842171,0.905984 -1.687699,1.810288 -2.531549,2.715432 0.02939,0.305633 -0.08481,0.657447 0.111674,0.922777 1.404736,2.140271 2.813671,4.277183 4.215049,6.419133 -1.095745,1.072235 -2.33591,1.988294 -3.619737,2.822068 -5.569406,3.582792 -12.30005,5.314992 -18.906426,4.915318 -2.91191,-0.19144 -5.822981,-0.854765 -8.4258994,-2.199046 C 5.7930103,24.387957 3.5855673,22.360199 2.0909882,19.884068 0.79624601,17.659832 0.17070587,15.018289 0.47969751,12.453155 0.68037415,10.647905 1.3756053,8.9148648 2.3974609,7.4186064 2.8752224,6.7326114 3.367258,6.0508146 3.9894395,5.4857293 5.6242404,3.7720012 7.6503188,2.4394748 9.8669979,1.6065408 M 13.260028,2.0918592 C 10.839314,2.5864137 8.4866114,3.5604091 6.5545739,5.120481 4.2237022,6.9920636 2.56791,9.7032973 2.0296936,12.648794 c -0.3434173,1.764947 -0.090682,3.613019 0.6045489,5.262094 1.1066603,2.627268 3.1612868,4.839749 5.6903162,6.152964 1.0814707,0.599511 2.2108013,1.125132 3.4039463,1.462672 2.024399,0.575161 4.136121,0.743931 6.231051,0.81782 1.623886,0.05626 3.254488,0.04366 4.869138,-0.151976 3.949719,-0.453412 7.797001,-1.785939 11.175757,-3.880868 1.183069,-0.739733 2.324154,-1.558393 3.340972,-2.516435 -1.296421,-1.893413 -2.601239,-3.78011 -3.901019,-5.671004 -0.635616,0.607068 -1.355197,1.118415 -2.102487,1.577704 -1.487022,0.905144 -3.099992,1.591139 -4.761662,2.102487 0.0076,-1.801052 -0.05962,-3.603783 0.005,-5.403995 0.685995,0.12007 1.3468,0.345936 2.012644,0.545773 0.0076,-0.711184 8.4e-4,-1.421529 0.0042,-2.132714 1.471069,0.638975 2.896797,1.407256 4.167189,2.392166 1.042847,-1.176351 2.078137,-2.35858 3.122663,-3.5324121 C 35.482237,7.8014873 35.062411,5.9324238 34.646784,4.0625205 32.968321,3.5763625 31.288179,3.0952424 29.609717,2.607405 29.349425,2.7921283 29.094171,2.9818894 28.838917,3.1733299 25.951356,2.246355 22.926093,1.7954623 19.902509,1.6560802 17.682471,1.5679168 15.440603,1.6359286 13.260028,2.0918592 M 29.634066,12.829319 c -0.0025,0.570123 -0.02771,1.139406 -0.04618,1.70869 -0.586077,-0.16877 -1.170474,-0.343417 -1.755711,-0.513867 0.0126,0.606229 0.0361,1.212457 0.05038,1.818685 0.557528,-0.21579 1.114217,-0.43326 1.658311,-0.680118 0.633937,-0.298076 1.153681,-0.775837 1.703652,-1.199022 -0.454251,-0.477761 -0.979872,-0.915219 -1.610451,-1.134368 z"
     id="path4" />
  <path
     style="fill:#fdfffc"
     inkscape:connector-curvature="0"
     d="m 13.260028,2.0918592 c 2.180575,-0.4559306 4.422443,-0.5239424 6.642481,-0.435779 3.023584,0.1393821 6.048847,0.5902748 8.936408,1.5172497 0.255254,-0.1914405 0.510508,-0.3812016 0.7708,-0.5659249 1.678462,0.4878374 3.358604,0.9689575 5.037067,1.4551155 0.415627,1.8699033 0.835453,3.7389668 1.245203,5.6105494 -1.044526,1.1738321 -2.079816,2.3560611 -3.122663,3.5324121 -1.270392,-0.98491 -2.69612,-1.753191 -4.167189,-2.392166 -0.0034,0.711185 0.0034,1.42153 -0.0042,2.132714 -0.665844,-0.199837 -1.326649,-0.425703 -2.012644,-0.545773 -0.06465,1.800212 0.0025,3.602943 -0.005,5.403995 1.66167,-0.511348 3.27464,-1.197343 4.761662,-2.102487 0.74729,-0.459289 1.466871,-0.970636 2.102487,-1.577704 1.29978,1.890894 2.604598,3.777591 3.901019,5.671004 -1.016818,0.958042 -2.157903,1.776702 -3.340972,2.516435 -3.378756,2.094929 -7.226038,3.427456 -11.175757,3.880868 -1.61465,0.195638 -3.245252,0.208233 -4.869138,0.151976 -2.09493,-0.07389 -4.206652,-0.242659 -6.231051,-0.81782 C 10.53536,25.188984 9.4060294,24.663363 8.3245587,24.063852 5.7955293,22.750637 3.7409028,20.538156 2.6342425,17.910888 1.9390113,16.261813 1.6862763,14.413741 2.0296936,12.648794 2.56791,9.7032973 4.2237022,6.9920636 6.5545739,5.120481 8.4866114,3.5604091 10.839314,2.5864137 13.260028,2.0918592 M 8.756979,4.8828598 C 6.7837987,5.9777649 5.0339656,7.5563092 3.9533345,9.5563583 2.8349191,11.595031 2.5024173,14.043454 2.9986511,16.312192 c 0.5239424,2.09493 1.8195242,3.951398 3.456844,5.335983 1.1830685,0.93873 2.4635366,1.772504 3.8590369,2.361099 2.252784,0.961401 4.720519,1.263675 7.14963,1.359396 1.819524,0.05122 3.644926,0.02687 5.453535,-0.198158 2.824586,-0.342578 5.606351,-1.100783 8.180721,-2.319117 1.761588,-0.846368 3.461882,-1.870742 4.893487,-3.210826 -0.9127,-1.372829 -1.837996,-2.737263 -2.754056,-4.107573 -0.953004,0.723779 -1.988294,1.332526 -3.058009,1.865705 -4.273825,2.11844 -9.155557,2.999234 -13.899586,2.514755 C 14.309592,19.685071 12.319619,19.208989 10.611769,18.165302 9.5277788,17.497779 8.5554628,16.527143 8.1910541,15.277742 7.8148904,14.035058 8.0835788,12.638718 8.8552182,11.601749 9.7956276,10.326318 11.240667,9.5362067 12.708378,9.0181419 14.504392,8.3959604 16.405362,8.1356685 18.297096,8.0466655 21.966372,7.857744 25.669234,8.5395407 29.04883,9.9745046 c 1.221692,0.5222634 2.414836,1.1268124 3.5131,1.8782994 0.748129,-0.79347 1.487862,-1.594497 2.237671,-2.387128 C 34.438551,7.9072834 34.07834,6.3488908 33.708054,4.7930171 32.517429,4.4495997 31.325964,4.1103807 30.1303,3.7879546 29.990918,3.7560478 29.852376,3.7006309 29.707956,3.7149049 29.455221,3.876118 29.251186,4.1003048 29.045471,4.3160952 27.936292,3.8668818 26.778413,3.5528523 25.609618,3.3059948 22.93281,2.7535043 20.18799,2.5729793 17.459124,2.660303 14.443937,2.732513 11.406079,3.4101116 8.756979,4.8828598 m 9.276466,4.1126115 c 0.682637,0.2267059 1.380387,0.507989 1.886697,1.0386487 0.502111,0.512187 0.722939,1.265354 0.620502,1.971501 -0.89171,0.01931 -1.78258,0.03527 -2.674289,0.0529 -0.06213,-0.357691 -0.259452,-0.74645 -0.644013,-0.832934 -0.392117,-0.08481 -0.831254,-0.106636 -1.197342,0.08229 -0.299756,0.140221 -0.377843,0.594473 -0.131825,0.81866 0.329983,0.261131 0.753167,0.351814 1.150322,0.462647 0.978193,0.255254 2.013483,0.471045 2.832983,1.100783 0.551651,0.411429 0.909342,1.053762 0.993307,1.73472 0.08732,0.748968 0.01008,1.544958 -0.361889,2.21248 -0.392118,0.703628 -1.111699,1.182229 -1.883338,1.376189 0.284642,0.02099 0.569283,0.01931 0.853925,0.0042 1.519769,-0.08229 3.035339,-0.260292 4.52656,-0.563406 0.0025,-2.204924 0,-4.409848 8.39e-4,-6.615612 -0.668362,-0.293038 -1.403896,-0.354333 -2.118439,-0.455091 -8.4e-4,-0.768281 0.0017,-1.537401 -8.4e-4,-2.3056818 -1.279629,-0.1326649 -2.569333,-0.1586941 -3.85316,-0.082286 m -7.611438,2.4173557 c -0.7791959,0.704467 -1.3384036,1.696935 -1.3644328,2.763292 -0.031067,0.817821 0.3904378,1.582743 0.9471268,2.156225 1.004223,1.030252 2.35942,1.617168 3.709579,2.047909 -0.685156,-0.677599 -1.074754,-1.598696 -1.245203,-2.536586 0.942089,-0.0059 1.883338,0.0059 2.824587,-0.0059 0.226705,0.40975 0.472723,0.882473 0.93789,1.055442 0.513027,0.130145 1.10666,0.09236 1.550836,-0.21831 0.257773,-0.178845 0.377003,-0.611266 0.107475,-0.832934 -0.367767,-0.304793 -0.848887,-0.413108 -1.291383,-0.564245 -1.075594,-0.340059 -2.244388,-0.635616 -3.063048,-1.462673 -0.630578,-0.627219 -0.717902,-1.586101 -0.606228,-2.424912 0.08564,-0.665844 0.421505,-1.284667 0.908502,-1.743956 -1.234287,0.363569 -2.45514,0.89003 -3.415701,1.766626 z"
     id="path6" />
  <path
     style="fill:#b80505;fill-opacity:1"
     inkscape:connector-curvature="0"
     d="m 8.756979,4.8828598 c 2.6491,-1.4727482 5.686958,-2.1503468 8.702145,-2.2225568 2.728866,-0.087324 5.473686,0.093201 8.150494,0.6456918 1.168795,0.2468575 2.326674,0.560887 3.435853,1.0101004 0.205715,-0.2157904 0.40975,-0.4399772 0.662485,-0.6011903 0.14442,-0.014274 0.282962,0.041143 0.422344,0.07305 1.195664,0.3224261 2.387129,0.6616451 3.577754,1.0050625 0.370286,1.5558737 0.730497,3.1142663 1.091547,4.6726589 -0.749809,0.792631 -1.489542,1.593658 -2.237671,2.387128 C 31.463666,11.101317 30.270522,10.496768 29.04883,9.9745046 25.669234,8.5395407 21.966372,7.857744 18.297096,8.0466655 16.405362,8.1356685 14.504392,8.3959604 12.708378,9.0181419 11.240667,9.5362067 9.7956276,10.326318 8.8552182,11.601749 c -0.7716394,1.036969 -1.0403278,2.433309 -0.6641641,3.675993 0.3644087,1.249401 1.3367247,2.220037 2.4207149,2.88756 1.70785,1.043687 3.697823,1.519769 5.668485,1.748154 4.744029,0.484479 9.625761,-0.396315 13.899586,-2.514755 1.069715,-0.533179 2.105005,-1.141926 3.058009,-1.865705 0.91606,1.37031 1.841356,2.734744 2.754056,4.107573 -1.431605,1.340084 -3.131899,2.364458 -4.893487,3.210826 -2.57437,1.218334 -5.356135,1.976539 -8.180721,2.319117 -1.808609,0.225027 -3.634011,0.249376 -5.453535,0.198158 -2.429111,-0.09572 -4.896846,-0.397995 -7.14963,-1.359396 C 8.9190317,23.420679 7.6385636,22.586905 6.4554951,21.648175 4.8181753,20.26359 3.5225935,18.407122 2.9986511,16.312192 2.5024173,14.043454 2.8349191,11.595031 3.9533345,9.5563583 5.0339656,7.5563092 6.7837987,5.9777649 8.756979,4.8828598 z"
     id="path8" />
  <path
     style="fill:#000000"
     inkscape:connector-curvature="0"
     d="m 18.033445,8.9954713 c 1.283827,-0.076408 2.573531,-0.050379 3.85316,0.082286 0.0025,0.7682808 0,1.5374008 8.4e-4,2.3056818 0.714543,0.100758 1.450077,0.162053 2.118439,0.455091 -8.39e-4,2.205764 0.0017,4.410688 -8.39e-4,6.615612 -1.491221,0.303114 -3.006791,0.48112 -4.52656,0.563406 -0.284642,0.01511 -0.569283,0.01679 -0.853925,-0.0042 0.771639,-0.19396 1.49122,-0.672561 1.883338,-1.376189 0.371965,-0.667522 0.449213,-1.463512 0.361889,-2.21248 -0.08396,-0.680958 -0.441656,-1.323291 -0.993307,-1.73472 -0.8195,-0.629738 -1.85479,-0.845529 -2.832983,-1.100783 -0.397155,-0.110833 -0.820339,-0.201516 -1.150322,-0.462647 -0.246018,-0.224187 -0.167931,-0.678439 0.131825,-0.81866 0.366088,-0.188922 0.805225,-0.167091 1.197342,-0.08229 0.384561,0.08648 0.581879,0.475243 0.644013,0.832934 0.891709,-0.01763 1.782579,-0.03359 2.674289,-0.0529 0.102437,-0.706147 -0.118391,-1.459314 -0.620502,-1.971501 -0.50631,-0.5306597 -1.20406,-0.8119428 -1.886697,-1.0386487 m 4.011014,3.6860687 c -0.02351,0.167091 -0.04702,0.334181 -0.06969,0.501272 -0.295557,0.01343 -0.591954,0.02099 -0.888351,0.02267 0.314869,0.33922 0.606228,0.704468 0.8195,1.115897 0.502111,0.923616 0.349295,2.033635 0.130985,3.016867 0.24098,-0.05626 0.4828,-0.111674 0.724619,-0.16961 0.0017,-1.403057 -0.0017,-2.806114 0,-4.208332 -0.235942,-0.101597 -0.476082,-0.19144 -0.717062,-0.278764 z"
     id="path10" />
  <path
     style="fill:#000000"
     inkscape:connector-curvature="0"
     d="m 10.422007,11.412827 c 0.960561,-0.876596 2.181414,-1.403057 3.415701,-1.766626 -0.486997,0.459289 -0.822858,1.078112 -0.908502,1.743956 -0.111674,0.838811 -0.02435,1.797693 0.606228,2.424912 0.81866,0.827057 1.987454,1.122614 3.063048,1.462673 0.442496,0.151137 0.923616,0.259452 1.291383,0.564245 0.269528,0.221668 0.150298,0.654089 -0.107475,0.832934 -0.444176,0.310671 -1.037809,0.348455 -1.550836,0.21831 -0.465167,-0.172969 -0.711185,-0.645692 -0.93789,-1.055442 -0.941249,0.01175 -1.882498,0 -2.824587,0.0059 0.170449,0.93789 0.560047,1.858987 1.245203,2.536586 C 12.364121,17.949512 11.008924,17.362596 10.004701,16.332344 9.448012,15.758862 9.0265071,14.99394 9.0575742,14.176119 9.0836034,13.109762 9.6428111,12.117294 10.422007,11.412827 m -0.04198,2.122638 c -0.197318,0.677599 0.09236,1.434125 0.639814,1.862347 0.0084,-0.335861 0.0025,-0.671721 0.0042,-1.007582 0.452572,-0.0076 0.905984,-0.0034 1.359396,-0.005 -0.165412,-0.208233 -0.324945,-0.421505 -0.442497,-0.660805 -0.251895,-0.486998 -0.298915,-1.042847 -0.409749,-1.571827 -0.504631,0.334181 -0.973996,0.787593 -1.151162,1.382905 z"
     id="path12" />
</svg>
