<svg xmlns="http://www.w3.org/2000/svg" xmlns:xlink="http://www.w3.org/1999/xlink" version="1.1" id="Layer_1" x="0px" y="0px" width="100px" height="100px" viewBox="0 0 100 100" enable-background="new 0 0 100 100" xml:space="preserve">
<g>
	<path fill="#000000" d="M38.619,88.201l0.09,0.021c0.01-0.07,0.03-0.131,0.05-0.191C38.709,88.082,38.659,88.143,38.619,88.201z"/>
	<path fill="#000000" d="M82.969,8.492c-0.09,0.53-0.549,0.91-1.069,0.91c-0.06,0-0.12,0-0.181-0.01c-0.6-0.1-1-0.67-0.899-1.26   l-1.89-0.32c-0.09,0.53-0.551,0.91-1.08,0.91c-0.061,0-0.121-0.01-0.18-0.02c-0.591-0.1-0.99-0.66-0.891-1.26l-1.891-0.32   c-0.09,0.54-0.56,0.92-1.08,0.92c-0.06,0-0.119-0.01-0.18-0.02c-0.59-0.1-1-0.67-0.89-1.26l-1.89-0.32   c-0.48,2.82-2.59,4.95-5.19,5.59v-4.55h-1.17c0,0.6-0.49,1.09-1.09,1.09c-0.601,0-1.091-0.49-1.091-1.09h-1.909   c0,0.6-0.5,1.09-1.091,1.09c-0.609,0-1.1-0.49-1.1-1.09h-0.84c-0.35-1.05-0.46-2.2-0.26-3.37l-1.881-0.32   c-0.09,0.54-0.559,0.92-1.079,0.92c-0.06,0-0.12-0.01-0.181-0.02c-0.6-0.1-1-0.67-0.899-1.26l-1.88-0.32   c-0.09,0.53-0.561,0.91-1.08,0.91c-0.06,0-0.12,0-0.18-0.01c-0.6-0.11-1-0.67-0.9-1.27l-1.88-0.32c-0.09,0.54-0.55,0.92-1.08,0.92   c-0.06,0-0.12-0.01-0.19-0.02c-0.59-0.1-0.99-0.67-0.89-1.26l-1.21-0.21l-1.98,11.7c-2.11-1.19-3.54-3.47-3.54-6.07h-1.91   c0,0.6-0.48,1.09-1.09,1.09s-1.09-0.49-1.09-1.09h-1.91c0,0.6-0.49,1.09-1.1,1.09c-0.6,0-1.09-0.49-1.09-1.09h-1.91   c0,0.6-0.49,1.09-1.1,1.09c-0.6,0-1.09-0.49-1.09-1.09h-1.23v86h1.23c0-0.6,0.49-1.09,1.09-1.09c0.61,0,1.1,0.479,1.1,1.09h1.91   c0-0.611,0.49-1.09,1.09-1.09c0.61,0,1.1,0.479,1.1,1.09h1.91c0-0.611,0.48-1.09,1.09-1.09s1.09,0.479,1.09,1.09h1.91   c0-2.18,1-4.131,2.57-5.41c0.05,0.16,0.07,0.34,0.04,0.52l1.88,0.311c0.13-0.781,0.39-1.51,0.76-2.17   c0.55-0.15,1.13-0.221,1.72-0.221c3.85,0,6.97,3.121,6.97,6.971h1.91c0-0.6,0.49-1.09,1.1-1.09c0.6,0,1.09,0.479,1.09,1.09h1.91   c0-0.6,0.49-1.09,1.1-1.09c0.591,0,1.091,0.479,1.091,1.09h1.909c0-0.6,0.49-1.09,1.091-1.09c0.6,0,1.09,0.479,1.09,1.09h1.17   v-0.701l0.8,0.141c0.09-0.529,0.551-0.91,1.08-0.91c0.061,0,0.12,0.01,0.18,0.02c0.59,0.102,1,0.66,0.9,1.25l1.141,0.201   l14.359-84.8L82.969,8.492z M59.309,10.072c0.83,0,1.57-0.39,2.041-1c0.479,0.61,1.22,1,2.05,1c0.271,0,0.521-0.04,0.76-0.11v2.27   c-0.06,0.01-0.11,0.01-0.17,0.01c-0.39,0-0.78-0.03-1.17-0.1c-1.57-0.26-2.92-1.03-3.92-2.11   C59.029,10.062,59.17,10.072,59.309,10.072z M38.709,88.223l-0.09-0.021c-0.78,0.971-1.34,2.111-1.63,3.352   c-0.46-0.41-1.07-0.66-1.73-0.66c-0.83,0-1.57,0.389-2.05,1c-0.47-0.611-1.22-1-2.05-1s-1.57,0.389-2.05,1   c-0.47-0.611-1.21-1-2.05-1c-0.28,0-0.56,0.039-0.82,0.129V9.942c0.26,0.09,0.54,0.13,0.82,0.13c0.84,0,1.58-0.39,2.05-1   c0.48,0.61,1.22,1,2.05,1s1.58-0.39,2.05-1c0.48,0.61,1.22,1,2.05,1c0.66,0,1.27-0.25,1.73-0.66c0.58,2.5,2.28,4.59,4.55,5.69   l-12.12,71.55l1.21,0.199c0.09-0.529,0.55-0.91,1.08-0.91c0.06,0,0.12,0.01,0.18,0.021c0.6,0.1,1,0.658,0.9,1.26l1.88,0.32   c0.09-0.541,0.55-0.91,1.08-0.91c0.06,0,0.12,0,0.18,0.01c0.6,0.109,1,0.67,0.9,1.26l1.79,0.299c0.04-0.059,0.09-0.119,0.14-0.17   C38.739,88.092,38.719,88.152,38.709,88.223z M57.249,91.893c-0.21-0.271-0.46-0.49-0.76-0.66c-0.37-0.221-0.81-0.34-1.28-0.34   c-0.67,0-1.27,0.25-1.73,0.66c-0.879-3.74-4.239-6.541-8.25-6.541c-0.14,0-0.28,0-0.41,0.02c1.27-1.209,2.97-1.93,4.79-1.93   c0.39,0,0.78,0.031,1.18,0.1c3.79,0.641,6.34,4.23,5.7,8.031l1.229,0.209C57.539,91.562,57.389,91.723,57.249,91.893z    M68.699,90.781c-0.23-0.109-0.471-0.189-0.73-0.229c-0.14-0.031-0.289-0.041-0.43-0.041c-0.67,0-1.29,0.26-1.76,0.68   c-0.04-0.059-0.08-0.129-0.12-0.199c-0.021-0.029-0.03-0.051-0.05-0.08c-0.35-0.5-0.86-0.84-1.45-0.99   c-0.069-0.029-0.149-0.051-0.229-0.061c-0.141-0.02-0.291-0.029-0.431-0.029c-0.68,0-1.29,0.25-1.76,0.68   c-0.05-0.1-0.11-0.189-0.17-0.279c-0.399-0.561-1-0.939-1.681-1.051c-0.14-0.029-0.289-0.039-0.43-0.039   c-0.51,0-0.98,0.15-1.38,0.4c-0.101-1.561-0.63-3.07-1.56-4.381c-1.301-1.84-3.25-3.061-5.48-3.439   c-0.47-0.08-0.95-0.121-1.43-0.121c-2.95,0-5.58,1.51-7.09,3.861c-0.27,0.408-0.51,0.859-0.7,1.318   c-0.22-0.27-0.49-0.488-0.79-0.648c-0.25-0.141-0.52-0.23-0.81-0.281c-0.14-0.029-0.29-0.039-0.43-0.039   c-0.67,0-1.29,0.26-1.75,0.68c-0.05-0.09-0.11-0.18-0.17-0.27c-0.41-0.57-1-0.941-1.69-1.051c-0.14-0.029-0.29-0.039-0.43-0.039   c-0.67,0-1.29,0.25-1.76,0.68c-0.36-0.68-1.03-1.191-1.85-1.33c-0.14-0.02-0.29-0.041-0.43-0.041c-0.14,0-0.27,0.01-0.4,0.031   l11.66-68.831l0.25-1.48l1.63-9.63c0.24,0.13,0.5,0.22,0.78,0.27c0.15,0.02,0.29,0.04,0.44,0.04c0.67,0,1.29-0.26,1.75-0.69   c0.37,0.68,1.04,1.2,1.86,1.34c0.14,0.02,0.28,0.03,0.43,0.03c0.67,0,1.29-0.25,1.75-0.68c0.369,0.68,1.04,1.19,1.859,1.33   c0.141,0.02,0.28,0.04,0.431,0.04c0.5,0,0.979-0.15,1.38-0.4c0.05,0.82,0.22,1.62,0.51,2.37c0.17,0.49,0.4,0.97,0.66,1.41   c1.23,2.07,3.32,3.6,5.87,4.03c0.47,0.08,0.94,0.12,1.42,0.12c0.06,0,0.11,0,0.17-0.01c0.511,0,1.011-0.06,1.5-0.16   c2.75-0.54,5.05-2.43,6.13-5.01c0.381,0.48,0.939,0.83,1.59,0.94c0.141,0.02,0.291,0.04,0.43,0.04c0.681,0,1.301-0.26,1.761-0.69   c0.05,0.09,0.11,0.19,0.17,0.28c0.399,0.56,1,0.94,1.681,1.05c0.149,0.03,0.289,0.04,0.43,0.04c0.68,0,1.3-0.26,1.76-0.69   c0.05,0.1,0.109,0.19,0.17,0.28c0.4,0.57,1,0.94,1.68,1.06c0.15,0.02,0.29,0.03,0.44,0.03c0.11,0,0.22,0,0.329-0.02L68.699,90.781z   "/>
</g>
</svg>