<?xml version="1.0" encoding="UTF-8" ?>
<!DOCTYPE svg PUBLIC "-//W3C//DTD SVG 1.1//EN" "http://www.w3.org/Graphics/SVG/1.1/DTD/svg11.dtd">
<svg width="438pt" height="630pt" viewBox="0 0 438 630" version="1.1" xmlns="http://www.w3.org/2000/svg">
<g id="#ffd911ff">
<path fill="#ffd911" opacity="1.00" d=" M 59.43 0.00 L 256.45 0.00 C 272.93 16.04 288.77 32.72 305.40 48.60 C 308.83 52.54 314.53 55.91 313.66 62.04 C 314.84 84.67 313.64 107.35 313.98 130.00 C 280.68 130.02 247.37 130.01 214.07 129.99 C 214.01 119.66 213.99 109.34 213.94 99.01 C 176.29 98.98 138.65 98.98 101.00 99.01 C 100.97 116.34 100.98 133.66 101.01 150.99 C 144.34 150.95 187.67 151.17 231.00 150.82 C 237.90 150.88 244.85 150.65 251.71 151.53 C 256.54 154.46 260.36 158.72 264.36 162.64 C 278.18 176.82 292.19 190.82 306.41 204.60 C 309.65 208.12 314.50 211.45 313.65 217.04 C 314.54 230.01 314.09 243.02 313.99 256.02 C 337.24 255.90 360.49 256.02 383.74 256.11 C 401.60 274.52 420.23 292.18 438.00 310.67 L 438.00 408.00 C 403.33 407.99 368.67 408.03 334.01 407.99 C 334.06 389.58 333.92 371.17 333.99 352.76 C 325.39 352.90 316.75 352.58 308.19 353.55 C 298.38 360.43 290.92 370.06 282.24 378.24 C 272.37 387.63 263.60 398.22 253.03 406.85 C 242.59 408.96 231.65 407.90 221.01 408.10 C 220.98 448.40 220.98 488.69 221.01 528.99 C 258.67 529.02 296.33 529.02 333.98 528.99 C 333.96 512.66 334.04 496.33 334.01 480.01 C 368.67 479.97 403.34 480.01 438.00 480.00 L 438.00 580.45 C 421.49 597.00 405.10 613.70 388.35 630.00 L 171.54 630.00 C 165.07 623.95 159.06 617.45 152.74 611.26 C 143.08 601.57 132.32 592.99 123.26 582.72 C 120.33 579.65 121.79 574.76 121.02 571.06 C 120.83 516.71 121.13 462.35 120.99 407.99 C 98.78 407.48 76.44 409.12 54.31 407.47 C 45.30 401.43 38.45 392.78 30.88 385.14 C 21.14 374.01 10.08 364.16 0.00 353.38 L 0.00 268.00 C 32.99 268.01 65.98 267.96 98.97 268.01 C 98.98 281.42 99.04 294.82 99.03 308.23 C 107.59 308.11 116.19 308.41 124.71 307.50 C 128.95 304.96 132.35 301.29 135.87 297.87 C 147.25 286.25 158.76 274.75 170.10 263.09 C 173.48 260.01 176.69 255.46 182.03 256.33 C 191.33 255.62 200.67 255.86 210.00 255.92 C 209.99 253.28 209.99 250.64 210.00 248.00 C 164.99 248.04 119.98 247.84 74.98 248.21 C 70.80 247.83 66.40 248.69 62.33 247.44 C 55.72 243.33 50.70 237.21 45.18 231.82 C 30.37 216.42 14.76 201.80 0.00 186.37 L 0.00 61.59 C 7.17 53.91 14.94 46.80 21.97 38.98 C 34.13 25.67 47.74 13.75 59.43 0.00 M 65.54 10.64 C 62.62 12.21 60.54 14.92 58.14 17.14 C 41.92 33.91 25.09 50.07 8.86 66.83 C 9.22 105.14 8.77 143.45 9.12 181.76 C 26.27 198.65 43.26 215.71 60.17 232.84 C 64.23 236.71 68.51 241.88 74.96 240.10 C 123.26 239.96 171.57 239.98 219.87 240.02 C 222.33 292.65 220.37 345.37 221.00 398.04 C 230.24 397.94 239.49 397.91 248.73 397.87 C 266.58 380.32 283.59 361.97 301.16 344.17 C 305.90 340.09 303.53 333.34 304.16 328.00 C 303.61 293.01 304.49 258.00 303.79 223.01 C 304.87 218.92 301.79 216.17 299.36 213.65 C 281.69 196.28 264.16 178.76 246.76 161.12 C 195.17 160.82 143.59 161.10 92.00 161.00 C 91.98 136.67 91.99 112.34 92.00 88.01 C 135.99 87.99 179.98 87.99 223.97 88.01 C 223.97 98.34 224.03 108.67 224.03 118.99 C 250.68 119.01 277.33 119.01 303.98 118.99 C 304.03 100.60 303.95 82.21 304.13 63.82 C 286.31 45.67 268.32 27.69 250.17 9.86 C 201.78 10.14 153.39 9.95 105.00 9.98 C 91.85 10.12 78.65 9.28 65.54 10.64 M 182.53 266.59 C 179.26 268.51 176.90 271.60 174.16 274.15 C 161.87 286.88 149.18 299.19 136.68 311.70 C 134.44 314.45 130.77 316.98 130.98 320.93 C 131.00 402.63 131.01 484.33 130.98 566.04 C 131.93 569.49 129.90 574.32 132.79 577.21 C 146.42 591.25 159.75 605.58 173.60 619.41 C 176.91 624.01 183.33 621.29 187.99 622.15 C 252.91 621.72 317.83 622.29 382.75 621.84 C 398.28 606.68 412.72 590.46 428.14 575.18 C 427.87 546.78 428.07 518.39 428.00 490.00 C 400.00 489.98 372.00 489.99 344.00 490.01 C 344.07 506.67 343.93 523.33 344.00 539.99 C 299.67 540.01 255.34 540.01 211.00 539.99 C 210.98 448.66 211.02 357.32 210.99 265.98 C 201.50 265.97 191.98 265.53 182.53 266.59 M 314.01 266.00 C 313.98 291.66 313.99 317.31 314.00 342.96 C 324.00 342.97 334.00 343.03 344.00 343.04 C 343.93 361.36 344.07 379.67 344.00 398.00 C 371.99 398.01 399.99 398.01 427.99 398.00 C 427.95 370.75 428.17 343.50 427.85 316.25 C 412.87 301.52 398.13 286.56 383.30 271.68 C 380.54 269.43 378.02 265.77 374.07 265.98 C 354.05 265.64 334.03 266.19 314.01 266.00 M 9.00 278.00 C 9.10 302.12 8.64 326.24 9.37 350.36 C 24.89 365.26 40.26 380.32 55.84 395.15 C 58.36 398.12 62.26 398.55 65.96 398.10 C 84.30 398.22 102.65 397.86 120.99 397.99 C 121.01 371.33 121.02 344.68 121.00 318.02 C 110.34 318.02 99.68 317.96 89.02 317.97 C 89.01 304.65 88.99 291.33 88.98 278.01 C 62.32 277.99 35.66 277.98 9.00 278.00 Z" />
</g>
<g id="#a4001dff">
<path fill="#a4001d" opacity="1.00" d=" M 65.54 10.64 C 78.65 9.28 91.85 10.12 105.00 9.98 C 153.39 9.95 201.78 10.14 250.17 9.86 C 268.32 27.69 286.31 45.67 304.13 63.82 C 303.95 82.21 304.03 100.60 303.98 118.99 C 277.33 119.01 250.68 119.01 224.03 118.99 C 224.03 108.67 223.97 98.34 223.97 88.01 C 179.98 87.99 135.99 87.99 92.00 88.01 C 91.99 112.34 91.98 136.67 92.00 161.00 C 143.59 161.10 195.17 160.82 246.76 161.12 C 264.16 178.76 281.69 196.28 299.36 213.65 C 301.79 216.17 304.87 218.92 303.79 223.01 C 304.49 258.00 303.61 293.01 304.16 328.00 C 303.53 333.34 305.90 340.09 301.16 344.17 C 283.59 361.97 266.58 380.32 248.73 397.87 C 239.49 397.91 230.24 397.94 221.00 398.04 C 220.37 345.37 222.33 292.65 219.87 240.02 C 171.57 239.98 123.26 239.96 74.96 240.10 C 68.51 241.88 64.23 236.71 60.17 232.84 C 43.26 215.71 26.27 198.65 9.12 181.76 C 8.77 143.45 9.22 105.14 8.86 66.83 C 25.09 50.07 41.92 33.91 58.14 17.14 C 60.54 14.92 62.62 12.21 65.54 10.64 Z" />
<path fill="#a4001d" opacity="1.00" d=" M 182.53 266.59 C 191.98 265.53 201.50 265.97 210.99 265.98 C 211.02 357.32 210.98 448.66 211.00 539.99 C 255.34 540.01 299.67 540.01 344.00 539.99 C 343.93 523.33 344.07 506.67 344.00 490.01 C 372.00 489.99 400.00 489.98 428.00 490.00 C 428.07 518.39 427.87 546.78 428.14 575.18 C 412.72 590.46 398.28 606.68 382.75 621.84 C 317.83 622.29 252.91 621.72 187.99 622.15 C 183.33 621.29 176.91 624.01 173.60 619.41 C 159.75 605.58 146.42 591.25 132.79 577.21 C 129.90 574.32 131.93 569.49 130.98 566.04 C 131.01 484.33 131.00 402.63 130.98 320.93 C 130.77 316.98 134.44 314.45 136.68 311.70 C 149.18 299.19 161.87 286.88 174.16 274.15 C 176.90 271.60 179.26 268.51 182.53 266.59 Z" />
<path fill="#a4001d" opacity="1.00" d=" M 314.01 266.00 C 334.03 266.19 354.05 265.64 374.07 265.98 C 378.02 265.77 380.54 269.43 383.30 271.68 C 398.13 286.56 412.87 301.52 427.85 316.25 C 428.17 343.50 427.95 370.75 427.99 398.00 C 399.99 398.01 371.99 398.01 344.00 398.00 C 344.07 379.67 343.93 361.36 344.00 343.04 C 334.00 343.03 324.00 342.97 314.00 342.96 C 313.99 317.31 313.98 291.66 314.01 266.00 Z" />
<path fill="#a4001d" opacity="1.00" d=" M 9.00 278.00 C 35.66 277.98 62.32 277.99 88.98 278.01 C 88.99 291.33 89.01 304.65 89.02 317.97 C 99.68 317.96 110.34 318.02 121.00 318.02 C 121.02 344.68 121.01 371.33 120.99 397.99 C 102.65 397.86 84.30 398.22 65.96 398.10 C 62.26 398.55 58.36 398.12 55.84 395.15 C 40.26 380.32 24.89 365.26 9.37 350.36 C 8.64 326.24 9.10 302.12 9.00 278.00 Z" />
</g>
</svg>
