<?xml version="1.0" encoding="UTF-8" standalone="no"?>
<!-- Created with Inkscape (http://www.inkscape.org/) -->

<svg
   xmlns:dc="http://purl.org/dc/elements/1.1/"
   xmlns:cc="http://creativecommons.org/ns#"
   xmlns:rdf="http://www.w3.org/1999/02/22-rdf-syntax-ns#"
   xmlns:svg="http://www.w3.org/2000/svg"
   xmlns="http://www.w3.org/2000/svg"
   version="1.1"
   width="248.98386"
   height="242.38736"
   id="svg5040">
  <defs
     id="defs5042" />
  <metadata
     id="metadata5045">
    <rdf:RDF>
      <cc:Work
         rdf:about="">
        <dc:format>image/svg+xml</dc:format>
        <dc:type
           rdf:resource="http://purl.org/dc/dcmitype/StillImage" />
        <dc:title></dc:title>
      </cc:Work>
    </rdf:RDF>
  </metadata>
  <g
     transform="translate(-142.65093,-303.52146)"
     id="layer1">
    <g
       transform="matrix(3.3535831,0,0,-3.3535831,12.271902,663.63613)"
       id="g5005">
      <path
         d="m 101.80251,84.671402 -2.686,0 0,-20.523 -0.018,-0.017 -5.834,-6.768 -16.601,0 -5.836,6.768 -0.018,0.017 0,20.523 -2.684,0 0,9.128 16.003,0 0,-9.128 -1.701,0 0,-17.257 5.072,0 0,17.257 -1.702,0 0,9.128 16.005,0 0,-9.128 z m -16.838,18.457998 c -13.292,0 -24.066,-11.288998 -24.066,-25.208998 0,-13.923 10.774,-25.214 24.066,-25.214 13.288,0 24.065,11.291 24.065,25.214 0,13.92 -10.777,25.208998 -24.065,25.208998"
         id="path3881"
         style="fill:#ffffff;fill-opacity:1;fill-rule:nonzero;stroke:none" />
      <path
         d="m 54.9142,71.516907 -0.358,2.885 0.004,0.058 0.192,2.788 1.147,-0.088 c 0,0 -0.178,-2.607 -0.187,-2.725 0.014,-0.117 0.345,-2.763 0.345,-2.763 l -1.143,-0.155 z m -0.802,-15.296 c 0,0 -0.399,4.585 -0.409,4.711 -0.034,0.113 -1.002,3.401 -1.002,3.401 0,0 1.11,2.947 1.186,3.145 l 0,1.6 1.151,0 0,-1.831 c 0,0 -0.987,-2.62 -1.117,-2.964 0.106,-0.357 0.917,-3.116 0.917,-3.116 l 0.422,-4.833 -1.148,-0.113 z m -8.252,-7.197 -1.151,0 0,1.747 c -0.112,0.126 -0.388,0.441 -0.388,0.441 l 0.004,0.243 0.096,4.737 1.151,-0.026 c 0,0 -0.081,-4.055 -0.092,-4.492 0.11,-0.126 0.38,-0.433 0.38,-0.433 l 0,-2.217 z m 12.017,42.223 c -0.062,-0.054 -0.126,-0.11 -0.197,-0.173 l -0.989,-3.732 -0.042,-0.074 c 0,0 -1.607,-2.756 -1.615,-2.752 -0.004,-0.006 -1.866,-5.269 -1.923,-5.424 -0.012,-0.166 -0.263,-3.834 -0.263,-3.834 0,0 -2.813,-3.573 -3.055,-3.88 l 0,-2.565 c 0.098,-0.21 0.678,-1.457 0.678,-1.457 l -0.07,-1.533 -1.151,0.059 c 0,0 0.046,0.979 0.058,1.222 -0.106,0.227 -0.666,1.428 -0.666,1.428 l 0,3.283 c 0,0 2.869,3.636 3.086,3.913 0.022,0.349 0.248,3.622 0.248,3.622 l 0.028,0.081 c 0,0 1.951,5.509 1.999,5.614 0,0 1.543,2.645 1.621,2.784 0.017,0.063 0.217,0.817 0.451,1.696 -4.746,-4.893 -14.995,-18.256 -15.11,-42.474 0.506,-0.218 2.137,-0.928 2.137,-0.928 0,0 0.028,-1.36 0.034,-1.734 0.07,-0.063 0.09,-0.08 0.178,-0.16 0.42,0.353 1.289,1.084 1.289,1.084 l 0.891,0 c 0,0 0.862,-1.113 1.082,-1.394 0.164,-0.021 0.27,-0.034 0.487,-0.059 0.248,0.42 0.802,1.369 0.802,1.369 0,0 2.544,2.775 2.796,3.052 0.028,0.319 0.216,2.465 0.272,3.078 l -3.108,6.575 0.102,2.058 c 0,0 1.155,1.969 1.323,2.25 -0.008,0.109 -0.01,0.155 -0.018,0.273 -0.176,0.206 -0.74,0.869 -0.74,0.869 l 0,1.167 1.152,0 0,-0.705 c 0.185,-0.223 0.711,-0.836 0.711,-0.836 l 0.068,-1.075 c 0,0 -1.225,-2.082 -1.363,-2.313 -0.01,-0.235 -0.058,-1.201 -0.07,-1.436 0.126,-0.269 2.89,-6.113 2.992,-6.327 l 1.655,-1.466 c 0.13,0.714 0.422,2.339 0.422,2.339 0,0 1.667,-0.16 2.194,-0.214 0.24,0.554 1.073,2.46 1.073,2.46 0,0 1.105,-0.025 1.598,-0.033 0.128,0.634 0.505,2.485 0.505,2.485 0,0 0.596,0.03 0.74,0.038 0.121,0.428 0.287,1.004 0.345,1.205 -0.08,0.311 -1.211,4.694 -1.211,4.694 l 0.04,0.156 0.716,2.778 c -1.515,3.552 -2.359,7.484 -2.359,11.619 0,4.81 1.143,9.345 3.155,13.327 l -2.978,0 z"
         id="path3885"
         style="fill:#ffffff;fill-opacity:1;fill-rule:nonzero;stroke:none" />
      <path
         d="m 59.963303,98.795395 -1.705,-4.438 1.705,0 0,4.438 z"
         id="path3889"
         style="fill:#ffffff;fill-opacity:1;fill-rule:nonzero;stroke:none" />
      <path
         d="m 85.797302,93.799393 0,-9.128 1.703,0 0,-17.257 -5.073,0 0,17.257 1.701,0 0,9.128 -16.003,0 0,-9.128 2.684,0 0,-20.523 0.018,-0.017 5.836,-6.768 16.601,0 5.834,6.768 0.018,0.017 0,20.523 2.685998,0 0,9.128 -16.004998,0 z"
         id="path3893"
         style="fill:#cc0000;fill-opacity:1;fill-rule:nonzero;stroke:none" />
      <path
         d="m 47.663101,42.566894 -1.687,0.21 c 0,0 -0.745,0.961 -1.005,1.293 -0.294,-0.244 -1.681,-1.406 -1.681,-1.406 l -1.293,1.154 c 0,0 -0.022,1.042 -0.03,1.491 -0.204,0.088 -0.616,0.264 -1.025,0.445 -0.006,-0.504 -0.012,-1.071 -0.015,-1.277 0.177,-0.197 0.624,-0.701 0.624,-0.701 0,0 -0.056,-1.549 -0.066,-1.839 0.15,-0.264 1.421,-2.49 1.559,-2.729 0.216,-0.126 1.333,-0.773 1.333,-0.773 0,0 0.156,-0.797 0.238,-1.226 l 0.166,0 c 0.186,0.198 0.568,0.601 0.568,0.601 0,0 0.877,0.399 1.191,0.545 0.138,0.412 0.927,2.784 0.927,2.784 0,0 0.728,0.252 1.006,0.345 0.211,0.52 0.727,1.776 0.729,1.776 0,0 0.364,1.226 0.74,2.494 -0.6,-0.655 -1.125,-1.231 -1.162,-1.268 -0.059,-0.105 -1.117,-1.919 -1.117,-1.919"
         id="path3897"
         style="fill:#cc0000;fill-opacity:1;fill-rule:nonzero;stroke:#cc0000" />
      <path
         d="m 61.035996,56.2966 c 0,0 -0.545,-0.025 -0.667,-0.029 -0.124,-0.614 -0.518,-2.549 -0.518,-2.549 0,0 -1.337,0.025 -1.793,0.033 -0.23,-0.524 -1.101,-2.514 -1.101,-2.514 0,0 -1.377,0.134 -1.963,0.188 -0.118,-0.659 -0.44,-2.435 -0.44,-2.435 l -1.139,0 -0.162,0.147 -1.261,1.134 -0.124,-1.428 0.326,0.097 1.613,-2.07 1.063,-1.617 c 0,0 0.112,-0.521 0.188,-0.869 0.168,-0.013 0.208,-0.017 0.352,-0.029 0.362,0.504 1.145,1.591 1.195,1.645 0,0 0.674,0.672 0.927,0.92 l 0,0.588 c -0.143,0.231 -0.931,1.482 -0.931,1.482 l 1.363,1.222 c 0,0 0.672,-0.248 0.99,-0.365 0.201,0.302 0.361,0.537 0.523,0.781 -0.064,0.159 -0.294,0.722 -0.294,0.722 0,0 0.886,0.814 1.078,0.995 0.076,0.298 0.541,2.162 0.541,2.162 0,0 0.996,1.31 1.384,1.823 -0.188,0.243 -0.524,0.675 -0.834,1.07 l -0.316,-1.104 z"
         id="path3901"
         style="fill:#cc0000;fill-opacity:1;fill-rule:nonzero;stroke:#cc0000" />
      <path
         d="m 55.899506,77.159897 -1.147,0.088 -0.192,-2.788 -0.004,-0.059 0.358,-2.884 1.143,0.155 c 0,0 -0.332,2.646 -0.346,2.763 0.01,0.118 0.188,2.725 0.188,2.725"
         id="path3905"
         style="fill:#231f20;fill-opacity:1;fill-rule:nonzero;stroke:none" />
      <path
         d="m 53.921005,64.282501 c 0.13,0.344 1.117,2.964 1.117,2.964 l 0,1.831 -1.151,0 0,-1.6 c -0.076,-0.197 -1.185,-3.145 -1.185,-3.145 0,0 0.967,-3.287 1.001,-3.401 0.01,-0.126 0.41,-4.711 0.41,-4.711 l 1.147,0.114 -0.422,4.832 c 0,0 -0.811,2.759 -0.917,3.116"
         id="path3909"
         style="fill:#231f20;fill-opacity:1;fill-rule:nonzero;stroke:none" />
      <path
         d="m 45.572494,56.166306 -1.151,0.025 -0.096,-4.736 -0.004,-0.243 c 0,0 0.276,-0.315 0.388,-0.441 l 0,-1.747 1.151,0 0,2.217 c 0,0 -0.27,0.307 -0.38,0.432 0.01,0.437 0.092,4.493 0.092,4.493"
         id="path3913"
         style="fill:#231f20;fill-opacity:1;fill-rule:nonzero;stroke:none" />
      <g
         transform="translate(84.964096,52.706497)"
         id="g3915">
        <path
           d="m 0,0 c -13.291,0 -24.066,11.29 -24.066,25.213 0,13.921 10.775,25.209 24.066,25.209 13.289,0 24.065,-11.288 24.065,-25.209 C 24.065,11.29 13.289,0 0,0 m -27.264,25.213 c 0,-4.135 0.844,-8.067 2.359,-11.618 l -0.716,-2.779 -0.04,-0.155 c 0,0 1.131,-4.384 1.211,-4.694 -0.058,-0.202 -0.224,-0.778 -0.345,-1.206 -0.144,-0.008 -0.74,-0.037 -0.74,-0.037 0,0 -0.377,-1.852 -0.505,-2.486 -0.492,0.008 -1.597,0.034 -1.597,0.034 0,0 -0.834,-1.907 -1.074,-2.461 -0.527,0.055 -2.194,0.214 -2.194,0.214 0,0 -0.292,-1.625 -0.422,-2.338 l -1.655,1.465 c -0.102,0.214 -2.866,6.059 -2.992,6.327 0.012,0.236 0.06,1.201 0.07,1.436 0.138,0.231 1.363,2.314 1.363,2.314 l -0.068,1.075 c 0,0 -0.526,0.613 -0.711,0.835 l 0,0.706 -1.152,0 0,-1.167 c 0,0 0.564,-0.664 0.74,-0.87 0.008,-0.117 0.01,-0.164 0.018,-0.273 -0.168,-0.281 -1.323,-2.25 -1.323,-2.25 l -0.102,-2.058 3.108,-6.575 c -0.056,-0.613 -0.244,-2.758 -0.272,-3.078 -0.252,-0.276 -2.796,-3.052 -2.796,-3.052 0,0 -0.554,-0.949 -0.802,-1.368 -0.217,0.025 -0.323,0.037 -0.487,0.058 -0.22,0.281 -1.081,1.394 -1.081,1.394 l -0.892,0 c 0,0 -0.869,-0.73 -1.289,-1.083 -0.088,0.08 -0.108,0.096 -0.178,0.159 -0.006,0.374 -0.034,1.734 -0.034,1.734 0,0 -1.631,0.71 -2.137,0.928 0.115,24.218 10.364,37.581 15.111,42.475 -0.235,-0.88 -0.435,-1.634 -0.452,-1.697 -0.078,-0.138 -1.621,-2.783 -1.621,-2.783 -0.048,-0.105 -1.999,-5.614 -1.999,-5.614 l -0.028,-0.082 c 0,0 -0.226,-3.273 -0.248,-3.621 -0.217,-0.277 -3.086,-3.914 -3.086,-3.914 l 0,-3.283 c 0,0 0.56,-1.201 0.666,-1.428 -0.012,-0.243 -0.058,-1.221 -0.058,-1.221 l 1.151,-0.059 0.07,1.532 c 0,0 -0.579,1.247 -0.678,1.457 l 0,2.566 c 0.242,0.306 3.055,3.879 3.055,3.879 0,0 0.251,3.668 0.263,3.834 0.057,0.155 1.919,5.418 1.923,5.424 0.008,-0.004 1.615,2.753 1.615,2.753 l 0.042,0.073 0.989,3.733 c 0.071,0.062 0.135,0.119 0.197,0.172 l 2.978,0 c -2.012,-3.981 -3.155,-8.517 -3.155,-13.327 m 3.652,-20.519 c 0.309,-0.395 0.645,-0.827 0.833,-1.07 -0.388,-0.513 -1.383,-1.823 -1.383,-1.823 0,0 -0.465,-1.864 -0.542,-2.162 -0.191,-0.181 -1.077,-0.995 -1.077,-0.995 0,0 0.23,-0.563 0.294,-0.722 -0.162,-0.244 -0.322,-0.479 -0.523,-0.781 -0.318,0.117 -0.99,0.365 -0.99,0.365 l -1.363,-1.222 c 0,0 0.788,-1.251 0.931,-1.482 l 0,-0.588 c -0.253,-0.248 -0.927,-0.919 -0.927,-0.919 -0.05,-0.055 -0.833,-1.142 -1.195,-1.646 -0.144,0.012 -0.184,0.017 -0.352,0.029 -0.076,0.349 -0.188,0.869 -0.188,0.869 l -1.063,1.617 -1.613,2.07 -0.326,-0.097 0.124,1.428 1.261,-1.134 0.162,-0.147 1.139,0 c 0,0 0.322,1.776 0.44,2.435 0.586,-0.054 1.963,-0.188 1.963,-0.188 0,0 0.871,1.99 1.101,2.514 0.456,-0.008 1.793,-0.033 1.793,-0.033 0,0 0.393,1.935 0.518,2.549 0.121,0.004 0.667,0.029 0.667,0.029 l 0.316,1.104 z m -12.15,-14.141 c -0.002,0 -0.518,-1.255 -0.729,-1.776 -0.278,-0.092 -1.006,-0.345 -1.006,-0.345 0,0 -0.789,-2.371 -0.927,-2.783 -0.314,-0.147 -1.191,-0.546 -1.191,-0.546 0,0 -0.382,-0.403 -0.568,-0.6 l -0.166,0 c -0.082,0.428 -0.238,1.226 -0.238,1.226 0,0 -1.117,0.646 -1.333,0.772 -0.138,0.24 -1.409,2.465 -1.559,2.729 0.01,0.29 0.066,1.839 0.066,1.839 0,0 -0.448,0.504 -0.624,0.702 0.003,0.205 0.009,0.772 0.015,1.276 0.409,-0.18 0.821,-0.357 1.025,-0.445 0.008,-0.449 0.03,-1.491 0.03,-1.491 l 1.293,-1.154 c 0,0 1.387,1.163 1.681,1.406 0.26,-0.331 1.005,-1.293 1.005,-1.293 l 1.687,-0.21 c 0,0 1.058,1.814 1.117,1.919 0.036,0.038 0.562,0.613 1.162,1.268 -0.376,-1.268 -0.74,-2.494 -0.74,-2.494 m 10.761,55.536 0,-4.438 -1.705,0 1.705,4.438 z M 0,53.781 c -9.198,0 -17.346,-4.798 -22.286,-12.13 l -1.915,0 0,6.563 -0.928,0 -2.206,-3.695 -1.215,1.377 -0.256,-0.906 0.831,-3.339 -1.717,0 0,-3.111 0.857,0 C -33.271,34.275 -45.162,20.377 -45.163,-6.042 L -45.192,-8.7 c 0,0 0.434,-0.491 0.612,-0.688 -0.014,-0.37 -0.062,-1.697 -0.062,-1.697 l 1.895,-3.317 c 0,0 0.833,-0.483 1.139,-0.659 0.07,-0.361 0.318,-1.646 0.318,-1.646 l 1.583,0 c 0,0 0.631,0.664 0.751,0.79 0.172,0.079 1.453,0.667 1.453,0.667 0,0 0.754,2.264 0.905,2.721 0.284,0.097 0.958,0.328 0.958,0.328 l 0.955,2.334 c 0.018,0.051 1.082,3.628 1.395,4.686 0.052,0.017 0.054,0.017 0.11,0.033 0.324,-0.415 1.102,-1.415 1.103,-1.415 0,-0.004 0.748,-1.142 0.912,-1.385 0.04,-0.189 0.324,-1.511 0.324,-1.511 l 1.825,-0.148 c 0,0 1.503,2.087 1.508,2.096 0.006,-0.005 1.048,1.024 1.048,1.024 l 0.179,0.18 0,1.474 c 0,0 -0.341,0.546 -0.559,0.891 0.04,0.037 0.046,0.041 0.084,0.075 0.318,-0.118 1.185,-0.437 1.185,-0.437 l 1.395,2.083 c 0,0 -0.176,0.432 -0.218,0.533 0.264,0.248 0.716,0.664 0.716,0.664 0,0 0.511,2.049 0.567,2.271 0.139,0.181 1.813,2.385 1.813,2.385 l -2.028,2.607 c -0.254,0.978 -1.077,4.17 -1.144,4.422 0.027,0.105 0.165,0.639 0.331,1.283 C -19.571,2.854 -10.466,-3.359 0,-3.359 15.031,-3.359 27.263,9.46 27.263,25.213 27.263,40.965 15.031,53.781 0,53.781"
           id="path3917"
           style="fill:#231f20;fill-opacity:1;fill-rule:nonzero;stroke:none" />
      </g>
    </g>
  </g>
</svg>
