<?xml version="1.0" encoding="UTF-8" standalone="no"?>
<!-- Created with Inkscape (http://www.inkscape.org/) -->

<svg
   xmlns:osb="http://www.openswatchbook.org/uri/2009/osb"
   xmlns:dc="http://purl.org/dc/elements/1.1/"
   xmlns:cc="http://creativecommons.org/ns#"
   xmlns:rdf="http://www.w3.org/1999/02/22-rdf-syntax-ns#"
   xmlns:svg="http://www.w3.org/2000/svg"
   xmlns="http://www.w3.org/2000/svg"
   xmlns:sodipodi="http://sodipodi.sourceforge.net/DTD/sodipodi-0.dtd"
   xmlns:inkscape="http://www.inkscape.org/namespaces/inkscape"
   width="359.84692"
   height="248.38658"
   id="svg3068"
   version="1.1"
   inkscape:version="0.48.1 "
   sodipodi:docname="UW.svg">
  <defs
     id="defs3070">
    <linearGradient
       id="linearGradient4475"
       osb:paint="solid">
      <stop
         style="stop-color:#e2d2a3;stop-opacity:1;"
         offset="0"
         id="stop4477" />
    </linearGradient>
  </defs>
  <sodipodi:namedview
     id="base"
     pagecolor="#ffffff"
     bordercolor="#666666"
     borderopacity="1.0"
     inkscape:pageopacity="0.0"
     inkscape:pageshadow="2"
     inkscape:zoom="3.82"
     inkscape:cx="283.66083"
     inkscape:cy="83.149155"
     inkscape:document-units="px"
     inkscape:current-layer="layer1"
     showgrid="false"
     inkscape:window-width="1920"
     inkscape:window-height="1018"
     inkscape:window-x="-8"
     inkscape:window-y="-8"
     inkscape:window-maximized="1"
     fit-margin-top="0"
     fit-margin-left="0"
     fit-margin-right="0"
     fit-margin-bottom="0" />
  <metadata
     id="metadata3073">
    <rdf:RDF>
      <cc:Work
         rdf:about="">
        <dc:format>image/svg+xml</dc:format>
        <dc:type
           rdf:resource="http://purl.org/dc/dcmitype/StillImage" />
        <dc:title />
      </cc:Work>
    </rdf:RDF>
  </metadata>
  <g
     inkscape:label="Layer 1"
     inkscape:groupmode="layer"
     id="layer1"
     transform="translate(-145.79083,-322.68865)">
    <path
       style="fill:#e2d2a3;fill-opacity:1;stroke:#e2d2a3;stroke-width:1px;stroke-linecap:butt;stroke-linejoin:miter;stroke-opacity:1;display:inline"
       d="m 146.29083,323.18865 139.36381,0.19881 0,59.04572 -28.0318,-0.1988 19.08548,75.74552 36.1829,-134.39364 55.66601,0 33.3996,135.18887 20.87475,-75.94433 -25.84493,0 -0.59642,-59.44334 108.54871,-0.19881 0.19881,59.04573 -28.42943,0.1988 -49.70179,187.67396 -78.92644,0 -22.86282,-90.05964 -23.85686,90.05964 -79.72167,-0.19881 -46.52088,-187.07753 -28.62823,-0.19881 z"
       id="path2985"
       inkscape:connector-curvature="0" />
    <path
       style="fill:none;stroke:#3b3e72;stroke-width:1px;stroke-linecap:butt;stroke-linejoin:miter;stroke-opacity:1;display:inline"
       d="m 245.89527,373.44903 29.67771,119.99189 44.06488,-161.49467 41.33859,-0.13141 40.35315,161.19906 32.45332,-119.77838 -28.82368,0 0,-41.20717 90.52321,-0.14085 0.004,41.56153 -26.4746,-0.21351 -49.46583,188.09668 -65.04301,-0.14085 -29.74589,-116.85743 -31.17676,117.07094 c 0,0 -66.04684,0.35884 -64.76579,-0.0682 1.28105,-0.42702 -47.39893,-188.10116 -47.39893,-188.10116 l -26.90209,0.21351 0,-41.42068 121.7165,-0.21351 -0.65707,41.20718 z"
       id="path2983"
       inkscape:connector-curvature="0"
       sodipodi:nodetypes="cccccccccccccccscccccc" />
    <path
       style="fill:#3b3e72;fill-opacity:1;stroke:#3b3e72;stroke-width:1.30704081;stroke-miterlimit:4;stroke-opacity:1;stroke-dasharray:none"
       d="m 235.92512,560.32697 -6.47,-0.38414 -1.58984,-7.18873 c -2.04658,-9.25401 -19.12842,-76.92128 -33.98461,-134.6252 l -11.60942,-45.09291 -13.56055,-0.17663 -13.56055,-0.17664 0,-19.91912 0,-19.91911 59.79712,0 60.99698,0 -1.19986,19.60561 0,19.60561 -4.73803,0.0885 c -2.60591,0.0487 -9.31209,0.26924 -14.90262,0.49014 l -10.1646,0.40163 14.91211,60.45064 c 8.20166,33.24785 15.08911,60.89176 15.30547,61.43092 0.34965,0.87136 0.43513,0.87136 0.76928,0 0.20675,-0.53916 10.26889,-37.15264 22.3603,-81.36329 l 21.98438,-80.75988 20.01472,0.20408 20.01472,-0.17278 0.65082,2.46011 c 0.35796,1.35305 9.34431,37.30908 19.96965,79.90227 10.62536,42.59319 19.57751,78.03034 19.89367,78.74921 0.46481,1.05684 0.64915,1.11939 0.96297,0.32676 0.21346,-0.53916 7.56535,-27.48515 16.33753,-59.87999 8.77218,-32.39484 16.1476,-59.52411 16.38981,-60.28726 0.43983,-1.38577 0.42191,-1.38755 -13.98109,-1.38755 l -14.42149,0 0,-19.93237 0,-19.93237 44.43939,0 44.43938,0 0,19.93237 0,19.93237 -13.35312,0 c -12.15423,0 -13.38315,0.10269 -13.68747,1.14366 -0.18388,0.62902 -11.27984,42.8301 -24.6577,93.78018 l -24.32338,92.63652 -31.89065,0 -31.89066,0 -0.64536,-2.4507 c -0.35495,-1.34789 -6.85025,-26.85969 -14.43401,-56.6929 -16.43049,-64.63469 -15.04672,-59.34766 -15.43204,-58.96235 -0.17225,0.17226 -7.33364,26.69419 -15.9142,58.93763 -8.58055,32.24344 -15.79655,58.82033 -16.03556,59.05976 -0.54532,0.54628 -48.04764,0.68508 -56.79149,0.16595 z"
       id="path4451"
       inkscape:connector-curvature="0"
       sodipodi:nodetypes="scsscccccccccsscsccscccssssssscccccccscscccsscsss" />
    <path
       style="fill:#3b3e72;fill-opacity:1;stroke:#3b3e72;stroke-width:0.60422963;stroke-miterlimit:4;stroke-opacity:1;stroke-dasharray:none"
       d="m 228.46527,561.06416 c -0.072,-0.37387 -0.2888,-1.49547 -0.48168,-2.49245 -1.39923,-7.2325 -16.36485,-66.70823 -34.77906,-138.21752 -6.31127,-24.50906 -11.61254,-45.08095 -11.78058,-45.71531 l -0.30554,-1.15337 -13.42696,0.21753 -13.42696,0.21752 0,-6.84361 0,-6.8436 60.88203,0 60.88202,0 -0.0814,6.57099 -0.0814,6.571 -14.61253,0.21173 c -8.0369,0.11645 -14.66711,0.2663 -14.73381,0.333 -0.1246,0.1246 28.8185,117.45714 29.02471,117.66334 0.15816,0.15816 -0.85621,3.83204 18.29014,-66.24432 9.48845,-34.7281 17.39285,-63.58384 17.56534,-64.12387 l 0.31361,-0.98187 28.36372,0 28.36372,0 0.29988,1.13293 c 0.16493,0.62311 7.53059,30.0648 16.36813,65.42598 8.83754,35.36119 16.17263,64.18294 16.3002,64.04834 0.25643,-0.27053 31.70765,-116.21764 31.70765,-116.89243 0,-0.35497 -2.2489,-0.42177 -14.1994,-0.42177 l -14.1994,0 0,-6.64653 c 0,-4.22961 0.10986,-6.64652 0.30212,-6.64652 0.18976,0 0.32784,2.38751 0.3713,6.41994 l 0.0692,6.41994 0.0879,-6.41994 0.0879,-6.41994 18.72511,0 18.7251,0 0,56.48053 0,56.48052 -11.34507,43.14183 c -6.23978,23.72801 -11.47916,43.65165 -11.64306,44.27476 l -0.298,1.13293 -19.09711,-0.0421 c -10.50341,-0.0231 -25.27029,-0.12509 -32.81528,-0.22658 l -13.71815,-0.18454 -14.45499,-56.79758 c -7.95025,-31.23868 -14.57469,-57.13747 -14.72099,-57.55288 -0.19914,-0.56545 -0.31199,-0.64138 -0.44896,-0.30211 -0.10062,0.24924 -6.98442,26.01208 -15.29732,57.25076 -8.3129,31.23867 -15.18909,57.03549 -15.28043,57.32628 -0.15681,0.49923 -1.98323,0.5287 -32.76835,0.5287 l -32.60229,0 -0.13097,-0.67976 0,0 z m 14.29368,-0.0336 c -0.32082,-0.27811 -13.56999,-0.46074 -13.56999,-0.18705 0,0.18477 2.57563,0.29617 6.84794,0.29617 3.76636,0 6.79129,-0.0491 6.72205,-0.10912 z m 51.27381,-2.60991 c 0.38787,-1.41239 0.66534,-2.6943 0.6166,-2.84869 -0.0487,-0.1544 -0.40572,0.89923 -0.79328,2.34139 -0.38756,1.44216 -0.71932,2.64152 -0.73725,2.66526 -0.0179,0.0237 -1.79996,0.13737 -3.96008,0.25252 l -3.92749,0.20937 4.04814,-0.026 4.04813,-0.0259 0.70523,-2.56798 0,3e-5 z m 0.89764,-4.14779 c -0.10039,-0.10039 -0.17179,0.078 -0.15867,0.39653 0.0145,0.35195 0.0861,0.42353 0.18252,0.18253 0.0873,-0.21809 0.0765,-0.47867 -0.0238,-0.57906 l -2e-5,0 z m 0.30212,-1.20846 c -0.10039,-0.10039 -0.1718,0.0781 -0.15868,0.39653 0.0145,0.35195 0.0861,0.42353 0.18253,0.18253 0.0873,-0.21809 0.0765,-0.47867 -0.0238,-0.57906 l -1e-5,0 z m 0.60423,-2.1148 c -0.10039,-0.10039 -0.1718,0.078 -0.15868,0.39652 0.0145,0.35195 0.0861,0.42354 0.18253,0.18253 0.0873,-0.21808 0.0765,-0.47866 -0.0238,-0.57905 l -10e-6,0 z"
       id="path4455"
       inkscape:connector-curvature="0" />
    <path
       style="fill:#3b3e72;fill-opacity:1;stroke:#3b3e72;stroke-width:0.26300001;stroke-linecap:butt;stroke-miterlimit:4;stroke-opacity:1;stroke-dasharray:none"
       d=""
       id="path4457"
       inkscape:connector-curvature="0" />
    <path
       sodipodi:type="arc"
       style="fill:#ffffff;fill-opacity:1;stroke:#3b3e72;stroke-width:1.5;stroke-linecap:butt;stroke-miterlimit:4;stroke-opacity:1;stroke-dasharray:none"
       id="path4473"
       sodipodi:cx="480.04895"
       sodipodi:cy="567.78448"
       sodipodi:rx="5.1407585"
       sodipodi:ry="5.0183597"
       d="m 485.18971,567.78448 a 5.1407585,5.0183597 0 1 1 -10.28152,0 5.1407585,5.0183597 0 1 1 10.28152,0 z"
       transform="translate(-25.962139,-3.2629491)" />
    <text
       xml:space="preserve"
       style="font-size:40px;font-style:normal;font-weight:normal;line-height:125%;letter-spacing:0px;word-spacing:0px;fill:#3b3e72;fill-opacity:1;stroke:none;font-family:Sans"
       x="451.34824"
       y="567.34674"
       id="text4481"
       sodipodi:linespacing="125%"><tspan
         sodipodi:role="line"
         id="tspan4483"
         x="451.34824"
         y="567.34674"
         style="font-size:8px;fill:#3b3e72;fill-opacity:1">R</tspan></text>
  </g>
</svg>
