<?xml version="1.0" encoding="UTF-8" standalone="no"?>
<!-- Created with Inkscape (http://www.inkscape.org/) -->

<svg
   xmlns:dc="http://purl.org/dc/elements/1.1/"
   xmlns:cc="http://creativecommons.org/ns#"
   xmlns:rdf="http://www.w3.org/1999/02/22-rdf-syntax-ns#"
   xmlns:svg="http://www.w3.org/2000/svg"
   xmlns="http://www.w3.org/2000/svg"
   xmlns:sodipodi="http://sodipodi.sourceforge.net/DTD/sodipodi-0.dtd"
   xmlns:inkscape="http://www.inkscape.org/namespaces/inkscape"
   id="svg2"
   version="1.1"
   inkscape:version="0.48.1 "
   width="79.341248"
   height="60"
   xml:space="preserve"
   sodipodi:docname="784332.pdf"><metadata
     id="metadata8"><rdf:RDF><cc:Work
         rdf:about=""><dc:format>image/svg+xml</dc:format><dc:type
           rdf:resource="http://purl.org/dc/dcmitype/StillImage" /><dc:title></dc:title></cc:Work></rdf:RDF></metadata><defs
     id="defs6"><clipPath
       clipPathUnits="userSpaceOnUse"
       id="clipPath644"><path
         d="m 273.989,546 64.61,0 0,45.588 -64.61,0 0,-45.588 z"
         id="path646"
         inkscape:connector-curvature="0" /></clipPath><clipPath
       clipPathUnits="userSpaceOnUse"
       id="clipPath850"><path
         d="m 449,544 72,0 0,48.001 -72,0 0,-48.001 z"
         id="path852"
         inkscape:connector-curvature="0" /></clipPath></defs><sodipodi:namedview
     pagecolor="#ffffff"
     bordercolor="#666666"
     borderopacity="1"
     objecttolerance="10"
     gridtolerance="10"
     guidetolerance="10"
     inkscape:pageopacity="0"
     inkscape:pageshadow="2"
     inkscape:window-width="1680"
     inkscape:window-height="994"
     id="namedview4"
     showgrid="false"
     fit-margin-top="0"
     fit-margin-left="0"
     fit-margin-right="0"
     fit-margin-bottom="0"
     inkscape:zoom="12.95"
     inkscape:cx="39.670624"
     inkscape:cy="30"
     inkscape:window-x="-4"
     inkscape:window-y="-4"
     inkscape:window-maximized="1"
     inkscape:current-layer="g10" /><g
     id="g10"
     inkscape:groupmode="layer"
     inkscape:label="784332"
     transform="matrix(1.25,0,0,-1.25,-566.57937,740.00037)"><g
       id="g5146"
       transform="matrix(0.99485199,0,0,0.99485199,2.4569549,2.9240684)"><g
         transform="translate(515.9855,566.4103)"
         id="g854"><path
           inkscape:connector-curvature="0"
           id="path856"
           style="fill:#898a8e;fill-opacity:1;fill-rule:nonzero;stroke:none"
           d="M 0,0 C -3.386,1.155 -6.451,5.608 -7.439,6.647 -4.252,6.498 -1.76,9.332 -1.76,9.332 L -3.361,9.083 c -1.023,-0.185 -2.03,0.076 -3.261,0.845 -0.504,0.383 -1.003,0.782 -1.486,1.168 -1.273,1.02 -2.588,2.07 -4.068,2.86 2.785,0.639 3.751,3.722 3.751,3.722 -10e-4,0 -0.81,-0.685 -2.116,-1.174 -1.652,-0.618 -3.978,0.26 -5.714,1.055 -0.818,0.44 -1.948,0.821 -2.846,1.085 0.708,0.339 1.844,0.82 3.332,2.62 -4.049,-1.834 -8.507,0.776 -11.093,1.053 -1.598,0.171 -3.452,0.104 -5.308,-0.397 0.185,0.443 0.288,1.028 0.189,1.794 l -0.092,0.716 -0.615,-0.378 c -0.993,-0.608 -1.87,-0.607 -2.886,-0.605 -0.52,0.001 -1.082,0.001 -1.7,-0.081 0.103,0.219 0.205,0.385 0.267,0.783 0.065,0.416 0.039,1.441 0.039,1.441 0,0 -0.132,-0.29 -0.35,-0.636 -0.219,-0.346 -0.533,-0.647 -0.533,-0.647 -1.252,-1.014 -2.385,-1.25 -4.499,-1.516 -1.312,-0.176 -2.481,-0.533 -3.484,-1.059 -2.417,-0.16 -3.818,-0.759 -4.279,-1.83 -0.349,-0.811 -0.016,-1.63 0.26,-2.105 l -0.116,-0.056 c -1.235,-0.59 -2.634,-1.259 -3.562,-1.949 l -0.179,-0.133 -0.009,-0.223 c -0.002,-0.037 -0.032,-0.849 0.19,-1.878 l -1.076,-0.888 c -0.854,-0.699 -1.663,-1.363 -2.562,-2.148 l -0.856,-0.018 -0.153,-0.003 c -0.002,0 -0.124,-0.093 -0.124,-0.093 -0.938,-0.721 -2.212,-2.371 -2.824,-3.164 l -0.14,-0.181 0.057,-0.222 c 0.012,-0.046 0.272,-1.04 0.706,-1.816 C -60.66,4.697 -60.784,4.38 -60.79,4.363 l -0.106,-0.272 0.199,-0.215 c 0.166,-0.178 0.357,-0.472 0.553,-0.85 L -60.027,2.8 -59.774,2.776 -59.353,2.735 -59.341,2.67 -59.503,2.564 -59.823,2.355 -59.681,2 c 0.141,-0.354 0.276,-0.73 0.379,-1.06 l 0.077,-0.247 0.25,-0.065 c 0.074,-0.02 0.315,-0.093 0.593,-0.178 1.6,-0.486 2.53,-0.752 2.86,-0.764 l 0.125,-0.005 0.111,0.058 c 1.5,0.79 2.922,1.666 4.368,2.569 l 0.117,0.072 0.058,0.124 c 0.207,0.436 0.401,1.006 0.493,1.29 1.11,0.646 2.313,1.15 3.855,1.616 1.744,-0.579 3.636,-1.094 5.891,-0.771 1.238,-0.816 1.02,-1.861 0.892,-2.27 -0.13,-0.414 -0.061,-1.141 -1.107,-1.596 -6.395,-0.965 -12.375,-2.2 -15.217,-3.082 l -1.112,-0.345 c 0,0 4.727,-1.913 6.117,-2.469 l -5.27,-11.075 -6.521,-6.212 c 10.399,0.329 16.507,3.867 18.22,5.035 3.806,2.595 12.976,7.5 27.614,8.685 1.918,0.155 3.647,0.125 5.174,0.087 2.018,-0.049 3.611,-0.088 4.658,0.403 1.38,0.633 1.775,1.572 2.315,2.867 0.778,1.869 1.398,3.683 4.226,4.685 L 0.751,-0.199 0,0 z" /></g><path
         d="m 482.4729,587.5189 c 0,0 1.329,0.526 1.068,2.545 -1.999,-1.225 -3.546,-0.229 -5.99,-1.028 0.71,0.572 0.878,1.318 0.878,1.318 -1.361,-1.102 -2.6,-1.348 -4.735,-1.616 -1.18,-0.159 -2.37,-0.49 -3.416,-1.055 -6.197,-0.377 -3.507,-3.587 -3.507,-3.587 l 0.101,-0.052 c -1.303,-0.633 -3.078,-1.428 -4.139,-2.217 0,0 -0.038,-0.924 0.245,-2.035 -1.446,-1.203 -2.595,-2.108 -3.98,-3.323 -0.405,-0.011 -1.028,-0.021 -1.028,-0.021 -0.88,-0.677 -2.147,-2.312 -2.739,-3.079 0,0 0.305,-1.178 0.788,-1.915 -0.203,-0.372 -0.388,-0.849 -0.388,-0.849 0.215,-0.231 0.428,-0.572 0.626,-0.954 l 0.768,-0.074 0.138,-0.716 -0.425,-0.278 c 0.163,-0.407 0.298,-0.795 0.391,-1.093 0.326,-0.085 2.907,-0.91 3.353,-0.927 1.479,0.778 2.893,1.649 4.339,2.551 0.268,0.567 0.524,1.402 0.524,1.402 1.339,0.801 2.731,1.343 4.252,1.794 1.89,-0.633 3.767,-1.142 6.031,-0.766 0.711,-0.446 1.645,-1.449 1.195,-2.972 -0.592,-2.006 -1.37,-1.781 -3.176,-2.167 -0.214,-0.199 -1.177,-2.243 -1.192,-2.492 20.415,6.195 25.185,-1.133 42.877,2.241 -1.722,0.952 -2.896,2.035 -3.992,3.116 -1.554,1.566 -2.769,3.217 -3.848,4.325 0.277,-0.048 3.079,-0.039 5.216,1.438 -1.357,-0.245 -2.547,0.254 -3.609,0.92 -3.799,3.08 -6.399,4.392 -6.608,4.541 10e-4,0 2.668,0.375 3.972,2.426 -2.813,-2.435 -8.435,1.384 -9.438,1.604 -0.566,0.123 -1.706,0.465 -1.706,0.465 1.23,0.289 2.35,0.951 3.422,1.83 -3.3,-1.048 -7.118,1.181 -10.091,1.478 -2.523,0.251 -5.442,-0.519 -6.177,-0.778"
         style="fill:#000000;fill-opacity:1;fill-rule:nonzero;stroke:none"
         id="path860"
         inkscape:connector-curvature="0" /><path
         d="m 501.3801,571.1444 c -2.73,3.264 -5.382,6.127 -9.339,9.102 -3.985,2.941 -11.904,5.455 -16.367,4.67 0.477,0.26 1.49,1.012 1.917,1.426 0.072,1.761 5.137,0.901 5.27,2.726 -1.522,-0.95 -5.551,0.29 -7.708,-2.31 -0.601,-0.663 -0.225,-1.353 0.068,-1.894 -1.178,-0.282 -2.871,-0.694 -3.638,-0.941 0.686,0.505 1.446,0.818 2.143,1.324 0,0 -0.058,0.143 -0.071,0.233 -2.091,-0.637 -5.459,-2.684 -7.11,-3.709 0.112,0.41 0.239,1.109 0.383,1.431 -0.96,-0.482 -2.61,-1.202 -3.067,-1.679 0,0 -0.053,-0.585 0.102,-1.15 0.614,0.406 1.879,0.973 1.879,0.973 -0.012,-0.01 -6.635,-5.655 -6.636,-5.656 -0.373,-0.055 -0.72,-0.073 -1.102,-0.19 -0.556,-0.596 -1.265,-1.357 -1.805,-2.176 0.194,-0.738 0.297,-1.05 0.558,-1.526 -0.091,-0.171 -0.278,-0.592 -0.345,-0.848 0,0 0.429,-0.046 0.616,-0.042 0.086,0.329 0.26,0.597 0.319,0.762 -0.165,0.433 -0.522,1.08 -0.498,1.454 0.278,0.428 0.91,1.076 1.247,1.428 0.462,0.084 0.981,0.084 1.369,0.106 0,0 -1.585,-1.342 -1.235,-2.28 0.112,-0.215 0.319,-0.35 0.554,-0.417 0.607,-0.124 1.898,0.493 2.336,0.988 -0.071,-0.344 -0.221,-0.638 -0.407,-0.938 1.091,0.818 1.728,2.013 1.756,3.319 -0.162,0.373 -0.713,0.182 -1.144,0.195 0.484,0.257 1.781,0.813 2.431,0.952 0,0 0.14,-0.298 0.19,-0.745 1.095,0.74 1.991,1.102 1.991,1.102 -0.001,-10e-4 0.169,-0.215 0.178,-0.635 0,0 -0.412,-0.429 -0.818,-1.139 1.166,0.68 2.031,1.211 3.128,1.808 0.056,0.424 -0.23,0.729 -0.23,0.729 0.678,0.373 2.367,1.245 3.044,1.606 0.417,-0.154 1.622,-0.456 1.621,-0.457 -0.713,-0.552 -1.241,-1.138 -1.313,-1.8 -0.187,-0.906 0.094,-1.614 0.766,-2.14 1.088,-0.722 3.259,-0.672 4.71,0.252 2.592,1.313 1.813,5.814 1.175,6.533 0.532,0.061 1.138,0.027 1.138,0.027 0.369,-0.507 0.767,-1.612 0.767,-1.612 4.797,-0.124 10.924,-4.01 13.92,-8.115 2.996,-4.104 7.904,-3.209 13.229,-4.05 -2.709,0.654 -5.221,2.342 -5.972,3.303"
         style="fill:#9b844a;fill-opacity:1;fill-rule:nonzero;stroke:none"
         id="path864"
         inkscape:connector-curvature="0" /><path
         d="m 495.7852,586.0413 c -2.032,-1.145 -4.281,-0.932 -6.454,-1.781 7.004,1.236 11.156,-2.553 13.666,-2.758 -2.794,-1.015 -5.1,0.829 -8.045,-0.407 -0.001,-0.006 -0.002,-0.013 -0.003,-0.019 2.32,0.19 7.018,-0.693 10.338,-3.312 1.637,-1.403 2.958,-2.404 4.734,-3.131 -1.603,-0.383 -2.903,0.254 -4.348,0.893 -1.445,0.637 -3.892,1.411 -5.964,0.887 2.752,-0.207 5.286,-1.805 6.942,-3.491 1.178,-1.181 1.972,-2.876 3.359,-3.967 0.478,-0.484 1.013,-0.783 1.558,-1.143 -2.546,0.506 -4.707,1.573 -6.793,2.904 -0.698,0.447 -1.311,0.992 -1.956,1.544 0.913,-0.701 3.671,-1.827 4.624,-2.024 -1.573,0.909 -4.065,4.37 -7.449,5.216 -0.763,0.733 -1.007,0.888 -1.687,1.661 1.249,0.449 3.894,0.261 5.632,-0.285 -1.998,1.903 -5.336,2.83 -8.345,2.622 -1.083,0.901 -1.657,1.35 -2.805,2.146 0.003,0.016 0.006,0.032 0.009,0.048 1.299,0.509 2.657,0.736 3.987,0.593 0.007,0.009 -2.474,1.332 -6.465,0.639 -1.329,0.627 -2.372,1.161 -3.832,1.623 1.006,0.488 3.053,0.933 4.19,1.042 -0.884,0.266 -3.635,0.941 -6.809,-0.311 -0.607,0.14 -2.314,0.525 -2.946,0.584 2.217,0.93 3.8,1.394 6.454,1.522 3,0.145 5.269,-1.713 8.408,-1.295"
         style="fill:#7d4808;fill-opacity:1;fill-rule:nonzero;stroke:none"
         id="path868"
         inkscape:connector-curvature="0" /><g
         transform="translate(461.4975,574.486)"
         id="g870"><path
           inkscape:connector-curvature="0"
           id="path872"
           style="fill:#231f20;fill-opacity:1;fill-rule:nonzero;stroke:none"
           d="m 0,0 c -0.247,-0.719 -0.757,-1.568 -1.625,-1.796 -0.179,-0.019 -0.522,-0.058 -0.546,0.136 -0.057,0.685 0.739,0.863 1.198,1.212 0.023,0.022 0.049,0.046 0.071,0.068 -0.173,0.096 -0.498,-0.011 -0.702,-0.019 0.416,0.389 0.928,0.629 1.54,0.632 C 0.016,0.232 0.045,0.145 0,0" /></g><g
         transform="translate(463.1603,571.8851)"
         id="g874"><path
           inkscape:connector-curvature="0"
           id="path876"
           style="fill:#ffffff;fill-opacity:1;fill-rule:nonzero;stroke:none"
           d="M 0,0 C 0,0 -0.892,-1.002 -1.192,-1.569 -0.71,-1.287 0.517,-0.24 0.517,-0.24 0.352,-0.976 0.029,-1.894 0.029,-1.894 -0.599,-2.384 -2.284,-3.32 -2.872,-3.52 c -0.532,0.114 -1.532,0.28 -2.315,0.451 -0.043,0.225 -0.136,0.76 -0.136,0.76 0.701,0.003 1.427,-0.122 2.274,-0.217 C -2.382,-1.64 -0.851,-0.166 0,0" /></g><path
         d="m 463.1894,573.0364 c 0,0 1.238,0.864 2.304,1.138 0,0 0.569,-0.25 0.779,-0.484 0,0 -1.021,-1.327 -1.198,-1.83 0,0 0.289,1.097 -0.059,1.339 -0.347,0.242 -0.897,0.106 -1.826,-0.163"
         style="fill:#9b844a;fill-opacity:1;fill-rule:nonzero;stroke:none"
         id="path880"
         inkscape:connector-curvature="0" /><path
         d="m 487.3894,569.1824 c 0.093,-0.302 0.002,-0.853 -0.697,-0.993 -0.812,-0.104 -3.391,-0.433 -4.205,-0.537 0.287,0.174 0.692,1.073 0.415,2.007 -0.276,0.935 -1.348,2.781 -3.59,3.949 0.872,0.732 1.151,1.969 1.151,1.969 3.862,-1.215 6.535,-5.052 6.926,-6.395"
         style="fill:#9b844a;fill-opacity:1;fill-rule:nonzero;stroke:none"
         id="path884"
         inkscape:connector-curvature="0" /><path
         d="m 471.8979,581.9402 c 0,0 -0.939,0.214 -1.139,0.131 -0.547,-0.218 -2.622,-1.353 -3.538,-2.092 -0.007,-0.006 -0.011,-0.009 -0.011,-0.009 0,0 -0.748,-0.495 -1.864,-0.572 0,0 1.557,-0.831 3.322,-0.546 1.062,0.172 1.511,0.447 2.025,0.727 1.414,0.77 1.205,2.361 1.205,2.361"
         style="fill:#000000;fill-opacity:1;fill-rule:nonzero;stroke:none"
         id="path888"
         inkscape:connector-curvature="0" /><g
         transform="translate(475.674,584.9161)"
         id="g890"><path
           inkscape:connector-curvature="0"
           id="path892"
           style="fill:#ffffff;fill-opacity:1;fill-rule:nonzero;stroke:none"
           d="M 0,0 C 0,0 5.137,0.837 12.795,-3.277 23.667,-9.12 23.287,-16.035 31.678,-17.075 24.28,-15.311 22.325,-6.869 12.888,-2.478 8.75,-0.552 4.63,1.097 0,0" /></g><g
         transform="translate(456.2986,573.3245)"
         id="g894"><path
           inkscape:connector-curvature="0"
           id="path896"
           style="fill:#ffffff;fill-opacity:1;fill-rule:nonzero;stroke:none"
           d="M 0,0 C 0,0 0.142,-0.808 0.558,-1.526 L 0.213,-2.374 0.829,-2.416 1.148,-1.654 0.651,-0.2 2.908,2.366 c 0,0 -0.636,-0.011 -1.102,-0.19 C 1.806,2.176 0.523,0.871 0,0" /></g><g
         transform="translate(459.2062,575.6904)"
         id="g898"><path
           inkscape:connector-curvature="0"
           id="path900"
           style="fill:#ffffff;fill-opacity:1;fill-rule:nonzero;stroke:none"
           d="M 0,0 0.921,0.114 6.636,5.656 C 6.636,5.656 3.364,3.177 0,0" /></g><g
         transform="translate(463.8608,581.5234)"
         id="g902"><path
           inkscape:connector-curvature="0"
           id="path904"
           style="fill:#ffffff;fill-opacity:1;fill-rule:nonzero;stroke:none"
           d="m 0,0 0.619,-0.183 c 0,0 1.744,1.504 2.449,1.862 C 3.068,1.679 0.899,0.774 0,0" /></g><path
         d="m 471.1826,585.4246 c 0,0 0.468,1.171 1.216,1.615 0.747,0.444 1.874,0.728 2.864,1.17 0,0 -1.606,-0.864 -1.611,-1.995 0,0 -1.05,-0.202 -2.469,-0.79"
         style="fill:#7d4808;fill-opacity:1;fill-rule:evenodd;stroke:none"
         id="path908"
         inkscape:connector-curvature="0" /><g
         transform="translate(475.2626,588.2096)"
         id="g910"><path
           inkscape:connector-curvature="0"
           id="path912"
           style="fill:#ffffff;fill-opacity:1;fill-rule:nonzero;stroke:none"
           d="m 0,0 c -0.819,-0.166 -0.766,-0.035 -1.572,-0.23 -1.656,-0.284 -3.394,-1.245 -4.26,-2.662 0.402,0.445 2.13,1.626 3.022,1.753 C -2.063,-0.713 -0.967,-0.432 0,0" /></g><path
         d="m 512.9918,566.7094 c -0.701,0.064 -1.426,0.13 -2.087,0.248 -6.493,1.173 -14.146,1.604 -22.131,1.246 -9.355,-0.42 -23.52,-2.921 -28.601,-4.499 0,0 4.62,-1.87 5.448,-2.195 l -5.496,-11.548 -5.917,-5.497 c 9.749,0.678 15.234,3.908 17.068,5.09 1.833,1.181 10.303,7.059 27.786,8.58 4.457,0.388 7.995,-0.344 9.691,0.452 2.941,1.349 1.394,5.73 6.579,7.568 0,0 -1.414,0.471 -2.34,0.555"
         style="fill:#000000;fill-opacity:1;fill-rule:evenodd;stroke:none"
         id="path916"
         inkscape:connector-curvature="0" /><g
         transform="translate(480.067,565.9653)"
         id="g918"><path
           inkscape:connector-curvature="0"
           id="path920"
           style="fill:#898a8e;fill-opacity:1;fill-rule:nonzero;stroke:none"
           d="M 0,0 C 0.126,0.027 0.246,0.052 0.373,0.08 0.397,-0.235 0.416,-0.53 0.426,-0.858 0.7,-0.467 0.93,-0.117 1.174,0.248 1.259,0.266 1.34,0.282 1.424,0.299 1.466,-0.004 1.5,-0.291 1.53,-0.61 1.777,-0.23 1.987,0.108 2.211,0.459 2.319,0.481 2.421,0.501 2.528,0.523 2.185,0 1.859,-0.515 1.456,-1.093 1.372,-1.112 1.29,-1.131 1.206,-1.15 1.191,-0.816 1.167,-0.512 1.133,-0.187 0.871,-0.576 0.619,-0.945 0.315,-1.354 0.227,-1.374 0.142,-1.394 0.054,-1.414 0.06,-0.924 0.036,-0.473 0,0" /></g><g
         transform="translate(483.1849,566.5706)"
         id="g922"><path
           inkscape:connector-curvature="0"
           id="path924"
           style="fill:#898a8e;fill-opacity:1;fill-rule:nonzero;stroke:none"
           d="M 0,0 C 0.525,0.075 1.002,0.143 1.525,0.216 1.496,0.137 1.47,0.061 1.441,-0.018 1.036,-0.076 0.667,-0.13 0.259,-0.19 0.22,-0.3 0.181,-0.404 0.141,-0.513 c 0.239,0.037 0.455,0.07 0.694,0.106 -0.03,-0.084 -0.06,-0.164 -0.09,-0.248 -0.237,-0.037 -0.462,-0.073 -0.698,-0.11 -0.048,-0.127 -0.092,-0.244 -0.142,-0.373 0.419,0.068 0.8,0.13 1.218,0.197 C 1.087,-1.037 1.052,-1.127 1.017,-1.222 0.475,-1.311 -0.02,-1.393 -0.567,-1.485 -0.35,-0.956 -0.179,-0.482 0,0" /></g><g
         transform="translate(485.6403,566.6672)"
         id="g926"><path
           inkscape:connector-curvature="0"
           id="path928"
           style="fill:#898a8e;fill-opacity:1;fill-rule:nonzero;stroke:none"
           d="M 0,0 C -0.04,-0.101 -0.079,-0.198 -0.12,-0.3 0.196,-0.265 0.484,-0.232 0.8,-0.198 1.085,-0.17 1.143,-0.214 1.038,-0.49 1.011,-0.556 0.986,-0.62 0.96,-0.686 0.846,-0.964 0.738,-1.038 0.449,-1.075 0.132,-1.114 -0.157,-1.15 -0.475,-1.189 c -0.29,-0.033 -0.342,0.019 -0.227,0.306 0.006,0.014 0.026,0.049 0.031,0.062 0,0 0.201,0.033 0.308,0.049 0,0 -0.038,-0.087 -0.062,-0.146 0.362,0.044 0.691,0.083 1.052,0.126 0.044,0.111 0.087,0.217 0.131,0.329 -0.317,-0.037 -0.606,-0.069 -0.923,-0.106 -0.287,-0.031 -0.339,0.021 -0.231,0.296 0.021,0.052 0.041,0.102 0.062,0.155 0.112,0.268 0.211,0.33 0.494,0.361 C 0.441,0.272 0.71,0.299 0.99,0.328 1.259,0.353 1.341,0.305 1.239,0.073 1.235,0.064 1.201,-0.003 1.201,-0.003 L 0.909,-0.026 c 0,0 0.032,0.075 0.052,0.128 C 0.632,0.068 0.33,0.035 0,0" /></g><g
         transform="translate(487.851,565.7693)"
         id="g930"><path
           inkscape:connector-curvature="0"
           id="path932"
           style="fill:#898a8e;fill-opacity:1;fill-rule:nonzero;stroke:none"
           d="m 0,0 c -0.116,-0.011 -0.226,-0.021 -0.341,-0.031 0.179,0.41 0.331,0.773 0.49,1.149 C -0.076,1.1 -0.291,1.084 -0.516,1.066 -0.482,1.146 -0.449,1.222 -0.415,1.302 0.157,1.345 0.678,1.384 1.249,1.427 1.217,1.348 1.186,1.274 1.153,1.195 0.924,1.178 0.715,1.162 0.486,1.144 0.328,0.77 0.177,0.408 0,0" /></g><g
         transform="translate(489.5535,567.2235)"
         id="g934"><path
           inkscape:connector-curvature="0"
           id="path936"
           style="fill:#898a8e;fill-opacity:1;fill-rule:nonzero;stroke:none"
           d="M 0,0 C 0.502,0.027 0.96,0.052 1.463,0.079 1.431,0.005 1.401,-0.065 1.368,-0.139 0.979,-0.161 0.624,-0.181 0.235,-0.202 0.191,-0.302 0.148,-0.398 0.103,-0.498 0.328,-0.485 0.542,-0.472 0.767,-0.46 0.732,-0.538 0.699,-0.612 0.665,-0.69 0.44,-0.703 0.225,-0.716 0,-0.73 -0.052,-0.846 -0.103,-0.958 -0.155,-1.075 0.236,-1.051 0.611,-1.026 1.002,-1.002 0.962,-1.091 0.924,-1.177 0.884,-1.266 0.37,-1.299 -0.099,-1.329 -0.613,-1.363 -0.387,-0.872 -0.196,-0.439 0,0" /></g><g
         transform="translate(491.6874,567.3309)"
         id="g938"><path
           inkscape:connector-curvature="0"
           id="path940"
           style="fill:#898a8e;fill-opacity:1;fill-rule:nonzero;stroke:none"
           d="M 0,0 C 0.417,0.014 0.798,0.026 1.216,0.041 1.441,0.046 1.505,-0.008 1.423,-0.195 1.376,-0.299 1.331,-0.398 1.282,-0.502 1.191,-0.691 1.065,-0.761 0.841,-0.773 0.777,-0.775 0.716,-0.777 0.652,-0.78 0.796,-0.947 0.926,-1.102 1.066,-1.273 0.904,-1.279 0.75,-1.285 0.588,-1.292 0.477,-1.119 0.374,-0.963 0.259,-0.794 0.152,-0.798 0.05,-0.802 -0.057,-0.806 -0.14,-0.982 -0.218,-1.146 -0.306,-1.328 -0.417,-1.333 -0.523,-1.337 -0.634,-1.342 -0.4,-0.859 -0.201,-0.434 0,0 M 0.222,-0.209 C 0.165,-0.333 0.11,-0.452 0.052,-0.576 c 0.256,0.009 0.489,0.017 0.746,0.027 0.105,0.004 0.155,0.021 0.198,0.11 0.025,0.053 0.048,0.104 0.073,0.158 0.039,0.088 0.003,0.1 -0.102,0.097 C 0.715,-0.193 0.474,-0.201 0.222,-0.209" /></g><g
         transform="translate(493.9335,567.4006)"
         id="g942"><path
           inkscape:connector-curvature="0"
           id="path944"
           style="fill:#898a8e;fill-opacity:1;fill-rule:nonzero;stroke:none"
           d="m 0,0 c 0.076,0.001 0.148,0.002 0.224,0.003 0.218,-0.25 0.687,-0.84 0.711,-0.896 0.049,0.116 0.323,0.685 0.431,0.913 0.1,0.002 0.196,0.003 0.296,0.005 C 1.457,-0.41 1.251,-0.828 1.009,-1.3 0.933,-1.301 0.86,-1.302 0.784,-1.304 0.575,-1.018 0.114,-0.423 0.095,-0.382 0.055,-0.486 -0.231,-1.067 -0.363,-1.324 -0.463,-1.326 -0.56,-1.327 -0.66,-1.329 -0.416,-0.853 -0.209,-0.433 0,0" /></g><g
         transform="translate(497.5717,567.4176)"
         id="g946"><path
           inkscape:connector-curvature="0"
           id="path948"
           style="fill:#898a8e;fill-opacity:1;fill-rule:nonzero;stroke:none"
           d="M 0,0 C 0.089,-0.002 0.173,-0.004 0.262,-0.006 0.356,-0.277 0.435,-0.53 0.514,-0.813 0.881,-0.541 1.21,-0.297 1.565,-0.034 1.653,-0.036 1.738,-0.038 1.826,-0.04 1.605,-0.483 1.384,-0.901 1.128,-1.368 1.027,-1.365 0.93,-1.363 0.829,-1.361 0.987,-1.072 1.31,-0.462 1.355,-0.391 1.293,-0.451 0.63,-0.955 0.324,-1.184 0.302,-1.183 0.281,-1.183 0.259,-1.183 0.206,-0.944 0.152,-0.73 0.09,-0.498 0.078,-0.456 0.072,-0.414 0.075,-0.362 0.053,-0.417 -0.27,-1.042 -0.427,-1.332 -0.515,-1.33 -0.6,-1.328 -0.688,-1.326 -0.435,-0.856 -0.217,-0.439 0,0" /></g><g
         transform="translate(500.1127,567.3519)"
         id="g950"><path
           inkscape:connector-curvature="0"
           id="path952"
           style="fill:#898a8e;fill-opacity:1;fill-rule:nonzero;stroke:none"
           d="M 0,0 C 0.11,-0.004 0.214,-0.007 0.325,-0.011 0.089,-0.456 -0.142,-0.874 -0.41,-1.341 -0.519,-1.336 -0.623,-1.333 -0.731,-1.329 -0.464,-0.862 -0.233,-0.445 0,0" /></g><g
         transform="translate(501.3451,567.0663)"
         id="g954"><path
           inkscape:connector-curvature="0"
           id="path956"
           style="fill:#898a8e;fill-opacity:1;fill-rule:nonzero;stroke:none"
           d="m 0,0 c -0.161,-0.286 -0.314,-0.55 -0.488,-0.843 0.297,-0.015 0.568,-0.028 0.865,-0.043 0.058,0.098 0.127,0.222 0.127,0.222 L 0.831,-0.678 C 0.799,-0.731 0.769,-0.782 0.736,-0.836 0.577,-1.095 0.468,-1.148 0.202,-1.138 c -0.278,0.013 -0.543,0.026 -0.82,0.04 -0.266,0.016 -0.303,0.074 -0.152,0.336 0.14,0.237 0.271,0.464 0.405,0.701 0.146,0.253 0.247,0.303 0.517,0.293 C 0.437,0.219 0.697,0.207 0.983,0.193 1.253,0.178 1.296,0.123 1.151,-0.133 1.126,-0.176 1.082,-0.25 1.058,-0.292 l -0.325,0.009 c 0.049,0.085 0.091,0.156 0.139,0.242 C 0.577,-0.028 0.295,-0.014 0,0" /></g><g
         transform="translate(503.3794,567.2062)"
         id="g958"><path
           inkscape:connector-curvature="0"
           id="path960"
           style="fill:#898a8e;fill-opacity:1;fill-rule:nonzero;stroke:none"
           d="M 0,0 C 0.109,-0.007 0.213,-0.013 0.322,-0.02 0.217,-0.194 0.115,-0.36 0.007,-0.533 c 0.337,-0.022 0.661,-0.043 0.999,-0.065 0.11,0.174 0.215,0.34 0.323,0.514 0.11,-0.007 0.215,-0.014 0.325,-0.021 -0.284,-0.454 -0.555,-0.872 -0.86,-1.335 -0.109,0.007 -0.211,0.014 -0.319,0.021 0.13,0.199 0.248,0.38 0.375,0.578 -0.337,0.022 -0.659,0.043 -0.995,0.065 -0.124,-0.195 -0.243,-0.382 -0.369,-0.577 -0.107,0.007 -0.209,0.013 -0.316,0.021 0.289,0.45 0.559,0.881 0.83,1.332" /></g><g
         transform="translate(505.7735,567.0396)"
         id="g962"><path
           inkscape:connector-curvature="0"
           id="path964"
           style="fill:#898a8e;fill-opacity:1;fill-rule:nonzero;stroke:none"
           d="M 0,0 C 0.108,-0.009 0.211,-0.018 0.319,-0.027 0.012,-0.482 -0.277,-0.899 -0.601,-1.36 -0.706,-1.351 -0.807,-1.343 -0.913,-1.333 -0.591,-0.872 -0.304,-0.454 0,0" /></g><g
         transform="translate(506.9395,566.6919)"
         id="g966"><path
           inkscape:connector-curvature="0"
           id="path968"
           style="fill:#898a8e;fill-opacity:1;fill-rule:nonzero;stroke:none"
           d="m 0,0 c -0.207,-0.288 -0.407,-0.563 -0.616,-0.85 0.324,-0.035 0.633,-0.068 0.957,-0.102 0.075,0.101 0.147,0.198 0.223,0.3 -0.173,0.018 -0.33,0.034 -0.503,0.053 0.057,0.077 0.111,0.151 0.168,0.229 C 0.502,-0.399 0.762,-0.426 1.034,-0.455 0.917,-0.612 0.805,-0.762 0.688,-0.919 0.491,-1.178 0.379,-1.227 0.124,-1.202 c -0.306,0.032 -0.599,0.064 -0.905,0.096 -0.254,0.03 -0.282,0.091 -0.095,0.354 0.174,0.239 0.339,0.467 0.51,0.707 0.187,0.257 0.297,0.305 0.558,0.281 C 0.51,0.203 0.8,0.173 1.118,0.14 1.37,0.111 1.408,0.052 1.226,-0.198 L 1.151,-0.291 0.86,-0.252 c 0.038,0.051 0.074,0.099 0.111,0.151 C 0.638,-0.066 0.334,-0.035 0,0" /></g><g
         transform="translate(509.4623,566.6464)"
         id="g970"><path
           inkscape:connector-curvature="0"
           id="path972"
           style="fill:#898a8e;fill-opacity:1;fill-rule:nonzero;stroke:none"
           d="M 0,0 C 0.1,-0.014 0.195,-0.028 0.295,-0.041 0.206,-0.535 0.117,-0.987 0.018,-1.483 c -0.114,0.016 -0.222,0.032 -0.336,0.048 0.024,0.107 0.046,0.209 0.069,0.315 -0.276,0.04 -0.541,0.078 -0.817,0.117 -0.125,-0.092 -0.244,-0.18 -0.369,-0.271 -0.101,0.014 -0.198,0.028 -0.299,0.042 C -1.143,-0.807 -0.602,-0.422 0,0 m -0.191,-0.861 c 0.045,0.197 0.089,0.386 0.133,0.583 -0.241,-0.172 -0.461,-0.329 -0.7,-0.502 0.195,-0.028 0.373,-0.053 0.567,-0.081" /></g><g
         transform="translate(510.9227,566.42)"
         id="g974"><path
           inkscape:connector-curvature="0"
           id="path976"
           style="fill:#898a8e;fill-opacity:1;fill-rule:nonzero;stroke:none"
           d="m 0,0 c 0.069,-0.013 0.134,-0.025 0.203,-0.038 0.095,-0.325 0.247,-1.088 0.248,-1.152 0.083,0.115 0.588,0.724 0.78,0.959 0.09,-0.016 0.176,-0.032 0.265,-0.05 -0.372,-0.454 -0.705,-0.868 -1.064,-1.323 -0.067,0.013 -0.13,0.025 -0.197,0.038 -0.092,0.341 -0.248,1.132 -0.251,1.181 -0.073,-0.108 -0.568,-0.746 -0.755,-0.988 -0.089,0.017 -0.173,0.032 -0.262,0.049 C -0.682,-0.868 -0.359,-0.454 0,0" /></g><path
         d="m 478.5981,566.4144 -0.31,-0.041 c -8.424,-1.108 -15.295,-2.921 -15.295,-2.921 0,0 3.165,-0.962 4.063,-1.311 l -6.056,-12.936 -4.025,-3.443 c 0,0 6.465,0.971 10.954,3.054 4.857,2.254 7.549,8.925 7.796,10.431 l 0.063,0.381 -0.996,-0.226 c 3.829,3.499 3.806,7.012 3.806,7.012 m -8.38,-4.612 c 0.508,0.172 1.864,0.538 2.638,0.744 -0.924,-1.551 -3,-3.106 -4.129,-3.879 l 1.491,3.135 z m -3.316,-7.187 c 0.593,0.201 2.073,0.676 2.884,0.936 -1.087,-2.176 -3.105,-3.18 -4.072,-3.552 l 1.188,2.616 z"
         style="fill:#9b844a;fill-opacity:1;fill-rule:nonzero;stroke:none"
         id="path980"
         inkscape:connector-curvature="0" /><path
         d="m 490.9051,564.9227 -0.753,-0.032 c -1.64,-0.071 -2.874,-0.229 -3.957,-0.794 -1.178,-0.614 -2.103,-1.697 -2.913,-3.407 -0.671,-1.417 -0.709,-2.868 -0.098,-3.698 0.335,-0.456 0.832,-0.663 1.399,-0.583 2.343,0.331 3.616,2.73 4.642,5.273 l 0.017,0.041 0.002,0.043 c 0.002,0.041 -0.068,0.84 -0.285,1.596 l 1.946,1.561 z m -4.358,-3.09 c -0.344,-1.2 -1.265,-2.304 -1.83,-2.763 0.028,0.349 0.179,0.906 0.419,1.392 0.332,0.67 0.952,1.434 1.346,1.795 0.033,-0.139 0.056,-0.3 0.065,-0.424"
         style="fill:#9b844a;fill-opacity:1;fill-rule:nonzero;stroke:none"
         id="path984"
         inkscape:connector-curvature="0" /><path
         d="m 498.3165,565.0917 c 0,0 -2.649,0.043 -3.889,-0.308 l -1.003,-2.084 -0.034,1.358 0.88,0.944 c 0,0 -2.074,-0.135 -3.062,-0.404 l -3.382,-7.179 c 1.349,0.32 4.271,0.895 4.271,0.895 l -0.782,0.955 0.634,1.371 0.609,-2.23 c 0.789,0.133 2.94,0.421 2.94,0.421 l -0.727,1.328 1.692,3.662 c 0.55,0.514 1.853,1.271 1.853,1.271"
         style="fill:#9b844a;fill-opacity:1;fill-rule:nonzero;stroke:none"
         id="path988"
         inkscape:connector-curvature="0" /><g
         transform="translate(475.4693,559.2899)"
         id="g990"><path
           inkscape:connector-curvature="0"
           id="path992"
           style="fill:#ffffff;fill-opacity:1;fill-rule:nonzero;stroke:none"
           d="m 0,0 c -0.211,-1.286 -2.78,-7.996 -7.649,-10.238 -4.429,-2.039 -9.984,-2.894 -9.984,-2.894 l 3.375,2.887 6.195,13.232 c -0.656,0.305 -3.425,1.146 -3.425,1.146 2.605,0.628 7.163,1.734 14.342,2.693 0,0 -0.455,-3.793 -4.509,-7.203 L 0,0 z m -2.117,3.656 c 0,0 -2.735,-0.715 -3.322,-0.934 l -1.934,-4.069 c 0,0 4.227,2.569 5.256,5.003 m -3.09,-6.971 c 0,0 -2.847,-0.907 -3.55,-1.15 l -1.481,-3.26 c 0,0 3.641,0.9 5.031,4.41" /></g><path
         d="m 483.3936,562.4137 c 0.211,0.317 1.05,1.25 1.368,1.595 l 0.492,0.536 -0.699,-0.099 c -3.605,-0.515 -6.284,-1.623 -6.31,-1.634 l -0.09,-0.037 -0.041,-0.093 -3.959,-8.877 -0.023,-0.012 c 0,0 -0.036,-0.085 -0.036,-0.085 l -0.383,-0.893 -0.296,-0.692 0.632,0.357 c 2.068,1.168 4.341,2.092 4.364,2.102 l 0.328,0.133 -0.232,0.279 -0.641,0.768 0.595,1.389 0.667,0.269 0.469,-2.115 0.064,-0.287 0.26,0.105 c 0.972,0.393 2.69,1.004 2.707,1.01 l 0.369,0.131 -0.272,0.294 c -0.429,0.465 -0.753,0.747 -0.885,0.856 l -0.349,1.427 c 1.3,0.949 1.814,3.204 1.901,3.573 m -3.671,-1.01 0.909,0.377 c -0.132,-0.266 -0.291,-0.561 -0.433,-0.741 l -0.008,-0.011 -0.008,-0.011 c -0.257,-0.409 -0.574,-0.667 -1.108,-0.992 l 0.648,1.378 z"
         style="fill:#9b844a;fill-opacity:1;fill-rule:nonzero;stroke:none"
         id="path996"
         inkscape:connector-curvature="0" /><g
         transform="translate(473.9345,552.7078)"
         id="g998"><path
           inkscape:connector-curvature="0"
           id="path1000"
           style="fill:#ffffff;fill-opacity:1;fill-rule:nonzero;stroke:none"
           d="m 0,0 4.399,9.864 c 0,0 2.636,1.101 6.253,1.618 0,0 -1.209,-1.285 -1.428,-1.649 0,0 -0.525,-2.674 -1.954,-3.588 L 7.698,4.551 c 0,0 0.374,-0.289 0.92,-0.881 0,0 -1.729,-0.614 -2.717,-1.014 L 5.369,5.058 4.348,4.647 3.646,3.009 4.391,2.115 C 4.391,2.115 2.106,1.189 0,0 M 6.451,8.166 C 6.784,8.59 7.189,9.554 7.189,9.554 L 5.614,8.901 4.582,6.735 c 0.716,0.332 1.411,0.704 1.869,1.431" /></g><path
         d="m 478.2822,557.3545 1.021,0.412 -0.118,0.528 -1.419,-0.591 -0.872,-2.014 0.466,-0.614 c 0,0 -1.436,-0.645 -3.043,-1.474 l -0.383,-0.894 c 2.106,1.19 4.392,2.115 4.392,2.115 l -0.745,0.894 0.701,1.638 z"
         style="fill:#7d4808;fill-opacity:1;fill-rule:nonzero;stroke:none"
         id="path1004"
         inkscape:connector-curvature="0" /><g
         transform="translate(490.1637,564.6309)"
         id="g1006"><path
           inkscape:connector-curvature="0"
           id="path1008"
           style="fill:#ffffff;fill-opacity:1;fill-rule:nonzero;stroke:none"
           d="m 0,0 c -3.057,-0.132 -4.991,-0.555 -6.647,-4.053 -1.025,-2.164 -0.392,-4.114 1.03,-3.913 1.975,0.28 3.229,2.119 4.438,5.114 0,0 -0.063,0.887 -0.337,1.635 L 0,0 z m -3.354,-2.827 c -0.429,-1.559 -1.701,-2.906 -2.281,-3.183 -0.209,0.325 0.061,1.321 0.375,1.956 0.421,0.85 1.311,1.885 1.693,2.092 0.177,-0.246 0.213,-0.865 0.213,-0.865" /></g><path
         d="m 490.1637,564.6309 c -0.265,-0.011 -1.705,-0.795 -2.139,-1.079 0.274,-0.748 0.377,-1.654 0.377,-1.654 -0.412,-1.236 -1.095,-2.593 -2.007,-3.516 -1.15,-1.164 -2.731,-1.708 -3.258,-0.72 0.425,-1.337 1.638,-1.188 2.777,-0.512 1.14,0.677 2.318,2.353 3.071,4.629 0,0 -0.063,0.887 -0.337,1.635 l 1.516,1.217 z"
         style="fill:#7d4808;fill-opacity:1;fill-rule:nonzero;stroke:none"
         id="path1012"
         inkscape:connector-curvature="0" /><g
         transform="translate(488.2778,557.7944)"
         id="g1014"><path
           inkscape:connector-curvature="0"
           id="path1016"
           style="fill:#ffffff;fill-opacity:1;fill-rule:nonzero;stroke:none"
           d="m 0,0 3.109,6.595 c 0,0 0.743,0.159 2.256,0.307 L 4.86,6.36 4.957,3.935 6.326,6.781 c 0,0 1.247,0.226 2.804,0.245 C 8.544,6.743 7.98,6.177 7.98,6.177 L 6.216,2.359 6.823,1.25 c 0,0 -1.463,-0.141 -2.367,-0.339 L 3.731,3.567 2.747,1.44 3.356,0.697 C 3.356,0.697 1.513,0.391 0,0" /></g><path
         d="m 492.0084,561.3612 -0.233,0.824 -1.344,-2.829 0.359,-0.514 c 0,0 -1,-0.178 -2.25,-0.475 l -0.263,-0.573 c 1.513,0.391 3.357,0.697 3.357,0.697 l -0.609,0.743 0.983,2.127 z"
         style="fill:#7d4808;fill-opacity:1;fill-rule:nonzero;stroke:none"
         id="path1020"
         inkscape:connector-curvature="0" /><path
         d="m 492.5957,564.2266 0.639,-2.497 -0.097,2.425 0.505,0.542 c -0.409,-0.156 -1.047,-0.47 -1.047,-0.47"
         style="fill:#7d4808;fill-opacity:1;fill-rule:nonzero;stroke:none"
         id="path1024"
         inkscape:connector-curvature="0" /><path
         d="m 495.749,564.2074 -1.902,-4.043 0.413,-0.68 c 0,0 -0.813,-0.141 -1.667,-0.285 l 0.14,-0.494 c 0.905,0.198 2.368,0.339 2.368,0.339 l -0.607,1.109 1.764,3.818 c 0,0 0.564,0.566 1.15,0.849 -0.33,0.013 -1.659,-0.613 -1.659,-0.613"
         style="fill:#7d4808;fill-opacity:1;fill-rule:nonzero;stroke:none"
         id="path1028"
         inkscape:connector-curvature="0" /><path
         d="m 511.5032,564.0796 -0.48,0.125 c -1.813,0.473 -3.524,0.92 -4.513,-0.676 -0.225,-0.364 -0.296,-0.678 -0.217,-0.962 0.123,-0.44 0.579,-0.665 0.945,-0.846 0.36,-0.178 0.442,-0.273 0.415,-0.421 -0.09,-0.493 -1.389,-0.481 -1.933,-0.372 l -0.132,0.02 c 0,0 -0.071,-0.115 -0.071,-0.115 l -0.617,-1 c -10e-4,-0.002 -0.254,-0.42 -0.254,-0.42 l -0.164,-0.27 0.307,-0.05 c 0.04,-0.006 0.997,-0.157 2.231,-0.03 0.866,0.089 1.925,0.334 2.428,1.452 0.304,0.675 0.002,1.344 -0.432,1.707 l -0.002,-0.002 c -0.22,0.238 -0.529,0.38 -0.781,0.494 -0.092,0.042 -0.186,0.085 -0.261,0.127 0.336,0.241 1.186,-0.039 1.737,-0.347 l 0.184,-0.102 0.519,1.02 1.091,0.668 z"
         style="fill:#9b844a;fill-opacity:1;fill-rule:nonzero;stroke:none"
         id="path1032"
         inkscape:connector-curvature="0" /><path
         d="m 508.8871,562.0583 c 0.133,-0.221 0.314,-0.639 0.114,-1.046 -0.434,-0.882 -1.196,-1.114 -2.09,-1.198 -0.683,-0.064 -1.386,-0.095 -1.838,-0.095 l -0.252,-0.418 c 0,0 0.956,-0.154 2.178,-0.029 0.893,0.092 1.816,0.34 2.263,1.331 0.285,0.634 -0.068,1.198 -0.375,1.455"
         style="fill:#7d4808;fill-opacity:1;fill-rule:nonzero;stroke:none"
         id="path1036"
         inkscape:connector-curvature="0" /><path
         d="m 481.2045,558.9523 c 1.432,0.876 1.963,3.581 1.963,3.581 0.219,0.363 1.42,1.656 1.42,1.656 0,0 -1.404,-0.929 -1.923,-1.411 0,0 -0.369,-2.623 -2.124,-3.777 l 0.545,-1.956 0.533,-0.395 c 0,0 -1.517,-0.539 -1.915,-0.689 l 0.132,-0.597 c 0.988,0.4 2.717,1.013 2.717,1.013 -0.546,0.593 -0.92,0.881 -0.92,0.881 l -0.428,1.694 z"
         style="fill:#7d4808;fill-opacity:1;fill-rule:nonzero;stroke:none"
         id="path1040"
         inkscape:connector-curvature="0" /><path
         d="m 509.893,563.8284 -0.33,-0.545 c -0.583,0.326 -1.534,0.284 -1.842,-0.053 -0.298,-0.326 -0.048,-0.571 -0.043,-0.541 -0.015,0.055 -0.004,0.115 0.043,0.186 0.366,0.551 1.503,0.13 2.086,-0.196 l 0.45,0.883 0.716,0.438 c -0.252,0.066 -1.08,-0.172 -1.08,-0.172"
         style="fill:#7d4808;fill-opacity:1;fill-rule:nonzero;stroke:none"
         id="path1044"
         inkscape:connector-curvature="0" /><path
         d="m 478.3228,566.1158 c -0.361,-0.048 -0.434,-0.026 -0.782,-0.077 -0.044,-0.415 -1.248,-4.961 -6.069,-8.316 0.848,0.196 1.852,0.408 2.903,0.615 -0.906,-2.375 -3.492,-6.975 -7.206,-8.685 -2.89,-1.331 -6.259,-2.157 -8.252,-2.571 l -1.08,-0.924 c 0,0 5.554,0.855 9.983,2.895 4.869,2.241 7.438,8.951 7.649,10.237 l -1.654,-0.376 c 4.001,3.15 4.508,7.202 4.508,7.202"
         style="fill:#7d4808;fill-opacity:1;fill-rule:nonzero;stroke:none"
         id="path1048"
         inkscape:connector-curvature="0" /><g
         transform="translate(469.8328,580.5323)"
         id="g1050"><path
           inkscape:connector-curvature="0"
           id="path1052"
           style="fill:#898a8e;fill-opacity:1;fill-rule:evenodd;stroke:none"
           d="m 0,0 c -0.036,-0.261 -0.277,-0.463 -0.561,-0.468 -0.172,0.001 -0.309,0.076 -0.389,0.196 -0.167,-0.108 -0.317,-0.205 -0.456,-0.297 0.168,-0.238 0.443,-0.386 0.789,-0.388 0.579,0.01 1.071,0.423 1.147,0.958 C 0.554,0.211 0.508,0.395 0.407,0.554 0.248,0.464 0.093,0.373 -0.068,0.277 -0.014,0.198 0.012,0.106 0,0" /></g><g
         transform="translate(469.272,580.064)"
         id="g1054"><path
           inkscape:connector-curvature="0"
           id="path1056"
           style="fill:#ffffff;fill-opacity:1;fill-rule:evenodd;stroke:none"
           d="M 0,0 C 0.284,0.005 0.525,0.207 0.561,0.468 0.573,0.574 0.547,0.666 0.493,0.745 0.182,0.558 -0.112,0.374 -0.39,0.196 -0.309,0.076 -0.173,0.001 0,0" /></g><g
         transform="translate(494.9137,584.4179)"
         id="g1058"><path
           inkscape:connector-curvature="0"
           id="path1060"
           style="fill:#ffffff;fill-opacity:1;fill-rule:evenodd;stroke:none"
           d="m 0,0 c -3.967,0.547 -6.718,-0.52 -6.718,-0.52 0.295,-0.099 0.648,-0.276 0.856,-0.364 4.27,1.057 7.437,0.086 8.798,-0.571 1.124,-0.542 2.939,-1.64 5.147,-1.46 C 5.356,-2.444 2.833,-0.39 0,0" /></g><g
         transform="translate(502.2017,579.6239)"
         id="g1062"><path
           inkscape:connector-curvature="0"
           id="path1064"
           style="fill:#ffffff;fill-opacity:1;fill-rule:evenodd;stroke:none"
           d="M 0,0 C -5.021,2.297 -8.444,1.246 -8.444,1.246 -8.028,0.969 -7.648,0.658 -7.648,0.658 -4.395,1.107 -0.554,0.104 3.218,-2.665 4.224,-3.403 5.952,-4.568 7.819,-4.99 5.087,-3.841 3.253,-1.488 0,0" /></g><g
         transform="translate(505.0393,574.2948)"
         id="g1066"><path
           inkscape:connector-curvature="0"
           id="path1068"
           style="fill:#ffffff;fill-opacity:1;fill-rule:evenodd;stroke:none"
           d="M 0,0 C -4.205,2.803 -5.9,1.955 -5.9,1.955 -5.542,1.608 -5.26,1.367 -5.26,1.367 0.381,1.246 3.945,-5.606 6.529,-6.482 4.049,-4.86 2.976,-1.984 0,0" /></g><g
         transform="translate(478.2978,581.591)"
         id="g1070"><path
           inkscape:connector-curvature="0"
           id="path1072"
           style="fill:#ffffff;fill-opacity:1;fill-rule:evenodd;stroke:none"
           d="M 0,0 C 0,0 -0.575,-0.059 -0.877,-0.134 0.414,-1.97 0.101,-5.77 -2.138,-6.99 c 0.341,0.117 0.667,0.268 0.964,0.457 C 1.417,-5.219 0.638,-0.719 0,0" /></g><path
         d="m 467.4267,584.6569 c 0.347,0.839 0.854,1.528 1.468,2.087 -2.681,-0.434 -1.495,-2.072 -1.495,-2.072 l 0.027,-0.015 z"
         style="fill:#9b844a;fill-opacity:1;fill-rule:nonzero;stroke:none"
         id="path1076"
         inkscape:connector-curvature="0" /><path
         d="m 507.1289,564.7576 c 0,0 -2.621,0.253 -3.608,-0.19 -0.881,-0.396 -1.714,-1.261 -2.305,-2.492 -0.49,-1.019 -0.518,-2.064 -0.073,-2.661 0.244,-0.329 0.655,-0.491 1.071,-0.472 2.256,0.107 3.504,3.966 3.504,3.966 0,0 -0.059,0.427 -0.192,0.891 l 1.603,0.958 z m -3.525,-1.918 c -0.235,-0.804 -0.861,-1.545 -1.246,-1.853 0.02,0.234 0.123,0.608 0.286,0.934 0.226,0.449 0.647,0.962 0.915,1.204 0.022,-0.093 0.038,-0.201 0.045,-0.285"
         style="fill:#9b844a;fill-opacity:1;fill-rule:nonzero;stroke:none"
         id="path1080"
         inkscape:connector-curvature="0" /><g
         transform="translate(506.4411,564.5947)"
         id="g1082"><path
           inkscape:connector-curvature="0"
           id="path1084"
           style="fill:#ffffff;fill-opacity:1;fill-rule:nonzero;stroke:none"
           d="m 0,0 c -2.314,0.092 -3.794,-0.083 -5.003,-2.599 -0.747,-1.557 -0.287,-2.961 0.75,-2.817 1.44,0.201 2.355,1.523 3.237,3.679 0,0 -0.032,0.534 -0.231,1.072 L 0,0 z m -2.601,-1.719 c -0.314,-1.121 -1.241,-2.091 -1.664,-2.29 -0.153,0.235 0.044,0.951 0.274,1.408 0.307,0.611 0.956,1.356 1.235,1.505 0.129,-0.177 0.155,-0.623 0.155,-0.623" /></g><path
         d="m 506.4411,564.5947 c -0.193,-0.008 -1.398,-0.257 -1.715,-0.461 0.199,-0.538 0.275,-1.191 0.275,-1.191 -0.301,-0.889 -0.8,-1.865 -1.466,-2.529 -0.838,-0.837 -1.991,-1.228 -2.375,-0.517 0.309,-0.962 1.194,-0.856 2.024,-0.37 0.832,0.487 1.691,1.693 2.241,3.331 0,0 -0.032,0.534 -0.231,1.072 l 1.247,0.665 z"
         style="fill:#7d4808;fill-opacity:1;fill-rule:nonzero;stroke:none"
         id="path1088"
         inkscape:connector-curvature="0" /><path
         d="m 498.2946,561.6038 c -0.221,-0.298 -0.556,-0.542 -0.739,-0.695 0.012,0.254 0.111,0.664 0.281,1.023 0.234,0.496 0.753,1.08 1.045,1.354 0.029,-0.1 0.09,-0.226 0.101,-0.315 -0.053,-0.205 -0.131,-0.406 -0.223,-0.599 l 2.265,0.09 c 0.158,0.406 0.237,0.676 0.237,0.676 0,0 -0.123,0.543 -0.27,1.073 l 1.885,1.044 c 0,0 -3.075,0.103 -4.169,-0.421 -0.977,-0.467 -1.879,-1.44 -2.491,-2.798 -0.506,-1.124 -0.492,-2.255 0.037,-2.882 0.291,-0.345 0.762,-0.502 1.231,-0.463 1.552,0.132 2.617,1.76 3.211,3.009 l -2.401,-0.096 z"
         style="fill:#9b844a;fill-opacity:1;fill-rule:nonzero;stroke:none"
         id="path1092"
         inkscape:connector-curvature="0" /><g
         transform="translate(498.3864,561.3262)"
         id="g1094"><path
           inkscape:connector-curvature="0"
           id="path1096"
           style="fill:#ffffff;fill-opacity:1;fill-rule:nonzero;stroke:none"
           d="m 0,0 c -0.337,-0.431 -0.792,-0.746 -1.019,-0.859 -0.183,0.247 0.008,1.031 0.246,1.535 0.32,0.676 1.085,1.52 1.393,1.694 C 0.774,2.184 0.862,1.694 0.862,1.694 0.832,1.575 0.796,1.457 0.755,1.342 l 1.663,0.067 c 0.043,0.109 0.087,0.22 0.13,0.334 0,0 -0.081,0.688 -0.33,1.261 L 3.616,3.667 C 0.999,3.664 -0.663,3.41 -1.914,0.633 c -0.775,-1.717 -0.192,-3.216 0.972,-3.014 1.194,0.208 2.037,1.065 2.758,2.454 L 0,0 z" /></g><path
         d="m 500.3069,562.7156 0.52,0.02 c 0.037,0.109 0.073,0.22 0.107,0.333 0,0 -0.081,0.688 -0.33,1.262 l 1.399,0.663 c -0.218,-0.018 -1.568,-0.34 -1.916,-0.575 0.249,-0.574 0.364,-1.276 0.364,-1.276 -0.043,-0.141 -0.092,-0.283 -0.144,-0.427"
         style="fill:#7d4808;fill-opacity:1;fill-rule:nonzero;stroke:none"
         id="path1100"
         inkscape:connector-curvature="0" /><path
         d="m 499.6826,561.379 c -0.224,-0.381 -0.481,-0.736 -0.772,-1.038 -0.909,-0.943 -2.193,-1.417 -2.659,-0.665 0.393,-1.027 1.387,-0.872 2.302,-0.31 0.604,0.372 1.208,1.081 1.706,2.035 l -0.577,-0.022 z"
         style="fill:#7d4808;fill-opacity:1;fill-rule:nonzero;stroke:none"
         id="path1104"
         inkscape:connector-curvature="0" /><g
         transform="translate(507.6761,563.1094)"
         id="g1106"><path
           inkscape:connector-curvature="0"
           id="path1108"
           style="fill:#ffffff;fill-opacity:1;fill-rule:nonzero;stroke:none"
           d="M 0,0 C 0.325,0.578 1.269,0.405 1.852,0.079 L 2.214,0.714 3.296,0.891 C 1.389,1.389 -0.104,1.74 -0.993,0.305 -1.93,-1.208 0.409,-1.128 0.198,-1.851 -0.071,-2.771 -1.985,-2.39 -1.985,-2.39 l -0.618,-1 c 2.206,-0.221 3.622,0.294 3.945,1.294 C 1.874,-0.449 -0.408,-0.725 0,0" /></g><g
         transform="translate(487.3258,586.7656)"
         id="g1110"><path
           inkscape:connector-curvature="0"
           id="path1112"
           style="fill:#ffffff;fill-opacity:1;fill-rule:nonzero;stroke:none"
           d="M 0,0 C 3,0.145 5.416,-1.748 8.459,-0.724 5.321,-1.142 3.052,0.716 0.052,0.571 -2.603,0.443 -4.186,-0.021 -6.402,-0.951 -6.18,-0.972 -5.824,-1.033 -5.43,-1.11 -3.702,-0.452 -2.229,-0.107 0,0" /></g></g></g></svg>