<?xml version="1.0" encoding="UTF-8" standalone="no"?>
<!-- Created with Inkscape (http://www.inkscape.org/) -->

<svg
   xmlns:dc="http://purl.org/dc/elements/1.1/"
   xmlns:cc="http://creativecommons.org/ns#"
   xmlns:rdf="http://www.w3.org/1999/02/22-rdf-syntax-ns#"
   xmlns:svg="http://www.w3.org/2000/svg"
   xmlns="http://www.w3.org/2000/svg"
   xmlns:sodipodi="http://sodipodi.sourceforge.net/DTD/sodipodi-0.dtd"
   xmlns:inkscape="http://www.inkscape.org/namespaces/inkscape"
   version="1.0"
   width="400"
   height="380"
   id="svg7894"
   inkscape:version="0.48.1 "
   sodipodi:docname="University_of_Wisconsin_Waving_W.svg">
  <metadata
     id="metadata3005">
    <rdf:RDF>
      <cc:Work
         rdf:about="">
        <dc:format>image/svg+xml</dc:format>
        <dc:type
           rdf:resource="http://purl.org/dc/dcmitype/StillImage" />
      </cc:Work>
    </rdf:RDF>
  </metadata>
  <sodipodi:namedview
     pagecolor="#ffffff"
     bordercolor="#666666"
     borderopacity="1"
     objecttolerance="10"
     gridtolerance="10"
     guidetolerance="10"
     inkscape:pageopacity="0"
     inkscape:pageshadow="2"
     inkscape:window-width="1680"
     inkscape:window-height="994"
     id="namedview3003"
     showgrid="false"
     inkscape:zoom="0.69210526"
     inkscape:cx="200"
     inkscape:cy="190"
     inkscape:window-x="-4"
     inkscape:window-y="-4"
     inkscape:window-maximized="1"
     inkscape:current-layer="svg7894" />
  <defs
     id="defs7896" />
  <path
     inkscape:connector-curvature="0"
     style="fill:#000000;fill-opacity:1;fill-rule:evenodd;stroke:none"
     id="path69"
     d="m 251.23388,305.8464 c -29.85594,-1.07637 -45.4755,2.46763 -45.4755,2.46763 l -20.09358,-85.42877 -19.32352,91.46756 c -36.07177,10.86539 -65.8432,27.38026 -89.31228,65.62641 L 25.14804,226.64554 c -1.8394,-5.8049 -3.5254,-8.93042 -8.69654,-10.57618 C 9.36953,213.81601 0,219.59526 0,219.59526 L 11.28186,115.24737 c 0,0 19.61676,-19.15603 46.06248,-35.48781 C 87.54431,61.11004 123.6196,49.44239 123.6196,49.44239 l -10.81107,107.92962 c 0,0 -5.28733,1.2157 -9.282,10.03145 -2.23877,4.93826 -2.33233,14.83944 -0.94058,20.94512 l 15.15783,68.61413 22.79761,-94.94718 c 1.88014,-8.04669 3.52539,-12.9256 0,-17.86135 -3.49974,-4.89954 -7.52158,-4.11489 -7.52158,-4.11489 l 11.28186,-98.82265 c 0,0 21.73883,-7.76803 47.23794,-13.82141 28.65834,-6.80231 55.11161,-10.11343 55.11161,-10.11343 l -11.28035,106.80093 c 0,0 -5.23251,0.41496 -8.22625,7.06285 -2.46712,5.47897 -2.61047,14.62467 -1.17496,20.36419 l 14.92344,68.55527 23.50228,-83.43093 c 2.00789,-6.45928 2.56268,-12.09769 0.23438,-16.4515 -2.34992,-4.39504 -8.46064,-4.23006 -8.46064,-4.23006 L 266.50991,16.5399 c 0,0 27.73536,-3.60838 59.46037,-4.93525 39.71738,-1.66134 61.57441,0 61.57441,0 l -10.57668,92.59726 c 0,0 -5.87431,8.40682 -10.57517,11.83765 -6.61521,4.82912 -9.16582,18.13598 -9.16582,18.13598 l -54.99391,179.42633 c 0,0 -24.91213,-6.81539 -50.99923,-7.75547 z" />
  <path
     inkscape:connector-curvature="0"
     style="fill:#b70101;fill-opacity:1;fill-rule:evenodd;stroke:none"
     id="path71"
     d="m 251.11719,296.09361 c -23.6225,-1.22476 -38.66062,0.82237 -38.66062,0.82237 l -16.45099,-77.08583 -16.4515,83.66633 c -40.18766,8.69553 -76.66634,24.11189 -99.91663,58.22858 L 33.13839,218.65519 c -1.8394,-5.86023 -3.52539,-10.81107 -9.8705,-12.80841 -6.41753,-2.01997 -11.51574,1.17496 -11.51574,1.17496 L 23.85487,93.39084 c 0,0 18.79438,-16.77692 45.24111,-32.31501 30.19998,-17.74365 67.21483,-30.31716 67.21483,-30.31716 l -11.28135,110.69249 c 0,0 -5.28784,1.05827 -9.28201,9.7538 -2.23877,4.87087 -2.33232,14.76953 -0.94108,20.91646 l 15.62862,71.79799 21.50444,-86.95683 c 1.88015,-7.99035 3.22361,-10.97755 0,-17.15617 -2.82071,-5.40553 -7.75596,-5.52273 -7.75596,-5.52273 L 156.52209,25.47033 c 0,0 21.73933,-6.34561 47.23795,-11.63294 28.65883,-5.94323 55.1121,-8.46115 55.1121,-8.46115 l -11.28035,106.46343 c 0,0 -5.23251,0.25803 -8.22625,6.81539 -2.46712,5.40554 -2.61047,14.54671 -1.17496,20.32948 l 15.51142,72.73756 22.56171,-83.54913 c 2.0079,-6.39892 1.50592,-9.91225 -0.82237,-14.33596 -2.35043,-4.46546 -8.81323,-4.58266 -8.81323,-4.58266 L 278.49644,3.7315 c 0,0 29.38062,-3.26686 61.10412,-3.64259 C 379.31844,-0.38088 400,1.73366 400,1.73366 l -10.57517,103.17292 c 0,0 -6.11071,-0.47028 -10.81107,2.82022 -6.6152,4.63044 -9.16582,17.86135 -9.16582,17.86135 l -55.93448,181.08063 c 0,0 -23.85336,-8.57834 -62.39627,-10.57517 z" />
  <path
     inkscape:connector-curvature="0"
     style="fill:#000000;fill-opacity:1;fill-rule:evenodd;stroke:none"
     id="path73"
     d="m 328.66425,311.3299 c 0,-3.30861 -2.75332,-5.93869 -5.97793,-5.93869 -3.2231,0 -5.97642,2.63008 -5.97642,5.93869 0,3.30961 2.75332,5.9402 5.97642,5.9402 3.22461,0 5.97793,-2.63059 5.97793,-5.9402 z m -13.56891,0 c 0,-4.2019 3.35337,-7.55326 7.59098,-7.55326 4.23912,0 7.59149,3.35136 7.59149,7.55326 0,4.20341 -3.35237,7.55477 -7.59149,7.55477 -4.23761,0 -7.59098,-3.35136 -7.59098,-7.55477 z" />
  <path
     inkscape:connector-curvature="0"
     style="fill:#000000;fill-opacity:1;fill-rule:evenodd;stroke:none"
     id="path75"
     d="m 322.42477,310.22385 c 0.24697,0 0.54171,0.0116 0.84501,0.009 0.2862,-0.003 0.58094,-0.0166 0.84752,-0.0699 0.51204,-0.10312 0.79773,-0.31789 0.79773,-0.78164 0,-0.26708 -0.15944,-0.44463 -0.49091,-0.56686 -0.33649,-0.12524 -0.78867,-0.16296 -1.21218,-0.16296 l -1.89222,0 0,1.57232 1.10505,0 z m 4.2009,5.30594 -1.93497,0 -2.39972,-3.69188 -0.97126,0 0,3.69188 -1.61356,0 0,-8.49182 3.73061,0 c 1.44758,0 3.09333,0.40238 3.09333,2.36199 0,1.59596 -1.04519,2.26493 -2.34037,2.40928 l 2.43594,3.72055 z" />
</svg>
